G75*
%MOIN*%
%OFA0B0*%
%FSLAX24Y24*%
%IPPOS*%
%LPD*%
%AMOC8*
5,1,8,0,0,1.08239X$1,22.5*
%
%ADD10C,0.0740*%
%ADD11C,0.0520*%
%ADD12C,0.0560*%
%ADD13OC8,0.0560*%
%ADD14C,0.0840*%
%ADD15C,0.0396*%
%ADD16C,0.0120*%
%ADD17C,0.0160*%
D10*
X015559Y005463D03*
X016559Y005463D03*
X017559Y005463D03*
X017528Y007727D03*
X016528Y007727D03*
D11*
X016610Y004247D02*
X016610Y003727D01*
X017610Y003727D02*
X017610Y004247D01*
X018610Y004247D02*
X018610Y003727D01*
X019610Y003727D02*
X019610Y004247D01*
X020610Y004247D02*
X020610Y003727D01*
D12*
X020618Y001617D03*
D13*
X020618Y002617D03*
X019618Y002617D03*
X018618Y002617D03*
X017618Y002617D03*
X016618Y002617D03*
X015618Y002617D03*
X015618Y001617D03*
X016618Y001617D03*
X017618Y001617D03*
X018618Y001617D03*
X019618Y001617D03*
D14*
X013984Y003665D02*
X013984Y004505D01*
X012606Y004505D02*
X012606Y003665D01*
X011228Y003665D02*
X011228Y004505D01*
X009850Y004505D02*
X009850Y003665D01*
X008472Y003665D02*
X008472Y004505D01*
X007094Y004505D02*
X007094Y003665D01*
D15*
X006602Y006054D03*
X005815Y007432D03*
X006996Y009302D03*
X009260Y009105D03*
X009703Y007973D03*
X010933Y008810D03*
X010638Y010089D03*
X010146Y011270D03*
X010490Y013239D03*
X011278Y013288D03*
X013197Y015010D03*
X011524Y018357D03*
X011425Y021310D03*
X015756Y021310D03*
X015854Y018357D03*
X020185Y018357D03*
X018807Y013239D03*
X017035Y011270D03*
X016051Y011270D03*
X013787Y009892D03*
X013787Y008514D03*
X012508Y008514D03*
X012409Y009991D03*
X009112Y013239D03*
X007734Y013239D03*
X006356Y013239D03*
X004929Y013239D03*
X006602Y015207D03*
X006602Y018357D03*
X006898Y020621D03*
X001386Y013239D03*
X002469Y010877D03*
X004929Y011369D03*
X003551Y007038D03*
X001484Y007038D03*
X010736Y006054D03*
X015264Y006447D03*
X015559Y003987D03*
X019496Y006940D03*
X020382Y005955D03*
X020382Y008416D03*
D16*
X019102Y009203D02*
X019102Y006152D01*
X018413Y005463D01*
X017559Y005463D01*
X019102Y006152D02*
X019102Y003495D01*
X018807Y003199D01*
X018217Y003199D01*
X017634Y002617D01*
X017618Y002617D01*
X017134Y002117D02*
X016634Y002617D01*
X016618Y002617D01*
X017134Y002117D02*
X018118Y002117D01*
X018618Y001617D01*
X015559Y003987D02*
X014969Y004577D01*
X014969Y005660D01*
X015461Y006152D01*
X015953Y006152D01*
X017528Y007727D01*
X019102Y009203D02*
X017035Y011270D01*
X010933Y008810D02*
X010933Y006251D01*
X010736Y006054D01*
X010490Y013239D02*
X009112Y013239D01*
X007734Y013239D01*
X006356Y013239D01*
X004929Y013239D01*
D17*
X000685Y021715D02*
X000685Y001022D01*
X014936Y001022D01*
X013688Y002270D01*
X006456Y002270D01*
X006368Y002307D01*
X002333Y006342D01*
X002265Y006410D01*
X002229Y006498D01*
X002229Y010610D01*
X002165Y010674D01*
X002110Y010805D01*
X002110Y010948D01*
X002165Y011079D01*
X002266Y011180D01*
X002397Y011235D01*
X002540Y011235D01*
X002671Y011180D01*
X002772Y011079D01*
X002827Y010948D01*
X002827Y010805D01*
X002772Y010674D01*
X002709Y010610D01*
X002709Y006645D01*
X006603Y002750D01*
X014082Y002750D01*
X014667Y003335D01*
X014734Y003403D01*
X014822Y003439D01*
X016304Y003439D01*
X016254Y003489D01*
X016190Y003643D01*
X016190Y004330D01*
X016254Y004485D01*
X016372Y004603D01*
X016527Y004667D01*
X016694Y004667D01*
X016848Y004603D01*
X016966Y004485D01*
X017030Y004330D01*
X017030Y003643D01*
X016966Y003489D01*
X016917Y003439D01*
X017304Y003439D01*
X017254Y003489D01*
X017190Y003643D01*
X017190Y004330D01*
X017254Y004485D01*
X017372Y004603D01*
X017527Y004667D01*
X017694Y004667D01*
X017848Y004603D01*
X017966Y004485D01*
X018030Y004330D01*
X018030Y003746D01*
X018190Y003906D01*
X018190Y004330D01*
X018254Y004485D01*
X018372Y004603D01*
X018527Y004667D01*
X018694Y004667D01*
X018848Y004603D01*
X018882Y004569D01*
X018882Y005621D01*
X018505Y005243D01*
X018042Y005243D01*
X018008Y005163D01*
X017859Y005014D01*
X017664Y004933D01*
X017454Y004933D01*
X017259Y005014D01*
X017110Y005163D01*
X017059Y005285D01*
X017008Y005163D01*
X016859Y005014D01*
X016664Y004933D01*
X016454Y004933D01*
X016259Y005014D01*
X016110Y005163D01*
X016059Y005285D01*
X016008Y005163D01*
X015859Y005014D01*
X015664Y004933D01*
X015454Y004933D01*
X015259Y005014D01*
X015189Y005084D01*
X015189Y004668D01*
X015512Y004345D01*
X015630Y004345D01*
X015762Y004290D01*
X015863Y004190D01*
X015917Y004058D01*
X015917Y003916D01*
X015863Y003784D01*
X015762Y003683D01*
X015630Y003629D01*
X015488Y003629D01*
X015356Y003683D01*
X015255Y003784D01*
X015201Y003916D01*
X015201Y004034D01*
X014749Y004486D01*
X014749Y005593D01*
X014317Y005161D01*
X014229Y005125D01*
X013678Y005125D01*
X013762Y005041D01*
X013869Y005085D01*
X014100Y005085D01*
X014313Y004997D01*
X014476Y004834D01*
X014564Y004621D01*
X014564Y003550D01*
X014476Y003337D01*
X014313Y003173D01*
X014100Y003085D01*
X013869Y003085D01*
X013656Y003173D01*
X013493Y003337D01*
X013404Y003550D01*
X013404Y004621D01*
X013433Y004690D01*
X012999Y005125D01*
X009642Y005125D01*
X009697Y005070D01*
X009735Y005085D01*
X009966Y005085D01*
X010179Y004997D01*
X010342Y004834D01*
X010430Y004621D01*
X010430Y003550D01*
X010342Y003337D01*
X010179Y003173D01*
X009966Y003085D01*
X009735Y003085D01*
X009522Y003173D01*
X009359Y003337D01*
X009270Y003550D01*
X009270Y004621D01*
X009328Y004760D01*
X008964Y005125D01*
X007047Y005125D01*
X006959Y005161D01*
X006891Y005229D01*
X006399Y005721D01*
X006378Y005772D01*
X006299Y005851D01*
X006244Y005982D01*
X006244Y006125D01*
X006299Y006257D01*
X006400Y006357D01*
X006531Y006412D01*
X006674Y006412D01*
X006805Y006357D01*
X006906Y006257D01*
X006960Y006125D01*
X006960Y005982D01*
X006918Y005880D01*
X007194Y005605D01*
X008964Y005605D01*
X009463Y006104D01*
X009463Y007707D01*
X009399Y007770D01*
X009345Y007902D01*
X009345Y008044D01*
X009399Y008176D01*
X009463Y008239D01*
X009463Y009989D01*
X009499Y010077D01*
X009567Y010145D01*
X010988Y011566D01*
X010988Y013071D01*
X010974Y013085D01*
X010919Y013217D01*
X010919Y013359D01*
X010974Y013491D01*
X011075Y013592D01*
X011206Y013646D01*
X011349Y013646D01*
X011480Y013592D01*
X011581Y013491D01*
X011636Y013359D01*
X011636Y013217D01*
X011581Y013085D01*
X011480Y012984D01*
X011468Y012979D01*
X011468Y011419D01*
X011432Y011331D01*
X009943Y009842D01*
X009943Y008239D01*
X010006Y008176D01*
X010061Y008044D01*
X010061Y007902D01*
X010006Y007770D01*
X009943Y007707D01*
X009943Y005957D01*
X009906Y005869D01*
X009839Y005801D01*
X009642Y005605D01*
X014082Y005605D01*
X014906Y006429D01*
X014906Y006519D01*
X014960Y006650D01*
X015061Y006751D01*
X015193Y006805D01*
X015282Y006805D01*
X016027Y007550D01*
X015998Y007621D01*
X015998Y007832D01*
X015998Y007834D01*
X015848Y007985D01*
X015811Y008073D01*
X015811Y011004D01*
X015748Y011067D01*
X015693Y011199D01*
X015693Y011341D01*
X015748Y011473D01*
X015848Y011574D01*
X015980Y011628D01*
X016122Y011628D01*
X016254Y011574D01*
X016355Y011473D01*
X016409Y011341D01*
X016409Y011199D01*
X016355Y011067D01*
X016291Y011004D01*
X016291Y008220D01*
X016303Y008208D01*
X016422Y008257D01*
X016633Y008257D01*
X016828Y008176D01*
X016977Y008027D01*
X017028Y007905D01*
X017078Y008027D01*
X017227Y008176D01*
X017422Y008257D01*
X017633Y008257D01*
X017828Y008176D01*
X017977Y008027D01*
X018058Y007832D01*
X018058Y007621D01*
X017977Y007427D01*
X017828Y007278D01*
X017633Y007197D01*
X017422Y007197D01*
X017342Y007230D01*
X016173Y006061D01*
X016044Y005932D01*
X015812Y005932D01*
X015859Y005912D01*
X016008Y005763D01*
X016059Y005641D01*
X016110Y005763D01*
X016259Y005912D01*
X016454Y005993D01*
X016664Y005993D01*
X016859Y005912D01*
X017008Y005763D01*
X017059Y005641D01*
X017110Y005763D01*
X017259Y005912D01*
X017454Y005993D01*
X017664Y005993D01*
X017859Y005912D01*
X018008Y005763D01*
X018042Y005683D01*
X018322Y005683D01*
X018882Y006243D01*
X018882Y009112D01*
X017082Y010912D01*
X016964Y010912D01*
X016833Y010967D01*
X016732Y011067D01*
X016677Y011199D01*
X016677Y011341D01*
X016732Y011473D01*
X016833Y011574D01*
X016964Y011628D01*
X017107Y011628D01*
X017238Y011574D01*
X017339Y011473D01*
X017394Y011341D01*
X017394Y011223D01*
X019193Y009423D01*
X019322Y009294D01*
X019322Y004553D01*
X019372Y004603D01*
X019527Y004667D01*
X019694Y004667D01*
X019848Y004603D01*
X019966Y004485D01*
X020030Y004330D01*
X020030Y003643D01*
X019966Y003489D01*
X019848Y003371D01*
X019694Y003307D01*
X019527Y003307D01*
X019372Y003371D01*
X019322Y003421D01*
X019322Y003403D01*
X019193Y003275D01*
X019193Y003275D01*
X018898Y002979D01*
X018878Y002979D01*
X019058Y002799D01*
X019058Y002434D01*
X018800Y002177D01*
X018436Y002177D01*
X018178Y002434D01*
X018178Y002799D01*
X018359Y002979D01*
X018308Y002979D01*
X018058Y002730D01*
X018058Y002434D01*
X017800Y002177D01*
X017436Y002177D01*
X017178Y002434D01*
X017178Y002799D01*
X017339Y002959D01*
X016926Y002959D01*
X017078Y002807D01*
X017078Y002627D01*
X016628Y002627D01*
X016628Y002607D01*
X017078Y002607D01*
X017078Y002426D01*
X016809Y002157D01*
X016628Y002157D01*
X016628Y002607D01*
X016608Y002607D01*
X016158Y002607D01*
X016158Y002426D01*
X016428Y002157D01*
X016608Y002157D01*
X016608Y002607D01*
X016608Y002627D01*
X016158Y002627D01*
X016158Y002807D01*
X016310Y002959D01*
X015898Y002959D01*
X016058Y002799D01*
X016058Y002434D01*
X015800Y002177D01*
X015436Y002177D01*
X015178Y002434D01*
X015178Y002799D01*
X015339Y002959D01*
X014969Y002959D01*
X014385Y002374D01*
X014324Y002314D01*
X015178Y001459D01*
X015178Y001799D01*
X015436Y002057D01*
X015800Y002057D01*
X016058Y001799D01*
X016058Y001434D01*
X015898Y001274D01*
X016339Y001274D01*
X016178Y001434D01*
X016178Y001799D01*
X016436Y002057D01*
X016800Y002057D01*
X017058Y001799D01*
X017058Y001434D01*
X016898Y001274D01*
X017339Y001274D01*
X017178Y001434D01*
X017178Y001799D01*
X017436Y002057D01*
X017800Y002057D01*
X018058Y001799D01*
X018058Y001434D01*
X017898Y001274D01*
X018310Y001274D01*
X018158Y001426D01*
X018158Y001607D01*
X018608Y001607D01*
X018608Y001627D01*
X018608Y002077D01*
X018428Y002077D01*
X018158Y001807D01*
X018158Y001627D01*
X018608Y001627D01*
X018628Y001627D01*
X018628Y002077D01*
X018809Y002077D01*
X019078Y001807D01*
X019078Y001627D01*
X018628Y001627D01*
X018628Y001607D01*
X019078Y001607D01*
X019078Y001448D01*
X019178Y001548D01*
X019178Y001799D01*
X019436Y002057D01*
X019800Y002057D01*
X020000Y001857D01*
X020241Y001857D01*
X020245Y001866D01*
X020369Y001990D01*
X020531Y002057D01*
X020706Y002057D01*
X020867Y001990D01*
X020985Y001872D01*
X020985Y002361D01*
X020800Y002177D01*
X020436Y002177D01*
X020178Y002434D01*
X020178Y002799D01*
X020436Y003057D01*
X020800Y003057D01*
X020985Y002872D01*
X020985Y003493D01*
X020946Y003440D01*
X020897Y003391D01*
X020841Y003350D01*
X020779Y003319D01*
X020713Y003298D01*
X020645Y003287D01*
X020610Y003287D01*
X020610Y003987D01*
X020610Y004687D01*
X020576Y004687D01*
X020507Y004676D01*
X020441Y004655D01*
X020380Y004623D01*
X020324Y004582D01*
X020275Y004533D01*
X020234Y004477D01*
X020202Y004416D01*
X020181Y004350D01*
X020170Y004281D01*
X020170Y003987D01*
X020610Y003987D01*
X020610Y003987D01*
X020610Y003987D01*
X020610Y004687D01*
X020645Y004687D01*
X020713Y004676D01*
X020779Y004655D01*
X020841Y004623D01*
X020897Y004582D01*
X020946Y004533D01*
X020985Y004480D01*
X020985Y021715D01*
X004270Y021715D01*
X004422Y021563D01*
X004543Y021271D01*
X004543Y020955D01*
X004422Y020662D01*
X004198Y020439D01*
X003906Y020318D01*
X003590Y020318D01*
X003298Y020439D01*
X003074Y020662D01*
X002953Y020955D01*
X002953Y021271D01*
X003074Y021563D01*
X003226Y021715D01*
X000685Y021715D01*
X000685Y021622D02*
X003133Y021622D01*
X003033Y021464D02*
X000685Y021464D01*
X000685Y021305D02*
X002967Y021305D01*
X002953Y021147D02*
X000685Y021147D01*
X000685Y020988D02*
X002953Y020988D01*
X003005Y020830D02*
X000685Y020830D01*
X000685Y020671D02*
X003070Y020671D01*
X003224Y020513D02*
X000685Y020513D01*
X000685Y020354D02*
X003501Y020354D01*
X003582Y020175D02*
X003275Y020048D01*
X003041Y019814D01*
X002914Y019507D01*
X002914Y019175D01*
X003041Y018868D01*
X003275Y018634D01*
X003582Y018507D01*
X003914Y018507D01*
X004221Y018634D01*
X004455Y018868D01*
X004582Y019175D01*
X004582Y019507D01*
X004455Y019814D01*
X004221Y020048D01*
X003914Y020175D01*
X003582Y020175D01*
X003264Y020037D02*
X000685Y020037D01*
X000685Y019879D02*
X003106Y019879D01*
X003002Y019720D02*
X000685Y019720D01*
X000685Y019562D02*
X002936Y019562D01*
X002914Y019403D02*
X000685Y019403D01*
X000685Y019245D02*
X002914Y019245D01*
X002950Y019086D02*
X000685Y019086D01*
X000685Y018928D02*
X003016Y018928D01*
X003140Y018769D02*
X000685Y018769D01*
X000685Y018611D02*
X003331Y018611D01*
X004165Y018611D02*
X009248Y018611D01*
X009291Y018654D02*
X009061Y018425D01*
X008937Y018125D01*
X008937Y017801D01*
X009061Y017502D01*
X009291Y017272D01*
X009590Y017148D01*
X009914Y017148D01*
X010213Y017272D01*
X010443Y017502D01*
X010567Y017801D01*
X010567Y018125D01*
X010443Y018425D01*
X010213Y018654D01*
X009914Y018778D01*
X009590Y018778D01*
X009291Y018654D01*
X009089Y018452D02*
X000685Y018452D01*
X000685Y018294D02*
X009007Y018294D01*
X008942Y018135D02*
X000685Y018135D01*
X000685Y017977D02*
X008937Y017977D01*
X008937Y017818D02*
X000685Y017818D01*
X000685Y017660D02*
X008996Y017660D01*
X009062Y017501D02*
X000685Y017501D01*
X000685Y017343D02*
X009220Y017343D01*
X009503Y017184D02*
X000685Y017184D01*
X000685Y017026D02*
X020985Y017026D01*
X020985Y017184D02*
X018662Y017184D01*
X018575Y017148D02*
X018875Y017272D01*
X019104Y017502D01*
X019228Y017801D01*
X019228Y018125D01*
X019104Y018425D01*
X018875Y018654D01*
X018575Y018778D01*
X018251Y018778D01*
X017952Y018654D01*
X017723Y018425D01*
X017599Y018125D01*
X017599Y017801D01*
X017723Y017502D01*
X017952Y017272D01*
X018251Y017148D01*
X018575Y017148D01*
X018165Y017184D02*
X014331Y017184D01*
X014245Y017148D02*
X014544Y017272D01*
X014773Y017502D01*
X014897Y017801D01*
X014897Y018125D01*
X014773Y018425D01*
X014544Y018654D01*
X014245Y018778D01*
X013921Y018778D01*
X013621Y018654D01*
X013392Y018425D01*
X013268Y018125D01*
X013268Y017801D01*
X013392Y017502D01*
X013621Y017272D01*
X013921Y017148D01*
X014245Y017148D01*
X014615Y017343D02*
X017882Y017343D01*
X017723Y017501D02*
X014773Y017501D01*
X014839Y017660D02*
X017657Y017660D01*
X017599Y017818D02*
X014897Y017818D01*
X014897Y017977D02*
X017599Y017977D01*
X017603Y018135D02*
X014893Y018135D01*
X014827Y018294D02*
X017669Y018294D01*
X017751Y018452D02*
X014745Y018452D01*
X014587Y018611D02*
X017909Y018611D01*
X018231Y018769D02*
X014265Y018769D01*
X013900Y018769D02*
X009934Y018769D01*
X010256Y018611D02*
X013578Y018611D01*
X013420Y018452D02*
X010415Y018452D01*
X010497Y018294D02*
X013338Y018294D01*
X013272Y018135D02*
X010562Y018135D01*
X010567Y017977D02*
X013268Y017977D01*
X013268Y017818D02*
X010567Y017818D01*
X010508Y017660D02*
X013327Y017660D01*
X013392Y017501D02*
X010442Y017501D01*
X010284Y017343D02*
X013551Y017343D01*
X013834Y017184D02*
X010001Y017184D01*
X009570Y018769D02*
X004356Y018769D01*
X004480Y018928D02*
X020985Y018928D01*
X020985Y019086D02*
X004546Y019086D01*
X004582Y019245D02*
X020985Y019245D01*
X020985Y019403D02*
X004582Y019403D01*
X004560Y019562D02*
X020985Y019562D01*
X020985Y019720D02*
X004494Y019720D01*
X004390Y019879D02*
X020985Y019879D01*
X020985Y020037D02*
X018884Y020037D01*
X018875Y020028D02*
X019104Y020258D01*
X019228Y020557D01*
X019228Y020881D01*
X019104Y021180D01*
X018875Y021410D01*
X018575Y021534D01*
X018251Y021534D01*
X017952Y021410D01*
X017723Y021180D01*
X017599Y020881D01*
X017599Y020557D01*
X017723Y020258D01*
X017952Y020028D01*
X018251Y019904D01*
X018575Y019904D01*
X018875Y020028D01*
X019042Y020196D02*
X020985Y020196D01*
X020985Y020354D02*
X019144Y020354D01*
X019210Y020513D02*
X020985Y020513D01*
X020985Y020671D02*
X019228Y020671D01*
X019228Y020830D02*
X020985Y020830D01*
X020985Y020988D02*
X019184Y020988D01*
X019118Y021147D02*
X020985Y021147D01*
X020985Y021305D02*
X018979Y021305D01*
X018744Y021464D02*
X020985Y021464D01*
X020985Y021622D02*
X004363Y021622D01*
X004463Y021464D02*
X009421Y021464D01*
X009291Y021410D02*
X009590Y021534D01*
X009914Y021534D01*
X010213Y021410D01*
X010443Y021180D01*
X010567Y020881D01*
X010567Y020557D01*
X010443Y020258D01*
X010213Y020028D01*
X009914Y019904D01*
X009590Y019904D01*
X009291Y020028D01*
X009061Y020258D01*
X008937Y020557D01*
X008937Y020881D01*
X009061Y021180D01*
X009291Y021410D01*
X009186Y021305D02*
X004529Y021305D01*
X004543Y021147D02*
X009047Y021147D01*
X008982Y020988D02*
X004543Y020988D01*
X004491Y020830D02*
X008937Y020830D01*
X008937Y020671D02*
X004426Y020671D01*
X004272Y020513D02*
X008956Y020513D01*
X009021Y020354D02*
X003995Y020354D01*
X004232Y020037D02*
X009282Y020037D01*
X009123Y020196D02*
X000685Y020196D01*
X000685Y016867D02*
X020985Y016867D01*
X020985Y016709D02*
X000685Y016709D01*
X000685Y016550D02*
X020985Y016550D01*
X020985Y016392D02*
X000685Y016392D01*
X000685Y016233D02*
X020985Y016233D01*
X020985Y016075D02*
X000685Y016075D01*
X000685Y015916D02*
X020985Y015916D01*
X020985Y015758D02*
X000685Y015758D01*
X000685Y015599D02*
X020985Y015599D01*
X020985Y015441D02*
X000685Y015441D01*
X000685Y015282D02*
X012962Y015282D01*
X012994Y015314D02*
X012893Y015213D01*
X012839Y015082D01*
X012839Y014939D01*
X012893Y014808D01*
X012957Y014744D01*
X012957Y010877D01*
X012428Y010349D01*
X012338Y010349D01*
X012207Y010294D01*
X012106Y010194D01*
X012051Y010062D01*
X012051Y009919D01*
X012106Y009788D01*
X012207Y009687D01*
X012338Y009633D01*
X012481Y009633D01*
X012612Y009687D01*
X012713Y009788D01*
X012768Y009919D01*
X012768Y010009D01*
X013333Y010575D01*
X013400Y010642D01*
X013437Y010730D01*
X013437Y014744D01*
X013500Y014808D01*
X013555Y014939D01*
X013555Y015082D01*
X013500Y015213D01*
X013400Y015314D01*
X013268Y015368D01*
X013126Y015368D01*
X012994Y015314D01*
X012856Y015124D02*
X000685Y015124D01*
X000685Y014965D02*
X012839Y014965D01*
X012894Y014807D02*
X000685Y014807D01*
X000685Y014648D02*
X002161Y014648D01*
X002175Y014662D02*
X001990Y014477D01*
X001890Y014236D01*
X001890Y013974D01*
X001990Y013733D01*
X002175Y013548D01*
X002417Y013448D01*
X002678Y013448D01*
X002919Y013548D01*
X003104Y013733D01*
X003204Y013974D01*
X003204Y014236D01*
X003104Y014477D01*
X002919Y014662D01*
X002678Y014762D01*
X002417Y014762D01*
X002175Y014662D01*
X002003Y014490D02*
X000685Y014490D01*
X000685Y014331D02*
X001930Y014331D01*
X001890Y014173D02*
X000685Y014173D01*
X000685Y014014D02*
X001890Y014014D01*
X001939Y013856D02*
X000685Y013856D01*
X000685Y013697D02*
X002025Y013697D01*
X002196Y013539D02*
X000685Y013539D01*
X000685Y013380D02*
X010928Y013380D01*
X010919Y013222D02*
X000685Y013222D01*
X000685Y013063D02*
X010988Y013063D01*
X010988Y012905D02*
X002944Y012905D01*
X002919Y012930D02*
X002678Y013030D01*
X002417Y013030D01*
X002175Y012930D01*
X001990Y012745D01*
X001890Y012503D01*
X001890Y012242D01*
X001990Y012000D01*
X002175Y011815D01*
X002417Y011715D01*
X002678Y011715D01*
X002919Y011815D01*
X003104Y012000D01*
X003204Y012242D01*
X003204Y012503D01*
X003104Y012745D01*
X002919Y012930D01*
X003103Y012746D02*
X010988Y012746D01*
X010988Y012588D02*
X003169Y012588D01*
X003204Y012429D02*
X010988Y012429D01*
X010988Y012271D02*
X003204Y012271D01*
X003151Y012112D02*
X010988Y012112D01*
X010988Y011954D02*
X003058Y011954D01*
X002871Y011795D02*
X010988Y011795D01*
X010988Y011637D02*
X000685Y011637D01*
X000685Y011795D02*
X002223Y011795D01*
X002037Y011954D02*
X000685Y011954D01*
X000685Y012112D02*
X001944Y012112D01*
X001890Y012271D02*
X000685Y012271D01*
X000685Y012429D02*
X001890Y012429D01*
X001925Y012588D02*
X000685Y012588D01*
X000685Y012746D02*
X001992Y012746D01*
X002150Y012905D02*
X000685Y012905D01*
X000685Y011478D02*
X010900Y011478D01*
X010742Y011320D02*
X000685Y011320D01*
X000685Y011161D02*
X002247Y011161D01*
X002133Y011003D02*
X000685Y011003D01*
X000685Y010844D02*
X002110Y010844D01*
X002160Y010686D02*
X000685Y010686D01*
X000685Y010527D02*
X002229Y010527D01*
X002229Y010369D02*
X000685Y010369D01*
X000685Y010210D02*
X002229Y010210D01*
X002229Y010052D02*
X000685Y010052D01*
X000685Y009893D02*
X002229Y009893D01*
X002229Y009735D02*
X000685Y009735D01*
X000685Y009576D02*
X002229Y009576D01*
X002229Y009418D02*
X000685Y009418D01*
X000685Y009259D02*
X002229Y009259D01*
X002229Y009101D02*
X000685Y009101D01*
X000685Y008942D02*
X002229Y008942D01*
X002229Y008784D02*
X000685Y008784D01*
X000685Y008625D02*
X002229Y008625D01*
X002229Y008467D02*
X000685Y008467D01*
X000685Y008308D02*
X002229Y008308D01*
X002229Y008150D02*
X000685Y008150D01*
X000685Y007991D02*
X002229Y007991D01*
X002229Y007833D02*
X000685Y007833D01*
X000685Y007674D02*
X002229Y007674D01*
X002229Y007516D02*
X000685Y007516D01*
X000685Y007357D02*
X002229Y007357D01*
X002229Y007199D02*
X000685Y007199D01*
X000685Y007040D02*
X002229Y007040D01*
X002229Y006882D02*
X000685Y006882D01*
X000685Y006723D02*
X002229Y006723D01*
X002229Y006565D02*
X000685Y006565D01*
X000685Y006406D02*
X002269Y006406D01*
X002427Y006248D02*
X000685Y006248D01*
X000685Y006089D02*
X002586Y006089D01*
X002744Y005931D02*
X000685Y005931D01*
X000685Y005772D02*
X002903Y005772D01*
X003061Y005614D02*
X000685Y005614D01*
X000685Y005455D02*
X003220Y005455D01*
X003378Y005297D02*
X000685Y005297D01*
X000685Y005138D02*
X003537Y005138D01*
X003695Y004980D02*
X000685Y004980D01*
X000685Y004821D02*
X003854Y004821D01*
X004012Y004663D02*
X000685Y004663D01*
X000685Y004504D02*
X004171Y004504D01*
X004329Y004346D02*
X000685Y004346D01*
X000685Y004187D02*
X004488Y004187D01*
X004646Y004029D02*
X000685Y004029D01*
X000685Y003870D02*
X004805Y003870D01*
X004963Y003712D02*
X000685Y003712D01*
X000685Y003553D02*
X005122Y003553D01*
X005280Y003395D02*
X000685Y003395D01*
X000685Y003236D02*
X005439Y003236D01*
X005597Y003078D02*
X000685Y003078D01*
X000685Y002919D02*
X005756Y002919D01*
X005914Y002761D02*
X000685Y002761D01*
X000685Y002602D02*
X006073Y002602D01*
X006231Y002444D02*
X000685Y002444D01*
X000685Y002285D02*
X006420Y002285D01*
X006504Y002510D02*
X002469Y006546D01*
X002469Y010877D01*
X002804Y011003D02*
X010425Y011003D01*
X010583Y011161D02*
X002690Y011161D01*
X002827Y010844D02*
X010266Y010844D01*
X010108Y010686D02*
X002777Y010686D01*
X002709Y010527D02*
X009949Y010527D01*
X009791Y010369D02*
X002709Y010369D01*
X002709Y010210D02*
X009632Y010210D01*
X009489Y010052D02*
X002709Y010052D01*
X002709Y009893D02*
X009463Y009893D01*
X009463Y009735D02*
X002709Y009735D01*
X002709Y009576D02*
X009463Y009576D01*
X009463Y009418D02*
X002709Y009418D01*
X002709Y009259D02*
X009463Y009259D01*
X009463Y009101D02*
X002709Y009101D01*
X002709Y008942D02*
X009463Y008942D01*
X009463Y008784D02*
X002709Y008784D01*
X002709Y008625D02*
X009463Y008625D01*
X009463Y008467D02*
X002709Y008467D01*
X002709Y008308D02*
X009463Y008308D01*
X009388Y008150D02*
X002709Y008150D01*
X002709Y007991D02*
X009345Y007991D01*
X009373Y007833D02*
X002709Y007833D01*
X002709Y007674D02*
X009463Y007674D01*
X009463Y007516D02*
X002709Y007516D01*
X002709Y007357D02*
X009463Y007357D01*
X009463Y007199D02*
X002709Y007199D01*
X002709Y007040D02*
X009463Y007040D01*
X009463Y006882D02*
X002709Y006882D01*
X002709Y006723D02*
X009463Y006723D01*
X009463Y006565D02*
X002789Y006565D01*
X002947Y006406D02*
X006518Y006406D01*
X006687Y006406D02*
X009463Y006406D01*
X009463Y006248D02*
X006910Y006248D01*
X006960Y006089D02*
X009448Y006089D01*
X009290Y005931D02*
X006939Y005931D01*
X007026Y005772D02*
X009131Y005772D01*
X008973Y005614D02*
X007185Y005614D01*
X007094Y005365D02*
X009063Y005365D01*
X009703Y006004D01*
X009703Y007973D01*
X009703Y009941D01*
X011228Y011467D01*
X011228Y013239D01*
X011278Y013288D01*
X011533Y013539D02*
X012957Y013539D01*
X012957Y013697D02*
X003069Y013697D01*
X003155Y013856D02*
X012957Y013856D01*
X012957Y014014D02*
X003204Y014014D01*
X003204Y014173D02*
X012957Y014173D01*
X012957Y014331D02*
X003165Y014331D01*
X003092Y014490D02*
X012957Y014490D01*
X012957Y014648D02*
X002933Y014648D01*
X002898Y013539D02*
X011022Y013539D01*
X011559Y013063D02*
X012957Y013063D01*
X012957Y012905D02*
X011468Y012905D01*
X011468Y012746D02*
X012957Y012746D01*
X012957Y012588D02*
X011468Y012588D01*
X011468Y012429D02*
X012957Y012429D01*
X012957Y012271D02*
X011468Y012271D01*
X011468Y012112D02*
X012957Y012112D01*
X012957Y011954D02*
X011468Y011954D01*
X011468Y011795D02*
X012957Y011795D01*
X012957Y011637D02*
X011468Y011637D01*
X011468Y011478D02*
X012957Y011478D01*
X012957Y011320D02*
X011421Y011320D01*
X011262Y011161D02*
X012957Y011161D01*
X012957Y011003D02*
X011104Y011003D01*
X010945Y010844D02*
X012924Y010844D01*
X012765Y010686D02*
X010787Y010686D01*
X010628Y010527D02*
X012607Y010527D01*
X012448Y010369D02*
X010470Y010369D01*
X010311Y010210D02*
X012123Y010210D01*
X012051Y010052D02*
X010153Y010052D01*
X009994Y009893D02*
X012062Y009893D01*
X012159Y009735D02*
X009943Y009735D01*
X009943Y009576D02*
X015811Y009576D01*
X015811Y009418D02*
X009943Y009418D01*
X009943Y009259D02*
X015811Y009259D01*
X015811Y009101D02*
X011148Y009101D01*
X011136Y009113D02*
X011004Y009168D01*
X010862Y009168D01*
X010730Y009113D01*
X010629Y009012D01*
X010575Y008881D01*
X010575Y008738D01*
X010629Y008607D01*
X010713Y008523D01*
X010713Y006412D01*
X010665Y006412D01*
X010533Y006357D01*
X010433Y006257D01*
X010378Y006125D01*
X010378Y005982D01*
X010433Y005851D01*
X010533Y005750D01*
X010665Y005696D01*
X010807Y005696D01*
X010939Y005750D01*
X011040Y005851D01*
X011094Y005982D01*
X011094Y006101D01*
X011153Y006159D01*
X011153Y008523D01*
X011237Y008607D01*
X011291Y008738D01*
X011291Y008881D01*
X011237Y009012D01*
X011136Y009113D01*
X011266Y008942D02*
X015811Y008942D01*
X015811Y008784D02*
X011291Y008784D01*
X011244Y008625D02*
X015811Y008625D01*
X015811Y008467D02*
X011153Y008467D01*
X011153Y008308D02*
X015811Y008308D01*
X015811Y008150D02*
X011153Y008150D01*
X011153Y007991D02*
X015845Y007991D01*
X015998Y007833D02*
X011153Y007833D01*
X011153Y007674D02*
X015998Y007674D01*
X015993Y007516D02*
X011153Y007516D01*
X011153Y007357D02*
X015834Y007357D01*
X015676Y007199D02*
X011153Y007199D01*
X011153Y007040D02*
X015517Y007040D01*
X015359Y006882D02*
X011153Y006882D01*
X011153Y006723D02*
X015033Y006723D01*
X014925Y006565D02*
X011153Y006565D01*
X011153Y006406D02*
X014883Y006406D01*
X014725Y006248D02*
X011153Y006248D01*
X011094Y006089D02*
X014566Y006089D01*
X014408Y005931D02*
X011073Y005931D01*
X010961Y005772D02*
X014249Y005772D01*
X014091Y005614D02*
X009652Y005614D01*
X009810Y005772D02*
X010511Y005772D01*
X010399Y005931D02*
X009932Y005931D01*
X009943Y006089D02*
X010378Y006089D01*
X010429Y006248D02*
X009943Y006248D01*
X009943Y006406D02*
X010652Y006406D01*
X010713Y006565D02*
X009943Y006565D01*
X009943Y006723D02*
X010713Y006723D01*
X010713Y006882D02*
X009943Y006882D01*
X009943Y007040D02*
X010713Y007040D01*
X010713Y007199D02*
X009943Y007199D01*
X009943Y007357D02*
X010713Y007357D01*
X010713Y007516D02*
X009943Y007516D01*
X009943Y007674D02*
X010713Y007674D01*
X010713Y007833D02*
X010032Y007833D01*
X010061Y007991D02*
X010713Y007991D01*
X010713Y008150D02*
X010017Y008150D01*
X009943Y008308D02*
X010713Y008308D01*
X010713Y008467D02*
X009943Y008467D01*
X009943Y008625D02*
X010622Y008625D01*
X010575Y008784D02*
X009943Y008784D01*
X009943Y008942D02*
X010600Y008942D01*
X010718Y009101D02*
X009943Y009101D01*
X012409Y009991D02*
X013197Y010778D01*
X013197Y015010D01*
X013537Y015124D02*
X020985Y015124D01*
X020985Y015282D02*
X013431Y015282D01*
X013555Y014965D02*
X020985Y014965D01*
X020985Y014807D02*
X013500Y014807D01*
X013437Y014648D02*
X020985Y014648D01*
X020985Y014490D02*
X013437Y014490D01*
X013437Y014331D02*
X020985Y014331D01*
X020985Y014173D02*
X013437Y014173D01*
X013437Y014014D02*
X020985Y014014D01*
X020985Y013856D02*
X013437Y013856D01*
X013437Y013697D02*
X020985Y013697D01*
X020985Y013539D02*
X013437Y013539D01*
X013437Y013380D02*
X020985Y013380D01*
X020985Y013222D02*
X013437Y013222D01*
X013437Y013063D02*
X020985Y013063D01*
X020985Y012905D02*
X013437Y012905D01*
X013437Y012746D02*
X020985Y012746D01*
X020985Y012588D02*
X013437Y012588D01*
X013437Y012429D02*
X020985Y012429D01*
X020985Y012271D02*
X013437Y012271D01*
X013437Y012112D02*
X020985Y012112D01*
X020985Y011954D02*
X013437Y011954D01*
X013437Y011795D02*
X020985Y011795D01*
X020985Y011637D02*
X013437Y011637D01*
X013437Y011478D02*
X015753Y011478D01*
X015693Y011320D02*
X013437Y011320D01*
X013437Y011161D02*
X015709Y011161D01*
X015811Y011003D02*
X013437Y011003D01*
X013437Y010844D02*
X015811Y010844D01*
X015811Y010686D02*
X013418Y010686D01*
X013286Y010527D02*
X015811Y010527D01*
X015811Y010369D02*
X013127Y010369D01*
X012969Y010210D02*
X015811Y010210D01*
X015811Y010052D02*
X012810Y010052D01*
X012757Y009893D02*
X015811Y009893D01*
X015811Y009735D02*
X012660Y009735D01*
X015264Y006447D02*
X016528Y007711D01*
X016528Y007727D01*
X016445Y007727D01*
X016051Y008121D01*
X016051Y011270D01*
X016291Y011003D02*
X016796Y011003D01*
X016693Y011161D02*
X016394Y011161D01*
X016409Y011320D02*
X016677Y011320D01*
X016737Y011478D02*
X016349Y011478D01*
X016291Y010844D02*
X017150Y010844D01*
X017309Y010686D02*
X016291Y010686D01*
X016291Y010527D02*
X017467Y010527D01*
X017626Y010369D02*
X016291Y010369D01*
X016291Y010210D02*
X017784Y010210D01*
X017943Y010052D02*
X016291Y010052D01*
X016291Y009893D02*
X018101Y009893D01*
X018260Y009735D02*
X016291Y009735D01*
X016291Y009576D02*
X018418Y009576D01*
X018577Y009418D02*
X016291Y009418D01*
X016291Y009259D02*
X018735Y009259D01*
X018882Y009101D02*
X016291Y009101D01*
X016291Y008942D02*
X018882Y008942D01*
X018882Y008784D02*
X016291Y008784D01*
X016291Y008625D02*
X018882Y008625D01*
X018882Y008467D02*
X016291Y008467D01*
X016291Y008308D02*
X018882Y008308D01*
X018882Y008150D02*
X017854Y008150D01*
X017992Y007991D02*
X018882Y007991D01*
X018882Y007833D02*
X018057Y007833D01*
X018058Y007674D02*
X018882Y007674D01*
X018882Y007516D02*
X018014Y007516D01*
X017908Y007357D02*
X018882Y007357D01*
X018882Y007199D02*
X017638Y007199D01*
X017417Y007199D02*
X017311Y007199D01*
X017152Y007040D02*
X018882Y007040D01*
X018882Y006882D02*
X016994Y006882D01*
X016835Y006723D02*
X018882Y006723D01*
X018882Y006565D02*
X016677Y006565D01*
X016518Y006406D02*
X018882Y006406D01*
X018882Y006248D02*
X016360Y006248D01*
X016201Y006089D02*
X018729Y006089D01*
X018570Y005931D02*
X017815Y005931D01*
X017999Y005772D02*
X018412Y005772D01*
X018717Y005455D02*
X018882Y005455D01*
X018882Y005297D02*
X018558Y005297D01*
X018882Y005138D02*
X017984Y005138D01*
X017777Y004980D02*
X018882Y004980D01*
X018882Y004821D02*
X015189Y004821D01*
X015194Y004663D02*
X016517Y004663D01*
X016703Y004663D02*
X017517Y004663D01*
X017703Y004663D02*
X018517Y004663D01*
X018703Y004663D02*
X018882Y004663D01*
X019322Y004663D02*
X019517Y004663D01*
X019703Y004663D02*
X020467Y004663D01*
X020610Y004663D02*
X020610Y004663D01*
X020753Y004663D02*
X020985Y004663D01*
X020985Y004821D02*
X019322Y004821D01*
X019322Y004980D02*
X020985Y004980D01*
X020985Y005138D02*
X019322Y005138D01*
X019322Y005297D02*
X020985Y005297D01*
X020985Y005455D02*
X019322Y005455D01*
X019322Y005614D02*
X020985Y005614D01*
X020985Y005772D02*
X019322Y005772D01*
X019322Y005931D02*
X020985Y005931D01*
X020985Y006089D02*
X019322Y006089D01*
X019322Y006248D02*
X020985Y006248D01*
X020985Y006406D02*
X019322Y006406D01*
X019322Y006565D02*
X020985Y006565D01*
X020985Y006723D02*
X019322Y006723D01*
X019322Y006882D02*
X020985Y006882D01*
X020985Y007040D02*
X019322Y007040D01*
X019322Y007199D02*
X020985Y007199D01*
X020985Y007357D02*
X019322Y007357D01*
X019322Y007516D02*
X020985Y007516D01*
X020985Y007674D02*
X019322Y007674D01*
X019322Y007833D02*
X020985Y007833D01*
X020985Y007991D02*
X019322Y007991D01*
X019322Y008150D02*
X020985Y008150D01*
X020985Y008308D02*
X019322Y008308D01*
X019322Y008467D02*
X020985Y008467D01*
X020985Y008625D02*
X019322Y008625D01*
X019322Y008784D02*
X020985Y008784D01*
X020985Y008942D02*
X019322Y008942D01*
X019322Y009101D02*
X020985Y009101D01*
X020985Y009259D02*
X019322Y009259D01*
X019199Y009418D02*
X020985Y009418D01*
X020985Y009576D02*
X019040Y009576D01*
X018882Y009735D02*
X020985Y009735D01*
X020985Y009893D02*
X018723Y009893D01*
X018565Y010052D02*
X020985Y010052D01*
X020985Y010210D02*
X018406Y010210D01*
X018248Y010369D02*
X020985Y010369D01*
X020985Y010527D02*
X018089Y010527D01*
X017931Y010686D02*
X020985Y010686D01*
X020985Y010844D02*
X017772Y010844D01*
X017614Y011003D02*
X020985Y011003D01*
X020985Y011161D02*
X017455Y011161D01*
X017394Y011320D02*
X020985Y011320D01*
X020985Y011478D02*
X017334Y011478D01*
X017201Y008150D02*
X016854Y008150D01*
X016992Y007991D02*
X017063Y007991D01*
X017303Y005931D02*
X016815Y005931D01*
X016999Y005772D02*
X017119Y005772D01*
X017134Y005138D02*
X016984Y005138D01*
X016777Y004980D02*
X017341Y004980D01*
X017274Y004504D02*
X016947Y004504D01*
X017024Y004346D02*
X017197Y004346D01*
X017190Y004187D02*
X017030Y004187D01*
X017030Y004029D02*
X017190Y004029D01*
X017190Y003870D02*
X017030Y003870D01*
X017030Y003712D02*
X017190Y003712D01*
X017227Y003553D02*
X016993Y003553D01*
X016966Y002919D02*
X017299Y002919D01*
X017178Y002761D02*
X017078Y002761D01*
X017078Y002602D02*
X017178Y002602D01*
X017178Y002444D02*
X017078Y002444D01*
X016937Y002285D02*
X017327Y002285D01*
X017348Y001968D02*
X016889Y001968D01*
X017047Y001810D02*
X017189Y001810D01*
X017178Y001651D02*
X017058Y001651D01*
X017058Y001493D02*
X017178Y001493D01*
X017278Y001334D02*
X016958Y001334D01*
X016278Y001334D02*
X015958Y001334D01*
X016058Y001493D02*
X016178Y001493D01*
X016178Y001651D02*
X016058Y001651D01*
X016047Y001810D02*
X016189Y001810D01*
X016348Y001968D02*
X015889Y001968D01*
X015909Y002285D02*
X016299Y002285D01*
X016158Y002444D02*
X016058Y002444D01*
X016058Y002602D02*
X016158Y002602D01*
X016158Y002761D02*
X016058Y002761D01*
X015938Y002919D02*
X016270Y002919D01*
X016608Y002602D02*
X016628Y002602D01*
X016628Y002444D02*
X016608Y002444D01*
X016608Y002285D02*
X016628Y002285D01*
X017909Y002285D02*
X018327Y002285D01*
X018178Y002444D02*
X018058Y002444D01*
X018058Y002602D02*
X018178Y002602D01*
X018178Y002761D02*
X018089Y002761D01*
X018248Y002919D02*
X018299Y002919D01*
X017823Y003199D02*
X018610Y003987D01*
X018610Y003593D01*
X018154Y003870D02*
X018030Y003870D01*
X018030Y004029D02*
X018190Y004029D01*
X018190Y004187D02*
X018030Y004187D01*
X018024Y004346D02*
X018197Y004346D01*
X018274Y004504D02*
X017947Y004504D01*
X018875Y005614D02*
X018882Y005614D01*
X019496Y005611D02*
X019496Y006940D01*
X019496Y005611D02*
X020628Y004479D01*
X020628Y004004D01*
X020610Y003987D01*
X020170Y003987D01*
X020170Y003692D01*
X020181Y003624D01*
X020202Y003558D01*
X020234Y003496D01*
X020275Y003440D01*
X020324Y003391D01*
X020380Y003350D01*
X020441Y003319D01*
X020507Y003298D01*
X020576Y003287D01*
X020610Y003287D01*
X020610Y003987D01*
X020610Y003987D01*
X020610Y004029D02*
X020610Y004029D01*
X020610Y004187D02*
X020610Y004187D01*
X020610Y004346D02*
X020610Y004346D01*
X020610Y004504D02*
X020610Y004504D01*
X020967Y004504D02*
X020985Y004504D01*
X020254Y004504D02*
X019947Y004504D01*
X020024Y004346D02*
X020180Y004346D01*
X020170Y004187D02*
X020030Y004187D01*
X020030Y004029D02*
X020170Y004029D01*
X020170Y003870D02*
X020030Y003870D01*
X020030Y003712D02*
X020170Y003712D01*
X020205Y003553D02*
X019993Y003553D01*
X019872Y003395D02*
X020320Y003395D01*
X020610Y003395D02*
X020610Y003395D01*
X020610Y003553D02*
X020610Y003553D01*
X020610Y003712D02*
X020610Y003712D01*
X020610Y003870D02*
X020610Y003870D01*
X020901Y003395D02*
X020985Y003395D01*
X020985Y003236D02*
X019155Y003236D01*
X018997Y003078D02*
X020985Y003078D01*
X020985Y002919D02*
X020938Y002919D01*
X020909Y002285D02*
X020985Y002285D01*
X020985Y002127D02*
X014510Y002127D01*
X014352Y002285D02*
X015327Y002285D01*
X015178Y002444D02*
X014454Y002444D01*
X014613Y002602D02*
X015178Y002602D01*
X015178Y002761D02*
X014771Y002761D01*
X014930Y002919D02*
X015299Y002919D01*
X014870Y003199D02*
X017823Y003199D01*
X018938Y002919D02*
X019299Y002919D01*
X019178Y002799D02*
X019436Y003057D01*
X019800Y003057D01*
X020058Y002799D01*
X020058Y002434D01*
X019800Y002177D01*
X019436Y002177D01*
X019178Y002434D01*
X019178Y002799D01*
X019178Y002761D02*
X019058Y002761D01*
X019058Y002602D02*
X019178Y002602D01*
X019178Y002444D02*
X019058Y002444D01*
X018909Y002285D02*
X019327Y002285D01*
X019348Y001968D02*
X018917Y001968D01*
X019075Y001810D02*
X019189Y001810D01*
X019178Y001651D02*
X019078Y001651D01*
X019078Y001493D02*
X019123Y001493D01*
X019004Y001034D02*
X015264Y001034D01*
X013787Y002510D01*
X006504Y002510D01*
X006593Y002761D02*
X014092Y002761D01*
X014251Y002919D02*
X006434Y002919D01*
X006276Y003078D02*
X006967Y003078D01*
X006954Y003080D02*
X007034Y003067D01*
X007034Y004025D01*
X006494Y004025D01*
X006494Y003618D01*
X006509Y003525D01*
X006538Y003435D01*
X006581Y003351D01*
X006637Y003274D01*
X006704Y003208D01*
X006780Y003152D01*
X006864Y003109D01*
X006954Y003080D01*
X007034Y003078D02*
X007154Y003078D01*
X007154Y003067D02*
X007235Y003080D01*
X007325Y003109D01*
X007409Y003152D01*
X007485Y003208D01*
X007552Y003274D01*
X007608Y003351D01*
X007651Y003435D01*
X007680Y003525D01*
X007694Y003618D01*
X007694Y004025D01*
X007154Y004025D01*
X007154Y003067D01*
X007222Y003078D02*
X011101Y003078D01*
X011088Y003080D02*
X011168Y003067D01*
X011168Y004025D01*
X010628Y004025D01*
X010628Y003618D01*
X010643Y003525D01*
X010672Y003435D01*
X010715Y003351D01*
X010771Y003274D01*
X010837Y003208D01*
X010914Y003152D01*
X010998Y003109D01*
X011088Y003080D01*
X011168Y003078D02*
X011288Y003078D01*
X011288Y003067D02*
X011369Y003080D01*
X011459Y003109D01*
X011543Y003152D01*
X011619Y003208D01*
X011686Y003274D01*
X011742Y003351D01*
X011784Y003435D01*
X011814Y003525D01*
X011828Y003618D01*
X011828Y004025D01*
X011288Y004025D01*
X011288Y003067D01*
X011356Y003078D02*
X014409Y003078D01*
X014376Y003236D02*
X014568Y003236D01*
X014500Y003395D02*
X014726Y003395D01*
X014564Y003553D02*
X016227Y003553D01*
X016190Y003712D02*
X015791Y003712D01*
X015898Y003870D02*
X016190Y003870D01*
X016190Y004029D02*
X015917Y004029D01*
X015864Y004187D02*
X016190Y004187D01*
X016197Y004346D02*
X015511Y004346D01*
X015353Y004504D02*
X016274Y004504D01*
X016341Y004980D02*
X015777Y004980D01*
X015984Y005138D02*
X016134Y005138D01*
X016119Y005772D02*
X015999Y005772D01*
X015815Y005931D02*
X016303Y005931D01*
X015341Y004980D02*
X015189Y004980D01*
X014749Y004980D02*
X014330Y004980D01*
X014262Y005138D02*
X014749Y005138D01*
X014749Y005297D02*
X014453Y005297D01*
X014611Y005455D02*
X014749Y005455D01*
X014181Y005365D02*
X015264Y006447D01*
X014181Y005365D02*
X013098Y005365D01*
X013984Y004479D01*
X013984Y004085D01*
X013404Y004029D02*
X013186Y004029D01*
X013186Y004187D02*
X013404Y004187D01*
X013404Y004346D02*
X013186Y004346D01*
X013186Y004504D02*
X013404Y004504D01*
X013422Y004663D02*
X013169Y004663D01*
X013186Y004621D02*
X013098Y004834D01*
X012935Y004997D01*
X012722Y005085D01*
X012491Y005085D01*
X012278Y004997D01*
X012115Y004834D01*
X012026Y004621D01*
X012026Y003550D01*
X012115Y003337D01*
X012278Y003173D01*
X012491Y003085D01*
X012722Y003085D01*
X012935Y003173D01*
X013098Y003337D01*
X013186Y003550D01*
X013186Y004621D01*
X013103Y004821D02*
X013302Y004821D01*
X013144Y004980D02*
X012952Y004980D01*
X013098Y005365D02*
X009063Y005365D01*
X009850Y004577D01*
X009850Y004085D01*
X010430Y004029D02*
X011168Y004029D01*
X011168Y004025D02*
X011168Y004145D01*
X010628Y004145D01*
X010628Y004552D01*
X010643Y004646D01*
X010672Y004735D01*
X010715Y004820D01*
X010771Y004896D01*
X010837Y004963D01*
X010914Y005018D01*
X010998Y005061D01*
X011088Y005090D01*
X011168Y005103D01*
X011168Y004145D01*
X011288Y004145D01*
X011288Y005103D01*
X011369Y005090D01*
X011459Y005061D01*
X011543Y005018D01*
X011619Y004963D01*
X011686Y004896D01*
X011742Y004820D01*
X011784Y004735D01*
X011814Y004646D01*
X011828Y004552D01*
X011828Y004145D01*
X011288Y004145D01*
X011288Y004025D01*
X011168Y004025D01*
X011288Y004029D02*
X012026Y004029D01*
X012026Y004187D02*
X011828Y004187D01*
X011828Y004346D02*
X012026Y004346D01*
X012026Y004504D02*
X011828Y004504D01*
X011808Y004663D02*
X012044Y004663D01*
X012109Y004821D02*
X011740Y004821D01*
X011596Y004980D02*
X012261Y004980D01*
X011288Y004980D02*
X011168Y004980D01*
X011168Y004821D02*
X011288Y004821D01*
X011288Y004663D02*
X011168Y004663D01*
X011168Y004504D02*
X011288Y004504D01*
X011288Y004346D02*
X011168Y004346D01*
X011168Y004187D02*
X011288Y004187D01*
X011288Y003870D02*
X011168Y003870D01*
X011168Y003712D02*
X011288Y003712D01*
X011288Y003553D02*
X011168Y003553D01*
X011168Y003395D02*
X011288Y003395D01*
X011288Y003236D02*
X011168Y003236D01*
X010809Y003236D02*
X010242Y003236D01*
X010366Y003395D02*
X010693Y003395D01*
X010639Y003553D02*
X010430Y003553D01*
X010430Y003712D02*
X010628Y003712D01*
X010628Y003870D02*
X010430Y003870D01*
X010430Y004187D02*
X010628Y004187D01*
X010628Y004346D02*
X010430Y004346D01*
X010430Y004504D02*
X010628Y004504D01*
X010649Y004663D02*
X010413Y004663D01*
X010347Y004821D02*
X010716Y004821D01*
X010861Y004980D02*
X010196Y004980D01*
X009267Y004821D02*
X008969Y004821D01*
X008964Y004834D02*
X008801Y004997D01*
X008588Y005085D01*
X008357Y005085D01*
X008144Y004997D01*
X007981Y004834D01*
X007892Y004621D01*
X007892Y003550D01*
X007981Y003337D01*
X008144Y003173D01*
X008357Y003085D01*
X008588Y003085D01*
X008801Y003173D01*
X008964Y003337D01*
X009052Y003550D01*
X009052Y004621D01*
X008964Y004834D01*
X009035Y004663D02*
X009288Y004663D01*
X009270Y004504D02*
X009052Y004504D01*
X009052Y004346D02*
X009270Y004346D01*
X009270Y004187D02*
X009052Y004187D01*
X009052Y004029D02*
X009270Y004029D01*
X009270Y003870D02*
X009052Y003870D01*
X009052Y003712D02*
X009270Y003712D01*
X009270Y003553D02*
X009052Y003553D01*
X008988Y003395D02*
X009335Y003395D01*
X009459Y003236D02*
X008864Y003236D01*
X008081Y003236D02*
X007514Y003236D01*
X007630Y003395D02*
X007957Y003395D01*
X007892Y003553D02*
X007684Y003553D01*
X007694Y003712D02*
X007892Y003712D01*
X007892Y003870D02*
X007694Y003870D01*
X007892Y004029D02*
X007154Y004029D01*
X007154Y004025D02*
X007154Y004145D01*
X007034Y004145D01*
X007034Y004025D01*
X007154Y004025D01*
X007094Y004085D02*
X004929Y006251D01*
X004929Y013239D01*
X010222Y020037D02*
X013612Y020037D01*
X013621Y020028D02*
X013921Y019904D01*
X014245Y019904D01*
X014544Y020028D01*
X014773Y020258D01*
X014897Y020557D01*
X014897Y020881D01*
X014773Y021180D01*
X014544Y021410D01*
X014245Y021534D01*
X013921Y021534D01*
X013621Y021410D01*
X013392Y021180D01*
X013268Y020881D01*
X013268Y020557D01*
X013392Y020258D01*
X013621Y020028D01*
X013454Y020196D02*
X010381Y020196D01*
X010483Y020354D02*
X013352Y020354D01*
X013286Y020513D02*
X010548Y020513D01*
X010567Y020671D02*
X013268Y020671D01*
X013268Y020830D02*
X010567Y020830D01*
X010522Y020988D02*
X013312Y020988D01*
X013378Y021147D02*
X010457Y021147D01*
X010318Y021305D02*
X013517Y021305D01*
X013752Y021464D02*
X010082Y021464D01*
X014413Y021464D02*
X018083Y021464D01*
X017848Y021305D02*
X014648Y021305D01*
X014787Y021147D02*
X017709Y021147D01*
X017643Y020988D02*
X014853Y020988D01*
X014897Y020830D02*
X017599Y020830D01*
X017599Y020671D02*
X014897Y020671D01*
X014879Y020513D02*
X017617Y020513D01*
X017683Y020354D02*
X014813Y020354D01*
X014712Y020196D02*
X017784Y020196D01*
X017943Y020037D02*
X014553Y020037D01*
X018596Y018769D02*
X020985Y018769D01*
X020985Y018611D02*
X018918Y018611D01*
X019076Y018452D02*
X020985Y018452D01*
X020985Y018294D02*
X019158Y018294D01*
X019224Y018135D02*
X020985Y018135D01*
X020985Y017977D02*
X019228Y017977D01*
X019228Y017818D02*
X020985Y017818D01*
X020985Y017660D02*
X019170Y017660D01*
X019104Y017501D02*
X020985Y017501D01*
X020985Y017343D02*
X018945Y017343D01*
X012957Y013380D02*
X011627Y013380D01*
X011636Y013222D02*
X012957Y013222D01*
X006602Y006054D02*
X006602Y005857D01*
X007094Y005365D01*
X007014Y005138D02*
X004215Y005138D01*
X004374Y004980D02*
X006727Y004980D01*
X006704Y004963D02*
X006637Y004896D01*
X006581Y004820D01*
X006538Y004735D01*
X006509Y004646D01*
X006494Y004552D01*
X006494Y004145D01*
X007034Y004145D01*
X007034Y005103D01*
X006954Y005090D01*
X006864Y005061D01*
X006780Y005018D01*
X006704Y004963D01*
X006583Y004821D02*
X004532Y004821D01*
X004691Y004663D02*
X006515Y004663D01*
X006494Y004504D02*
X004849Y004504D01*
X005008Y004346D02*
X006494Y004346D01*
X006494Y004187D02*
X005166Y004187D01*
X005325Y004029D02*
X007034Y004029D01*
X007034Y004187D02*
X007154Y004187D01*
X007154Y004145D02*
X007154Y005103D01*
X007235Y005090D01*
X007325Y005061D01*
X007409Y005018D01*
X007485Y004963D01*
X007552Y004896D01*
X007608Y004820D01*
X007651Y004735D01*
X007680Y004646D01*
X007694Y004552D01*
X007694Y004145D01*
X007154Y004145D01*
X007154Y004346D02*
X007034Y004346D01*
X007034Y004504D02*
X007154Y004504D01*
X007154Y004663D02*
X007034Y004663D01*
X007034Y004821D02*
X007154Y004821D01*
X007154Y004980D02*
X007034Y004980D01*
X006823Y005297D02*
X004057Y005297D01*
X003898Y005455D02*
X006664Y005455D01*
X006506Y005614D02*
X003740Y005614D01*
X003581Y005772D02*
X006377Y005772D01*
X006266Y005931D02*
X003423Y005931D01*
X003264Y006089D02*
X006244Y006089D01*
X006295Y006248D02*
X003106Y006248D01*
X005483Y003870D02*
X006494Y003870D01*
X006494Y003712D02*
X005642Y003712D01*
X005800Y003553D02*
X006505Y003553D01*
X006559Y003395D02*
X005959Y003395D01*
X006117Y003236D02*
X006675Y003236D01*
X007034Y003236D02*
X007154Y003236D01*
X007154Y003395D02*
X007034Y003395D01*
X007034Y003553D02*
X007154Y003553D01*
X007154Y003712D02*
X007034Y003712D01*
X007034Y003870D02*
X007154Y003870D01*
X007694Y004187D02*
X007892Y004187D01*
X007892Y004346D02*
X007694Y004346D01*
X007694Y004504D02*
X007892Y004504D01*
X007910Y004663D02*
X007674Y004663D01*
X007606Y004821D02*
X007976Y004821D01*
X008127Y004980D02*
X007462Y004980D01*
X008818Y004980D02*
X009108Y004980D01*
X011648Y003236D02*
X012215Y003236D01*
X012090Y003395D02*
X011764Y003395D01*
X011818Y003553D02*
X012026Y003553D01*
X012026Y003712D02*
X011828Y003712D01*
X011828Y003870D02*
X012026Y003870D01*
X012998Y003236D02*
X013593Y003236D01*
X013468Y003395D02*
X013122Y003395D01*
X013186Y003553D02*
X013404Y003553D01*
X013404Y003712D02*
X013186Y003712D01*
X013186Y003870D02*
X013404Y003870D01*
X014564Y003870D02*
X015220Y003870D01*
X015201Y004029D02*
X014564Y004029D01*
X014564Y004187D02*
X015047Y004187D01*
X014889Y004346D02*
X014564Y004346D01*
X014564Y004504D02*
X014749Y004504D01*
X014749Y004663D02*
X014547Y004663D01*
X014481Y004821D02*
X014749Y004821D01*
X014564Y003712D02*
X015327Y003712D01*
X014870Y003199D02*
X014181Y002510D01*
X013787Y002510D01*
X013831Y002127D02*
X000685Y002127D01*
X000685Y001968D02*
X013990Y001968D01*
X014148Y001810D02*
X000685Y001810D01*
X000685Y001651D02*
X014307Y001651D01*
X014465Y001493D02*
X000685Y001493D01*
X000685Y001334D02*
X014624Y001334D01*
X014782Y001176D02*
X000685Y001176D01*
X014669Y001968D02*
X015348Y001968D01*
X015189Y001810D02*
X014827Y001810D01*
X014986Y001651D02*
X015178Y001651D01*
X015178Y001493D02*
X015144Y001493D01*
X017889Y001968D02*
X018319Y001968D01*
X018161Y001810D02*
X018047Y001810D01*
X018058Y001651D02*
X018158Y001651D01*
X018158Y001493D02*
X018058Y001493D01*
X017958Y001334D02*
X018250Y001334D01*
X018608Y001651D02*
X018628Y001651D01*
X018628Y001810D02*
X018608Y001810D01*
X018608Y001968D02*
X018628Y001968D01*
X019004Y001034D02*
X019587Y001617D01*
X019618Y001617D01*
X020618Y001617D01*
X020348Y001968D02*
X019889Y001968D01*
X019909Y002285D02*
X020327Y002285D01*
X020178Y002444D02*
X020058Y002444D01*
X020058Y002602D02*
X020178Y002602D01*
X020178Y002761D02*
X020058Y002761D01*
X019938Y002919D02*
X020299Y002919D01*
X019348Y003395D02*
X019314Y003395D01*
X020889Y001968D02*
X020985Y001968D01*
M02*
