%
M48
M72
T01C0.0236
T02C0.0320
T03C0.0354
T04C0.0360
T05C0.0400
T06C0.0560
T07C0.0630
T08C0.0669
T09C0.0709
%
T01
X1484Y7038
X3551Y7038
X5815Y7432
X6602Y6054
X9260Y9105
X9703Y7973
X10933Y8810
X10638Y10089
X10146Y11270
X10490Y13239
X11278Y13288
X13197Y15010
X11524Y18357
X11425Y21310
X15756Y21310
X15854Y18357
X20185Y18357
X18807Y13239
X17035Y11270
X16051Y11270
X13787Y9892
X13787Y8514
X12508Y8514
X12409Y9991
X9112Y13239
X7734Y13239
X6356Y13239
X4929Y13239
X6602Y15207
X6602Y18357
X6898Y20621
X1386Y13239
X2469Y10877
X4929Y11369
X6996Y9302
X10736Y6054
X15264Y6447
X15559Y3987
X19496Y6940
X20382Y5955
X20382Y8416
T02
X20610Y3987
X19610Y3987
X18610Y3987
X17610Y3987
X16610Y3987
T03
X2547Y12373
X2547Y14105
T04
X15618Y2617
X16618Y2617
X17618Y2617
X18618Y2617
X19618Y2617
X20618Y2617
X20618Y1617
X19618Y1617
X18618Y1617
X17618Y1617
X16618Y1617
X15618Y1617
T05
X15559Y5463
X16559Y5463
X17559Y5463
X17528Y7727
X16528Y7727
T06
X13984Y4085
X12606Y4085
X11228Y4085
X9850Y4085
X8472Y4085
X7094Y4085
T07
X3748Y21113
T08
X9752Y20719
X9752Y17963
X14083Y17963
X14083Y20719
X18413Y20719
X18413Y17963
T09
X3748Y19341
M30
