G75*
%MOIN*%
%OFA0B0*%
%FSLAX24Y24*%
%IPPOS*%
%LPD*%
%AMOC8*
5,1,8,0,0,1.08239X$1,22.5*
%
%ADD10C,0.0820*%
%ADD11C,0.0600*%
%ADD12C,0.0434*%
%ADD13C,0.0749*%
%ADD14C,0.0640*%
%ADD15OC8,0.0640*%
%ADD16C,0.0920*%
%ADD17C,0.0710*%
%ADD18C,0.0789*%
%ADD19C,0.0476*%
D10*
X016543Y005463D03*
X017543Y005463D03*
X017528Y007727D03*
X016528Y007727D03*
D11*
X016610Y004247D02*
X016610Y003727D01*
X017610Y003727D02*
X017610Y004247D01*
X018610Y004247D02*
X018610Y003727D01*
X019610Y003727D02*
X019610Y004247D01*
X020610Y004247D02*
X020610Y003727D01*
D12*
X002547Y012373D03*
X002547Y014105D03*
D13*
X009752Y017963D03*
X009752Y020719D03*
X014083Y020719D03*
X014083Y017963D03*
X018413Y017963D03*
X018413Y020719D03*
D14*
X020618Y001617D03*
D15*
X020618Y002617D03*
X019618Y002617D03*
X018618Y002617D03*
X017618Y002617D03*
X016618Y002617D03*
X015618Y002617D03*
X015618Y001617D03*
X016618Y001617D03*
X017618Y001617D03*
X018618Y001617D03*
X019618Y001617D03*
D16*
X013984Y003665D02*
X013984Y004505D01*
X012606Y004505D02*
X012606Y003665D01*
X011228Y003665D02*
X011228Y004505D01*
X009850Y004505D02*
X009850Y003665D01*
X008472Y003665D02*
X008472Y004505D01*
X007094Y004505D02*
X007094Y003665D01*
D17*
X003748Y021113D03*
D18*
X003748Y019341D03*
D19*
X001484Y007038D03*
X003551Y007038D03*
X005815Y007432D03*
X006602Y006054D03*
X006996Y009302D03*
X004929Y011369D03*
X004929Y013239D03*
X006356Y013239D03*
X007734Y013239D03*
X009112Y013239D03*
X010490Y013239D03*
X011278Y013288D03*
X010146Y011270D03*
X010638Y010089D03*
X012409Y009991D03*
X013787Y009892D03*
X013787Y008514D03*
X012508Y008514D03*
X015264Y006447D03*
X015559Y003987D03*
X019496Y006940D03*
X020382Y005758D03*
X020185Y008416D03*
X017035Y011270D03*
X016051Y011270D03*
X014575Y011664D03*
X013197Y015010D03*
X011524Y018357D03*
X011425Y021310D03*
X015756Y021310D03*
X015854Y018357D03*
X020185Y018357D03*
X018807Y013239D03*
X009703Y007973D03*
X006602Y015207D03*
X006602Y018357D03*
X006898Y020621D03*
X001386Y013239D03*
X002469Y010877D03*
M02*
