G75*
%MOIN*%
%OFA0B0*%
%FSLAX24Y24*%
%IPPOS*%
%LPD*%
%AMOC8*
5,1,8,0,0,1.08239X$1,22.5*
%
%ADD10C,0.0060*%
%ADD11C,0.0120*%
%ADD12C,0.0100*%
%ADD13C,0.0040*%
%ADD14R,0.0002X0.0003*%
%ADD15R,0.0005X0.0002*%
%ADD16R,0.0008X0.0003*%
%ADD17R,0.0010X0.0002*%
%ADD18R,0.0023X0.0002*%
%ADD19R,0.0010X0.0003*%
%ADD20R,0.0035X0.0003*%
%ADD21R,0.0015X0.0002*%
%ADD22R,0.0042X0.0002*%
%ADD23R,0.0018X0.0003*%
%ADD24R,0.0050X0.0003*%
%ADD25R,0.0020X0.0002*%
%ADD26R,0.0055X0.0002*%
%ADD27R,0.0002X0.0002*%
%ADD28R,0.0020X0.0003*%
%ADD29R,0.0060X0.0003*%
%ADD30R,0.0025X0.0002*%
%ADD31R,0.0068X0.0002*%
%ADD32R,0.0027X0.0003*%
%ADD33R,0.0072X0.0003*%
%ADD34R,0.0005X0.0003*%
%ADD35R,0.0032X0.0002*%
%ADD36R,0.0077X0.0002*%
%ADD37R,0.0007X0.0002*%
%ADD38R,0.0033X0.0002*%
%ADD39R,0.0083X0.0003*%
%ADD40R,0.0007X0.0003*%
%ADD41R,0.0045X0.0003*%
%ADD42R,0.0120X0.0002*%
%ADD43R,0.0027X0.0002*%
%ADD44R,0.0013X0.0002*%
%ADD45R,0.0012X0.0002*%
%ADD46R,0.0057X0.0002*%
%ADD47R,0.0060X0.0002*%
%ADD48R,0.0003X0.0002*%
%ADD49R,0.0122X0.0003*%
%ADD50R,0.0033X0.0003*%
%ADD51R,0.0015X0.0003*%
%ADD52R,0.0017X0.0003*%
%ADD53R,0.0065X0.0003*%
%ADD54R,0.0082X0.0003*%
%ADD55R,0.0123X0.0002*%
%ADD56R,0.0065X0.0002*%
%ADD57R,0.0035X0.0002*%
%ADD58R,0.0018X0.0002*%
%ADD59R,0.0097X0.0002*%
%ADD60R,0.0105X0.0002*%
%ADD61R,0.0125X0.0003*%
%ADD62R,0.0100X0.0003*%
%ADD63R,0.0040X0.0003*%
%ADD64R,0.0022X0.0003*%
%ADD65R,0.0118X0.0003*%
%ADD66R,0.0013X0.0003*%
%ADD67R,0.0133X0.0002*%
%ADD68R,0.0048X0.0002*%
%ADD69R,0.0103X0.0002*%
%ADD70R,0.0128X0.0002*%
%ADD71R,0.0037X0.0002*%
%ADD72R,0.0275X0.0003*%
%ADD73R,0.0090X0.0003*%
%ADD74R,0.0110X0.0003*%
%ADD75R,0.0140X0.0003*%
%ADD76R,0.0070X0.0003*%
%ADD77R,0.0277X0.0002*%
%ADD78R,0.0095X0.0002*%
%ADD79R,0.0118X0.0002*%
%ADD80R,0.0160X0.0002*%
%ADD81R,0.0073X0.0002*%
%ADD82R,0.0285X0.0003*%
%ADD83R,0.0282X0.0003*%
%ADD84R,0.0075X0.0003*%
%ADD85R,0.0290X0.0002*%
%ADD86R,0.0008X0.0002*%
%ADD87R,0.0285X0.0002*%
%ADD88R,0.0080X0.0002*%
%ADD89R,0.0300X0.0003*%
%ADD90R,0.0025X0.0003*%
%ADD91R,0.0085X0.0003*%
%ADD92R,0.0460X0.0002*%
%ADD93R,0.0088X0.0002*%
%ADD94R,0.0458X0.0003*%
%ADD95R,0.0087X0.0003*%
%ADD96R,0.0455X0.0002*%
%ADD97R,0.0078X0.0002*%
%ADD98R,0.0090X0.0002*%
%ADD99R,0.0447X0.0003*%
%ADD100R,0.0080X0.0003*%
%ADD101R,0.0443X0.0002*%
%ADD102R,0.0083X0.0002*%
%ADD103R,0.0017X0.0002*%
%ADD104R,0.0283X0.0002*%
%ADD105R,0.0093X0.0002*%
%ADD106R,0.0440X0.0003*%
%ADD107R,0.0280X0.0003*%
%ADD108R,0.0095X0.0003*%
%ADD109R,0.0435X0.0002*%
%ADD110R,0.0085X0.0002*%
%ADD111R,0.0075X0.0002*%
%ADD112R,0.0045X0.0002*%
%ADD113R,0.0400X0.0002*%
%ADD114R,0.0425X0.0003*%
%ADD115R,0.0102X0.0003*%
%ADD116R,0.0355X0.0003*%
%ADD117R,0.0415X0.0002*%
%ADD118R,0.0115X0.0002*%
%ADD119R,0.0108X0.0002*%
%ADD120R,0.0352X0.0002*%
%ADD121R,0.0398X0.0003*%
%ADD122R,0.0093X0.0003*%
%ADD123R,0.0128X0.0003*%
%ADD124R,0.0113X0.0003*%
%ADD125R,0.0353X0.0003*%
%ADD126R,0.0380X0.0002*%
%ADD127R,0.0242X0.0002*%
%ADD128R,0.0348X0.0002*%
%ADD129R,0.0253X0.0003*%
%ADD130R,0.0248X0.0003*%
%ADD131R,0.0133X0.0003*%
%ADD132R,0.0347X0.0003*%
%ADD133R,0.0227X0.0002*%
%ADD134R,0.0262X0.0002*%
%ADD135R,0.0157X0.0002*%
%ADD136R,0.0030X0.0002*%
%ADD137R,0.0275X0.0002*%
%ADD138R,0.0063X0.0002*%
%ADD139R,0.0195X0.0003*%
%ADD140R,0.0435X0.0003*%
%ADD141R,0.0305X0.0003*%
%ADD142R,0.0193X0.0002*%
%ADD143R,0.0432X0.0002*%
%ADD144R,0.0293X0.0002*%
%ADD145R,0.0198X0.0003*%
%ADD146R,0.0428X0.0003*%
%ADD147R,0.0293X0.0003*%
%ADD148R,0.0022X0.0002*%
%ADD149R,0.0210X0.0002*%
%ADD150R,0.0420X0.0002*%
%ADD151R,0.0325X0.0002*%
%ADD152R,0.0220X0.0003*%
%ADD153R,0.0415X0.0003*%
%ADD154R,0.0320X0.0003*%
%ADD155R,0.0245X0.0002*%
%ADD156R,0.0410X0.0002*%
%ADD157R,0.0320X0.0002*%
%ADD158R,0.0313X0.0003*%
%ADD159R,0.0317X0.0003*%
%ADD160R,0.0317X0.0002*%
%ADD161R,0.0375X0.0002*%
%ADD162R,0.0315X0.0002*%
%ADD163R,0.0323X0.0003*%
%ADD164R,0.0375X0.0003*%
%ADD165R,0.0315X0.0003*%
%ADD166R,0.0273X0.0002*%
%ADD167R,0.0328X0.0003*%
%ADD168R,0.0270X0.0003*%
%ADD169R,0.0182X0.0003*%
%ADD170R,0.0123X0.0003*%
%ADD171R,0.0330X0.0002*%
%ADD172R,0.0267X0.0002*%
%ADD173R,0.0373X0.0003*%
%ADD174R,0.0267X0.0003*%
%ADD175R,0.0108X0.0003*%
%ADD176R,0.0100X0.0002*%
%ADD177R,0.0277X0.0003*%
%ADD178R,0.0053X0.0003*%
%ADD179R,0.0378X0.0003*%
%ADD180R,0.0292X0.0003*%
%ADD181R,0.0030X0.0003*%
%ADD182R,0.0042X0.0003*%
%ADD183R,0.0377X0.0002*%
%ADD184R,0.0297X0.0002*%
%ADD185R,0.0043X0.0002*%
%ADD186R,0.0058X0.0003*%
%ADD187R,0.0310X0.0002*%
%ADD188R,0.0102X0.0002*%
%ADD189R,0.0067X0.0003*%
%ADD190R,0.0280X0.0002*%
%ADD191R,0.0322X0.0002*%
%ADD192R,0.0175X0.0003*%
%ADD193R,0.0327X0.0003*%
%ADD194R,0.0072X0.0002*%
%ADD195R,0.0158X0.0002*%
%ADD196R,0.0335X0.0002*%
%ADD197R,0.0070X0.0002*%
%ADD198R,0.0155X0.0003*%
%ADD199R,0.0157X0.0003*%
%ADD200R,0.0160X0.0003*%
%ADD201R,0.0150X0.0002*%
%ADD202R,0.0148X0.0002*%
%ADD203R,0.0155X0.0002*%
%ADD204R,0.0062X0.0003*%
%ADD205R,0.0148X0.0003*%
%ADD206R,0.0142X0.0003*%
%ADD207R,0.0145X0.0003*%
%ADD208R,0.0147X0.0002*%
%ADD209R,0.0142X0.0002*%
%ADD210R,0.0143X0.0002*%
%ADD211R,0.0067X0.0002*%
%ADD212R,0.0170X0.0003*%
%ADD213R,0.0143X0.0003*%
%ADD214R,0.0068X0.0003*%
%ADD215R,0.0145X0.0002*%
%ADD216R,0.0165X0.0002*%
%ADD217R,0.0140X0.0002*%
%ADD218R,0.0163X0.0003*%
%ADD219R,0.0150X0.0003*%
%ADD220R,0.0003X0.0003*%
%ADD221R,0.0063X0.0003*%
%ADD222R,0.0137X0.0003*%
%ADD223R,0.0082X0.0002*%
%ADD224R,0.0138X0.0003*%
%ADD225R,0.0062X0.0002*%
%ADD226R,0.0137X0.0002*%
%ADD227R,0.0077X0.0003*%
%ADD228R,0.0135X0.0002*%
%ADD229R,0.0135X0.0003*%
%ADD230R,0.0103X0.0003*%
%ADD231R,0.0058X0.0002*%
%ADD232R,0.0055X0.0003*%
%ADD233R,0.0047X0.0003*%
%ADD234R,0.0105X0.0003*%
%ADD235R,0.0053X0.0002*%
%ADD236R,0.0050X0.0002*%
%ADD237R,0.0132X0.0002*%
%ADD238R,0.0152X0.0002*%
%ADD239R,0.0130X0.0003*%
%ADD240R,0.0130X0.0002*%
%ADD241R,0.0028X0.0002*%
%ADD242R,0.0107X0.0002*%
%ADD243R,0.0028X0.0003*%
%ADD244R,0.0107X0.0003*%
%ADD245R,0.0167X0.0003*%
%ADD246R,0.0172X0.0002*%
%ADD247R,0.0023X0.0003*%
%ADD248R,0.0180X0.0002*%
%ADD249R,0.0110X0.0002*%
%ADD250R,0.0187X0.0002*%
%ADD251R,0.0132X0.0003*%
%ADD252R,0.0190X0.0003*%
%ADD253R,0.0200X0.0002*%
%ADD254R,0.0052X0.0002*%
%ADD255R,0.0112X0.0002*%
%ADD256R,0.0012X0.0003*%
%ADD257R,0.0272X0.0003*%
%ADD258R,0.0112X0.0003*%
%ADD259R,0.0272X0.0002*%
%ADD260R,0.0115X0.0003*%
%ADD261R,0.0268X0.0002*%
%ADD262R,0.0265X0.0003*%
%ADD263R,0.0265X0.0002*%
%ADD264R,0.0117X0.0003*%
%ADD265R,0.0260X0.0002*%
%ADD266R,0.0260X0.0003*%
%ADD267R,0.0120X0.0003*%
%ADD268R,0.0122X0.0002*%
%ADD269R,0.0038X0.0002*%
%ADD270R,0.0255X0.0002*%
%ADD271R,0.0127X0.0002*%
%ADD272R,0.0255X0.0003*%
%ADD273R,0.0040X0.0002*%
%ADD274R,0.0252X0.0002*%
%ADD275R,0.0043X0.0003*%
%ADD276R,0.0250X0.0003*%
%ADD277R,0.0248X0.0002*%
%ADD278R,0.0152X0.0003*%
%ADD279R,0.0245X0.0003*%
%ADD280R,0.0153X0.0002*%
%ADD281R,0.0243X0.0003*%
%ADD282R,0.0162X0.0002*%
%ADD283R,0.0243X0.0002*%
%ADD284R,0.0240X0.0003*%
%ADD285R,0.0147X0.0003*%
%ADD286R,0.0240X0.0002*%
%ADD287R,0.0158X0.0003*%
%ADD288R,0.0250X0.0002*%
%ADD289R,0.0305X0.0002*%
%ADD290R,0.0308X0.0003*%
%ADD291R,0.0228X0.0003*%
%ADD292R,0.0308X0.0002*%
%ADD293R,0.0307X0.0003*%
%ADD294R,0.0232X0.0003*%
%ADD295R,0.0253X0.0002*%
%ADD296R,0.0235X0.0002*%
%ADD297R,0.0310X0.0003*%
%ADD298R,0.0047X0.0002*%
%ADD299R,0.0313X0.0002*%
%ADD300R,0.0312X0.0003*%
%ADD301R,0.0287X0.0002*%
%ADD302R,0.0263X0.0003*%
%ADD303R,0.0288X0.0003*%
%ADD304R,0.0302X0.0002*%
%ADD305R,0.0057X0.0003*%
%ADD306R,0.0322X0.0003*%
%ADD307R,0.0307X0.0002*%
%ADD308R,0.0330X0.0003*%
%ADD309R,0.0312X0.0002*%
%ADD310R,0.0333X0.0002*%
%ADD311R,0.0337X0.0003*%
%ADD312R,0.0300X0.0002*%
%ADD313R,0.0340X0.0002*%
%ADD314R,0.0340X0.0003*%
%ADD315R,0.0342X0.0002*%
%ADD316R,0.0325X0.0003*%
%ADD317R,0.0295X0.0003*%
%ADD318R,0.0343X0.0003*%
%ADD319R,0.0328X0.0002*%
%ADD320R,0.0345X0.0002*%
%ADD321R,0.0290X0.0003*%
%ADD322R,0.0342X0.0003*%
%ADD323R,0.0333X0.0003*%
%ADD324R,0.0335X0.0003*%
%ADD325R,0.0338X0.0002*%
%ADD326R,0.0350X0.0003*%
%ADD327R,0.0332X0.0003*%
%ADD328R,0.0355X0.0002*%
%ADD329R,0.0362X0.0003*%
%ADD330R,0.0273X0.0003*%
%ADD331R,0.0365X0.0002*%
%ADD332R,0.0270X0.0002*%
%ADD333R,0.0162X0.0003*%
%ADD334R,0.0268X0.0003*%
%ADD335R,0.0168X0.0002*%
%ADD336R,0.0378X0.0002*%
%ADD337R,0.0172X0.0003*%
%ADD338R,0.0382X0.0003*%
%ADD339R,0.0178X0.0002*%
%ADD340R,0.0388X0.0002*%
%ADD341R,0.0292X0.0002*%
%ADD342R,0.0185X0.0003*%
%ADD343R,0.0392X0.0003*%
%ADD344R,0.0587X0.0002*%
%ADD345R,0.0258X0.0002*%
%ADD346R,0.0593X0.0003*%
%ADD347R,0.0257X0.0003*%
%ADD348R,0.0600X0.0002*%
%ADD349R,0.0257X0.0002*%
%ADD350R,0.0602X0.0003*%
%ADD351R,0.0608X0.0002*%
%ADD352R,0.0612X0.0003*%
%ADD353R,0.0620X0.0002*%
%ADD354R,0.0625X0.0003*%
%ADD355R,0.0630X0.0002*%
%ADD356R,0.0635X0.0003*%
%ADD357R,0.0258X0.0003*%
%ADD358R,0.0642X0.0002*%
%ADD359R,0.0645X0.0003*%
%ADD360R,0.0247X0.0003*%
%ADD361R,0.0650X0.0002*%
%ADD362R,0.0655X0.0003*%
%ADD363R,0.0663X0.0002*%
%ADD364R,0.0670X0.0003*%
%ADD365R,0.0678X0.0002*%
%ADD366R,0.0237X0.0002*%
%ADD367R,0.0685X0.0003*%
%ADD368R,0.0237X0.0003*%
%ADD369R,0.0690X0.0002*%
%ADD370R,0.0700X0.0003*%
%ADD371R,0.0235X0.0003*%
%ADD372R,0.0233X0.0003*%
%ADD373R,0.0712X0.0002*%
%ADD374R,0.0230X0.0002*%
%ADD375R,0.0952X0.0003*%
%ADD376R,0.0955X0.0002*%
%ADD377R,0.0225X0.0002*%
%ADD378R,0.0955X0.0003*%
%ADD379R,0.0222X0.0003*%
%ADD380R,0.0960X0.0002*%
%ADD381R,0.0222X0.0002*%
%ADD382R,0.0960X0.0003*%
%ADD383R,0.0963X0.0002*%
%ADD384R,0.0217X0.0002*%
%ADD385R,0.0963X0.0003*%
%ADD386R,0.0215X0.0003*%
%ADD387R,0.0967X0.0002*%
%ADD388R,0.0215X0.0002*%
%ADD389R,0.0967X0.0003*%
%ADD390R,0.0213X0.0003*%
%ADD391R,0.0970X0.0003*%
%ADD392R,0.0210X0.0003*%
%ADD393R,0.0973X0.0002*%
%ADD394R,0.0208X0.0002*%
%ADD395R,0.0975X0.0003*%
%ADD396R,0.0205X0.0003*%
%ADD397R,0.0977X0.0002*%
%ADD398R,0.0205X0.0002*%
%ADD399R,0.0977X0.0003*%
%ADD400R,0.0983X0.0002*%
%ADD401R,0.0983X0.0003*%
%ADD402R,0.0987X0.0002*%
%ADD403R,0.0990X0.0003*%
%ADD404R,0.0990X0.0002*%
%ADD405R,0.0995X0.0003*%
%ADD406R,0.0998X0.0002*%
%ADD407R,0.1003X0.0003*%
%ADD408R,0.1007X0.0002*%
%ADD409R,0.1010X0.0003*%
%ADD410R,0.0212X0.0003*%
%ADD411R,0.1012X0.0002*%
%ADD412R,0.0212X0.0002*%
%ADD413R,0.1018X0.0003*%
%ADD414R,0.1020X0.0002*%
%ADD415R,0.0218X0.0002*%
%ADD416R,0.1027X0.0003*%
%ADD417R,0.1032X0.0002*%
%ADD418R,0.1040X0.0003*%
%ADD419R,0.0230X0.0003*%
%ADD420R,0.1273X0.0002*%
%ADD421R,0.1273X0.0003*%
%ADD422R,0.0180X0.0003*%
%ADD423R,0.0203X0.0002*%
%ADD424R,0.1272X0.0002*%
%ADD425R,0.1522X0.0003*%
%ADD426R,0.1527X0.0002*%
%ADD427R,0.1532X0.0003*%
%ADD428R,0.1540X0.0002*%
%ADD429R,0.1543X0.0003*%
%ADD430R,0.1548X0.0002*%
%ADD431R,0.1550X0.0003*%
%ADD432R,0.1555X0.0002*%
%ADD433R,0.1560X0.0003*%
%ADD434R,0.1562X0.0002*%
%ADD435R,0.1565X0.0003*%
%ADD436R,0.1567X0.0002*%
%ADD437R,0.1575X0.0003*%
%ADD438R,0.1578X0.0002*%
%ADD439R,0.1580X0.0003*%
%ADD440R,0.1580X0.0002*%
%ADD441R,0.1583X0.0003*%
%ADD442R,0.1587X0.0002*%
%ADD443R,0.1590X0.0003*%
%ADD444R,0.1592X0.0002*%
%ADD445R,0.1592X0.0003*%
%ADD446R,0.0370X0.0002*%
%ADD447R,0.1225X0.0002*%
%ADD448R,0.1225X0.0003*%
%ADD449R,0.0373X0.0002*%
%ADD450R,0.1222X0.0002*%
%ADD451R,0.0377X0.0003*%
%ADD452R,0.0203X0.0003*%
%ADD453R,0.0207X0.0002*%
%ADD454R,0.0207X0.0003*%
%ADD455R,0.1223X0.0003*%
%ADD456R,0.1220X0.0002*%
%ADD457R,0.1222X0.0003*%
%ADD458R,0.1217X0.0003*%
%ADD459R,0.1218X0.0002*%
%ADD460R,0.0218X0.0003*%
%ADD461R,0.0968X0.0003*%
%ADD462R,0.0220X0.0002*%
%ADD463R,0.0032X0.0003*%
%ADD464R,0.0223X0.0003*%
%ADD465R,0.0937X0.0003*%
%ADD466R,0.0918X0.0002*%
%ADD467R,0.0052X0.0003*%
%ADD468R,0.0097X0.0003*%
%ADD469R,0.0898X0.0003*%
%ADD470R,0.0878X0.0002*%
%ADD471R,0.0823X0.0003*%
%ADD472R,0.0127X0.0003*%
%ADD473R,0.0092X0.0002*%
%ADD474R,0.0700X0.0002*%
%ADD475R,0.0670X0.0002*%
%ADD476R,0.0640X0.0002*%
%ADD477R,0.0627X0.0003*%
%ADD478R,0.0615X0.0002*%
%ADD479R,0.0605X0.0003*%
%ADD480R,0.0595X0.0002*%
%ADD481R,0.0588X0.0003*%
%ADD482R,0.0098X0.0003*%
%ADD483R,0.0362X0.0002*%
%ADD484R,0.0578X0.0002*%
%ADD485R,0.0395X0.0003*%
%ADD486R,0.0567X0.0003*%
%ADD487R,0.0422X0.0002*%
%ADD488R,0.0560X0.0002*%
%ADD489R,0.0432X0.0003*%
%ADD490R,0.0555X0.0003*%
%ADD491R,0.0442X0.0002*%
%ADD492R,0.0548X0.0002*%
%ADD493R,0.0450X0.0003*%
%ADD494R,0.0540X0.0003*%
%ADD495R,0.0092X0.0003*%
%ADD496R,0.0530X0.0002*%
%ADD497R,0.0462X0.0003*%
%ADD498R,0.0523X0.0003*%
%ADD499R,0.0467X0.0002*%
%ADD500R,0.0517X0.0002*%
%ADD501R,0.0472X0.0003*%
%ADD502R,0.0510X0.0003*%
%ADD503R,0.0475X0.0002*%
%ADD504R,0.0502X0.0002*%
%ADD505R,0.0480X0.0003*%
%ADD506R,0.0497X0.0003*%
%ADD507R,0.0482X0.0002*%
%ADD508R,0.0490X0.0002*%
%ADD509R,0.0485X0.0003*%
%ADD510R,0.0487X0.0002*%
%ADD511R,0.0488X0.0003*%
%ADD512R,0.0468X0.0003*%
%ADD513R,0.0153X0.0003*%
%ADD514R,0.0493X0.0003*%
%ADD515R,0.0453X0.0003*%
%ADD516R,0.0495X0.0002*%
%ADD517R,0.0448X0.0002*%
%ADD518R,0.0037X0.0003*%
%ADD519R,0.0495X0.0003*%
%ADD520R,0.0442X0.0003*%
%ADD521R,0.0498X0.0002*%
%ADD522R,0.0450X0.0002*%
%ADD523R,0.0038X0.0003*%
%ADD524R,0.0500X0.0003*%
%ADD525R,0.0165X0.0003*%
%ADD526R,0.0500X0.0002*%
%ADD527R,0.0512X0.0002*%
%ADD528R,0.0073X0.0003*%
%ADD529R,0.0502X0.0003*%
%ADD530R,0.0113X0.0002*%
%ADD531R,0.0505X0.0002*%
%ADD532R,0.0493X0.0002*%
%ADD533R,0.0505X0.0003*%
%ADD534R,0.0483X0.0003*%
%ADD535R,0.0358X0.0003*%
%ADD536R,0.0465X0.0003*%
%ADD537R,0.0457X0.0002*%
%ADD538R,0.0445X0.0003*%
%ADD539R,0.0438X0.0002*%
%ADD540R,0.0098X0.0002*%
%ADD541R,0.0417X0.0002*%
%ADD542R,0.0410X0.0003*%
%ADD543R,0.0402X0.0002*%
%ADD544R,0.0318X0.0002*%
%ADD545R,0.0318X0.0003*%
%ADD546R,0.0370X0.0003*%
%ADD547R,0.0363X0.0002*%
%ADD548R,0.0088X0.0003*%
%ADD549R,0.0283X0.0003*%
%ADD550R,0.0357X0.0002*%
%ADD551R,0.0087X0.0002*%
%ADD552R,0.0117X0.0002*%
%ADD553R,0.0350X0.0002*%
%ADD554R,0.0188X0.0003*%
%ADD555R,0.0195X0.0002*%
%ADD556R,0.0178X0.0003*%
%ADD557R,0.0327X0.0002*%
%ADD558R,0.0213X0.0002*%
%ADD559R,0.0233X0.0002*%
%ADD560R,0.0298X0.0002*%
%ADD561R,0.0138X0.0002*%
%ADD562R,0.0238X0.0003*%
%ADD563R,0.0202X0.0003*%
%ADD564R,0.0282X0.0002*%
%ADD565R,0.0358X0.0002*%
%ADD566R,0.0202X0.0002*%
%ADD567R,0.0420X0.0003*%
%ADD568R,0.0440X0.0002*%
%ADD569R,0.0225X0.0003*%
%ADD570R,0.0192X0.0002*%
%ADD571R,0.0217X0.0003*%
%ADD572R,0.0278X0.0003*%
%ADD573R,0.0457X0.0003*%
%ADD574R,0.0182X0.0002*%
%ADD575R,0.0452X0.0003*%
%ADD576R,0.0177X0.0003*%
%ADD577R,0.0438X0.0003*%
%ADD578R,0.0433X0.0002*%
%ADD579R,0.0405X0.0003*%
%ADD580R,0.0278X0.0002*%
%ADD581R,0.0393X0.0003*%
%ADD582R,0.0387X0.0002*%
%ADD583R,0.0380X0.0003*%
%ADD584R,0.0367X0.0002*%
%ADD585R,0.0363X0.0003*%
%ADD586R,0.0360X0.0002*%
%ADD587R,0.0288X0.0002*%
%ADD588R,0.0348X0.0003*%
%ADD589R,0.0338X0.0003*%
%ADD590R,0.0302X0.0003*%
%ADD591R,0.0295X0.0002*%
%ADD592R,0.0232X0.0002*%
%ADD593R,0.0188X0.0002*%
%ADD594R,0.0193X0.0003*%
%ADD595R,0.0125X0.0002*%
%ADD596R,0.0190X0.0002*%
%ADD597R,0.0187X0.0003*%
%ADD598R,0.0208X0.0003*%
%ADD599R,0.0170X0.0002*%
%ADD600R,0.0167X0.0002*%
%ADD601R,0.0173X0.0003*%
%ADD602R,0.0175X0.0002*%
%ADD603R,0.0393X0.0002*%
%ADD604R,0.0185X0.0002*%
%ADD605R,0.0477X0.0002*%
%ADD606R,0.0252X0.0003*%
%ADD607R,0.0197X0.0003*%
%ADD608R,0.0247X0.0002*%
%ADD609R,0.0503X0.0003*%
%ADD610R,0.0510X0.0002*%
%ADD611R,0.0518X0.0003*%
%ADD612R,0.0527X0.0002*%
%ADD613R,0.0535X0.0003*%
%ADD614R,0.0537X0.0002*%
%ADD615R,0.0508X0.0003*%
%ADD616R,0.0472X0.0002*%
%ADD617R,0.0200X0.0003*%
%ADD618R,0.0433X0.0003*%
%ADD619R,0.0197X0.0002*%
%ADD620R,0.0423X0.0002*%
%ADD621R,0.0413X0.0003*%
%ADD622R,0.0405X0.0002*%
%ADD623R,0.0397X0.0003*%
%ADD624R,0.0332X0.0002*%
%ADD625R,0.0287X0.0003*%
%ADD626R,0.0183X0.0002*%
%ADD627R,0.0183X0.0003*%
%ADD628R,0.0227X0.0003*%
%ADD629R,0.0048X0.0003*%
%ADD630R,0.0518X0.0002*%
%ADD631R,0.0533X0.0003*%
%ADD632R,0.0598X0.0002*%
%ADD633R,0.0173X0.0002*%
%ADD634R,0.0600X0.0003*%
%ADD635R,0.0412X0.0003*%
%ADD636R,0.0168X0.0003*%
%ADD637R,0.0003X0.0003*%
%ADD638R,0.0163X0.0002*%
%ADD639R,0.0177X0.0002*%
%ADD640R,0.0418X0.0003*%
%ADD641C,0.0080*%
%ADD642C,0.0080*%
%ADD643C,0.0050*%
%ADD644C,0.0143*%
%ADD645C,0.0030*%
%ADD646R,0.0118X0.0059*%
%ADD647R,0.0118X0.0118*%
%ADD648C,0.0010*%
%ADD649C,0.0070*%
D10*
X001908Y001599D02*
X001951Y001556D01*
X002038Y001556D01*
X002081Y001599D01*
X002081Y001773D01*
X002038Y001816D01*
X001951Y001816D01*
X001908Y001773D01*
X001908Y001599D01*
X002203Y001556D02*
X002333Y001556D01*
X002376Y001599D01*
X002376Y001686D01*
X002333Y001730D01*
X002203Y001730D01*
X002203Y001469D01*
X002497Y001599D02*
X002497Y001686D01*
X002541Y001730D01*
X002627Y001730D01*
X002671Y001686D01*
X002671Y001643D01*
X002497Y001643D01*
X002497Y001599D02*
X002541Y001556D01*
X002627Y001556D01*
X002792Y001556D02*
X002792Y001730D01*
X002922Y001730D01*
X002965Y001686D01*
X002965Y001556D01*
X003087Y001686D02*
X003260Y001686D01*
X003381Y001686D02*
X003555Y001686D01*
X003555Y001816D02*
X003555Y001556D01*
X003676Y001599D02*
X003719Y001643D01*
X003849Y001643D01*
X003849Y001686D02*
X003849Y001556D01*
X003719Y001556D01*
X003676Y001599D01*
X003719Y001730D02*
X003806Y001730D01*
X003849Y001686D01*
X003971Y001643D02*
X004057Y001730D01*
X004101Y001730D01*
X004216Y001686D02*
X004216Y001599D01*
X004259Y001556D01*
X004390Y001556D01*
X004390Y001816D01*
X004390Y001730D02*
X004259Y001730D01*
X004216Y001686D01*
X003971Y001730D02*
X003971Y001556D01*
X004511Y001599D02*
X004554Y001556D01*
X004597Y001599D01*
X004641Y001556D01*
X004684Y001599D01*
X004684Y001730D01*
X004849Y001730D02*
X004935Y001730D01*
X004979Y001686D01*
X004979Y001556D01*
X004849Y001556D01*
X004805Y001599D01*
X004849Y001643D01*
X004979Y001643D01*
X005100Y001643D02*
X005187Y001730D01*
X005230Y001730D01*
X005346Y001686D02*
X005346Y001599D01*
X005389Y001556D01*
X005476Y001556D01*
X005519Y001643D02*
X005346Y001643D01*
X005346Y001686D02*
X005389Y001730D01*
X005476Y001730D01*
X005519Y001686D01*
X005519Y001643D01*
X005100Y001556D02*
X005100Y001730D01*
X004511Y001730D02*
X004511Y001599D01*
X004294Y002152D02*
X004054Y002322D01*
X003954Y002262D01*
X003764Y002712D01*
X004315Y002582D02*
X004338Y002623D01*
X004359Y002666D01*
X004377Y002711D01*
X004392Y002756D01*
X004405Y002802D01*
X004415Y002849D01*
X004414Y002852D02*
X004714Y002902D01*
X004714Y003162D01*
X004414Y003222D01*
X004304Y003472D02*
X004484Y003732D01*
X004294Y003912D01*
X004034Y003732D01*
X003784Y003832D02*
X003734Y004152D01*
X003464Y004152D01*
X003414Y003832D01*
X003164Y003732D02*
X002904Y003912D01*
X002714Y003732D01*
X002894Y003472D01*
X002784Y003222D02*
X002484Y003162D01*
X002484Y002902D01*
X002784Y002852D01*
X002884Y002582D02*
X002724Y002342D01*
X002904Y002152D01*
X003144Y002322D01*
X003244Y002262D01*
X003444Y002712D01*
X002888Y002585D02*
X002860Y002635D01*
X002836Y002687D01*
X002815Y002740D01*
X002798Y002795D01*
X002785Y002851D01*
X003168Y003736D02*
X003213Y003761D01*
X003260Y003784D01*
X003308Y003803D01*
X003357Y003820D01*
X003407Y003833D01*
X003362Y004422D02*
X003405Y004466D01*
X003405Y004682D01*
X003275Y004682D01*
X003232Y004639D01*
X003232Y004552D01*
X003275Y004509D01*
X003405Y004509D01*
X003362Y004422D02*
X003319Y004422D01*
X003526Y004552D02*
X003526Y004682D01*
X003526Y004552D02*
X003570Y004509D01*
X003700Y004509D01*
X003700Y004466D02*
X003657Y004422D01*
X003613Y004422D01*
X003700Y004466D02*
X003700Y004682D01*
X003821Y004769D02*
X003821Y004509D01*
X003995Y004509D02*
X003995Y004769D01*
X003908Y004682D01*
X003821Y004769D01*
X003859Y005001D02*
X003815Y005044D01*
X003815Y005218D01*
X003772Y005174D02*
X003859Y005174D01*
X003651Y005131D02*
X003651Y005001D01*
X003651Y005131D02*
X003607Y005174D01*
X003477Y005174D01*
X003477Y005001D01*
X003356Y005088D02*
X003183Y005088D01*
X003183Y005131D02*
X003183Y005044D01*
X003226Y005001D01*
X003313Y005001D01*
X003356Y005088D02*
X003356Y005131D01*
X003313Y005174D01*
X003226Y005174D01*
X003183Y005131D01*
X003062Y005131D02*
X003062Y005001D01*
X002975Y005001D02*
X002975Y005131D01*
X003018Y005174D01*
X003062Y005131D01*
X002975Y005131D02*
X002931Y005174D01*
X002888Y005174D01*
X002888Y005001D01*
X002767Y005044D02*
X002767Y005131D01*
X002724Y005174D01*
X002593Y005174D01*
X002593Y004914D01*
X002593Y005001D02*
X002724Y005001D01*
X002767Y005044D01*
X002472Y005044D02*
X002472Y005131D01*
X002429Y005174D01*
X002342Y005174D01*
X002299Y005131D01*
X002299Y005044D01*
X002342Y005001D01*
X002429Y005001D01*
X002472Y005044D01*
X002189Y005001D02*
X002102Y005001D01*
X002146Y005001D02*
X002146Y005261D01*
X002102Y005261D01*
X001981Y005131D02*
X001981Y005088D01*
X001808Y005088D01*
X001808Y005131D02*
X001808Y005044D01*
X001851Y005001D01*
X001938Y005001D01*
X001981Y005131D02*
X001938Y005174D01*
X001851Y005174D01*
X001808Y005131D01*
X001686Y005174D02*
X001600Y005001D01*
X001513Y005174D01*
X001392Y005131D02*
X001392Y005088D01*
X001218Y005088D01*
X001218Y005131D02*
X001218Y005044D01*
X001262Y005001D01*
X001348Y005001D01*
X001392Y005131D02*
X001348Y005174D01*
X001262Y005174D01*
X001218Y005131D01*
X001097Y005044D02*
X001097Y005218D01*
X001054Y005261D01*
X000924Y005261D01*
X000924Y005001D01*
X001054Y005001D01*
X001097Y005044D01*
X001054Y004769D02*
X001097Y004726D01*
X001097Y004552D01*
X001054Y004509D01*
X000967Y004509D01*
X000924Y004552D01*
X000924Y004726D01*
X000967Y004769D01*
X001054Y004769D01*
X001218Y004682D02*
X001218Y004422D01*
X001218Y004509D02*
X001348Y004509D01*
X001392Y004552D01*
X001392Y004639D01*
X001348Y004682D01*
X001218Y004682D01*
X001513Y004639D02*
X001556Y004682D01*
X001643Y004682D01*
X001686Y004639D01*
X001686Y004596D01*
X001513Y004596D01*
X001513Y004639D02*
X001513Y004552D01*
X001556Y004509D01*
X001643Y004509D01*
X001808Y004509D02*
X001808Y004682D01*
X001938Y004682D01*
X001981Y004639D01*
X001981Y004509D01*
X002102Y004509D02*
X002276Y004509D01*
X002397Y004509D02*
X002397Y004682D01*
X002527Y004682D01*
X002570Y004639D01*
X002570Y004509D01*
X002692Y004552D02*
X002692Y004639D01*
X002735Y004682D01*
X002822Y004682D01*
X002865Y004639D01*
X002865Y004596D01*
X002692Y004596D01*
X002692Y004552D02*
X002735Y004509D01*
X002822Y004509D01*
X002986Y004509D02*
X002986Y004682D01*
X002986Y004596D02*
X003073Y004682D01*
X003116Y004682D01*
X002276Y004769D02*
X002102Y004769D01*
X002102Y004509D01*
X002102Y004639D02*
X002189Y004639D01*
X003444Y002722D02*
X003411Y002740D01*
X003381Y002761D01*
X003352Y002785D01*
X003326Y002812D01*
X003304Y002841D01*
X003284Y002873D01*
X003267Y002906D01*
X003254Y002941D01*
X003245Y002977D01*
X003239Y003014D01*
X003237Y003051D01*
X003239Y003088D01*
X003244Y003125D01*
X003254Y003161D01*
X003266Y003196D01*
X003283Y003230D01*
X003302Y003261D01*
X003325Y003291D01*
X003351Y003318D01*
X003379Y003342D01*
X003410Y003363D01*
X003442Y003381D01*
X003476Y003396D01*
X003512Y003407D01*
X003548Y003415D01*
X003585Y003419D01*
X003623Y003419D01*
X003660Y003415D01*
X003696Y003407D01*
X003732Y003396D01*
X003766Y003381D01*
X003798Y003363D01*
X003829Y003342D01*
X003857Y003318D01*
X003883Y003291D01*
X003906Y003261D01*
X003925Y003230D01*
X003942Y003196D01*
X003954Y003161D01*
X003964Y003125D01*
X003969Y003088D01*
X003971Y003051D01*
X003969Y003014D01*
X003963Y002977D01*
X003954Y002941D01*
X003941Y002906D01*
X003924Y002873D01*
X003904Y002841D01*
X003882Y002812D01*
X003856Y002785D01*
X003827Y002761D01*
X003797Y002740D01*
X003764Y002722D01*
X004413Y003223D02*
X004398Y003275D01*
X004379Y003326D01*
X004357Y003376D01*
X004332Y003424D01*
X004303Y003471D01*
X004038Y003734D02*
X003991Y003761D01*
X003942Y003784D01*
X003892Y003804D01*
X003841Y003821D01*
X003789Y003835D01*
X004159Y004509D02*
X004116Y004552D01*
X004116Y004639D01*
X004159Y004682D01*
X004246Y004682D01*
X004289Y004639D01*
X004289Y004552D01*
X004246Y004509D01*
X004159Y004509D01*
X004410Y004509D02*
X004410Y004682D01*
X004541Y004682D01*
X004584Y004639D01*
X004584Y004509D01*
X004705Y004509D02*
X004792Y004509D01*
X004748Y004509D02*
X004748Y004682D01*
X004705Y004682D01*
X004748Y004769D02*
X004748Y004812D01*
X004688Y005001D02*
X004731Y005044D01*
X004731Y005131D01*
X004688Y005174D01*
X004601Y005174D01*
X004558Y005131D01*
X004558Y005044D01*
X004601Y005001D01*
X004688Y005001D01*
X004852Y005044D02*
X004896Y005088D01*
X005026Y005088D01*
X005026Y005131D02*
X005026Y005001D01*
X004896Y005001D01*
X004852Y005044D01*
X004896Y005174D02*
X004983Y005174D01*
X005026Y005131D01*
X005147Y005088D02*
X005234Y005174D01*
X005277Y005174D01*
X005393Y005131D02*
X005436Y005174D01*
X005566Y005174D01*
X005566Y005261D02*
X005566Y005001D01*
X005436Y005001D01*
X005393Y005044D01*
X005393Y005131D01*
X005147Y005174D02*
X005147Y005001D01*
X005141Y004682D02*
X005098Y004639D01*
X005098Y004552D01*
X005141Y004509D01*
X005228Y004509D01*
X005271Y004552D01*
X005271Y004639D01*
X005228Y004682D01*
X005141Y004682D01*
X004988Y004682D02*
X004901Y004682D01*
X004945Y004726D02*
X004945Y004552D01*
X004988Y004509D01*
X005393Y004509D02*
X005393Y004682D01*
X005393Y004596D02*
X005479Y004682D01*
X005523Y004682D01*
X005494Y005493D02*
X005451Y005536D01*
X005624Y005710D01*
X005624Y005536D01*
X005581Y005493D01*
X005494Y005493D01*
X005451Y005536D02*
X005451Y005710D01*
X005494Y005753D01*
X005581Y005753D01*
X005624Y005710D01*
X005745Y005536D02*
X005789Y005536D01*
X005789Y005493D01*
X005745Y005493D01*
X005745Y005536D01*
X005893Y005493D02*
X006066Y005493D01*
X005979Y005493D02*
X005979Y005753D01*
X005893Y005667D01*
X005329Y005667D02*
X005243Y005493D01*
X005156Y005667D01*
X004437Y005218D02*
X004437Y005174D01*
X004393Y005131D01*
X004263Y005131D01*
X004263Y005001D02*
X004263Y005261D01*
X004393Y005261D01*
X004437Y005218D01*
X004393Y005131D02*
X004437Y005088D01*
X004437Y005044D01*
X004393Y005001D01*
X004263Y005001D01*
X002895Y003468D02*
X002868Y003421D01*
X002844Y003374D01*
X002823Y003325D01*
X002805Y003274D01*
X002791Y003223D01*
X003381Y001816D02*
X003381Y001556D01*
X004294Y002152D02*
X004484Y002342D01*
X004314Y002582D01*
X006682Y002314D02*
X006682Y002141D01*
X006725Y002097D01*
X006812Y002097D01*
X006855Y002141D01*
X006855Y002228D01*
X006768Y002228D01*
X006682Y002314D02*
X006725Y002358D01*
X006812Y002358D01*
X006855Y002314D01*
X006976Y002358D02*
X006976Y002097D01*
X007150Y002097D02*
X006976Y002358D01*
X007150Y002358D02*
X007150Y002097D01*
X007271Y002097D02*
X007271Y002358D01*
X007401Y002358D01*
X007444Y002314D01*
X007444Y002141D01*
X007401Y002097D01*
X007271Y002097D01*
X007308Y001718D02*
X007308Y001458D01*
X007222Y001458D02*
X007395Y001458D01*
X007516Y001501D02*
X007516Y001544D01*
X007560Y001588D01*
X007646Y001588D01*
X007690Y001544D01*
X007690Y001501D01*
X007646Y001458D01*
X007560Y001458D01*
X007516Y001501D01*
X007560Y001588D02*
X007516Y001631D01*
X007516Y001675D01*
X007560Y001718D01*
X007646Y001718D01*
X007690Y001675D01*
X007690Y001631D01*
X007646Y001588D01*
X007811Y001588D02*
X007941Y001588D01*
X007984Y001544D01*
X007984Y001501D01*
X007941Y001458D01*
X007811Y001458D01*
X007811Y001718D01*
X007941Y001718D01*
X007984Y001675D01*
X007984Y001631D01*
X007941Y001588D01*
X008106Y001675D02*
X008149Y001718D01*
X008236Y001718D01*
X008279Y001675D01*
X008279Y001631D01*
X008106Y001458D01*
X008279Y001458D01*
X008400Y001501D02*
X008400Y001675D01*
X008444Y001718D01*
X008530Y001718D01*
X008574Y001675D01*
X008400Y001501D01*
X008444Y001458D01*
X008530Y001458D01*
X008574Y001501D01*
X008574Y001675D01*
X008491Y002048D02*
X008491Y002308D01*
X008577Y002308D02*
X008404Y002308D01*
X009487Y002265D02*
X009530Y002308D01*
X009617Y002308D01*
X009660Y002265D01*
X009660Y002222D01*
X009617Y002178D01*
X009660Y002135D01*
X009660Y002092D01*
X009617Y002048D01*
X009530Y002048D01*
X009487Y002092D01*
X009573Y002178D02*
X009617Y002178D01*
X009781Y002135D02*
X009868Y002048D01*
X009955Y002135D01*
X009955Y002308D01*
X010076Y002265D02*
X010119Y002308D01*
X010206Y002308D01*
X010249Y002265D01*
X010249Y002222D01*
X010206Y002178D01*
X010249Y002135D01*
X010249Y002092D01*
X010206Y002048D01*
X010119Y002048D01*
X010076Y002092D01*
X010163Y002178D02*
X010206Y002178D01*
X009781Y002135D02*
X009781Y002308D01*
X010865Y002265D02*
X010865Y002092D01*
X010908Y002048D01*
X010995Y002048D01*
X011038Y002092D01*
X011038Y002178D01*
X010951Y002178D01*
X010865Y002265D02*
X010908Y002308D01*
X010995Y002308D01*
X011038Y002265D01*
X011159Y002308D02*
X011333Y002048D01*
X011333Y002308D01*
X011454Y002308D02*
X011454Y002048D01*
X011584Y002048D01*
X011627Y002092D01*
X011627Y002265D01*
X011584Y002308D01*
X011454Y002308D01*
X011159Y002308D02*
X011159Y002048D01*
X011159Y001718D02*
X011159Y001501D01*
X011203Y001458D01*
X011289Y001458D01*
X011333Y001501D01*
X011333Y001718D01*
X011454Y001718D02*
X011454Y001458D01*
X011627Y001458D01*
X011749Y001501D02*
X011792Y001458D01*
X011879Y001458D01*
X011922Y001501D01*
X011922Y001544D01*
X011879Y001588D01*
X011792Y001588D01*
X011749Y001631D01*
X011749Y001675D01*
X011792Y001718D01*
X011879Y001718D01*
X011922Y001675D01*
X012043Y001718D02*
X012043Y001458D01*
X012217Y001458D01*
X012130Y001588D02*
X012043Y001588D01*
X012043Y001718D02*
X012217Y001718D01*
X012633Y001718D02*
X012719Y001718D01*
X012676Y001718D02*
X012676Y001458D01*
X012633Y001458D02*
X012719Y001458D01*
X012829Y001458D02*
X012829Y001718D01*
X013002Y001458D01*
X013002Y001718D01*
X013124Y001718D02*
X013124Y001458D01*
X013124Y001544D02*
X013254Y001544D01*
X013297Y001588D01*
X013297Y001675D01*
X013254Y001718D01*
X013124Y001718D01*
X013418Y001718D02*
X013418Y001501D01*
X013462Y001458D01*
X013548Y001458D01*
X013592Y001501D01*
X013592Y001718D01*
X013713Y001718D02*
X013886Y001718D01*
X013800Y001718D02*
X013800Y001458D01*
X013751Y002048D02*
X013664Y002048D01*
X013621Y002092D01*
X013707Y002178D02*
X013751Y002178D01*
X013794Y002135D01*
X013794Y002092D01*
X013751Y002048D01*
X013751Y002178D02*
X013794Y002222D01*
X013794Y002265D01*
X013751Y002308D01*
X013664Y002308D01*
X013621Y002265D01*
X013915Y002308D02*
X013915Y002135D01*
X014002Y002048D01*
X014089Y002135D01*
X014089Y002308D01*
X014210Y002265D02*
X014253Y002308D01*
X014340Y002308D01*
X014383Y002265D01*
X014383Y002222D01*
X014340Y002178D01*
X014383Y002135D01*
X014383Y002092D01*
X014340Y002048D01*
X014253Y002048D01*
X014210Y002092D01*
X014297Y002178D02*
X014340Y002178D01*
X014755Y002128D02*
X014755Y002259D01*
X014799Y002302D01*
X014842Y002302D01*
X014886Y002259D01*
X014886Y002128D01*
X014886Y002007D02*
X014799Y002007D01*
X014755Y001964D01*
X014755Y001834D01*
X015016Y001834D01*
X014929Y001834D02*
X014929Y001964D01*
X014886Y002007D01*
X015016Y002128D02*
X014755Y002128D01*
X014886Y002259D02*
X014929Y002302D01*
X014972Y002302D01*
X015016Y002259D01*
X015016Y002128D01*
X015016Y002423D02*
X014755Y002423D01*
X014755Y002597D01*
X014755Y002718D02*
X014755Y002848D01*
X014799Y002891D01*
X014886Y002891D01*
X014929Y002848D01*
X014929Y002718D01*
X014929Y002804D02*
X015016Y002891D01*
X015016Y003012D02*
X014755Y003012D01*
X014755Y003142D01*
X014799Y003186D01*
X014886Y003186D01*
X014929Y003142D01*
X014929Y003012D01*
X014929Y003099D02*
X015016Y003186D01*
X015118Y003067D02*
X015118Y001167D01*
X015016Y001123D02*
X014929Y001037D01*
X014929Y001080D02*
X014929Y000950D01*
X015016Y000950D02*
X014755Y000950D01*
X014755Y001080D01*
X014799Y001123D01*
X014886Y001123D01*
X014929Y001080D01*
X014886Y001244D02*
X014886Y001418D01*
X014842Y001418D02*
X015016Y001418D01*
X014972Y001539D02*
X015016Y001582D01*
X015016Y001669D01*
X014972Y001713D01*
X014929Y001713D01*
X014886Y001669D01*
X014886Y001582D01*
X014842Y001539D01*
X014799Y001539D01*
X014755Y001582D01*
X014755Y001669D01*
X014799Y001713D01*
X014842Y001418D02*
X014755Y001331D01*
X014842Y001244D01*
X015016Y001244D01*
X015118Y001167D02*
X015120Y001137D01*
X015125Y001107D01*
X015134Y001078D01*
X015147Y001051D01*
X015162Y001025D01*
X015181Y001001D01*
X015202Y000980D01*
X015226Y000961D01*
X015252Y000946D01*
X015279Y000933D01*
X015308Y000924D01*
X015338Y000919D01*
X015368Y000917D01*
X020868Y000917D01*
X020898Y000919D01*
X020928Y000924D01*
X020957Y000933D01*
X020984Y000946D01*
X021010Y000961D01*
X021034Y000980D01*
X021055Y001001D01*
X021074Y001025D01*
X021089Y001051D01*
X021102Y001078D01*
X021111Y001107D01*
X021116Y001137D01*
X021118Y001167D01*
X021118Y003067D01*
X021116Y003097D01*
X021111Y003127D01*
X021102Y003156D01*
X021089Y003183D01*
X021074Y003209D01*
X021055Y003233D01*
X021034Y003254D01*
X021010Y003273D01*
X020984Y003288D01*
X020957Y003301D01*
X020928Y003310D01*
X020898Y003315D01*
X020868Y003317D01*
X015368Y003317D01*
X015338Y003315D01*
X015308Y003310D01*
X015279Y003301D01*
X015252Y003288D01*
X015226Y003273D01*
X015202Y003254D01*
X015181Y003233D01*
X015162Y003209D01*
X015147Y003183D01*
X015134Y003156D01*
X015125Y003127D01*
X015120Y003097D01*
X015118Y003067D01*
X015016Y003394D02*
X014886Y003394D01*
X014799Y003481D01*
X014755Y003481D01*
X014755Y003602D02*
X014755Y003732D01*
X014799Y003775D01*
X014886Y003775D01*
X014929Y003732D01*
X014929Y003602D01*
X015016Y003602D02*
X014755Y003602D01*
X014886Y003394D02*
X014799Y003307D01*
X014755Y003307D01*
X014755Y003896D02*
X014755Y003983D01*
X014755Y003940D02*
X015016Y003940D01*
X015016Y003983D02*
X015016Y003896D01*
X016110Y003487D02*
X017010Y003487D01*
X017110Y003587D01*
X017210Y003487D01*
X018010Y003487D01*
X018110Y003587D01*
X018210Y003487D01*
X019010Y003487D01*
X019110Y003587D01*
X019210Y003487D01*
X020010Y003487D01*
X020110Y003587D01*
X020210Y003487D01*
X021110Y003487D01*
X021110Y004487D01*
X020210Y004487D01*
X020110Y004387D01*
X020010Y004487D01*
X019210Y004487D01*
X019110Y004387D01*
X019010Y004487D01*
X018210Y004487D01*
X018110Y004387D01*
X018010Y004487D01*
X017210Y004487D01*
X017110Y004387D01*
X017010Y004487D01*
X016110Y004487D01*
X016110Y003487D01*
X016463Y004607D02*
X016463Y004868D01*
X016376Y004868D02*
X016550Y004868D01*
X016671Y004868D02*
X016845Y004607D01*
X016671Y004607D02*
X016845Y004868D01*
X017361Y004868D02*
X017361Y004607D01*
X017361Y004694D02*
X017491Y004694D01*
X017534Y004737D01*
X017534Y004824D01*
X017491Y004868D01*
X017361Y004868D01*
X017447Y004694D02*
X017534Y004607D01*
X017655Y004607D02*
X017829Y004868D01*
X017655Y004868D02*
X017829Y004607D01*
X018345Y004651D02*
X018388Y004607D01*
X018475Y004607D01*
X018518Y004651D01*
X018518Y004737D01*
X018475Y004781D01*
X018432Y004781D01*
X018345Y004737D01*
X018345Y004868D01*
X018518Y004868D01*
X018640Y004868D02*
X018640Y004694D01*
X018726Y004607D01*
X018813Y004694D01*
X018813Y004868D01*
X019329Y004824D02*
X019373Y004868D01*
X019459Y004868D01*
X019503Y004824D01*
X019503Y004781D01*
X019459Y004737D01*
X019503Y004694D01*
X019503Y004651D01*
X019459Y004607D01*
X019373Y004607D01*
X019329Y004651D01*
X019416Y004737D02*
X019459Y004737D01*
X019624Y004651D02*
X019667Y004651D01*
X019667Y004607D01*
X019624Y004607D01*
X019624Y004651D01*
X019771Y004651D02*
X019815Y004607D01*
X019901Y004607D01*
X019945Y004651D01*
X019945Y004694D01*
X019901Y004737D01*
X019858Y004737D01*
X019901Y004737D02*
X019945Y004781D01*
X019945Y004824D01*
X019901Y004868D01*
X019815Y004868D01*
X019771Y004824D01*
X019865Y005001D02*
X019951Y005001D01*
X019995Y005044D01*
X019995Y005261D01*
X020116Y005174D02*
X020116Y005001D01*
X020116Y005131D02*
X020289Y005131D01*
X020289Y005174D02*
X020289Y005001D01*
X020411Y005001D02*
X020411Y005261D01*
X020541Y005261D01*
X020584Y005218D01*
X020584Y005131D01*
X020541Y005088D01*
X020411Y005088D01*
X020497Y005088D02*
X020584Y005001D01*
X020510Y004868D02*
X020683Y004607D01*
X020683Y004868D01*
X020804Y004868D02*
X020804Y004607D01*
X020934Y004607D01*
X020978Y004651D01*
X020978Y004824D01*
X020934Y004868D01*
X020804Y004868D01*
X020792Y005001D02*
X020792Y005261D01*
X020705Y005261D02*
X020879Y005261D01*
X020510Y004868D02*
X020510Y004607D01*
X020389Y004651D02*
X020345Y004607D01*
X020258Y004607D01*
X020215Y004651D01*
X020215Y004824D01*
X020258Y004868D01*
X020345Y004868D01*
X020389Y004824D01*
X020389Y004737D02*
X020302Y004737D01*
X020389Y004737D02*
X020389Y004651D01*
X020289Y005174D02*
X020203Y005261D01*
X020116Y005174D01*
X019865Y005001D02*
X019821Y005044D01*
X019821Y005261D01*
X018966Y006674D02*
X018836Y006761D01*
X018966Y006848D01*
X018836Y006934D02*
X018836Y006674D01*
X018715Y006718D02*
X018715Y006891D01*
X018541Y006718D01*
X018585Y006674D01*
X018671Y006674D01*
X018715Y006718D01*
X018715Y006891D02*
X018671Y006934D01*
X018585Y006934D01*
X018541Y006891D01*
X018541Y006718D01*
X018420Y006674D02*
X018247Y006674D01*
X018333Y006674D02*
X018333Y006934D01*
X018247Y006848D01*
X018025Y006344D02*
X017852Y006344D01*
X017938Y006344D02*
X017938Y006084D01*
X017730Y006127D02*
X017687Y006084D01*
X017600Y006084D01*
X017557Y006127D01*
X017600Y006214D02*
X017687Y006214D01*
X017730Y006170D01*
X017730Y006127D01*
X017600Y006214D02*
X017557Y006257D01*
X017557Y006301D01*
X017600Y006344D01*
X017687Y006344D01*
X017730Y006301D01*
X017436Y006301D02*
X017436Y006214D01*
X017392Y006170D01*
X017262Y006170D01*
X017262Y006084D02*
X017262Y006344D01*
X017392Y006344D01*
X017436Y006301D01*
X017349Y006170D02*
X017436Y006084D01*
X017334Y006477D02*
X017204Y006607D01*
X017161Y006564D02*
X017334Y006738D01*
X017161Y006738D02*
X017161Y006477D01*
X017040Y006477D02*
X017040Y006738D01*
X016866Y006738D02*
X017040Y006477D01*
X016942Y006344D02*
X016769Y006170D01*
X016812Y006214D02*
X016942Y006084D01*
X016769Y006084D02*
X016769Y006344D01*
X016757Y006477D02*
X016670Y006477D01*
X016713Y006477D02*
X016713Y006738D01*
X016670Y006738D02*
X016757Y006738D01*
X016866Y006738D02*
X016866Y006477D01*
X016648Y006084D02*
X016474Y006084D01*
X016474Y006344D01*
X016353Y006301D02*
X016310Y006344D01*
X016223Y006344D01*
X016180Y006301D01*
X016180Y006127D01*
X016223Y006084D01*
X016310Y006084D01*
X016353Y006127D01*
X016375Y006477D02*
X016549Y006477D01*
X016375Y006477D02*
X016375Y006738D01*
X016254Y006738D02*
X016081Y006738D01*
X016167Y006738D02*
X016167Y006477D01*
X015959Y006521D02*
X015916Y006477D01*
X015829Y006477D01*
X015786Y006521D01*
X015829Y006607D02*
X015916Y006607D01*
X015959Y006564D01*
X015959Y006521D01*
X015829Y006607D02*
X015786Y006651D01*
X015786Y006694D01*
X015829Y006738D01*
X015916Y006738D01*
X015959Y006694D01*
X015817Y006344D02*
X015860Y006301D01*
X015860Y006127D01*
X015817Y006084D01*
X015730Y006084D01*
X015686Y006127D01*
X015686Y006301D01*
X015730Y006344D01*
X015817Y006344D01*
X015577Y006344D02*
X015490Y006344D01*
X015533Y006344D02*
X015533Y006084D01*
X015490Y006084D02*
X015577Y006084D01*
X015369Y006127D02*
X015369Y006301D01*
X015325Y006344D01*
X015195Y006344D01*
X015195Y006084D01*
X015325Y006084D01*
X015369Y006127D01*
X014329Y006821D02*
X014329Y006864D01*
X014286Y006907D01*
X014156Y006907D01*
X014156Y006821D01*
X014199Y006777D01*
X014286Y006777D01*
X014329Y006821D01*
X014242Y006994D02*
X014156Y006907D01*
X014242Y006994D02*
X014329Y007038D01*
X014035Y006994D02*
X013991Y007038D01*
X013904Y007038D01*
X013861Y006994D01*
X013861Y006821D01*
X013904Y006777D01*
X013991Y006777D01*
X014035Y006821D01*
X014418Y007792D02*
X014608Y007792D01*
X014608Y007982D01*
X013830Y009082D02*
X013657Y009082D01*
X013830Y009255D01*
X013830Y009299D01*
X013787Y009342D01*
X013700Y009342D01*
X013657Y009299D01*
X013536Y009299D02*
X013536Y009255D01*
X013492Y009212D01*
X013536Y009168D01*
X013536Y009125D01*
X013492Y009082D01*
X013406Y009082D01*
X013362Y009125D01*
X013449Y009212D02*
X013492Y009212D01*
X013536Y009299D02*
X013492Y009342D01*
X013406Y009342D01*
X013362Y009299D01*
X013241Y009342D02*
X013241Y009082D01*
X013067Y009082D02*
X013067Y009342D01*
X013154Y009255D01*
X013241Y009342D01*
X012946Y009342D02*
X012773Y009342D01*
X012860Y009342D02*
X012860Y009082D01*
X012652Y009125D02*
X012608Y009082D01*
X012522Y009082D01*
X012478Y009125D01*
X012522Y009212D02*
X012608Y009212D01*
X012652Y009168D01*
X012652Y009125D01*
X012522Y009212D02*
X012478Y009255D01*
X012478Y009299D01*
X012522Y009342D01*
X012608Y009342D01*
X012652Y009299D01*
X011688Y010522D02*
X011688Y010712D01*
X011878Y010712D01*
X010502Y009297D02*
X010545Y009253D01*
X010545Y009210D01*
X010502Y009167D01*
X010415Y009167D01*
X010372Y009210D01*
X010372Y009253D01*
X010415Y009297D01*
X010502Y009297D01*
X010502Y009167D02*
X010545Y009123D01*
X010545Y009080D01*
X010502Y009036D01*
X010415Y009036D01*
X010372Y009080D01*
X010372Y009123D01*
X010415Y009167D01*
X010251Y009253D02*
X010207Y009297D01*
X010121Y009297D01*
X010077Y009253D01*
X010077Y009080D01*
X010121Y009036D01*
X010207Y009036D01*
X010251Y009080D01*
X009230Y009134D02*
X009056Y009307D01*
X009013Y009307D01*
X008970Y009264D01*
X008970Y009177D01*
X009013Y009134D01*
X009013Y009012D02*
X008970Y008969D01*
X008970Y008882D01*
X009013Y008839D01*
X009013Y008718D02*
X009100Y008718D01*
X009143Y008674D01*
X009143Y008544D01*
X009230Y008544D02*
X008970Y008544D01*
X008970Y008674D01*
X009013Y008718D01*
X009143Y008631D02*
X009230Y008718D01*
X009230Y008839D02*
X009056Y009012D01*
X009013Y009012D01*
X009230Y009012D02*
X009230Y008839D01*
X009230Y009134D02*
X009230Y009307D01*
X008147Y009264D02*
X008060Y009134D01*
X007974Y009264D01*
X007887Y009134D02*
X008147Y009134D01*
X008104Y009012D02*
X007930Y009012D01*
X008104Y008839D01*
X008147Y008882D01*
X008147Y008969D01*
X008104Y009012D01*
X008104Y008839D02*
X007930Y008839D01*
X007887Y008882D01*
X007887Y008969D01*
X007930Y009012D01*
X008147Y008718D02*
X008147Y008544D01*
X008147Y008631D02*
X007887Y008631D01*
X007974Y008544D01*
X008593Y007434D02*
X008593Y007174D01*
X008766Y007174D01*
X008888Y007174D02*
X009061Y007174D01*
X009182Y007174D02*
X009312Y007174D01*
X009356Y007218D01*
X009356Y007391D01*
X009312Y007434D01*
X009182Y007434D01*
X009182Y007174D01*
X008974Y007304D02*
X008888Y007304D01*
X008888Y007434D02*
X008888Y007174D01*
X008888Y007434D02*
X009061Y007434D01*
X009477Y007348D02*
X009564Y007434D01*
X009564Y007174D01*
X009650Y007174D02*
X009477Y007174D01*
X010176Y007166D02*
X010349Y007166D01*
X010262Y007166D02*
X010262Y007427D01*
X010176Y007340D01*
X010470Y007427D02*
X010470Y007166D01*
X010470Y007253D02*
X010644Y007427D01*
X010514Y007296D02*
X010644Y007166D01*
X010600Y006344D02*
X010644Y006301D01*
X010644Y006257D01*
X010600Y006214D01*
X010644Y006170D01*
X010644Y006127D01*
X010600Y006084D01*
X010514Y006084D01*
X010470Y006127D01*
X010557Y006214D02*
X010600Y006214D01*
X010600Y006344D02*
X010514Y006344D01*
X010470Y006301D01*
X010349Y006301D02*
X010349Y006214D01*
X010306Y006170D01*
X010176Y006170D01*
X010176Y006084D02*
X010176Y006344D01*
X010306Y006344D01*
X010349Y006301D01*
X010262Y006170D02*
X010349Y006084D01*
X011947Y006422D02*
X011991Y006379D01*
X012077Y006379D01*
X012121Y006422D01*
X012242Y006379D02*
X012415Y006379D01*
X012329Y006379D02*
X012329Y006639D01*
X012242Y006552D01*
X012121Y006596D02*
X012077Y006639D01*
X011991Y006639D01*
X011947Y006596D01*
X011947Y006422D01*
X012537Y006422D02*
X012580Y006379D01*
X012667Y006379D01*
X012710Y006422D01*
X012710Y006466D01*
X012667Y006509D01*
X012537Y006509D01*
X012537Y006422D01*
X012537Y006509D02*
X012623Y006596D01*
X012710Y006639D01*
X011878Y007792D02*
X011688Y007792D01*
X011688Y007982D01*
X009812Y010808D02*
X009682Y010895D01*
X009812Y010982D01*
X009682Y011068D02*
X009682Y010808D01*
X009561Y010851D02*
X009561Y011025D01*
X009388Y010851D01*
X009431Y010808D01*
X009518Y010808D01*
X009561Y010851D01*
X009388Y010851D02*
X009388Y011025D01*
X009431Y011068D01*
X009518Y011068D01*
X009561Y011025D01*
X009561Y011202D02*
X009388Y011202D01*
X009561Y011375D01*
X009561Y011419D01*
X009518Y011462D01*
X009431Y011462D01*
X009388Y011419D01*
X009266Y011419D02*
X009266Y011332D01*
X009223Y011289D01*
X009093Y011289D01*
X009180Y011289D02*
X009266Y011202D01*
X009180Y011068D02*
X009180Y010808D01*
X009266Y010808D02*
X009093Y010808D01*
X009093Y010982D02*
X009180Y011068D01*
X009093Y011202D02*
X009093Y011462D01*
X009223Y011462D01*
X009266Y011419D01*
X009682Y011419D02*
X009726Y011462D01*
X009812Y011462D01*
X009856Y011419D01*
X009856Y011375D01*
X009812Y011332D01*
X009856Y011289D01*
X009856Y011245D01*
X009812Y011202D01*
X009726Y011202D01*
X009682Y011245D01*
X009769Y011332D02*
X009812Y011332D01*
X009880Y011989D02*
X009880Y012249D01*
X010053Y012249D01*
X010174Y012163D02*
X010261Y012249D01*
X010261Y011989D01*
X010174Y011989D02*
X010348Y011989D01*
X009967Y012119D02*
X009880Y012119D01*
X009759Y012033D02*
X009715Y011989D01*
X009628Y011989D01*
X009585Y012033D01*
X009585Y012206D01*
X009628Y012249D01*
X009715Y012249D01*
X009759Y012206D01*
X008970Y012206D02*
X008927Y012249D01*
X008840Y012249D01*
X008796Y012206D01*
X008675Y012249D02*
X008502Y012249D01*
X008502Y011989D01*
X008381Y012033D02*
X008337Y011989D01*
X008251Y011989D01*
X008207Y012033D01*
X008207Y012206D01*
X008251Y012249D01*
X008337Y012249D01*
X008381Y012206D01*
X008502Y012119D02*
X008589Y012119D01*
X008796Y011989D02*
X008970Y012163D01*
X008970Y012206D01*
X008970Y011989D02*
X008796Y011989D01*
X007592Y012033D02*
X007549Y011989D01*
X007462Y011989D01*
X007419Y012033D01*
X007505Y012119D02*
X007549Y012119D01*
X007592Y012076D01*
X007592Y012033D01*
X007549Y012119D02*
X007592Y012163D01*
X007592Y012206D01*
X007549Y012249D01*
X007462Y012249D01*
X007419Y012206D01*
X007297Y012249D02*
X007124Y012249D01*
X007124Y011989D01*
X007003Y012033D02*
X006959Y011989D01*
X006873Y011989D01*
X006829Y012033D01*
X006829Y012206D01*
X006873Y012249D01*
X006959Y012249D01*
X007003Y012206D01*
X007124Y012119D02*
X007211Y012119D01*
X006958Y011462D02*
X007001Y011419D01*
X007001Y011375D01*
X006958Y011332D01*
X006871Y011332D01*
X006828Y011375D01*
X006828Y011419D01*
X006871Y011462D01*
X006958Y011462D01*
X006958Y011332D02*
X007001Y011289D01*
X007001Y011245D01*
X006958Y011202D01*
X006871Y011202D01*
X006828Y011245D01*
X006828Y011289D01*
X006871Y011332D01*
X006707Y011202D02*
X006533Y011202D01*
X006620Y011202D02*
X006620Y011462D01*
X006533Y011375D01*
X006412Y011419D02*
X006369Y011462D01*
X006282Y011462D01*
X006239Y011419D01*
X006239Y011245D01*
X006282Y011202D01*
X006369Y011202D01*
X006412Y011245D01*
X006368Y011068D02*
X006281Y011068D01*
X006238Y011025D01*
X006238Y010851D01*
X006412Y011025D01*
X006412Y010851D01*
X006368Y010808D01*
X006281Y010808D01*
X006238Y010851D01*
X006117Y010808D02*
X005943Y010808D01*
X006030Y010808D02*
X006030Y011068D01*
X005943Y010982D01*
X006368Y011068D02*
X006412Y011025D01*
X006533Y010982D02*
X006533Y010851D01*
X006576Y010808D01*
X006706Y010808D01*
X006706Y010982D01*
X006827Y010938D02*
X006914Y010938D01*
X006827Y010808D02*
X006827Y011068D01*
X007001Y011068D01*
X006127Y011989D02*
X006214Y012076D01*
X006214Y012249D01*
X006041Y012249D02*
X006041Y012076D01*
X006127Y011989D01*
X005919Y012249D02*
X005746Y012249D01*
X005746Y011989D01*
X005625Y012033D02*
X005581Y011989D01*
X005495Y011989D01*
X005451Y012033D01*
X005451Y012206D01*
X005495Y012249D01*
X005581Y012249D01*
X005625Y012206D01*
X005746Y012119D02*
X005833Y012119D01*
X003971Y010248D02*
X004014Y010205D01*
X004014Y010118D01*
X003971Y010074D01*
X003884Y010074D02*
X003841Y010161D01*
X003841Y010205D01*
X003884Y010248D01*
X003971Y010248D01*
X003884Y010074D02*
X003754Y010074D01*
X003754Y010248D01*
X003798Y009953D02*
X003754Y009910D01*
X003754Y009823D01*
X003798Y009780D01*
X003798Y009659D02*
X003841Y009659D01*
X003884Y009615D01*
X003884Y009529D01*
X003841Y009485D01*
X003798Y009485D01*
X003754Y009529D01*
X003754Y009615D01*
X003798Y009659D01*
X003884Y009615D02*
X003928Y009659D01*
X003971Y009659D01*
X004014Y009615D01*
X004014Y009529D01*
X003971Y009485D01*
X003928Y009485D01*
X003884Y009529D01*
X004014Y009364D02*
X004014Y009190D01*
X004014Y009277D02*
X003754Y009277D01*
X003841Y009190D01*
X003884Y009069D02*
X003928Y009026D01*
X003928Y008896D01*
X004014Y008896D02*
X003754Y008896D01*
X003754Y009026D01*
X003798Y009069D01*
X003884Y009069D01*
X003798Y008775D02*
X003754Y008731D01*
X003754Y008645D01*
X003798Y008601D01*
X003971Y008601D01*
X004014Y008645D01*
X004014Y008731D01*
X003971Y008775D01*
X004014Y008480D02*
X003754Y008480D01*
X003841Y008393D01*
X003754Y008307D01*
X004014Y008307D01*
X004014Y009780D02*
X003841Y009953D01*
X003798Y009953D01*
X004014Y009953D02*
X004014Y009780D01*
X001539Y009831D02*
X001539Y009787D01*
X001495Y009787D01*
X001495Y009831D01*
X001539Y009831D01*
X001539Y009935D02*
X001495Y009935D01*
X001322Y010108D01*
X001278Y010108D01*
X001278Y009935D01*
X001409Y009666D02*
X001409Y009493D01*
X001278Y009623D01*
X001539Y009623D01*
X001278Y009149D02*
X001278Y008976D01*
X001539Y008976D01*
X001539Y008854D02*
X001365Y008854D01*
X001409Y008976D02*
X001409Y009062D01*
X001539Y008854D02*
X001539Y008724D01*
X001495Y008681D01*
X001365Y008681D01*
X001322Y008560D02*
X001278Y008560D01*
X001278Y008386D01*
X001322Y008560D02*
X001495Y008386D01*
X001539Y008386D01*
X001539Y008282D02*
X001495Y008282D01*
X001495Y008239D01*
X001539Y008239D01*
X001539Y008282D01*
X001539Y008074D02*
X001278Y008074D01*
X001409Y007944D01*
X001409Y008118D01*
X000564Y008074D02*
X000520Y008118D01*
X000564Y008074D02*
X000564Y007988D01*
X000520Y007944D01*
X000347Y007944D01*
X000303Y007988D01*
X000303Y008074D01*
X000347Y008118D01*
X000434Y008239D02*
X000434Y008412D01*
X000564Y008369D02*
X000303Y008369D01*
X000434Y008239D01*
X000347Y009519D02*
X000520Y009519D01*
X000564Y009562D01*
X000564Y009649D01*
X000520Y009693D01*
X000520Y009814D02*
X000564Y009857D01*
X000564Y009944D01*
X000520Y009987D01*
X000477Y009987D01*
X000434Y009944D01*
X000434Y009900D01*
X000434Y009944D02*
X000390Y009987D01*
X000347Y009987D01*
X000303Y009944D01*
X000303Y009857D01*
X000347Y009814D01*
X000347Y009693D02*
X000303Y009649D01*
X000303Y009562D01*
X000347Y009519D01*
X001278Y010524D02*
X001278Y010697D01*
X001409Y010611D02*
X001409Y010524D01*
X001365Y010403D02*
X001539Y010403D01*
X001539Y010273D01*
X001495Y010229D01*
X001365Y010229D01*
X001278Y010524D02*
X001539Y010524D01*
X005451Y014253D02*
X005451Y014513D01*
X005581Y014513D01*
X005625Y014470D01*
X005625Y014383D01*
X005581Y014340D01*
X005451Y014340D01*
X005538Y014340D02*
X005625Y014253D01*
X005746Y014253D02*
X005746Y014513D01*
X005919Y014513D01*
X006041Y014513D02*
X006041Y014340D01*
X006127Y014253D01*
X006214Y014340D01*
X006214Y014513D01*
X005833Y014383D02*
X005746Y014383D01*
X006829Y014340D02*
X006959Y014340D01*
X007003Y014383D01*
X007003Y014470D01*
X006959Y014513D01*
X006829Y014513D01*
X006829Y014253D01*
X006916Y014340D02*
X007003Y014253D01*
X007124Y014253D02*
X007124Y014513D01*
X007297Y014513D01*
X007419Y014470D02*
X007462Y014513D01*
X007549Y014513D01*
X007592Y014470D01*
X007592Y014426D01*
X007549Y014383D01*
X007592Y014340D01*
X007592Y014296D01*
X007549Y014253D01*
X007462Y014253D01*
X007419Y014296D01*
X007505Y014383D02*
X007549Y014383D01*
X007211Y014383D02*
X007124Y014383D01*
X007395Y015336D02*
X007395Y015466D01*
X007438Y015509D01*
X007525Y015509D01*
X007568Y015466D01*
X007568Y015336D01*
X007568Y015422D02*
X007655Y015509D01*
X007655Y015630D02*
X007655Y015760D01*
X007612Y015804D01*
X007568Y015804D01*
X007525Y015760D01*
X007525Y015630D01*
X007655Y015630D02*
X007395Y015630D01*
X007395Y015760D01*
X007438Y015804D01*
X007482Y015804D01*
X007525Y015760D01*
X007612Y015925D02*
X007655Y015968D01*
X007655Y016055D01*
X007612Y016098D01*
X007568Y016098D01*
X007525Y016055D01*
X007525Y016012D01*
X007525Y016055D02*
X007482Y016098D01*
X007438Y016098D01*
X007395Y016055D01*
X007395Y015968D01*
X007438Y015925D01*
X007395Y015336D02*
X007655Y015336D01*
X008207Y014513D02*
X008337Y014513D01*
X008381Y014470D01*
X008381Y014383D01*
X008337Y014340D01*
X008207Y014340D01*
X008294Y014340D02*
X008381Y014253D01*
X008502Y014253D02*
X008502Y014513D01*
X008675Y014513D01*
X008796Y014470D02*
X008840Y014513D01*
X008927Y014513D01*
X008970Y014470D01*
X008970Y014426D01*
X008796Y014253D01*
X008970Y014253D01*
X008589Y014383D02*
X008502Y014383D01*
X008207Y014253D02*
X008207Y014513D01*
X009585Y014513D02*
X009585Y014253D01*
X009585Y014340D02*
X009715Y014340D01*
X009759Y014383D01*
X009759Y014470D01*
X009715Y014513D01*
X009585Y014513D01*
X009672Y014340D02*
X009759Y014253D01*
X009880Y014253D02*
X009880Y014513D01*
X010053Y014513D01*
X010174Y014426D02*
X010261Y014513D01*
X010261Y014253D01*
X010174Y014253D02*
X010348Y014253D01*
X009967Y014383D02*
X009880Y014383D01*
X011426Y014327D02*
X011426Y014240D01*
X011469Y014197D01*
X011469Y014076D02*
X011426Y014032D01*
X011426Y013946D01*
X011469Y013902D01*
X011469Y013781D02*
X011426Y013738D01*
X011426Y013651D01*
X011469Y013608D01*
X011642Y013608D01*
X011686Y013651D01*
X011686Y013738D01*
X011642Y013781D01*
X011686Y013902D02*
X011512Y014076D01*
X011469Y014076D01*
X011686Y014076D02*
X011686Y013902D01*
X011991Y014142D02*
X012165Y014142D01*
X012078Y014142D02*
X012078Y014402D01*
X011991Y014315D01*
X011686Y014370D02*
X011686Y014197D01*
X011512Y014370D01*
X011469Y014370D01*
X011426Y014327D01*
X012286Y014315D02*
X012286Y014185D01*
X012329Y014142D01*
X012459Y014142D01*
X012459Y014315D01*
X012580Y014272D02*
X012667Y014272D01*
X012580Y014142D02*
X012580Y014402D01*
X012754Y014402D01*
X013522Y014175D02*
X013522Y014001D01*
X013565Y013958D01*
X013652Y013958D01*
X013696Y014001D01*
X013817Y013958D02*
X013990Y013958D01*
X013904Y013958D02*
X013904Y014218D01*
X013817Y014131D01*
X013696Y014175D02*
X013652Y014218D01*
X013565Y014218D01*
X013522Y014175D01*
X014111Y014218D02*
X014111Y014088D01*
X014198Y014131D01*
X014242Y014131D01*
X014285Y014088D01*
X014285Y014001D01*
X014242Y013958D01*
X014155Y013958D01*
X014111Y014001D01*
X014111Y014218D02*
X014285Y014218D01*
X015278Y014218D02*
X015321Y014261D01*
X015408Y014261D01*
X015452Y014218D01*
X015452Y014174D01*
X015408Y014131D01*
X015321Y014131D01*
X015278Y014174D01*
X015278Y014218D01*
X015321Y014261D02*
X015278Y014304D01*
X015278Y014348D01*
X015321Y014391D01*
X015408Y014391D01*
X015452Y014348D01*
X015452Y014304D01*
X015408Y014261D01*
X015573Y014131D02*
X015573Y014391D01*
X015659Y014304D01*
X015746Y014391D01*
X015746Y014131D01*
X015867Y014131D02*
X015867Y014391D01*
X015867Y014261D02*
X016041Y014261D01*
X016041Y014391D02*
X016041Y014131D01*
X016162Y014131D02*
X016335Y014131D01*
X016162Y014131D02*
X016162Y014174D01*
X016335Y014348D01*
X016335Y014391D01*
X016162Y014391D01*
X016230Y015336D02*
X016230Y015466D01*
X016186Y015509D01*
X016100Y015509D01*
X016056Y015466D01*
X016056Y015336D01*
X016316Y015336D01*
X016230Y015422D02*
X016316Y015509D01*
X016316Y015630D02*
X016056Y015630D01*
X016056Y015760D01*
X016100Y015804D01*
X016143Y015804D01*
X016186Y015760D01*
X016186Y015630D01*
X016186Y015760D02*
X016230Y015804D01*
X016273Y015804D01*
X016316Y015760D01*
X016316Y015630D01*
X016316Y015925D02*
X016316Y016098D01*
X016316Y016012D02*
X016056Y016012D01*
X016143Y015925D01*
X017306Y014218D02*
X017262Y014175D01*
X017262Y014001D01*
X017306Y013958D01*
X017392Y013958D01*
X017436Y014001D01*
X017557Y013958D02*
X017730Y013958D01*
X017644Y013958D02*
X017644Y014218D01*
X017557Y014131D01*
X017436Y014175D02*
X017392Y014218D01*
X017306Y014218D01*
X017852Y014088D02*
X018025Y014088D01*
X017982Y013958D02*
X017982Y014218D01*
X017852Y014088D01*
X017632Y012532D02*
X017676Y012489D01*
X017676Y012445D01*
X017632Y012402D01*
X017546Y012402D01*
X017502Y012445D01*
X017502Y012489D01*
X017546Y012532D01*
X017632Y012532D01*
X017632Y012402D02*
X017676Y012359D01*
X017676Y012315D01*
X017632Y012272D01*
X017546Y012272D01*
X017502Y012315D01*
X017502Y012359D01*
X017546Y012402D01*
X017381Y012272D02*
X017208Y012272D01*
X017294Y012272D02*
X017294Y012532D01*
X017208Y012445D01*
X017797Y012445D02*
X017797Y012185D01*
X017797Y012272D02*
X017927Y012272D01*
X017970Y012315D01*
X017970Y012402D01*
X017927Y012445D01*
X017797Y012445D01*
X018092Y012402D02*
X018178Y012402D01*
X018092Y012272D02*
X018092Y012532D01*
X018265Y012532D01*
X016139Y012462D02*
X015966Y012462D01*
X015966Y012202D01*
X016139Y012202D01*
X016053Y012332D02*
X015966Y012332D01*
X015845Y012289D02*
X015845Y012245D01*
X015801Y012202D01*
X015714Y012202D01*
X015671Y012245D01*
X015714Y012332D02*
X015801Y012332D01*
X015845Y012289D01*
X015845Y012419D02*
X015801Y012462D01*
X015714Y012462D01*
X015671Y012419D01*
X015671Y012375D01*
X015714Y012332D01*
X015550Y012332D02*
X015376Y012332D01*
X015376Y012202D02*
X015376Y012462D01*
X015550Y012462D02*
X015550Y012202D01*
X014383Y012545D02*
X014209Y012545D01*
X014209Y012284D01*
X014088Y012328D02*
X014045Y012284D01*
X013915Y012284D01*
X013915Y012198D02*
X013915Y012458D01*
X014045Y012458D01*
X014088Y012415D01*
X014088Y012328D01*
X014209Y012415D02*
X014296Y012415D01*
X013793Y012458D02*
X013750Y012415D01*
X013663Y012415D01*
X013620Y012458D01*
X013620Y012501D01*
X013663Y012545D01*
X013750Y012545D01*
X013793Y012501D01*
X013793Y012458D01*
X013750Y012415D02*
X013793Y012371D01*
X013793Y012328D01*
X013750Y012284D01*
X013663Y012284D01*
X013620Y012328D01*
X013620Y012371D01*
X013663Y012415D01*
X013499Y012284D02*
X013325Y012284D01*
X013412Y012284D02*
X013412Y012545D01*
X013325Y012458D01*
X014228Y011392D02*
X014237Y011391D01*
X014246Y011386D01*
X014252Y011380D01*
X014257Y011371D01*
X014258Y011362D01*
X014257Y011353D01*
X014252Y011344D01*
X014246Y011338D01*
X014237Y011333D01*
X014228Y011332D01*
X014219Y011333D01*
X014210Y011338D01*
X014204Y011344D01*
X014199Y011353D01*
X014198Y011362D01*
X014199Y011371D01*
X014204Y011380D01*
X014210Y011386D01*
X014219Y011391D01*
X014228Y011392D01*
X014418Y010712D02*
X014608Y010712D01*
X014608Y010522D01*
X015786Y009549D02*
X015786Y009375D01*
X015829Y009332D01*
X015916Y009332D01*
X015959Y009375D01*
X016081Y009375D02*
X016124Y009332D01*
X016211Y009332D01*
X016254Y009375D01*
X016254Y009462D01*
X016211Y009505D01*
X016167Y009505D01*
X016081Y009462D01*
X016081Y009592D01*
X016254Y009592D01*
X015959Y009549D02*
X015916Y009592D01*
X015829Y009592D01*
X015786Y009549D01*
X016672Y009549D02*
X016672Y009375D01*
X016715Y009332D01*
X016802Y009332D01*
X016845Y009375D01*
X016966Y009332D02*
X017140Y009332D01*
X017053Y009332D02*
X017053Y009592D01*
X016966Y009505D01*
X016845Y009549D02*
X016802Y009592D01*
X016715Y009592D01*
X016672Y009549D01*
X017261Y009549D02*
X017261Y009375D01*
X017435Y009549D01*
X017435Y009375D01*
X017391Y009332D01*
X017304Y009332D01*
X017261Y009375D01*
X017261Y009549D02*
X017304Y009592D01*
X017391Y009592D01*
X017435Y009549D01*
X017437Y008583D02*
X017264Y008583D01*
X017350Y008583D02*
X017350Y008323D01*
X017142Y008366D02*
X017142Y008540D01*
X017099Y008583D01*
X017012Y008583D01*
X016969Y008540D01*
X016969Y008366D01*
X017012Y008323D01*
X017099Y008323D01*
X017142Y008366D01*
X016848Y008366D02*
X016848Y008540D01*
X016804Y008583D01*
X016718Y008583D01*
X016674Y008540D01*
X016674Y008366D01*
X016718Y008323D01*
X016804Y008323D01*
X016848Y008366D01*
X016553Y008366D02*
X016510Y008323D01*
X016380Y008323D01*
X016380Y008583D01*
X016510Y008583D01*
X016553Y008540D01*
X016553Y008496D01*
X016510Y008453D01*
X016380Y008453D01*
X016510Y008453D02*
X016553Y008409D01*
X016553Y008366D01*
X017558Y008366D02*
X017602Y008323D01*
X017688Y008323D01*
X017732Y008366D01*
X017732Y008540D01*
X017558Y008366D01*
X017558Y008540D01*
X017602Y008583D01*
X017688Y008583D01*
X017732Y008540D01*
X018443Y008608D02*
X018443Y008347D01*
X018443Y008434D02*
X018573Y008434D01*
X018617Y008478D01*
X018617Y008564D01*
X018573Y008608D01*
X018443Y008608D01*
X018530Y008434D02*
X018617Y008347D01*
X018738Y008347D02*
X018912Y008521D01*
X018912Y008564D01*
X018868Y008608D01*
X018781Y008608D01*
X018738Y008564D01*
X018738Y008347D02*
X018912Y008347D01*
X015016Y002718D02*
X014755Y002718D01*
X014886Y002510D02*
X014886Y002423D01*
X015016Y002423D02*
X015016Y002597D01*
X012711Y002265D02*
X012711Y002178D01*
X012668Y002135D01*
X012538Y002135D01*
X012538Y002048D02*
X012538Y002308D01*
X012668Y002308D01*
X012711Y002265D01*
X011038Y001675D02*
X011038Y001588D01*
X010995Y001544D01*
X010865Y001544D01*
X010865Y001458D02*
X010865Y001718D01*
X010995Y001718D01*
X011038Y001675D01*
X008232Y005481D02*
X008102Y005567D01*
X008232Y005654D01*
X008102Y005741D02*
X008102Y005481D01*
X007980Y005697D02*
X007807Y005524D01*
X007807Y005481D01*
X007703Y005481D02*
X007660Y005481D01*
X007660Y005524D01*
X007703Y005524D01*
X007703Y005481D01*
X007495Y005481D02*
X007495Y005741D01*
X007365Y005611D01*
X007539Y005611D01*
X007807Y005741D02*
X007980Y005741D01*
X007980Y005697D01*
X007943Y006434D02*
X007943Y006694D01*
X007857Y006607D01*
X007735Y006564D02*
X007692Y006520D01*
X007562Y006520D01*
X007562Y006434D02*
X007562Y006694D01*
X007692Y006694D01*
X007735Y006651D01*
X007735Y006564D01*
X007649Y006520D02*
X007735Y006434D01*
X007857Y006434D02*
X008030Y006434D01*
X007308Y001718D02*
X007222Y001631D01*
X007100Y001675D02*
X007057Y001718D01*
X006970Y001718D01*
X006927Y001675D01*
X006927Y001631D01*
X006970Y001588D01*
X007057Y001588D01*
X007100Y001544D01*
X007100Y001501D01*
X007057Y001458D01*
X006970Y001458D01*
X006927Y001501D01*
X006806Y001501D02*
X006806Y001675D01*
X006762Y001718D01*
X006632Y001718D01*
X006632Y001458D01*
X006762Y001458D01*
X006806Y001501D01*
X011488Y012525D02*
X011661Y012525D01*
X011704Y012568D01*
X011704Y012655D01*
X011661Y012698D01*
X011661Y012820D02*
X011704Y012863D01*
X011704Y012950D01*
X011661Y012993D01*
X011488Y012993D01*
X011444Y012950D01*
X011444Y012863D01*
X011488Y012820D01*
X011531Y012820D01*
X011574Y012863D01*
X011574Y012993D01*
X011488Y012698D02*
X011444Y012655D01*
X011444Y012568D01*
X011488Y012525D01*
X011726Y015336D02*
X011726Y015466D01*
X011769Y015509D01*
X011856Y015509D01*
X011899Y015466D01*
X011899Y015336D01*
X011899Y015422D02*
X011986Y015509D01*
X011986Y015630D02*
X011726Y015630D01*
X011726Y015760D01*
X011769Y015804D01*
X011812Y015804D01*
X011856Y015760D01*
X011856Y015630D01*
X011986Y015630D02*
X011986Y015760D01*
X011942Y015804D01*
X011899Y015804D01*
X011856Y015760D01*
X011769Y015925D02*
X011726Y015968D01*
X011726Y016055D01*
X011769Y016098D01*
X011812Y016098D01*
X011986Y015925D01*
X011986Y016098D01*
X011986Y015336D02*
X011726Y015336D01*
X005427Y016659D02*
X005383Y016615D01*
X005297Y016615D01*
X005253Y016659D01*
X005427Y016832D01*
X005427Y016659D01*
X005427Y016832D02*
X005383Y016875D01*
X005297Y016875D01*
X005253Y016832D01*
X005253Y016659D01*
X005132Y016615D02*
X004959Y016615D01*
X005132Y016789D01*
X005132Y016832D01*
X005089Y016875D01*
X005002Y016875D01*
X004959Y016832D01*
X004837Y016832D02*
X004837Y016745D01*
X004794Y016702D01*
X004664Y016702D01*
X004751Y016702D02*
X004837Y016615D01*
X004664Y016615D02*
X004664Y016875D01*
X004794Y016875D01*
X004837Y016832D01*
X003852Y016832D02*
X003852Y016659D01*
X003808Y016615D01*
X003722Y016615D01*
X003678Y016659D01*
X003722Y016745D02*
X003678Y016789D01*
X003678Y016832D01*
X003722Y016875D01*
X003808Y016875D01*
X003852Y016832D01*
X003852Y016745D02*
X003722Y016745D01*
X003557Y016615D02*
X003384Y016615D01*
X003470Y016615D02*
X003470Y016875D01*
X003384Y016789D01*
X003263Y016832D02*
X003263Y016745D01*
X003219Y016702D01*
X003089Y016702D01*
X003176Y016702D02*
X003263Y016615D01*
X003089Y016615D02*
X003089Y016875D01*
X003219Y016875D01*
X003263Y016832D01*
D11*
X010539Y002609D02*
X010539Y000739D01*
D12*
X014624Y000739D02*
X014624Y002510D01*
X006455Y002510D02*
X006455Y000739D01*
X004894Y005513D02*
X004627Y005513D01*
X004894Y005780D01*
X004894Y005847D01*
X004827Y005913D01*
X004694Y005913D01*
X004627Y005847D01*
X004433Y005847D02*
X004433Y005780D01*
X004367Y005713D01*
X004433Y005647D01*
X004433Y005580D01*
X004367Y005513D01*
X004233Y005513D01*
X004166Y005580D01*
X004300Y005713D02*
X004367Y005713D01*
X004433Y005847D02*
X004367Y005913D01*
X004233Y005913D01*
X004166Y005847D01*
X003973Y005913D02*
X003973Y005513D01*
X003840Y005780D02*
X003973Y005913D01*
X003840Y005780D02*
X003706Y005913D01*
X003706Y005513D01*
X003379Y005513D02*
X003379Y005913D01*
X003246Y005913D02*
X003513Y005913D01*
X003052Y005847D02*
X002985Y005913D01*
X002852Y005913D01*
X002785Y005847D01*
X002785Y005780D01*
X002852Y005713D01*
X002985Y005713D01*
X003052Y005647D01*
X003052Y005580D01*
X002985Y005513D01*
X002852Y005513D01*
X002785Y005580D01*
X002592Y005513D02*
X002592Y005713D01*
X002525Y005780D01*
X002325Y005780D01*
X002325Y005513D01*
X002131Y005580D02*
X002131Y005713D01*
X002065Y005780D01*
X001931Y005780D01*
X001864Y005713D01*
X001864Y005580D01*
X001931Y005513D01*
X002065Y005513D01*
X002131Y005580D01*
X001671Y005513D02*
X001671Y005713D01*
X001604Y005780D01*
X001538Y005713D01*
X001538Y005513D01*
X001404Y005513D02*
X001404Y005780D01*
X001471Y005780D01*
X001538Y005713D01*
X001211Y005713D02*
X001211Y005647D01*
X000944Y005647D01*
X000944Y005713D02*
X001010Y005780D01*
X001144Y005780D01*
X001211Y005713D01*
X001144Y005513D02*
X001010Y005513D01*
X000944Y005580D01*
X000944Y005713D01*
D13*
X008077Y018964D02*
X008384Y018964D01*
X008460Y019041D01*
X008460Y019194D01*
X008384Y019271D01*
X008460Y019578D02*
X008000Y019578D01*
X008000Y019425D02*
X008000Y019731D01*
X008077Y019885D02*
X008000Y019962D01*
X008000Y020115D01*
X008077Y020192D01*
X008153Y020192D01*
X008230Y020115D01*
X008307Y020192D01*
X008384Y020192D01*
X008460Y020115D01*
X008460Y019962D01*
X008384Y019885D01*
X008230Y020038D02*
X008230Y020115D01*
X008077Y019271D02*
X008000Y019194D01*
X008000Y019041D01*
X008077Y018964D01*
X012331Y019041D02*
X012407Y018964D01*
X012714Y018964D01*
X012791Y019041D01*
X012791Y019194D01*
X012714Y019271D01*
X012791Y019578D02*
X012331Y019578D01*
X012331Y019425D02*
X012331Y019731D01*
X012407Y019885D02*
X012331Y019962D01*
X012331Y020115D01*
X012407Y020192D01*
X012484Y020192D01*
X012791Y019885D01*
X012791Y020192D01*
X012407Y019271D02*
X012331Y019194D01*
X012331Y019041D01*
X016661Y019041D02*
X016738Y018964D01*
X017045Y018964D01*
X017122Y019041D01*
X017122Y019194D01*
X017045Y019271D01*
X016738Y019271D02*
X016661Y019194D01*
X016661Y019041D01*
X016661Y019425D02*
X016661Y019731D01*
X016661Y019578D02*
X017122Y019578D01*
X017122Y019885D02*
X017122Y020192D01*
X017122Y020038D02*
X016661Y020038D01*
X016815Y019885D01*
X018021Y011754D02*
X018141Y011754D01*
X018181Y011714D01*
X018181Y011553D01*
X018141Y011513D01*
X018021Y011513D01*
X018021Y011754D01*
X018278Y011634D02*
X018278Y011553D01*
X018318Y011513D01*
X018399Y011513D01*
X018439Y011593D02*
X018278Y011593D01*
X018278Y011634D02*
X018318Y011674D01*
X018399Y011674D01*
X018439Y011634D01*
X018439Y011593D01*
X018536Y011634D02*
X018576Y011593D01*
X018656Y011593D01*
X018696Y011553D01*
X018656Y011513D01*
X018536Y011513D01*
X018536Y011634D02*
X018576Y011674D01*
X018696Y011674D01*
X018794Y011674D02*
X018834Y011674D01*
X018834Y011513D01*
X018794Y011513D02*
X018874Y011513D01*
X018966Y011553D02*
X019006Y011513D01*
X019126Y011513D01*
X019126Y011473D02*
X019126Y011674D01*
X019006Y011674D01*
X018966Y011634D01*
X018966Y011553D01*
X019046Y011433D02*
X019086Y011433D01*
X019126Y011473D01*
X019224Y011513D02*
X019224Y011674D01*
X019344Y011674D01*
X019384Y011634D01*
X019384Y011513D01*
X019482Y011553D02*
X019482Y011634D01*
X019522Y011674D01*
X019602Y011674D01*
X019642Y011634D01*
X019642Y011593D01*
X019482Y011593D01*
X019482Y011553D02*
X019522Y011513D01*
X019602Y011513D01*
X019739Y011553D02*
X019739Y011634D01*
X019779Y011674D01*
X019900Y011674D01*
X019900Y011754D02*
X019900Y011513D01*
X019779Y011513D01*
X019739Y011553D01*
X020255Y011513D02*
X020335Y011513D01*
X020295Y011513D02*
X020295Y011674D01*
X020255Y011674D01*
X020295Y011754D02*
X020295Y011794D01*
X020427Y011674D02*
X020427Y011513D01*
X020587Y011513D02*
X020587Y011634D01*
X020547Y011674D01*
X020427Y011674D01*
X018834Y011754D02*
X018834Y011794D01*
X018979Y009852D02*
X018979Y009612D01*
X018888Y009612D02*
X018848Y009652D01*
X018848Y009812D01*
X018808Y009772D02*
X018888Y009772D01*
X018979Y009732D02*
X019020Y009772D01*
X019100Y009772D01*
X019140Y009732D01*
X019140Y009612D01*
X018999Y009323D02*
X019039Y009283D01*
X019039Y009243D01*
X018879Y009243D01*
X018879Y009203D02*
X018879Y009283D01*
X018919Y009323D01*
X018999Y009323D01*
X018999Y009163D02*
X018919Y009163D01*
X018879Y009203D01*
X018781Y009163D02*
X018781Y009403D01*
X018781Y009323D02*
X018661Y009323D01*
X018621Y009283D01*
X018621Y009203D01*
X018661Y009163D01*
X018781Y009163D01*
X018523Y009163D02*
X018523Y009283D01*
X018483Y009323D01*
X018403Y009323D01*
X018403Y009243D02*
X018523Y009243D01*
X018523Y009163D02*
X018403Y009163D01*
X018363Y009203D01*
X018403Y009243D01*
X018265Y009163D02*
X018265Y009403D01*
X018185Y009323D01*
X018105Y009403D01*
X018105Y009163D01*
X018077Y009612D02*
X018077Y009852D01*
X018237Y009612D01*
X018237Y009852D01*
X018335Y009732D02*
X018335Y009652D01*
X018375Y009612D01*
X018455Y009612D01*
X018495Y009652D01*
X018495Y009732D01*
X018455Y009772D01*
X018375Y009772D01*
X018335Y009732D01*
X018593Y009692D02*
X018673Y009772D01*
X018713Y009772D01*
X018593Y009772D02*
X018593Y009612D01*
X019394Y009323D02*
X019434Y009323D01*
X019434Y009163D01*
X019394Y009163D02*
X019474Y009163D01*
X019566Y009163D02*
X019566Y009323D01*
X019686Y009323D01*
X019726Y009283D01*
X019726Y009163D01*
X020082Y009203D02*
X020082Y009403D01*
X020242Y009403D02*
X020242Y009203D01*
X020202Y009163D01*
X020122Y009163D01*
X020082Y009203D01*
X020340Y009163D02*
X020340Y009403D01*
X020380Y009283D02*
X020500Y009163D01*
X020340Y009243D02*
X020500Y009403D01*
X020440Y009612D02*
X020561Y009612D01*
X020601Y009652D01*
X020561Y009692D01*
X020480Y009692D01*
X020440Y009732D01*
X020480Y009772D01*
X020601Y009772D01*
X020343Y009732D02*
X020343Y009692D01*
X020183Y009692D01*
X020183Y009652D02*
X020183Y009732D01*
X020223Y009772D01*
X020303Y009772D01*
X020343Y009732D01*
X020303Y009612D02*
X020223Y009612D01*
X020183Y009652D01*
X020091Y009612D02*
X020011Y009612D01*
X020051Y009612D02*
X020051Y009852D01*
X020011Y009852D01*
X019913Y009732D02*
X019913Y009612D01*
X019793Y009612D01*
X019753Y009652D01*
X019793Y009692D01*
X019913Y009692D01*
X019913Y009732D02*
X019873Y009772D01*
X019793Y009772D01*
X019655Y009852D02*
X019655Y009612D01*
X019575Y009692D01*
X019495Y009612D01*
X019495Y009852D01*
X019434Y009443D02*
X019434Y009403D01*
D14*
X019749Y010006D03*
X019704Y010066D03*
X019644Y010166D03*
X019084Y010196D03*
X019074Y010221D03*
X018529Y009986D03*
X018309Y010826D03*
X018449Y011226D03*
X019969Y010811D03*
D15*
X020008Y010768D03*
X020078Y010283D03*
X019748Y010008D03*
X019705Y010068D03*
X019645Y010168D03*
X019088Y010198D03*
X018510Y010183D03*
X018483Y010083D03*
X018528Y009988D03*
X018308Y010828D03*
X018305Y010833D03*
X018605Y011093D03*
X018735Y011123D03*
D16*
X018749Y011091D03*
X018604Y011096D03*
X018484Y010086D03*
X018529Y009991D03*
X019039Y010131D03*
D17*
X019040Y010133D03*
X019648Y010173D03*
X019708Y010073D03*
X020175Y010028D03*
X019138Y011113D03*
X018453Y011223D03*
X018305Y010838D03*
X018485Y010088D03*
X018528Y009993D03*
D18*
X018606Y009993D03*
X019461Y010053D03*
X020066Y010288D03*
X019736Y010723D03*
X018596Y011103D03*
D19*
X018575Y011246D03*
X019130Y010976D03*
X019098Y010886D03*
X019078Y010226D03*
X019093Y010201D03*
X019075Y010041D03*
X019513Y010046D03*
X019648Y010176D03*
X019770Y010071D03*
X019748Y010016D03*
X020175Y010026D03*
X020008Y010766D03*
X020185Y010826D03*
X020205Y011146D03*
X018513Y010186D03*
X018528Y009996D03*
D20*
X018535Y010016D03*
X018605Y009996D03*
X018540Y010136D03*
X019080Y010256D03*
X019460Y010056D03*
X020068Y010881D03*
X020068Y010886D03*
X020070Y010896D03*
X020073Y010906D03*
X020170Y010851D03*
X019118Y010986D03*
X018588Y011116D03*
X018480Y010986D03*
X018488Y010906D03*
D21*
X018308Y010843D03*
X018408Y010658D03*
X018723Y010973D03*
X019095Y010888D03*
X019128Y010978D03*
X019080Y010233D03*
X019045Y010138D03*
X019648Y010183D03*
X020183Y010828D03*
X020200Y011138D03*
X018488Y010093D03*
X018528Y009998D03*
D22*
X018604Y009998D03*
X018554Y010088D03*
X019114Y010988D03*
X019784Y011238D03*
X019644Y010223D03*
X019759Y010113D03*
D23*
X019649Y010186D03*
X019774Y010741D03*
X019834Y011296D03*
X019839Y011301D03*
X019844Y011306D03*
X019849Y011311D03*
X019869Y011336D03*
X020199Y011136D03*
X018924Y010081D03*
X018529Y010001D03*
X018489Y010096D03*
X018519Y010191D03*
X018599Y011101D03*
D24*
X018580Y011126D03*
X018485Y010926D03*
X018375Y010971D03*
X018460Y010661D03*
X018645Y010306D03*
X018603Y010001D03*
X019073Y010271D03*
X019248Y010056D03*
X019843Y010111D03*
X020173Y011091D03*
X019680Y011316D03*
X019110Y010991D03*
D25*
X019080Y010238D03*
X019050Y010143D03*
X018530Y010003D03*
X018493Y010098D03*
X019813Y011273D03*
X019818Y011278D03*
X019828Y011288D03*
X019850Y011313D03*
X019855Y011318D03*
X019860Y011323D03*
X019868Y011333D03*
X020198Y011133D03*
X020180Y010833D03*
X020010Y010758D03*
D26*
X020158Y010883D03*
X020168Y011083D03*
X019773Y011223D03*
X018835Y011293D03*
X018750Y010988D03*
X018578Y011128D03*
X018485Y010963D03*
X018485Y010958D03*
X018485Y010933D03*
X018460Y010698D03*
X018458Y010668D03*
X018660Y010323D03*
X018658Y010318D03*
X018593Y010183D03*
X018543Y010133D03*
X018603Y010003D03*
X019773Y010178D03*
X019845Y010108D03*
D27*
X019749Y010003D03*
X020189Y010818D03*
X020209Y011153D03*
X018984Y010013D03*
X018919Y010013D03*
X018479Y010078D03*
X018374Y010818D03*
D28*
X018830Y011301D03*
X019815Y011276D03*
X019820Y011281D03*
X019825Y011286D03*
X019830Y011291D03*
X019853Y011316D03*
X019858Y011321D03*
X019865Y011331D03*
X019945Y011006D03*
X020195Y011131D03*
X019648Y010191D03*
X019718Y010081D03*
X019080Y010236D03*
X018920Y010016D03*
X018530Y010006D03*
D29*
X018600Y010006D03*
X018598Y010171D03*
X018595Y010176D03*
X018568Y010211D03*
X018665Y010336D03*
X018455Y010681D03*
X018458Y010686D03*
X018458Y010691D03*
X018485Y010946D03*
X018485Y010951D03*
X018485Y010956D03*
X018578Y011131D03*
X018740Y011166D03*
X019668Y011301D03*
X019970Y010876D03*
X020155Y010891D03*
X019773Y010176D03*
X019848Y010106D03*
X019463Y010101D03*
X019068Y010276D03*
D30*
X019080Y010243D03*
X019090Y010163D03*
X019508Y010058D03*
X020010Y010753D03*
X020178Y010838D03*
X020193Y011123D03*
X019935Y011003D03*
X019803Y011263D03*
X019808Y011268D03*
X018593Y011108D03*
X018525Y010193D03*
X018530Y010008D03*
D31*
X018599Y010008D03*
X018669Y010348D03*
X019064Y010278D03*
X019144Y010198D03*
X019814Y010128D03*
X019894Y010748D03*
X019889Y010783D03*
X020149Y010913D03*
X020159Y011068D03*
X019764Y011213D03*
X018779Y011023D03*
X018769Y011008D03*
X018469Y010883D03*
X018474Y010868D03*
X018429Y010908D03*
X018424Y010913D03*
X018419Y010923D03*
D32*
X018761Y011081D03*
X018766Y011146D03*
X019081Y010246D03*
X018531Y010011D03*
X019796Y011256D03*
X019801Y011261D03*
X019926Y011001D03*
X020176Y010841D03*
D33*
X020154Y011061D03*
X019894Y010796D03*
X019899Y010741D03*
X019774Y010171D03*
X019154Y010181D03*
X018669Y010351D03*
X018599Y010011D03*
X018474Y010861D03*
X018399Y010946D03*
X018509Y011196D03*
D34*
X018330Y010946D03*
X018305Y010836D03*
X018308Y010831D03*
X018480Y010081D03*
X019073Y010036D03*
X019510Y010041D03*
X019748Y010011D03*
X019785Y010061D03*
X019808Y010061D03*
X020175Y010021D03*
X020188Y010821D03*
X020208Y011151D03*
X019785Y010736D03*
X019753Y010721D03*
D35*
X020009Y010748D03*
X019794Y011253D03*
X019079Y010253D03*
X018534Y010013D03*
X018499Y010103D03*
X018479Y010988D03*
X018589Y011113D03*
X018739Y011158D03*
D36*
X018541Y010693D03*
X018596Y010013D03*
X019156Y010173D03*
X019771Y010168D03*
X019901Y010738D03*
X020151Y011058D03*
X019756Y011203D03*
X019301Y010918D03*
D37*
X019076Y010223D03*
X019241Y010053D03*
X019511Y010043D03*
X019746Y010013D03*
X020176Y010023D03*
X020186Y010823D03*
X020206Y011148D03*
D38*
X020186Y011113D03*
X020171Y010848D03*
X019916Y010998D03*
X019791Y011248D03*
X019646Y010213D03*
X019806Y010013D03*
X018766Y011078D03*
X018486Y010903D03*
D39*
X018461Y010891D03*
X018641Y010131D03*
X018596Y010016D03*
X019711Y010771D03*
X019961Y010676D03*
D40*
X019646Y010171D03*
X019706Y010071D03*
X018981Y010016D03*
D41*
X019120Y010046D03*
X018630Y010296D03*
X018470Y010711D03*
X018343Y010886D03*
X019290Y010906D03*
X019743Y010756D03*
X020008Y010741D03*
X020163Y010866D03*
X020083Y010926D03*
X020175Y011096D03*
X019683Y011321D03*
X019643Y010226D03*
X019808Y010016D03*
D42*
X019960Y010248D03*
X020123Y010933D03*
X019628Y011243D03*
X019325Y010933D03*
X019305Y010813D03*
X019205Y010958D03*
X018518Y010773D03*
X018693Y010358D03*
X018578Y010018D03*
D43*
X018921Y010018D03*
X018976Y010028D03*
X019371Y010283D03*
X019121Y010983D03*
X018821Y011083D03*
X018471Y011213D03*
D44*
X018601Y011098D03*
X018751Y011088D03*
X018446Y010633D03*
X018516Y010188D03*
X018541Y010138D03*
X018981Y010018D03*
X019076Y010043D03*
X019511Y010048D03*
X019646Y010178D03*
X019956Y011008D03*
D45*
X020009Y010763D03*
X019779Y010738D03*
X020204Y011143D03*
X019749Y010018D03*
X019079Y010228D03*
D46*
X019806Y010018D03*
X020001Y010733D03*
X020156Y010888D03*
X018486Y010938D03*
X018486Y010943D03*
X018456Y010678D03*
X018456Y010673D03*
D47*
X018455Y010683D03*
X018458Y010688D03*
X018443Y010643D03*
X018665Y010333D03*
X018663Y010328D03*
X018598Y010173D03*
X018485Y010948D03*
X018485Y010953D03*
X018375Y010968D03*
X018755Y010993D03*
X019670Y011303D03*
X019768Y011218D03*
X020165Y011078D03*
X020155Y010893D03*
X019728Y010763D03*
X019953Y010018D03*
D48*
X020176Y010018D03*
X019071Y010033D03*
X019036Y010128D03*
X019101Y010883D03*
X019131Y010973D03*
X018821Y011088D03*
D49*
X019044Y011331D03*
X018564Y011166D03*
X018549Y011181D03*
X018359Y010861D03*
X018579Y010021D03*
D50*
X018551Y010086D03*
X018921Y010021D03*
X019466Y010106D03*
X019646Y010216D03*
X018731Y010976D03*
X018486Y010901D03*
X018476Y011211D03*
D51*
X018755Y011086D03*
X018820Y011086D03*
X018308Y010846D03*
X018980Y010021D03*
X019513Y010051D03*
X019648Y010181D03*
X019770Y010186D03*
X020073Y010286D03*
X020010Y010761D03*
D52*
X020181Y010831D03*
X019751Y010021D03*
X019511Y010056D03*
X019046Y010141D03*
D53*
X019148Y010196D03*
X018923Y010076D03*
X018620Y010146D03*
X018613Y010151D03*
X018608Y010156D03*
X018603Y010161D03*
X018600Y010166D03*
X018443Y010646D03*
X018473Y010871D03*
X018473Y010876D03*
X018470Y010881D03*
X018435Y010901D03*
X018418Y010926D03*
X018415Y010931D03*
X018413Y010936D03*
X018408Y010941D03*
X018763Y011001D03*
X019888Y010781D03*
X019888Y010776D03*
X019888Y010771D03*
X019890Y010786D03*
X019890Y010756D03*
X020150Y010906D03*
X020160Y011071D03*
X019795Y010151D03*
X019805Y010021D03*
D54*
X019954Y010021D03*
X018544Y010666D03*
X018544Y010671D03*
X018544Y010676D03*
D55*
X018566Y010618D03*
X018581Y010023D03*
X018726Y010028D03*
X019026Y011308D03*
X019976Y010868D03*
X020121Y010928D03*
X020126Y011023D03*
X019956Y010688D03*
D56*
X019890Y010753D03*
X019888Y010768D03*
X019888Y010773D03*
X019888Y010778D03*
X020150Y010908D03*
X020163Y011073D03*
X019663Y011293D03*
X018765Y011003D03*
X018728Y011118D03*
X018503Y011198D03*
X018405Y010943D03*
X018410Y010938D03*
X018413Y010933D03*
X018473Y010873D03*
X018668Y010343D03*
X018605Y010158D03*
X018610Y010153D03*
X018625Y010143D03*
X018633Y010138D03*
X018733Y010023D03*
X019148Y010193D03*
X019763Y010108D03*
X019798Y010148D03*
X019793Y010153D03*
X019788Y010158D03*
X019773Y010173D03*
X019820Y010123D03*
D57*
X019120Y010043D03*
X018923Y010023D03*
X019085Y010893D03*
X019125Y011118D03*
X018735Y010978D03*
X020068Y010888D03*
X020068Y010883D03*
X020068Y010878D03*
X020070Y010893D03*
X020070Y010898D03*
X020183Y011108D03*
D58*
X019649Y010188D03*
X019714Y010078D03*
X019464Y010108D03*
X018979Y010023D03*
X018309Y010848D03*
D59*
X019176Y010883D03*
X019791Y010023D03*
X020106Y010738D03*
X020101Y010753D03*
X019961Y010943D03*
D60*
X020090Y010773D03*
X020093Y010663D03*
X019978Y010198D03*
X019980Y010193D03*
X019980Y010188D03*
X019980Y010183D03*
X019953Y010023D03*
X019145Y010748D03*
X019185Y010913D03*
X019188Y010918D03*
X019318Y010928D03*
X018938Y010038D03*
D61*
X018583Y010026D03*
X018515Y010776D03*
X019210Y010966D03*
X019025Y011306D03*
X019958Y010256D03*
X020125Y011021D03*
D62*
X020140Y011041D03*
X020100Y010756D03*
X020103Y010751D03*
X019913Y010811D03*
X019983Y010171D03*
X019983Y010116D03*
X019983Y010111D03*
X019795Y010026D03*
X019148Y010751D03*
X019178Y010891D03*
X019180Y010896D03*
X019180Y010901D03*
X019183Y010906D03*
X018555Y010636D03*
X018565Y010196D03*
X018730Y010026D03*
X018915Y010071D03*
X018940Y010036D03*
D63*
X018923Y010026D03*
X019078Y010261D03*
X018620Y010291D03*
X018473Y010716D03*
X018483Y010731D03*
X018740Y011161D03*
X019645Y010221D03*
X020123Y010076D03*
X020168Y010856D03*
X020178Y011101D03*
X019785Y011241D03*
X019688Y011326D03*
D64*
X019264Y010826D03*
X019124Y010981D03*
X018594Y011106D03*
X018374Y010976D03*
X018564Y010216D03*
X018979Y010026D03*
X019079Y010046D03*
X019649Y010196D03*
D65*
X019964Y010241D03*
X019954Y010026D03*
X020074Y010796D03*
X020124Y010941D03*
X020129Y011026D03*
X019629Y011246D03*
X019204Y010956D03*
X018849Y011271D03*
D66*
X018456Y011221D03*
X018456Y011001D03*
X018306Y010841D03*
X018486Y010091D03*
X019041Y010136D03*
X019711Y010076D03*
X019736Y010161D03*
X020131Y010026D03*
X020201Y011141D03*
D67*
X020061Y010803D03*
X019731Y011168D03*
X018891Y010238D03*
X018876Y010213D03*
X018866Y010198D03*
X018586Y010028D03*
X018571Y010613D03*
D68*
X018634Y010298D03*
X018924Y010078D03*
X018924Y010028D03*
X019129Y010213D03*
X019274Y010823D03*
X020174Y011093D03*
D69*
X020096Y010668D03*
X019696Y010778D03*
X019636Y011258D03*
X019181Y010903D03*
X018556Y010633D03*
X018381Y010948D03*
X019796Y010028D03*
X019981Y010173D03*
X019981Y010178D03*
D70*
X019954Y010028D03*
X019024Y011303D03*
X018564Y011168D03*
D71*
X018481Y011208D03*
X018486Y010908D03*
X018481Y010728D03*
X019646Y010218D03*
X020066Y010868D03*
X020066Y010873D03*
X020071Y010903D03*
X019786Y011243D03*
X020136Y010028D03*
D72*
X019778Y010396D03*
X018955Y011166D03*
X018945Y011171D03*
X018658Y010031D03*
D73*
X018945Y010031D03*
X018548Y010651D03*
X018348Y010876D03*
X018573Y011146D03*
X019168Y010831D03*
X019168Y010826D03*
X019168Y010821D03*
X019168Y010816D03*
X019168Y010811D03*
X019160Y010771D03*
X020105Y010691D03*
X020108Y010706D03*
X020133Y010051D03*
D74*
X019975Y010211D03*
X019973Y010221D03*
X019970Y010226D03*
X019800Y010031D03*
X020088Y010656D03*
X019975Y010871D03*
X020128Y010956D03*
X019740Y011181D03*
X019633Y011251D03*
X019033Y011326D03*
X019030Y011321D03*
X018590Y011141D03*
X018565Y011161D03*
X018523Y010756D03*
X018523Y010751D03*
X018523Y010746D03*
X018523Y010741D03*
X018688Y010356D03*
X018933Y010041D03*
X019138Y010741D03*
D75*
X018903Y010256D03*
X018833Y010161D03*
X019383Y010151D03*
X019390Y010156D03*
X019398Y010161D03*
X019415Y010171D03*
X019953Y010031D03*
X020118Y011011D03*
X019023Y011291D03*
X019015Y011281D03*
X018485Y010821D03*
X018503Y010791D03*
X018505Y010786D03*
D76*
X018475Y010866D03*
X018423Y010916D03*
X018345Y010881D03*
X018780Y011026D03*
X019298Y010916D03*
X019283Y010821D03*
X019660Y011291D03*
X019893Y010791D03*
X019895Y010746D03*
X019998Y010731D03*
X020148Y010921D03*
X020158Y011066D03*
X019783Y010161D03*
X019803Y010141D03*
X019805Y010136D03*
X019810Y010131D03*
X019763Y010106D03*
X020148Y010031D03*
X019153Y010186D03*
X019138Y010201D03*
X019130Y010206D03*
X018545Y010131D03*
D77*
X018661Y010033D03*
X018986Y010308D03*
X018931Y010923D03*
X018986Y011148D03*
X019661Y010953D03*
X019781Y010393D03*
D78*
X020100Y010673D03*
X020103Y010678D03*
X020108Y010728D03*
X020108Y010733D03*
X020105Y010743D03*
X019958Y010678D03*
X020143Y011043D03*
X019640Y011263D03*
X019175Y010878D03*
X019173Y010868D03*
X019170Y010858D03*
X018550Y010643D03*
X018350Y010873D03*
X018528Y011188D03*
X018943Y010033D03*
D79*
X019464Y010068D03*
X019804Y010033D03*
X019964Y010243D03*
X020124Y010938D03*
D80*
X019950Y010718D03*
X019720Y011153D03*
X019615Y011218D03*
X018758Y011213D03*
X018748Y011223D03*
X018703Y010373D03*
X019945Y010033D03*
D81*
X019851Y010103D03*
X020146Y010033D03*
X019896Y010743D03*
X020146Y010923D03*
X020156Y011063D03*
X018541Y010728D03*
D82*
X018860Y010826D03*
X019413Y010356D03*
X019893Y010041D03*
X019898Y010046D03*
X019903Y010051D03*
X018665Y010036D03*
D83*
X018989Y010311D03*
X019409Y010361D03*
X019784Y010391D03*
X019889Y010036D03*
X018864Y010831D03*
X018874Y010846D03*
D84*
X018785Y011031D03*
X018698Y011276D03*
X018378Y010961D03*
X018543Y010726D03*
X018543Y010721D03*
X018543Y010716D03*
X018543Y010711D03*
X018543Y010706D03*
X018543Y010701D03*
X018543Y010696D03*
X018443Y010651D03*
X018568Y010206D03*
X019155Y010176D03*
X019160Y010166D03*
X019895Y010801D03*
X019758Y011206D03*
X019653Y011281D03*
X020145Y010036D03*
D85*
X018670Y010038D03*
D86*
X019074Y010038D03*
X019119Y010038D03*
X019734Y010158D03*
X018569Y011243D03*
D87*
X018865Y010833D03*
X018860Y010823D03*
X019645Y010948D03*
X019688Y011098D03*
X019788Y010388D03*
X019900Y010048D03*
X019895Y010043D03*
X019890Y010038D03*
X019238Y010113D03*
D88*
X019160Y010163D03*
X018920Y010073D03*
X018443Y010653D03*
X018543Y010678D03*
X018543Y010683D03*
X018543Y010688D03*
X018515Y011193D03*
X019650Y011278D03*
X019763Y010103D03*
X019460Y010098D03*
X020143Y010038D03*
D89*
X019800Y010381D03*
X019493Y010286D03*
X019428Y010341D03*
X018998Y010321D03*
X018675Y010041D03*
D90*
X018495Y010101D03*
X019120Y010041D03*
X019648Y010201D03*
X020178Y010836D03*
X020190Y011121D03*
X020193Y011126D03*
X019805Y011266D03*
X019090Y010891D03*
D91*
X019305Y010921D03*
X019645Y011271D03*
X020148Y011051D03*
X020140Y010041D03*
X019113Y010056D03*
X018545Y010661D03*
D92*
X018758Y010043D03*
X019443Y010713D03*
D93*
X019309Y010923D03*
X019164Y010783D03*
X020139Y010043D03*
D94*
X019624Y011011D03*
X018759Y010046D03*
D95*
X018566Y010201D03*
X018546Y010656D03*
X018521Y011191D03*
X019166Y010806D03*
X019166Y010801D03*
X019166Y010796D03*
X019166Y010791D03*
X019161Y010776D03*
X019116Y010061D03*
X020136Y010046D03*
X019751Y011196D03*
D96*
X019498Y010863D03*
X019498Y010853D03*
X018905Y010688D03*
X018760Y010048D03*
D97*
X019109Y010048D03*
X019159Y010168D03*
X019129Y010203D03*
X018474Y010858D03*
X018464Y010888D03*
D98*
X018458Y010893D03*
X018548Y010653D03*
X018795Y011038D03*
X018570Y011148D03*
X019168Y010828D03*
X019168Y010823D03*
X019168Y010818D03*
X019168Y010813D03*
X019163Y010778D03*
X019160Y010773D03*
X019643Y011268D03*
X019705Y010773D03*
X020135Y010048D03*
X019120Y010063D03*
D99*
X018761Y010051D03*
D100*
X019110Y010051D03*
X019773Y010166D03*
X019903Y010736D03*
X019900Y010806D03*
X020150Y011056D03*
X019755Y011201D03*
X019648Y011276D03*
X018790Y011036D03*
X018543Y010686D03*
X018543Y010681D03*
X018443Y010656D03*
D101*
X018761Y010053D03*
X019506Y010873D03*
D102*
X019906Y010733D03*
X019646Y011273D03*
X019111Y010053D03*
X018566Y010203D03*
X018346Y010878D03*
D103*
X018461Y011218D03*
X018611Y010288D03*
X019511Y010053D03*
X019821Y011283D03*
X019831Y011293D03*
X019836Y011298D03*
X019841Y011303D03*
X019846Y011308D03*
D104*
X019411Y010358D03*
X018861Y010828D03*
X018871Y010843D03*
X019906Y010053D03*
D105*
X020131Y010053D03*
X019941Y010513D03*
X020106Y010693D03*
X020106Y010698D03*
X020106Y010703D03*
X019976Y010873D03*
X019171Y010863D03*
X019156Y010763D03*
X018566Y010198D03*
D106*
X018763Y010056D03*
D107*
X018870Y010841D03*
X018875Y010851D03*
X018983Y011151D03*
X018968Y011161D03*
X019493Y010991D03*
X019653Y010951D03*
X019910Y010056D03*
D108*
X020128Y010056D03*
X020103Y010681D03*
X020108Y010731D03*
X020108Y010736D03*
X020105Y010741D03*
X019748Y011191D03*
X019173Y010871D03*
X019173Y010866D03*
X019170Y010861D03*
X019170Y010856D03*
X019155Y010761D03*
X018550Y010646D03*
X018570Y011151D03*
X019475Y010061D03*
D109*
X018763Y010058D03*
X019608Y011008D03*
D110*
X019753Y011198D03*
X019165Y010788D03*
X018843Y011283D03*
X018545Y010663D03*
X018545Y010658D03*
X018548Y010128D03*
X019115Y010058D03*
D111*
X019253Y010058D03*
X019718Y010768D03*
X019895Y010798D03*
X019898Y010803D03*
X018788Y011033D03*
X018543Y010723D03*
X018543Y010718D03*
X018543Y010713D03*
X018543Y010708D03*
X018543Y010703D03*
X018543Y010698D03*
D112*
X018468Y010708D03*
X018443Y010638D03*
X018485Y010918D03*
X018743Y010983D03*
X019075Y010268D03*
X019465Y010103D03*
X019460Y010058D03*
X019840Y010113D03*
X020165Y010863D03*
X020080Y010923D03*
X019780Y011233D03*
D113*
X019533Y010893D03*
X019525Y010843D03*
X019975Y010058D03*
D114*
X019445Y010751D03*
X018878Y011121D03*
X018765Y010061D03*
D115*
X019249Y010061D03*
X019984Y010121D03*
X019984Y010126D03*
X019984Y010131D03*
X019984Y010136D03*
X019984Y010141D03*
X019984Y010146D03*
X019984Y010151D03*
X019984Y010156D03*
X019984Y010161D03*
X019984Y010166D03*
X020094Y010666D03*
X020099Y010761D03*
X019959Y010681D03*
X019744Y011186D03*
X019184Y010911D03*
D116*
X018878Y010791D03*
X019570Y010916D03*
X019995Y010061D03*
D117*
X018768Y010063D03*
D118*
X018563Y010623D03*
X018520Y010768D03*
X018565Y011163D03*
X018543Y011183D03*
X018698Y011273D03*
X019038Y011328D03*
X019738Y011178D03*
X020130Y011028D03*
X020125Y010948D03*
X020125Y010943D03*
X020080Y010788D03*
X020085Y010653D03*
X019965Y010238D03*
X019968Y010233D03*
X019975Y010103D03*
X019248Y010063D03*
D119*
X019469Y010063D03*
X019974Y010213D03*
X020089Y010658D03*
X020089Y010778D03*
X020134Y011033D03*
X019634Y011253D03*
X019189Y010923D03*
X019139Y010743D03*
X018354Y010868D03*
D120*
X019994Y010063D03*
D121*
X019309Y010091D03*
X018774Y010066D03*
D122*
X019121Y010066D03*
X018456Y010896D03*
X019641Y011266D03*
X019911Y010731D03*
X020106Y010701D03*
X020106Y010696D03*
X020101Y010676D03*
D123*
X019939Y010516D03*
X019734Y011171D03*
X019249Y010066D03*
X018569Y010616D03*
D124*
X018561Y010626D03*
X018521Y010736D03*
X018521Y010761D03*
X018521Y010766D03*
X019196Y010941D03*
X019321Y010931D03*
X020081Y010786D03*
X020126Y010951D03*
X020131Y011031D03*
X019466Y010066D03*
D125*
X019991Y010066D03*
X019411Y010771D03*
X018876Y010796D03*
D126*
X018888Y011183D03*
X018885Y011188D03*
X018883Y011193D03*
X018878Y011198D03*
X019425Y010763D03*
X018778Y010068D03*
D127*
X019199Y010068D03*
X018799Y010648D03*
X018929Y010938D03*
X019989Y010823D03*
D128*
X019989Y010068D03*
X018859Y010743D03*
D129*
X019391Y010401D03*
X019991Y010816D03*
X018726Y010071D03*
D130*
X019204Y010071D03*
X019609Y010816D03*
D131*
X019216Y010976D03*
X018886Y010231D03*
X018871Y010206D03*
X018861Y010191D03*
X019456Y010071D03*
X019951Y010266D03*
X020121Y011016D03*
D132*
X019986Y010071D03*
X018876Y010801D03*
D133*
X018946Y010963D03*
X018726Y011263D03*
X018791Y010638D03*
X018726Y010073D03*
X019421Y010973D03*
X019961Y010293D03*
D134*
X019214Y010073D03*
X018889Y010878D03*
X018929Y010928D03*
D135*
X018751Y011218D03*
X019661Y010793D03*
X019951Y010713D03*
X019456Y010203D03*
X019441Y010073D03*
X019126Y010153D03*
D136*
X019080Y010248D03*
X019648Y010208D03*
X019773Y010183D03*
X019773Y010073D03*
X019968Y010878D03*
X018833Y011298D03*
X018470Y010993D03*
X018460Y010998D03*
D137*
X018880Y010858D03*
X018883Y010863D03*
X019923Y010318D03*
X019943Y010073D03*
D138*
X020121Y010073D03*
X020151Y010903D03*
X019666Y011298D03*
X019296Y010913D03*
X018761Y010998D03*
X018741Y011168D03*
X018666Y010338D03*
X018601Y010163D03*
D139*
X018735Y010076D03*
X019345Y011056D03*
X019355Y011061D03*
X019758Y010976D03*
X020088Y010976D03*
X018940Y011231D03*
D140*
X019303Y010076D03*
D141*
X019243Y010121D03*
X019433Y010336D03*
X019000Y010326D03*
X019390Y010781D03*
X019685Y011091D03*
X019908Y010076D03*
D142*
X019361Y011063D03*
X018736Y010078D03*
D143*
X019304Y010078D03*
D144*
X019421Y010348D03*
X019386Y010783D03*
X019896Y010078D03*
D145*
X019989Y010851D03*
X019709Y011136D03*
X018734Y010081D03*
D146*
X019304Y010081D03*
X019514Y010881D03*
D147*
X019581Y010826D03*
X018861Y010821D03*
X019891Y010081D03*
D148*
X019649Y010193D03*
X019649Y010198D03*
X019769Y010743D03*
X020194Y011128D03*
X019864Y011328D03*
X018759Y011083D03*
X018549Y010083D03*
D149*
X018730Y010083D03*
X018788Y010618D03*
X018958Y010983D03*
X019290Y011028D03*
X019700Y010498D03*
X019720Y010463D03*
D150*
X019518Y010883D03*
X019305Y010083D03*
D151*
X019870Y010083D03*
X019890Y010328D03*
X018850Y010758D03*
X018688Y010098D03*
D152*
X018728Y010086D03*
X018950Y010971D03*
X018980Y011036D03*
X018980Y011086D03*
X019690Y010511D03*
X019728Y010451D03*
X019988Y010836D03*
D153*
X019523Y010886D03*
X019305Y010086D03*
D154*
X019008Y010341D03*
X018870Y010811D03*
X019568Y010831D03*
X019685Y011086D03*
X019870Y010086D03*
D155*
X019750Y010418D03*
X019528Y010273D03*
X019390Y010413D03*
X019390Y010418D03*
X019455Y010983D03*
X019695Y011113D03*
X018968Y011108D03*
X018718Y010088D03*
D156*
X019305Y010088D03*
X019525Y010888D03*
D157*
X019815Y010373D03*
X019870Y010088D03*
D158*
X019611Y010936D03*
X018936Y010906D03*
X018686Y010091D03*
D159*
X019006Y010336D03*
X019246Y010126D03*
X019871Y010091D03*
D160*
X019396Y010778D03*
X019606Y010933D03*
X018936Y010903D03*
X019006Y010338D03*
X018686Y010093D03*
D161*
X018673Y010108D03*
X018678Y010113D03*
X018688Y010123D03*
X019318Y010093D03*
D162*
X019873Y010093D03*
X019875Y010098D03*
X018848Y010768D03*
X018868Y010813D03*
D163*
X018936Y010901D03*
X018686Y010096D03*
D164*
X018675Y010111D03*
X018690Y010126D03*
X019315Y010096D03*
D165*
X019875Y010096D03*
X018848Y010771D03*
D166*
X019236Y010108D03*
X019256Y010098D03*
D167*
X018689Y010101D03*
X018919Y011051D03*
X018919Y011056D03*
X019529Y010996D03*
D168*
X019670Y010956D03*
X019595Y010821D03*
X019530Y010236D03*
X019248Y010101D03*
X018813Y010661D03*
X018885Y010871D03*
X018930Y010926D03*
D169*
X018934Y011241D03*
X019254Y011006D03*
X019369Y010956D03*
X019394Y011081D03*
X019404Y011086D03*
X019479Y010221D03*
X019814Y010101D03*
D170*
X019971Y010101D03*
X020121Y010931D03*
X019626Y011241D03*
X019206Y010961D03*
D171*
X018920Y011063D03*
X018853Y010753D03*
X018690Y010103D03*
X019595Y010928D03*
X019825Y010368D03*
D172*
X019241Y010103D03*
X018886Y010873D03*
X018996Y011003D03*
D173*
X018696Y010591D03*
X018696Y010586D03*
X019001Y010376D03*
X018671Y010106D03*
X019561Y011001D03*
D174*
X019691Y011106D03*
X019771Y010401D03*
X019236Y010106D03*
X018996Y011001D03*
D175*
X019189Y010926D03*
X018534Y011186D03*
X020089Y010776D03*
X019974Y010216D03*
X019979Y010196D03*
X019979Y010106D03*
D176*
X019983Y010108D03*
X019983Y010113D03*
X019983Y010118D03*
X020100Y010758D03*
X020098Y010763D03*
X020138Y011038D03*
X019745Y011188D03*
X019180Y010898D03*
X019178Y010888D03*
X019150Y010753D03*
X018845Y011278D03*
X018580Y011143D03*
X018568Y011153D03*
X018553Y010638D03*
D177*
X018881Y010861D03*
X018976Y011156D03*
X019406Y010366D03*
X019236Y010111D03*
D178*
X018651Y010311D03*
X018591Y010191D03*
X018591Y010186D03*
X018486Y010931D03*
X018486Y010966D03*
X018746Y010986D03*
X019676Y011311D03*
X019761Y010111D03*
D179*
X018684Y010121D03*
X018679Y010116D03*
X018889Y011181D03*
X018869Y011211D03*
D180*
X018934Y010916D03*
X018994Y010316D03*
X019239Y010116D03*
D181*
X019080Y010251D03*
X019648Y010211D03*
X019758Y010116D03*
X020010Y010751D03*
X020173Y010846D03*
X020188Y011116D03*
X019793Y011251D03*
X018590Y011111D03*
X018380Y010821D03*
D182*
X018584Y011121D03*
X018739Y010981D03*
X019839Y010116D03*
X020079Y010921D03*
D183*
X018891Y011178D03*
X018871Y011208D03*
X018696Y010598D03*
X018681Y010118D03*
D184*
X018996Y010318D03*
X019241Y010118D03*
X019426Y010343D03*
X019686Y011093D03*
X018941Y011078D03*
D185*
X018471Y010713D03*
X018381Y010823D03*
X018626Y010293D03*
X018566Y010213D03*
X019836Y010118D03*
X020166Y010858D03*
X020176Y011098D03*
X019686Y011323D03*
D186*
X019294Y010911D03*
X018664Y010331D03*
X018659Y010321D03*
X018459Y010696D03*
X019824Y010121D03*
D187*
X019473Y010298D03*
X019455Y010313D03*
X019450Y010318D03*
X019445Y010323D03*
X019245Y010123D03*
X018848Y010778D03*
X019618Y010938D03*
D188*
X019184Y010908D03*
X020094Y010768D03*
X019984Y010168D03*
X019984Y010163D03*
X019984Y010158D03*
X019984Y010153D03*
X019984Y010148D03*
X019984Y010143D03*
X019984Y010138D03*
X019984Y010133D03*
X019984Y010128D03*
X019984Y010123D03*
D189*
X019816Y010126D03*
X019891Y010751D03*
X019721Y010766D03*
X019761Y011211D03*
X018776Y011021D03*
X018771Y011011D03*
X018766Y011006D03*
X018741Y011171D03*
X018426Y010911D03*
X018431Y010906D03*
X018636Y010136D03*
D190*
X018738Y010128D03*
X018818Y010663D03*
X018875Y010848D03*
X018878Y010853D03*
X018980Y011153D03*
X018963Y011163D03*
X019590Y010823D03*
X019408Y010363D03*
D191*
X019249Y010128D03*
X019009Y010343D03*
X018839Y010668D03*
D192*
X018793Y010131D03*
X019473Y010216D03*
X019458Y011116D03*
X019465Y011121D03*
X019580Y011191D03*
X019588Y011196D03*
X019595Y011201D03*
X019610Y011211D03*
X019715Y011146D03*
D193*
X018916Y011046D03*
X018916Y011041D03*
X018936Y010896D03*
X018851Y010756D03*
X019251Y010131D03*
D194*
X019154Y010178D03*
X018669Y010353D03*
X018639Y010133D03*
X018444Y010648D03*
X018474Y010863D03*
X018784Y011028D03*
X018839Y011288D03*
X019654Y011283D03*
D195*
X019234Y010993D03*
X019324Y010808D03*
X018804Y010133D03*
D196*
X019013Y010358D03*
X019253Y010133D03*
X018920Y011073D03*
D197*
X018775Y011018D03*
X018378Y010963D03*
X019153Y010183D03*
X019805Y010138D03*
X019808Y010133D03*
X019893Y010793D03*
X020148Y010918D03*
X019760Y011208D03*
X019658Y011288D03*
D198*
X019615Y011221D03*
X019723Y011156D03*
X019453Y010201D03*
X019448Y010196D03*
X018808Y010136D03*
X018703Y010371D03*
D199*
X019161Y010136D03*
X019951Y010716D03*
D200*
X019950Y010721D03*
X020053Y010631D03*
X020105Y010996D03*
X019458Y010206D03*
X019345Y010136D03*
X018920Y010276D03*
X018750Y011221D03*
D201*
X018700Y011268D03*
X019228Y010988D03*
X019345Y010943D03*
X018703Y010368D03*
X018810Y010138D03*
X019940Y010283D03*
D202*
X019439Y010188D03*
X019154Y010138D03*
X019019Y011283D03*
D203*
X020108Y010998D03*
X020058Y010633D03*
X019935Y010518D03*
X019450Y010198D03*
X019353Y010138D03*
D204*
X018629Y010141D03*
X018759Y010996D03*
X019664Y011296D03*
X019889Y010766D03*
X019889Y010761D03*
X020154Y010896D03*
X020164Y011076D03*
D205*
X019619Y011226D03*
X018819Y010146D03*
X018814Y010141D03*
D206*
X018824Y010151D03*
X018829Y010156D03*
X019149Y010141D03*
X018489Y010816D03*
X019954Y010701D03*
X020114Y011006D03*
X019944Y010276D03*
D207*
X019435Y010186D03*
X019428Y010181D03*
X019360Y010141D03*
X018910Y010266D03*
X018700Y010366D03*
X018500Y010796D03*
X018498Y010801D03*
X018495Y010806D03*
X018493Y010811D03*
X019020Y011286D03*
X019225Y010986D03*
X019340Y010941D03*
X019800Y010981D03*
D208*
X020111Y011003D03*
X019431Y010183D03*
X018911Y010268D03*
X018816Y010143D03*
D209*
X019144Y010143D03*
X019424Y010178D03*
X020054Y010808D03*
X019619Y011228D03*
X018504Y010788D03*
X018499Y010798D03*
X018579Y010608D03*
D210*
X018501Y010793D03*
X018486Y010818D03*
X019021Y011288D03*
X020116Y011008D03*
X019366Y010143D03*
X018826Y010153D03*
D211*
X018616Y010148D03*
X018566Y010208D03*
X019151Y010188D03*
X019801Y010143D03*
X019961Y010673D03*
X019891Y010788D03*
X018771Y011013D03*
X018471Y010878D03*
X018431Y010903D03*
X018421Y010918D03*
X018416Y010928D03*
D212*
X019360Y010951D03*
X019483Y011131D03*
X019508Y011146D03*
X019525Y011156D03*
X019533Y011161D03*
X019128Y010146D03*
D213*
X019371Y010146D03*
X019406Y010166D03*
X019421Y010176D03*
X018906Y010261D03*
D214*
X018669Y010346D03*
X019149Y010191D03*
X019799Y010146D03*
X020149Y010911D03*
X020149Y010916D03*
X019879Y010991D03*
X018774Y011016D03*
X018419Y010921D03*
D215*
X018490Y010813D03*
X018493Y010808D03*
X018495Y010803D03*
X018908Y010263D03*
X018820Y010148D03*
X019130Y010158D03*
X019943Y010278D03*
X020065Y010638D03*
X019953Y010703D03*
D216*
X019938Y010288D03*
X019463Y010208D03*
X019125Y010148D03*
X018590Y010603D03*
X018735Y011233D03*
D217*
X019023Y011293D03*
X019223Y010983D03*
X019673Y010788D03*
X019953Y010698D03*
X019728Y011163D03*
X018905Y010258D03*
X018835Y010163D03*
X018830Y010158D03*
X019378Y010148D03*
X019385Y010153D03*
X019395Y010158D03*
X019403Y010163D03*
X019410Y010168D03*
X019418Y010173D03*
D218*
X019126Y010151D03*
D219*
X019128Y010156D03*
X019440Y010191D03*
X019953Y010706D03*
X020060Y010636D03*
X020048Y010811D03*
X018583Y010606D03*
D220*
X018401Y010661D03*
X019731Y010156D03*
D221*
X019791Y010156D03*
X020151Y010901D03*
X019766Y011216D03*
X018836Y011291D03*
X018376Y010966D03*
X018666Y010341D03*
D222*
X019131Y010161D03*
X018481Y010826D03*
X019621Y011231D03*
D223*
X019864Y010988D03*
X019904Y010808D03*
X020149Y011053D03*
X019774Y010163D03*
X018544Y010668D03*
X018544Y010673D03*
X018379Y010958D03*
D224*
X019054Y011336D03*
X019219Y010981D03*
X019314Y010811D03*
X019729Y011166D03*
X020059Y010806D03*
X019954Y010696D03*
X020069Y010641D03*
X018899Y010251D03*
X018844Y010171D03*
X018839Y010166D03*
D225*
X018599Y010168D03*
X019129Y010208D03*
X019889Y010758D03*
X019889Y010763D03*
X020154Y010898D03*
X018379Y010828D03*
D226*
X018506Y010783D03*
X018856Y011268D03*
X018901Y010253D03*
X018841Y010168D03*
X019946Y010273D03*
D227*
X019156Y010171D03*
X018541Y010691D03*
X018841Y011286D03*
D228*
X019010Y011278D03*
X019218Y010978D03*
X019335Y010938D03*
X019623Y011233D03*
X019818Y010983D03*
X019950Y010268D03*
X018898Y010248D03*
X018895Y010243D03*
X018860Y010188D03*
X018855Y010183D03*
X018850Y010178D03*
X018845Y010173D03*
X018698Y010363D03*
X018480Y010828D03*
X018605Y011138D03*
D229*
X018560Y011176D03*
X019023Y011296D03*
X018575Y010611D03*
X018895Y010246D03*
X018893Y010241D03*
X018858Y010186D03*
X018853Y010181D03*
X018848Y010176D03*
X019948Y010271D03*
D230*
X019981Y010181D03*
X019981Y010176D03*
X020096Y010766D03*
X019971Y010946D03*
X018351Y010871D03*
D231*
X018344Y010883D03*
X018459Y010693D03*
X018594Y010178D03*
X019104Y010993D03*
D232*
X018753Y010991D03*
X018485Y010961D03*
X018485Y010936D03*
X018463Y010701D03*
X018458Y010671D03*
X018655Y010316D03*
X018593Y010181D03*
X019130Y010211D03*
X019733Y010761D03*
X020158Y010881D03*
X019673Y011306D03*
D233*
X020161Y010871D03*
X019771Y010181D03*
X018636Y010301D03*
X018466Y010706D03*
X018486Y010921D03*
X018486Y010971D03*
D234*
X018568Y011156D03*
X018845Y011276D03*
X019188Y010921D03*
X019188Y010916D03*
X019298Y010816D03*
X019143Y010746D03*
X019635Y011256D03*
X019845Y010986D03*
X020093Y010771D03*
X020135Y011036D03*
X019978Y010201D03*
X019980Y010191D03*
X019980Y010186D03*
X018558Y010631D03*
D235*
X018486Y010928D03*
X018486Y010968D03*
X018491Y011203D03*
X019291Y010908D03*
X019776Y011228D03*
X020171Y011088D03*
X019071Y010273D03*
X018591Y010188D03*
D236*
X018590Y010193D03*
X018648Y010308D03*
X018460Y010663D03*
X018740Y011163D03*
X019678Y011313D03*
X019738Y010758D03*
X020160Y010873D03*
D237*
X019954Y010693D03*
X019214Y010973D03*
X019024Y011298D03*
X019049Y011333D03*
X018889Y010233D03*
X018864Y010193D03*
D238*
X019444Y010193D03*
X019724Y011158D03*
D239*
X019955Y010691D03*
X019955Y010261D03*
X019213Y010971D03*
X019005Y011276D03*
X019025Y011301D03*
X018695Y010361D03*
X018880Y010221D03*
X018878Y010216D03*
X018875Y010211D03*
X018868Y010201D03*
X018865Y010196D03*
D240*
X018870Y010203D03*
X018873Y010208D03*
X018880Y010218D03*
X018883Y010223D03*
X018885Y010228D03*
X018555Y011178D03*
X020073Y010643D03*
X019953Y010263D03*
X020123Y011018D03*
D241*
X020189Y011118D03*
X020174Y010843D03*
X019759Y010748D03*
X019799Y011258D03*
X019649Y010203D03*
X018344Y010888D03*
D242*
X018566Y011158D03*
X019191Y010928D03*
X019741Y011183D03*
X019976Y010208D03*
X019976Y010203D03*
D243*
X019649Y010206D03*
X019764Y010746D03*
D244*
X020086Y010781D03*
X020091Y010661D03*
X019976Y010206D03*
X019191Y010931D03*
D245*
X019656Y010796D03*
X020101Y010991D03*
X019466Y010211D03*
X018731Y011236D03*
D246*
X018729Y011238D03*
X019479Y011128D03*
X019569Y011183D03*
X019779Y010978D03*
X019469Y010213D03*
D247*
X019131Y010216D03*
X019081Y010241D03*
X019286Y010901D03*
X019131Y011116D03*
X018466Y011216D03*
X019811Y011271D03*
X019861Y011326D03*
X020011Y010756D03*
D248*
X019713Y011143D03*
X019435Y011103D03*
X019425Y011098D03*
X019475Y010218D03*
D249*
X019970Y010223D03*
X019973Y010218D03*
X019958Y010683D03*
X020085Y010783D03*
X019980Y010948D03*
X019195Y010938D03*
X019193Y010933D03*
X018990Y011268D03*
X019030Y011323D03*
X018848Y011273D03*
X018523Y010758D03*
X018523Y010753D03*
X018523Y010748D03*
X018523Y010743D03*
X018560Y010628D03*
D250*
X019481Y010223D03*
X019991Y010858D03*
D251*
X019679Y010786D03*
X019624Y011236D03*
X018699Y011271D03*
X018564Y011171D03*
X018509Y010781D03*
X018889Y010236D03*
X018884Y010226D03*
D252*
X019485Y010226D03*
X019990Y010856D03*
X019365Y011066D03*
X019263Y011011D03*
X018938Y011236D03*
D253*
X019343Y010803D03*
X019490Y010228D03*
X019988Y010848D03*
X020085Y010973D03*
D254*
X020159Y010878D03*
X019894Y010993D03*
X019674Y011308D03*
X019639Y010228D03*
X018654Y010313D03*
X018459Y010658D03*
X018464Y010703D03*
D255*
X019199Y010948D03*
X019029Y011318D03*
X019969Y010228D03*
D256*
X019079Y010231D03*
D257*
X018984Y010306D03*
X018884Y010866D03*
X018954Y011116D03*
X019529Y010231D03*
D258*
X019969Y010231D03*
X019989Y010951D03*
X019199Y010946D03*
X019194Y010936D03*
X018994Y011271D03*
D259*
X018949Y011168D03*
X018884Y010868D03*
X019404Y010368D03*
X019529Y010233D03*
X019774Y010398D03*
D260*
X019968Y010236D03*
X020078Y010791D03*
X020125Y010946D03*
X019690Y010781D03*
X019200Y010951D03*
X019028Y011316D03*
X018520Y010771D03*
X018355Y010866D03*
D261*
X019479Y010988D03*
X019529Y010238D03*
D262*
X019530Y010241D03*
X019530Y010246D03*
X018888Y010876D03*
X018900Y010891D03*
D263*
X018980Y010303D03*
X019398Y010378D03*
X019530Y010243D03*
X019768Y010403D03*
X019680Y010958D03*
D264*
X019736Y011176D03*
X019956Y010686D03*
X020081Y010651D03*
X019961Y010246D03*
X019026Y011311D03*
D265*
X018960Y011113D03*
X018995Y011008D03*
X018808Y010658D03*
X019395Y010383D03*
X019530Y010253D03*
X019530Y010248D03*
X019763Y010408D03*
X019693Y011108D03*
D266*
X019370Y010791D03*
X019395Y010386D03*
X019530Y010256D03*
X019530Y010251D03*
X018975Y010301D03*
X018890Y010881D03*
D267*
X018565Y010621D03*
X019960Y010251D03*
X020123Y010936D03*
X020005Y010956D03*
D268*
X020069Y010798D03*
X020079Y010648D03*
X019959Y010253D03*
X019684Y010783D03*
X019734Y011173D03*
X018999Y011273D03*
D269*
X019289Y010903D03*
X019694Y011333D03*
X020074Y010908D03*
X020169Y010853D03*
X019079Y010258D03*
X018479Y010723D03*
D270*
X018890Y010883D03*
X018893Y010888D03*
X018995Y011013D03*
X018970Y010283D03*
X019390Y010398D03*
X019530Y010258D03*
D271*
X019956Y010258D03*
X019126Y010738D03*
X019211Y010968D03*
X018511Y010778D03*
X018361Y010858D03*
D272*
X018805Y010656D03*
X018890Y010886D03*
X018970Y010286D03*
X018970Y010281D03*
X019390Y010396D03*
X019530Y010261D03*
X019468Y010986D03*
D273*
X019748Y010753D03*
X020008Y010743D03*
X020075Y010913D03*
X020078Y010918D03*
X020180Y011103D03*
X019690Y011328D03*
X019078Y010263D03*
X018475Y010718D03*
X018485Y010913D03*
X018485Y010978D03*
X018483Y010983D03*
X018375Y010973D03*
X018585Y011118D03*
D274*
X019529Y010263D03*
X019699Y010963D03*
D275*
X019781Y011236D03*
X020076Y010916D03*
X020166Y010861D03*
X019961Y010671D03*
X019076Y010266D03*
X018486Y010916D03*
X018486Y010976D03*
X018486Y011206D03*
D276*
X018970Y010296D03*
X018970Y010291D03*
X019390Y010406D03*
X019528Y010266D03*
X019940Y010311D03*
D277*
X019944Y010308D03*
X019529Y010268D03*
X019364Y010793D03*
X018699Y011248D03*
D278*
X018914Y010271D03*
X020109Y011001D03*
D279*
X019990Y010821D03*
X019748Y010421D03*
X019528Y010271D03*
X019390Y010411D03*
X019390Y010416D03*
X018928Y010936D03*
X018703Y011251D03*
D280*
X019616Y011223D03*
X019951Y010708D03*
X018916Y010273D03*
D281*
X019526Y010276D03*
X019946Y010306D03*
X018991Y011021D03*
X018931Y010941D03*
D282*
X019354Y010948D03*
X019949Y010723D03*
X020104Y010993D03*
X018924Y010278D03*
D283*
X019526Y010278D03*
X019746Y010423D03*
X018706Y011253D03*
D284*
X019390Y010426D03*
X019390Y010421D03*
X019525Y010281D03*
X019743Y010426D03*
X019953Y010301D03*
X019710Y010966D03*
X019695Y011116D03*
D285*
X019726Y011161D03*
X019941Y010281D03*
D286*
X019950Y010303D03*
X019525Y010283D03*
X019390Y010423D03*
X018933Y010943D03*
X018990Y011023D03*
D287*
X018754Y011216D03*
X019349Y010946D03*
X019939Y010286D03*
D288*
X019990Y010818D03*
X019390Y010408D03*
X019390Y010403D03*
X018970Y010293D03*
X018970Y010288D03*
X018803Y010653D03*
X018928Y010933D03*
D289*
X019488Y010288D03*
X019805Y010378D03*
X019903Y010323D03*
D290*
X019484Y010291D03*
X018849Y010781D03*
D291*
X019699Y011121D03*
X019734Y010441D03*
X019964Y010291D03*
D292*
X019479Y010293D03*
X019439Y010328D03*
X019434Y010333D03*
X019574Y010828D03*
D293*
X019436Y010331D03*
X019476Y010296D03*
X018866Y010816D03*
X018936Y010911D03*
D294*
X018794Y010641D03*
X019359Y010796D03*
X019429Y010976D03*
X019739Y010431D03*
X019959Y010296D03*
D295*
X019936Y010313D03*
X019756Y010413D03*
X018971Y010298D03*
D296*
X018795Y010643D03*
X018940Y010953D03*
X019438Y010978D03*
X019393Y010438D03*
X019393Y010433D03*
X019738Y010433D03*
X019955Y010298D03*
X019988Y010828D03*
D297*
X019810Y010376D03*
X019470Y010301D03*
X019458Y010311D03*
X019453Y010316D03*
X019448Y010321D03*
X019443Y010326D03*
X019003Y010331D03*
X018848Y010776D03*
D298*
X018581Y011123D03*
X018486Y010973D03*
X018486Y010923D03*
X018641Y010303D03*
X019681Y011318D03*
X020161Y010868D03*
X020006Y010738D03*
D299*
X019686Y011088D03*
X019461Y010308D03*
X019466Y010303D03*
X018936Y010908D03*
D300*
X019464Y010306D03*
D301*
X019416Y010353D03*
X018991Y010313D03*
X018946Y011118D03*
D302*
X018996Y011006D03*
X019396Y010381D03*
X019766Y010406D03*
X019931Y010316D03*
D303*
X019914Y010321D03*
D304*
X018999Y010323D03*
D305*
X018661Y010326D03*
X018456Y010676D03*
X018486Y010941D03*
X018496Y011201D03*
X019771Y011221D03*
X020166Y011081D03*
X020156Y010886D03*
D306*
X019894Y010326D03*
X018849Y010761D03*
X018859Y010786D03*
D307*
X019001Y010328D03*
X019511Y010993D03*
D308*
X019403Y010776D03*
X018920Y011061D03*
X019010Y010351D03*
X019885Y010331D03*
D309*
X019004Y010333D03*
X018849Y010773D03*
D310*
X019011Y010353D03*
X019561Y010833D03*
X019881Y010333D03*
D311*
X019876Y010336D03*
D312*
X019430Y010338D03*
X018935Y010913D03*
D313*
X018875Y010803D03*
X019010Y010363D03*
X019408Y010773D03*
X019683Y011078D03*
X019840Y010358D03*
X019873Y010338D03*
D314*
X019868Y010341D03*
X019845Y010356D03*
X019838Y010361D03*
X018848Y010671D03*
D315*
X019584Y010923D03*
X019849Y010353D03*
X019864Y010343D03*
D316*
X019820Y010371D03*
X019600Y010931D03*
X019010Y010346D03*
D317*
X018825Y010666D03*
X019423Y010346D03*
D318*
X019861Y010346D03*
X019556Y010836D03*
X018856Y010746D03*
D319*
X018919Y011048D03*
X018919Y011053D03*
X018919Y011058D03*
X019009Y010348D03*
X019684Y011083D03*
D320*
X019858Y010348D03*
D321*
X019790Y010386D03*
X019418Y010351D03*
X019638Y010946D03*
X019688Y011096D03*
D322*
X019854Y010351D03*
D323*
X019011Y010356D03*
D324*
X019013Y010361D03*
X018853Y010751D03*
X018875Y010806D03*
X018920Y011071D03*
D325*
X018854Y010748D03*
X019834Y010363D03*
D326*
X019683Y011076D03*
X019008Y010366D03*
D327*
X018919Y011066D03*
X019684Y011081D03*
X019829Y010366D03*
D328*
X019005Y010368D03*
X018878Y010793D03*
D329*
X019004Y010371D03*
D330*
X019401Y010371D03*
X018996Y010996D03*
D331*
X019003Y010373D03*
D332*
X019400Y010373D03*
X019375Y010788D03*
X018998Y010998D03*
X019690Y011103D03*
D333*
X019239Y010996D03*
X018744Y011226D03*
X018704Y010376D03*
D334*
X019399Y010376D03*
D335*
X019949Y010728D03*
X018704Y010378D03*
D336*
X018999Y010378D03*
X019549Y010903D03*
X018894Y011173D03*
X018874Y011203D03*
D337*
X018929Y011246D03*
X018929Y011251D03*
X019474Y011126D03*
X019499Y011141D03*
X019549Y011171D03*
X019564Y011181D03*
X019574Y011186D03*
X018704Y010381D03*
D338*
X018999Y010381D03*
D339*
X018704Y010383D03*
X019364Y010953D03*
X019444Y011108D03*
X019649Y010798D03*
D340*
X018999Y010383D03*
D341*
X019794Y010383D03*
D342*
X019993Y010861D03*
X018935Y011261D03*
X018703Y010386D03*
D343*
X018999Y010386D03*
X019429Y010761D03*
D344*
X018901Y010388D03*
D345*
X019394Y010388D03*
D346*
X018901Y010391D03*
D347*
X019391Y010391D03*
D348*
X018900Y010393D03*
D349*
X019391Y010393D03*
X019601Y010818D03*
X019991Y010813D03*
D350*
X018899Y010396D03*
D351*
X018899Y010398D03*
D352*
X018899Y010401D03*
D353*
X018898Y010403D03*
D354*
X018898Y010406D03*
D355*
X018898Y010408D03*
D356*
X018898Y010411D03*
D357*
X018929Y010931D03*
X018994Y011011D03*
X019689Y010961D03*
X019759Y010411D03*
D358*
X018899Y010413D03*
D359*
X018900Y010416D03*
D360*
X018801Y010651D03*
X019751Y010416D03*
D361*
X018900Y010418D03*
D362*
X018900Y010421D03*
X019463Y010656D03*
D363*
X018901Y010423D03*
D364*
X018903Y010426D03*
D365*
X018904Y010428D03*
D366*
X019391Y010428D03*
X019741Y010428D03*
X019921Y010528D03*
X018936Y010948D03*
X018716Y011258D03*
D367*
X018905Y010431D03*
X019463Y010651D03*
D368*
X019391Y010431D03*
X019446Y010981D03*
X018971Y011106D03*
X018711Y011256D03*
X018796Y010646D03*
D369*
X018908Y010433D03*
D370*
X018910Y010436D03*
D371*
X019393Y010436D03*
X018938Y010951D03*
D372*
X018941Y010956D03*
X018721Y011261D03*
X019736Y010436D03*
D373*
X018914Y010438D03*
D374*
X019735Y010438D03*
X020068Y010958D03*
D375*
X019034Y010441D03*
D376*
X019033Y010443D03*
X019400Y010633D03*
D377*
X019688Y010513D03*
X019730Y010443D03*
X019988Y010833D03*
X018983Y011033D03*
X018978Y011083D03*
D378*
X019033Y010446D03*
D379*
X019729Y010446D03*
X019924Y010526D03*
D380*
X019033Y010448D03*
D381*
X018949Y010968D03*
X018979Y011098D03*
X018409Y010853D03*
X019729Y010448D03*
D382*
X019033Y010451D03*
D383*
X019031Y010453D03*
D384*
X018951Y010973D03*
X019726Y010453D03*
D385*
X019031Y010456D03*
D386*
X018788Y010626D03*
X019695Y010506D03*
X019725Y010456D03*
X020078Y010966D03*
D387*
X019031Y010463D03*
X019031Y010458D03*
D388*
X018788Y010623D03*
X018955Y010978D03*
X018983Y011093D03*
X019405Y010968D03*
X019723Y010458D03*
X019985Y010838D03*
D389*
X019031Y010461D03*
D390*
X018956Y010981D03*
X019721Y010461D03*
D391*
X019030Y010466D03*
D392*
X019348Y010801D03*
X019398Y010966D03*
X019305Y011036D03*
X019295Y011031D03*
X018948Y011216D03*
X018788Y010621D03*
X019703Y010496D03*
X019720Y010466D03*
X019985Y010841D03*
D393*
X019031Y010468D03*
D394*
X018959Y010988D03*
X019309Y011038D03*
X019704Y010493D03*
X019719Y010468D03*
D395*
X019030Y010471D03*
D396*
X018788Y010611D03*
X018438Y010836D03*
X018433Y010841D03*
X018960Y010991D03*
X018945Y011221D03*
X019315Y011041D03*
X019325Y011046D03*
X019633Y010806D03*
X019705Y010491D03*
X019708Y010486D03*
X019713Y010481D03*
X019715Y010476D03*
X019718Y010471D03*
X019705Y011131D03*
D397*
X019031Y010473D03*
D398*
X019283Y011023D03*
X019320Y011043D03*
X018945Y011223D03*
X018440Y010833D03*
X018435Y010838D03*
X019708Y010488D03*
X019710Y010483D03*
X019713Y010478D03*
X019715Y010473D03*
X019985Y010843D03*
D399*
X019031Y010476D03*
D400*
X019031Y010478D03*
D401*
X019031Y010481D03*
D402*
X019031Y010483D03*
D403*
X019033Y010486D03*
D404*
X019033Y010488D03*
D405*
X019033Y010491D03*
D406*
X019034Y010493D03*
D407*
X019036Y010496D03*
D408*
X019036Y010498D03*
D409*
X019038Y010501D03*
D410*
X019699Y010501D03*
D411*
X019039Y010503D03*
D412*
X019299Y011033D03*
X018949Y011213D03*
X019704Y011128D03*
X020079Y010968D03*
X019699Y010503D03*
D413*
X019039Y010506D03*
D414*
X019040Y010508D03*
D415*
X018789Y010628D03*
X019694Y010508D03*
X020074Y010963D03*
D416*
X019041Y010511D03*
D417*
X019044Y010513D03*
D418*
X019048Y010516D03*
D419*
X018945Y010961D03*
X018985Y011031D03*
X019685Y010516D03*
X019988Y010831D03*
D420*
X019161Y010523D03*
X019161Y010518D03*
D421*
X019161Y010521D03*
X019161Y010526D03*
D422*
X019430Y011101D03*
X019930Y010521D03*
D423*
X019926Y010523D03*
X019706Y011133D03*
X019331Y011048D03*
X018961Y010993D03*
X018786Y010608D03*
X018786Y010603D03*
D424*
X019159Y010528D03*
D425*
X019284Y010531D03*
D426*
X019286Y010533D03*
D427*
X019289Y010536D03*
D428*
X019290Y010538D03*
D429*
X019291Y010541D03*
D430*
X019294Y010543D03*
D431*
X019295Y010546D03*
D432*
X019298Y010548D03*
D433*
X019298Y010551D03*
D434*
X019299Y010553D03*
D435*
X019300Y010556D03*
D436*
X019301Y010558D03*
D437*
X019303Y010561D03*
D438*
X019304Y010563D03*
D439*
X019305Y010566D03*
D440*
X019305Y010568D03*
D441*
X019306Y010571D03*
D442*
X019306Y010573D03*
D443*
X019308Y010576D03*
D444*
X019309Y010578D03*
D445*
X019309Y010581D03*
D446*
X018868Y010738D03*
X018695Y010583D03*
D447*
X019495Y010583D03*
X019503Y010593D03*
X019505Y010598D03*
X019508Y010603D03*
X019510Y010608D03*
D448*
X019510Y010606D03*
X019508Y010601D03*
X019503Y010596D03*
X019500Y010591D03*
X019498Y010586D03*
X019513Y010611D03*
D449*
X019681Y011068D03*
X018696Y010593D03*
X018696Y010588D03*
D450*
X019499Y010588D03*
X019514Y010613D03*
D451*
X019536Y010841D03*
X019681Y011066D03*
X018891Y011176D03*
X018876Y011201D03*
X018696Y010601D03*
X018696Y010596D03*
D452*
X018786Y010606D03*
X018426Y010846D03*
X019986Y010846D03*
D453*
X018946Y011218D03*
X018786Y010613D03*
D454*
X018786Y010616D03*
X018716Y011246D03*
X019286Y011026D03*
X020081Y010971D03*
D455*
X019516Y010616D03*
D456*
X019518Y010618D03*
X019520Y010623D03*
D457*
X019519Y010621D03*
D458*
X019521Y010626D03*
D459*
X019524Y010628D03*
D460*
X018954Y010976D03*
X018984Y011091D03*
X018789Y010631D03*
D461*
X019404Y010631D03*
D462*
X019353Y010798D03*
X018975Y011038D03*
X018983Y011088D03*
X018790Y010633D03*
X019700Y011123D03*
D463*
X019909Y010996D03*
X020069Y010891D03*
X020184Y011111D03*
X019754Y010751D03*
X018474Y010991D03*
X018464Y010996D03*
X018444Y010636D03*
D464*
X018791Y010636D03*
X019621Y010811D03*
X019731Y010971D03*
X020071Y010961D03*
D465*
X019396Y010636D03*
D466*
X019394Y010638D03*
D467*
X020004Y010736D03*
X020159Y010876D03*
X020169Y011086D03*
X019774Y011226D03*
X018459Y010666D03*
X018444Y010641D03*
X018379Y010826D03*
D468*
X018551Y010641D03*
X019151Y010756D03*
X019176Y010881D03*
X019176Y010886D03*
X019701Y010776D03*
D469*
X019394Y010641D03*
D470*
X019394Y010643D03*
D471*
X019411Y010646D03*
D472*
X019331Y010936D03*
X020066Y010801D03*
X020076Y010646D03*
D473*
X020104Y010683D03*
X020104Y010688D03*
X020109Y010708D03*
X020109Y010713D03*
X020109Y010718D03*
X020109Y010723D03*
X019749Y011193D03*
X019169Y010853D03*
X019169Y010848D03*
X019169Y010843D03*
X019169Y010838D03*
X019169Y010833D03*
X019159Y010768D03*
X018549Y010648D03*
X018379Y010953D03*
D474*
X019465Y010648D03*
D475*
X019463Y010653D03*
D476*
X019465Y010658D03*
D477*
X019466Y010661D03*
D478*
X019465Y010663D03*
D479*
X019465Y010666D03*
D480*
X019465Y010668D03*
D481*
X019464Y010671D03*
D482*
X019314Y010926D03*
X019174Y010876D03*
X019639Y011261D03*
X020104Y010746D03*
X020099Y010671D03*
X018379Y010951D03*
D483*
X018859Y010673D03*
D484*
X019464Y010673D03*
D485*
X018875Y010676D03*
D486*
X019461Y010676D03*
D487*
X018889Y010678D03*
D488*
X019460Y010678D03*
D489*
X018894Y010681D03*
D490*
X019460Y010681D03*
D491*
X019684Y011048D03*
X018899Y010683D03*
D492*
X019459Y010683D03*
D493*
X019500Y010851D03*
X018903Y010686D03*
D494*
X019458Y010686D03*
D495*
X019159Y010766D03*
X019169Y010836D03*
X019169Y010841D03*
X019169Y010846D03*
X019169Y010851D03*
X018844Y011281D03*
X019954Y010941D03*
X020144Y011046D03*
X020109Y010726D03*
X020109Y010721D03*
X020109Y010716D03*
X020109Y010711D03*
X020104Y010686D03*
D496*
X019458Y010688D03*
D497*
X018909Y010691D03*
D498*
X019456Y010691D03*
X019481Y010726D03*
D499*
X018911Y010693D03*
D500*
X019456Y010693D03*
D501*
X018914Y010696D03*
D502*
X019455Y010696D03*
D503*
X019445Y010708D03*
X019463Y010738D03*
X018915Y010698D03*
D504*
X019454Y010698D03*
D505*
X019448Y010706D03*
X018918Y010701D03*
D506*
X019451Y010701D03*
D507*
X018919Y010703D03*
D508*
X018925Y010713D03*
X019450Y010703D03*
D509*
X018920Y010706D03*
D510*
X018921Y010708D03*
D511*
X018924Y010711D03*
X019649Y011016D03*
D512*
X019444Y010711D03*
D513*
X019666Y010791D03*
X019951Y010711D03*
X019231Y010991D03*
D514*
X018926Y010716D03*
D515*
X019441Y010716D03*
D516*
X019658Y011018D03*
X019693Y011038D03*
X018895Y011123D03*
X018928Y010718D03*
D517*
X019439Y010718D03*
D518*
X019691Y011331D03*
X019696Y011336D03*
X020181Y011106D03*
X020071Y010901D03*
X020066Y010876D03*
X020066Y010871D03*
X018486Y010911D03*
X018476Y010721D03*
D519*
X018928Y010721D03*
D520*
X019439Y010721D03*
D521*
X018929Y010723D03*
D522*
X018913Y011138D03*
X019443Y010723D03*
X019500Y010868D03*
D523*
X019789Y011246D03*
X020074Y010911D03*
X020009Y010746D03*
X018479Y010726D03*
X018484Y010981D03*
D524*
X018930Y010726D03*
D525*
X018738Y011231D03*
X019613Y011216D03*
X019948Y010726D03*
D526*
X018933Y010728D03*
D527*
X019479Y010728D03*
D528*
X019656Y011286D03*
X020146Y010926D03*
X018541Y010731D03*
X018466Y010886D03*
D529*
X018934Y010731D03*
X019474Y010731D03*
D530*
X019196Y010943D03*
X019631Y011248D03*
X020126Y010953D03*
X018521Y010763D03*
X018521Y010738D03*
X018521Y010733D03*
D531*
X018935Y010733D03*
D532*
X019471Y010733D03*
D533*
X018935Y010736D03*
X018890Y011126D03*
D534*
X019466Y010736D03*
X019691Y011041D03*
D535*
X018864Y010741D03*
D536*
X019460Y010741D03*
D537*
X019456Y010743D03*
X019496Y010858D03*
D538*
X019503Y010871D03*
X019453Y010746D03*
D539*
X019449Y010748D03*
D540*
X019154Y010758D03*
X019174Y010873D03*
X019179Y010893D03*
X018454Y010898D03*
X020104Y010748D03*
D541*
X019441Y010753D03*
D542*
X019438Y010756D03*
X019590Y011006D03*
D543*
X019434Y010758D03*
D544*
X018854Y010783D03*
X018849Y010763D03*
D545*
X018849Y010766D03*
D546*
X019420Y010766D03*
X019553Y010906D03*
D547*
X019416Y010768D03*
D548*
X019164Y010781D03*
X019164Y010786D03*
X018379Y010956D03*
D549*
X018866Y010836D03*
X018931Y010921D03*
X019381Y010786D03*
D550*
X019681Y011073D03*
X018876Y010788D03*
D551*
X019166Y010793D03*
X019166Y010798D03*
X019166Y010803D03*
X019166Y010808D03*
X019291Y010818D03*
X020146Y011048D03*
D552*
X019996Y010953D03*
X020076Y010793D03*
X019201Y010953D03*
X019026Y011313D03*
X018356Y010863D03*
D553*
X018878Y010798D03*
X019545Y010998D03*
X019575Y010918D03*
D554*
X019644Y010801D03*
X019384Y011076D03*
X019374Y011071D03*
D555*
X019350Y011058D03*
X019268Y011013D03*
X019638Y010803D03*
D556*
X019334Y010806D03*
X019439Y011106D03*
X019449Y011111D03*
X019604Y011206D03*
D557*
X018916Y011043D03*
X018936Y010898D03*
X018871Y010808D03*
D558*
X019626Y010808D03*
X019741Y010973D03*
D559*
X019721Y010968D03*
X019696Y011118D03*
X019616Y010813D03*
X018986Y011028D03*
D560*
X018864Y010818D03*
D561*
X018484Y010823D03*
X018564Y011173D03*
X020119Y011013D03*
D562*
X019989Y010826D03*
X018989Y011026D03*
X018934Y010946D03*
D563*
X018944Y011226D03*
X019279Y011021D03*
X018444Y010831D03*
D564*
X018869Y010838D03*
D565*
X019549Y010838D03*
D566*
X019389Y010963D03*
X019274Y011018D03*
X018429Y010843D03*
X018424Y010848D03*
D567*
X019515Y010846D03*
D568*
X019505Y010848D03*
D569*
X019413Y010971D03*
X018948Y010966D03*
X018410Y010851D03*
D570*
X018939Y011233D03*
X019989Y010853D03*
D571*
X019701Y011126D03*
X018981Y011096D03*
X018406Y010856D03*
D572*
X018879Y010856D03*
X018989Y011146D03*
X019689Y011101D03*
D573*
X019686Y011046D03*
X019496Y010861D03*
X019496Y010856D03*
D574*
X019399Y011083D03*
X018934Y011258D03*
X019994Y010863D03*
X020094Y010983D03*
D575*
X019499Y010866D03*
D576*
X019996Y010866D03*
X020096Y010986D03*
X018931Y011256D03*
X018726Y011241D03*
D577*
X019509Y010876D03*
D578*
X019511Y010878D03*
D579*
X019530Y010891D03*
D580*
X018974Y011158D03*
X018909Y010893D03*
D581*
X019536Y010896D03*
D582*
X019541Y010898D03*
X019681Y011063D03*
X018936Y011143D03*
D583*
X018888Y011186D03*
X018883Y011191D03*
X018880Y011196D03*
X018873Y011206D03*
X019545Y010901D03*
D584*
X019556Y010908D03*
D585*
X019561Y010911D03*
X019681Y011071D03*
D586*
X019565Y010913D03*
D587*
X018934Y010918D03*
D588*
X019579Y010921D03*
D589*
X019589Y010926D03*
X018919Y011076D03*
D590*
X019624Y010941D03*
D591*
X019630Y010943D03*
D592*
X018974Y011103D03*
X018944Y010958D03*
D593*
X019374Y010958D03*
X019379Y011073D03*
D594*
X019381Y010961D03*
D595*
X019208Y010963D03*
X019625Y011238D03*
D596*
X019710Y011138D03*
X020090Y010978D03*
X019370Y011068D03*
X018938Y011263D03*
X018723Y011243D03*
D597*
X019711Y011141D03*
X020091Y010981D03*
D598*
X018959Y010986D03*
D599*
X018928Y011248D03*
X019495Y011138D03*
X019503Y011143D03*
X019513Y011148D03*
X019520Y011153D03*
X019530Y011158D03*
X019545Y011168D03*
X019553Y011173D03*
X019613Y011213D03*
X020100Y010988D03*
D600*
X019241Y010998D03*
D601*
X019246Y011001D03*
X019491Y011136D03*
X019516Y011151D03*
X019541Y011166D03*
X019556Y011176D03*
D602*
X019585Y011193D03*
X019593Y011198D03*
X019600Y011203D03*
X019608Y011208D03*
X019470Y011123D03*
X019460Y011118D03*
X019453Y011113D03*
X019250Y011003D03*
X018930Y011253D03*
D603*
X019576Y011003D03*
D604*
X019390Y011078D03*
X019258Y011008D03*
X018935Y011238D03*
D605*
X019636Y011013D03*
D606*
X019694Y011111D03*
X018994Y011016D03*
X018964Y011111D03*
D607*
X019271Y011016D03*
D608*
X018991Y011018D03*
D609*
X019666Y011021D03*
D610*
X019675Y011023D03*
D611*
X019684Y011026D03*
D612*
X019691Y011028D03*
D613*
X019700Y011031D03*
D614*
X019706Y011033D03*
D615*
X019694Y011036D03*
D616*
X019689Y011043D03*
D617*
X019335Y011051D03*
D618*
X019681Y011051D03*
D619*
X019341Y011053D03*
X018941Y011228D03*
D620*
X019681Y011053D03*
D621*
X019681Y011056D03*
D622*
X019680Y011058D03*
D623*
X019681Y011061D03*
D624*
X018919Y011068D03*
D625*
X018946Y011081D03*
D626*
X019406Y011088D03*
X019416Y011093D03*
D627*
X019411Y011091D03*
X019421Y011096D03*
D628*
X018976Y011101D03*
D629*
X019119Y011121D03*
X018834Y011296D03*
X019779Y011231D03*
D630*
X018884Y011128D03*
D631*
X018876Y011131D03*
D632*
X018844Y011133D03*
D633*
X019486Y011133D03*
X019536Y011163D03*
X019561Y011178D03*
X019576Y011188D03*
X019716Y011148D03*
D634*
X018840Y011136D03*
D635*
X018929Y011141D03*
D636*
X019719Y011151D03*
D637*
G36*
X020211Y011157D02*
X020212Y011156D01*
X020211Y011155D01*
X020210Y011156D01*
X020211Y011157D01*
G37*
D638*
X018741Y011228D03*
D639*
X018931Y011243D03*
D640*
X018829Y011266D03*
D641*
X004280Y010640D02*
X004280Y007963D01*
X003020Y007963D01*
X003020Y010640D01*
X004280Y010640D01*
D642*
X003858Y012018D02*
X003858Y012373D01*
X002862Y011743D02*
X002035Y011743D01*
X003858Y014105D02*
X003858Y014459D01*
X002862Y014735D02*
X002035Y014735D01*
X006445Y005424D02*
X006445Y002510D01*
X010500Y002510D01*
X010500Y005424D01*
X006445Y005424D01*
X006474Y003052D02*
X006612Y003052D01*
X006750Y002914D01*
X006750Y002569D01*
X007439Y002569D02*
X007439Y002914D01*
X007577Y003052D01*
X007990Y003052D01*
X008128Y002914D01*
X008128Y002569D01*
X008817Y002569D02*
X008817Y002914D01*
X008955Y003052D01*
X009368Y003052D01*
X009506Y002914D01*
X009506Y002569D01*
X010195Y002569D02*
X010195Y002914D01*
X010333Y003052D01*
X010470Y003052D01*
X010608Y003052D02*
X010746Y003052D01*
X010884Y002914D01*
X010884Y002569D01*
X010579Y002510D02*
X010579Y005424D01*
X014634Y005424D01*
X014634Y002510D01*
X010579Y002510D01*
X011573Y002569D02*
X011573Y002914D01*
X011711Y003052D01*
X012124Y003052D01*
X012262Y002914D01*
X012262Y002569D01*
X012951Y002569D02*
X012951Y002914D01*
X013089Y003052D01*
X013502Y003052D01*
X013640Y002914D01*
X013640Y002569D01*
X014329Y002569D02*
X014329Y002914D01*
X014467Y003052D01*
X014604Y003052D01*
X015309Y004963D02*
X015809Y004963D01*
X016059Y005213D01*
X016309Y004963D01*
X016809Y004963D01*
X017059Y005213D01*
X017309Y004963D01*
X017809Y004963D01*
X018059Y005213D01*
X018059Y005713D01*
X017809Y005963D01*
X017309Y005963D01*
X017059Y005713D01*
X016809Y005963D01*
X016309Y005963D01*
X016059Y005713D01*
X015809Y005963D01*
X015309Y005963D01*
X015059Y005713D01*
X015059Y005213D01*
X015309Y004963D01*
X016278Y007227D02*
X016028Y007477D01*
X016028Y007977D01*
X016278Y008227D01*
X016778Y008227D01*
X017028Y007977D01*
X017278Y008227D01*
X017778Y008227D01*
X018028Y007977D01*
X018028Y007477D01*
X017778Y007227D01*
X017278Y007227D01*
X017028Y007477D01*
X016778Y007227D01*
X016278Y007227D01*
X018984Y006349D02*
X019614Y006349D01*
X019630Y006344D01*
X019646Y006336D01*
X019660Y006326D01*
X019672Y006314D01*
X019682Y006299D01*
X019689Y006283D01*
X019693Y006266D01*
X019694Y006249D01*
X019692Y006231D01*
X019692Y005680D02*
X019694Y005662D01*
X019693Y005645D01*
X019689Y005628D01*
X019682Y005612D01*
X019672Y005597D01*
X019660Y005585D01*
X019646Y005575D01*
X019630Y005567D01*
X019614Y005562D01*
X018984Y005562D01*
X018968Y005567D01*
X018952Y005575D01*
X018938Y005585D01*
X018926Y005597D01*
X018916Y005612D01*
X018909Y005628D01*
X018905Y005645D01*
X018904Y005662D01*
X018906Y005680D01*
X018906Y006231D02*
X018904Y006249D01*
X018905Y006266D01*
X018909Y006283D01*
X018916Y006299D01*
X018926Y006314D01*
X018938Y006326D01*
X018952Y006336D01*
X018968Y006344D01*
X018984Y006349D01*
X016169Y012589D02*
X015343Y012589D01*
X014614Y013121D02*
X014614Y013357D01*
X015343Y013888D02*
X016169Y013888D01*
X016898Y013357D02*
X016898Y013121D01*
D643*
X017232Y016388D02*
X017232Y016585D01*
X017626Y016585D01*
X017626Y018160D01*
X017232Y018160D01*
X017232Y020522D01*
X017626Y020522D01*
X017626Y021782D01*
X017232Y021782D01*
X017232Y022097D01*
X017429Y022097D01*
X017429Y023081D01*
X019398Y023081D01*
X019398Y022097D01*
X019594Y022097D01*
X019594Y021113D01*
X019201Y021113D01*
X019201Y019538D01*
X019594Y019538D01*
X019594Y016388D01*
X019398Y016388D01*
X019398Y016585D01*
X017941Y016585D01*
X017941Y016388D01*
X017232Y016388D01*
X015264Y016388D02*
X015067Y016388D01*
X015067Y016585D01*
X013610Y016585D01*
X013610Y016388D01*
X012902Y016388D01*
X012902Y016585D01*
X013295Y016585D01*
X013295Y018160D01*
X012902Y018160D01*
X012902Y020522D01*
X013295Y020522D01*
X013295Y021782D01*
X012902Y021782D01*
X012902Y022097D01*
X013098Y022097D01*
X013098Y023081D01*
X015067Y023081D01*
X015067Y022097D01*
X015264Y022097D01*
X015264Y021113D01*
X014870Y021113D01*
X014870Y019538D01*
X015264Y019538D01*
X015264Y016388D01*
X010933Y016388D02*
X010736Y016388D01*
X010736Y016585D01*
X009280Y016585D01*
X009280Y016388D01*
X008571Y016388D01*
X008571Y016585D01*
X008965Y016585D01*
X008965Y018160D01*
X008571Y018160D01*
X008571Y020522D01*
X008965Y020522D01*
X008965Y021782D01*
X008571Y021782D01*
X008571Y022097D01*
X008768Y022097D01*
X008768Y023081D01*
X010736Y023081D01*
X010736Y022097D01*
X010933Y022097D01*
X010933Y021113D01*
X010539Y021113D01*
X010539Y019538D01*
X010933Y019538D01*
X010933Y016388D01*
X005520Y017569D02*
X005520Y017988D01*
X005520Y017569D02*
X003161Y017569D01*
X003161Y017076D01*
X001976Y017076D01*
X001976Y017988D01*
X001976Y019276D02*
X001976Y020488D01*
X001976Y021776D02*
X001976Y022688D01*
X001978Y022727D01*
X001984Y022765D01*
X001993Y022802D01*
X002006Y022839D01*
X002023Y022874D01*
X002042Y022907D01*
X002065Y022938D01*
X002091Y022967D01*
X002120Y022993D01*
X002151Y023016D01*
X002184Y023035D01*
X002219Y023052D01*
X002256Y023065D01*
X002293Y023074D01*
X002331Y023080D01*
X002370Y023082D01*
X002370Y023081D02*
X005126Y023081D01*
X005126Y023082D02*
X005165Y023080D01*
X005203Y023074D01*
X005240Y023065D01*
X005277Y023052D01*
X005312Y023035D01*
X005345Y023016D01*
X005376Y022993D01*
X005405Y022967D01*
X005431Y022938D01*
X005454Y022907D01*
X005473Y022874D01*
X005490Y022839D01*
X005503Y022802D01*
X005512Y022765D01*
X005518Y022727D01*
X005520Y022688D01*
X005520Y021769D01*
X005520Y020488D02*
X005520Y019269D01*
X008768Y022097D02*
X010736Y022097D01*
X013098Y022097D02*
X015067Y022097D01*
X017429Y022097D02*
X019398Y022097D01*
X021275Y004212D02*
X021275Y003762D01*
X021125Y003762D02*
X021425Y003762D01*
X021125Y004062D02*
X021275Y004212D01*
X020533Y000742D02*
X020533Y000292D01*
X020383Y000292D02*
X020683Y000292D01*
X020383Y000592D02*
X020533Y000742D01*
X015883Y003492D02*
X015583Y003492D01*
X015883Y003792D01*
X015883Y003867D01*
X015808Y003942D01*
X015658Y003942D01*
X015583Y003867D01*
X015575Y003837D02*
X015650Y003762D01*
X015800Y003762D01*
X015875Y003837D01*
X015875Y003987D01*
X015800Y004062D01*
X015725Y004062D01*
X015575Y003987D01*
X015575Y004212D01*
X015875Y004212D01*
X015272Y003942D02*
X015272Y003492D01*
X015122Y003492D02*
X015423Y003492D01*
X015122Y003792D02*
X015272Y003942D01*
D644*
X016563Y013317D03*
D645*
X010060Y006505D02*
X010060Y006258D01*
X010183Y006381D02*
X009936Y006381D01*
X002505Y020644D02*
X002311Y020644D01*
X002263Y020692D01*
X002263Y020789D01*
X002311Y020837D01*
X002408Y020837D02*
X002408Y020741D01*
X002408Y020837D02*
X002505Y020837D01*
X002553Y020789D01*
X002553Y020692D01*
X002505Y020644D01*
X002553Y020938D02*
X002263Y020938D01*
X002553Y021132D01*
X002263Y021132D01*
X002263Y021233D02*
X002263Y021378D01*
X002311Y021427D01*
X002505Y021427D01*
X002553Y021378D01*
X002553Y021233D01*
X002263Y021233D01*
D646*
X009201Y006979D03*
X009201Y006506D03*
D647*
X009201Y006743D03*
D648*
X011039Y008882D02*
X011139Y008882D01*
X011139Y009032D01*
X011039Y009032D01*
X011039Y008882D01*
X011039Y008889D02*
X011139Y008889D01*
X011139Y008898D02*
X011039Y008898D01*
X011039Y008906D02*
X011139Y008906D01*
X011139Y008915D02*
X011039Y008915D01*
X011039Y008923D02*
X011139Y008923D01*
X011139Y008932D02*
X011039Y008932D01*
X011039Y008940D02*
X011139Y008940D01*
X011139Y008949D02*
X011039Y008949D01*
X011039Y008957D02*
X011139Y008957D01*
X011139Y008966D02*
X011039Y008966D01*
X011039Y008974D02*
X011139Y008974D01*
X011139Y008983D02*
X011039Y008983D01*
X011039Y008991D02*
X011139Y008991D01*
X011139Y009000D02*
X011039Y009000D01*
X011039Y009008D02*
X011139Y009008D01*
X011139Y009017D02*
X011039Y009017D01*
X011039Y009025D02*
X011139Y009025D01*
X012974Y007244D02*
X012974Y007144D01*
X013124Y007144D01*
X013124Y007244D01*
X012974Y007244D01*
X012974Y007240D02*
X013124Y007240D01*
X013124Y007232D02*
X012974Y007232D01*
X012974Y007223D02*
X013124Y007223D01*
X013124Y007215D02*
X012974Y007215D01*
X012974Y007206D02*
X013124Y007206D01*
X013124Y007198D02*
X012974Y007198D01*
X012974Y007189D02*
X013124Y007189D01*
X013124Y007181D02*
X012974Y007181D01*
X012974Y007172D02*
X013124Y007172D01*
X013124Y007164D02*
X012974Y007164D01*
X012974Y007155D02*
X013124Y007155D01*
X013124Y007147D02*
X012974Y007147D01*
X015156Y008685D02*
X015156Y008835D01*
X015256Y008835D01*
X015256Y008685D01*
X015156Y008685D01*
X015156Y008694D02*
X015256Y008694D01*
X015256Y008702D02*
X015156Y008702D01*
X015156Y008711D02*
X015256Y008711D01*
X015256Y008719D02*
X015156Y008719D01*
X015156Y008728D02*
X015256Y008728D01*
X015256Y008736D02*
X015156Y008736D01*
X015156Y008745D02*
X015256Y008745D01*
X015256Y008753D02*
X015156Y008753D01*
X015156Y008762D02*
X015256Y008762D01*
X015256Y008770D02*
X015156Y008770D01*
X015156Y008779D02*
X015256Y008779D01*
X015256Y008787D02*
X015156Y008787D01*
X015156Y008796D02*
X015256Y008796D01*
X015256Y008804D02*
X015156Y008804D01*
X015156Y008813D02*
X015256Y008813D01*
X015256Y008821D02*
X015156Y008821D01*
X015156Y008830D02*
X015256Y008830D01*
X012534Y011261D02*
X012534Y011361D01*
X012384Y011361D01*
X012384Y011261D01*
X012534Y011261D01*
X012534Y011269D02*
X012384Y011269D01*
X012384Y011278D02*
X012534Y011278D01*
X012534Y011286D02*
X012384Y011286D01*
X012384Y011295D02*
X012534Y011295D01*
X012534Y011303D02*
X012384Y011303D01*
X012384Y011312D02*
X012534Y011312D01*
X012534Y011320D02*
X012384Y011320D01*
X012384Y011329D02*
X012534Y011329D01*
X012534Y011337D02*
X012384Y011337D01*
X012384Y011346D02*
X012534Y011346D01*
X012534Y011354D02*
X012384Y011354D01*
D649*
X005047Y020929D02*
X005047Y021256D01*
X005210Y021093D02*
X004883Y021093D01*
M02*
