G75*
%MOIN*%
%OFA0B0*%
%FSLAX24Y24*%
%IPPOS*%
%LPD*%
%AMOC8*
5,1,8,0,0,1.08239X$1,22.5*
%
%ADD10R,0.0827X0.0394*%
%ADD11R,0.0827X0.1457*%
%ADD12R,0.0394X0.0433*%
%ADD13R,0.0433X0.0394*%
%ADD14R,0.1496X0.0197*%
%ADD15R,0.0984X0.0787*%
%ADD16R,0.1102X0.0866*%
%ADD17R,0.1102X0.1102*%
%ADD18R,0.0748X0.0551*%
%ADD19R,0.0472X0.0472*%
%ADD20R,0.0120X0.0470*%
%ADD21R,0.0470X0.0120*%
%ADD22R,0.0787X0.0945*%
D10*
X002429Y008396D03*
X002429Y009302D03*
X002429Y010207D03*
D11*
X004870Y009302D03*
D12*
X007449Y006054D03*
X008118Y006054D03*
X010402Y006743D03*
X011071Y006743D03*
X010343Y007983D03*
X010343Y008652D03*
X007488Y010542D03*
X007488Y011211D03*
X007724Y013829D03*
X007055Y013829D03*
X006346Y013829D03*
X005677Y013829D03*
X005362Y016191D03*
X004693Y016191D03*
X003787Y016191D03*
X003118Y016191D03*
X008039Y015699D03*
X008709Y015699D03*
X008433Y013829D03*
X009102Y013829D03*
X009811Y013829D03*
X010480Y013829D03*
X012370Y015699D03*
X013039Y015699D03*
X013886Y013573D03*
X013886Y012904D03*
X016051Y010621D03*
X016051Y009951D03*
X017035Y009951D03*
X017035Y010621D03*
X017626Y012904D03*
X017626Y013573D03*
X017370Y015699D03*
X016701Y015699D03*
X000894Y010424D03*
X000894Y009754D03*
X000894Y008849D03*
X000894Y008180D03*
D13*
X005677Y012648D03*
X006346Y012648D03*
X007055Y012648D03*
X007724Y012648D03*
X008433Y012648D03*
X009102Y012648D03*
X009811Y012648D03*
X010480Y012648D03*
X012075Y012747D03*
X012744Y012747D03*
X012744Y013731D03*
X012075Y013731D03*
X008571Y011211D03*
X008571Y010542D03*
X008571Y009440D03*
X008571Y008770D03*
X011780Y006054D03*
X012449Y006054D03*
X013846Y006447D03*
X014516Y006447D03*
X018610Y007294D03*
X018610Y007963D03*
D14*
X003610Y012609D03*
X003610Y012924D03*
X003610Y013239D03*
X003610Y013554D03*
X003610Y013869D03*
D15*
X003551Y014991D03*
X001386Y014991D03*
X001386Y011487D03*
X003551Y011487D03*
D16*
X011169Y020365D03*
X012665Y021152D03*
X015500Y020365D03*
X016996Y021152D03*
X019831Y020365D03*
X008335Y021152D03*
D17*
X008335Y017373D03*
X010028Y015916D03*
X012665Y017373D03*
X014358Y015916D03*
X016996Y017373D03*
X018689Y015916D03*
D18*
X016622Y013711D03*
X016622Y012766D03*
X014890Y012766D03*
X014890Y013711D03*
D19*
X009673Y006743D03*
X008846Y006743D03*
D20*
X012065Y007579D03*
X012262Y007579D03*
X012459Y007579D03*
X012656Y007579D03*
X012852Y007579D03*
X013049Y007579D03*
X013246Y007579D03*
X013443Y007579D03*
X013640Y007579D03*
X013837Y007579D03*
X014033Y007579D03*
X014230Y007579D03*
X014230Y010926D03*
X014033Y010926D03*
X013837Y010926D03*
X013640Y010926D03*
X013443Y010926D03*
X013246Y010926D03*
X013049Y010926D03*
X012852Y010926D03*
X012656Y010926D03*
X012459Y010926D03*
X012262Y010926D03*
X012065Y010926D03*
D21*
X011474Y010335D03*
X011474Y010138D03*
X011474Y009941D03*
X011474Y009745D03*
X011474Y009548D03*
X011474Y009351D03*
X011474Y009154D03*
X011474Y008957D03*
X011474Y008760D03*
X011474Y008564D03*
X011474Y008367D03*
X011474Y008170D03*
X014821Y008170D03*
X014821Y008367D03*
X014821Y008564D03*
X014821Y008760D03*
X014821Y008957D03*
X014821Y009154D03*
X014821Y009351D03*
X014821Y009548D03*
X014821Y009745D03*
X014821Y009941D03*
X014821Y010138D03*
X014821Y010335D03*
D22*
X005913Y018672D03*
X005913Y021113D03*
X001583Y021113D03*
X001583Y018672D03*
M02*
