G75*
%MOIN*%
%OFA0B0*%
%FSLAX24Y24*%
%IPPOS*%
%LPD*%
%AMOC8*
5,1,8,0,0,1.08239X$1,22.5*
%
%ADD10C,0.0820*%
%ADD11C,0.0600*%
%ADD12C,0.0434*%
%ADD13C,0.0749*%
%ADD14C,0.0640*%
%ADD15OC8,0.0640*%
%ADD16C,0.0920*%
%ADD17C,0.0710*%
%ADD18C,0.0789*%
D10*
X016543Y005463D03*
X017543Y005463D03*
X017528Y007727D03*
X016528Y007727D03*
D11*
X016610Y004247D02*
X016610Y003727D01*
X017610Y003727D02*
X017610Y004247D01*
X018610Y004247D02*
X018610Y003727D01*
X019610Y003727D02*
X019610Y004247D01*
X020610Y004247D02*
X020610Y003727D01*
D12*
X002547Y012373D03*
X002547Y014105D03*
D13*
X009752Y017963D03*
X009752Y020719D03*
X014083Y020719D03*
X014083Y017963D03*
X018413Y017963D03*
X018413Y020719D03*
D14*
X020618Y001617D03*
D15*
X020618Y002617D03*
X019618Y002617D03*
X018618Y002617D03*
X017618Y002617D03*
X016618Y002617D03*
X015618Y002617D03*
X015618Y001617D03*
X016618Y001617D03*
X017618Y001617D03*
X018618Y001617D03*
X019618Y001617D03*
D16*
X007094Y003665D02*
X007094Y004505D01*
X008472Y004505D02*
X008472Y003665D01*
X009850Y003665D02*
X009850Y004505D01*
X011228Y004505D02*
X011228Y003665D01*
X012606Y003665D02*
X012606Y004505D01*
X013984Y004505D02*
X013984Y003665D01*
D17*
X003748Y021113D03*
D18*
X003748Y019341D03*
M02*
