G75*
%MOIN*%
%OFA0B0*%
%FSLAX24Y24*%
%IPPOS*%
%LPD*%
%AMOC8*
5,1,8,0,0,1.08239X$1,22.5*
%
%ADD10C,0.0000*%
%ADD11R,0.0827X0.0394*%
%ADD12R,0.0827X0.1457*%
%ADD13R,0.0394X0.0433*%
%ADD14R,0.0433X0.0394*%
%ADD15C,0.0740*%
%ADD16C,0.0520*%
%ADD17R,0.1496X0.0197*%
%ADD18R,0.0984X0.0787*%
%ADD19R,0.1102X0.0866*%
%ADD20R,0.1102X0.1102*%
%ADD21C,0.0560*%
%ADD22OC8,0.0560*%
%ADD23C,0.0840*%
%ADD24R,0.0748X0.0551*%
%ADD25R,0.0472X0.0472*%
%ADD26R,0.0120X0.0470*%
%ADD27R,0.0470X0.0120*%
%ADD28R,0.0787X0.0945*%
%ADD29R,0.0250X0.0500*%
%ADD30C,0.0100*%
%ADD31C,0.0120*%
%ADD32C,0.0160*%
%ADD33C,0.0396*%
D10*
X000205Y000542D02*
X000205Y022195D01*
X021465Y022195D01*
X021465Y000542D01*
X000205Y000542D01*
X002370Y012373D02*
X002372Y012399D01*
X002378Y012425D01*
X002388Y012450D01*
X002401Y012473D01*
X002417Y012493D01*
X002437Y012511D01*
X002459Y012526D01*
X002482Y012538D01*
X002508Y012546D01*
X002534Y012550D01*
X002560Y012550D01*
X002586Y012546D01*
X002612Y012538D01*
X002636Y012526D01*
X002657Y012511D01*
X002677Y012493D01*
X002693Y012473D01*
X002706Y012450D01*
X002716Y012425D01*
X002722Y012399D01*
X002724Y012373D01*
X002722Y012347D01*
X002716Y012321D01*
X002706Y012296D01*
X002693Y012273D01*
X002677Y012253D01*
X002657Y012235D01*
X002635Y012220D01*
X002612Y012208D01*
X002586Y012200D01*
X002560Y012196D01*
X002534Y012196D01*
X002508Y012200D01*
X002482Y012208D01*
X002458Y012220D01*
X002437Y012235D01*
X002417Y012253D01*
X002401Y012273D01*
X002388Y012296D01*
X002378Y012321D01*
X002372Y012347D01*
X002370Y012373D01*
X002370Y014105D02*
X002372Y014131D01*
X002378Y014157D01*
X002388Y014182D01*
X002401Y014205D01*
X002417Y014225D01*
X002437Y014243D01*
X002459Y014258D01*
X002482Y014270D01*
X002508Y014278D01*
X002534Y014282D01*
X002560Y014282D01*
X002586Y014278D01*
X002612Y014270D01*
X002636Y014258D01*
X002657Y014243D01*
X002677Y014225D01*
X002693Y014205D01*
X002706Y014182D01*
X002716Y014157D01*
X002722Y014131D01*
X002724Y014105D01*
X002722Y014079D01*
X002716Y014053D01*
X002706Y014028D01*
X002693Y014005D01*
X002677Y013985D01*
X002657Y013967D01*
X002635Y013952D01*
X002612Y013940D01*
X002586Y013932D01*
X002560Y013928D01*
X002534Y013928D01*
X002508Y013932D01*
X002482Y013940D01*
X002458Y013952D01*
X002437Y013967D01*
X002417Y013985D01*
X002401Y014005D01*
X002388Y014028D01*
X002378Y014053D01*
X002372Y014079D01*
X002370Y014105D01*
X003394Y019341D02*
X003396Y019378D01*
X003402Y019415D01*
X003411Y019450D01*
X003425Y019485D01*
X003441Y019518D01*
X003462Y019549D01*
X003485Y019578D01*
X003511Y019604D01*
X003540Y019627D01*
X003571Y019648D01*
X003604Y019664D01*
X003639Y019678D01*
X003674Y019687D01*
X003711Y019693D01*
X003748Y019695D01*
X003785Y019693D01*
X003822Y019687D01*
X003857Y019678D01*
X003892Y019664D01*
X003925Y019648D01*
X003956Y019627D01*
X003985Y019604D01*
X004011Y019578D01*
X004034Y019549D01*
X004055Y019518D01*
X004071Y019485D01*
X004085Y019450D01*
X004094Y019415D01*
X004100Y019378D01*
X004102Y019341D01*
X004100Y019304D01*
X004094Y019267D01*
X004085Y019232D01*
X004071Y019197D01*
X004055Y019164D01*
X004034Y019133D01*
X004011Y019104D01*
X003985Y019078D01*
X003956Y019055D01*
X003925Y019034D01*
X003892Y019018D01*
X003857Y019004D01*
X003822Y018995D01*
X003785Y018989D01*
X003748Y018987D01*
X003711Y018989D01*
X003674Y018995D01*
X003639Y019004D01*
X003604Y019018D01*
X003571Y019034D01*
X003540Y019055D01*
X003511Y019078D01*
X003485Y019104D01*
X003462Y019133D01*
X003441Y019164D01*
X003425Y019197D01*
X003411Y019232D01*
X003402Y019267D01*
X003396Y019304D01*
X003394Y019341D01*
X003433Y021113D02*
X003435Y021148D01*
X003441Y021183D01*
X003451Y021217D01*
X003464Y021250D01*
X003481Y021281D01*
X003502Y021309D01*
X003525Y021336D01*
X003552Y021359D01*
X003580Y021380D01*
X003611Y021397D01*
X003644Y021410D01*
X003678Y021420D01*
X003713Y021426D01*
X003748Y021428D01*
X003783Y021426D01*
X003818Y021420D01*
X003852Y021410D01*
X003885Y021397D01*
X003916Y021380D01*
X003944Y021359D01*
X003971Y021336D01*
X003994Y021309D01*
X004015Y021281D01*
X004032Y021250D01*
X004045Y021217D01*
X004055Y021183D01*
X004061Y021148D01*
X004063Y021113D01*
X004061Y021078D01*
X004055Y021043D01*
X004045Y021009D01*
X004032Y020976D01*
X004015Y020945D01*
X003994Y020917D01*
X003971Y020890D01*
X003944Y020867D01*
X003916Y020846D01*
X003885Y020829D01*
X003852Y020816D01*
X003818Y020806D01*
X003783Y020800D01*
X003748Y020798D01*
X003713Y020800D01*
X003678Y020806D01*
X003644Y020816D01*
X003611Y020829D01*
X003580Y020846D01*
X003552Y020867D01*
X003525Y020890D01*
X003502Y020917D01*
X003481Y020945D01*
X003464Y020976D01*
X003451Y021009D01*
X003441Y021043D01*
X003435Y021078D01*
X003433Y021113D01*
X009417Y020719D02*
X009419Y020755D01*
X009425Y020791D01*
X009435Y020826D01*
X009448Y020860D01*
X009465Y020892D01*
X009485Y020922D01*
X009509Y020949D01*
X009535Y020974D01*
X009564Y020996D01*
X009595Y021015D01*
X009628Y021030D01*
X009662Y021042D01*
X009698Y021050D01*
X009734Y021054D01*
X009770Y021054D01*
X009806Y021050D01*
X009842Y021042D01*
X009876Y021030D01*
X009909Y021015D01*
X009940Y020996D01*
X009969Y020974D01*
X009995Y020949D01*
X010019Y020922D01*
X010039Y020892D01*
X010056Y020860D01*
X010069Y020826D01*
X010079Y020791D01*
X010085Y020755D01*
X010087Y020719D01*
X010085Y020683D01*
X010079Y020647D01*
X010069Y020612D01*
X010056Y020578D01*
X010039Y020546D01*
X010019Y020516D01*
X009995Y020489D01*
X009969Y020464D01*
X009940Y020442D01*
X009909Y020423D01*
X009876Y020408D01*
X009842Y020396D01*
X009806Y020388D01*
X009770Y020384D01*
X009734Y020384D01*
X009698Y020388D01*
X009662Y020396D01*
X009628Y020408D01*
X009595Y020423D01*
X009564Y020442D01*
X009535Y020464D01*
X009509Y020489D01*
X009485Y020516D01*
X009465Y020546D01*
X009448Y020578D01*
X009435Y020612D01*
X009425Y020647D01*
X009419Y020683D01*
X009417Y020719D01*
X009417Y017963D02*
X009419Y017999D01*
X009425Y018035D01*
X009435Y018070D01*
X009448Y018104D01*
X009465Y018136D01*
X009485Y018166D01*
X009509Y018193D01*
X009535Y018218D01*
X009564Y018240D01*
X009595Y018259D01*
X009628Y018274D01*
X009662Y018286D01*
X009698Y018294D01*
X009734Y018298D01*
X009770Y018298D01*
X009806Y018294D01*
X009842Y018286D01*
X009876Y018274D01*
X009909Y018259D01*
X009940Y018240D01*
X009969Y018218D01*
X009995Y018193D01*
X010019Y018166D01*
X010039Y018136D01*
X010056Y018104D01*
X010069Y018070D01*
X010079Y018035D01*
X010085Y017999D01*
X010087Y017963D01*
X010085Y017927D01*
X010079Y017891D01*
X010069Y017856D01*
X010056Y017822D01*
X010039Y017790D01*
X010019Y017760D01*
X009995Y017733D01*
X009969Y017708D01*
X009940Y017686D01*
X009909Y017667D01*
X009876Y017652D01*
X009842Y017640D01*
X009806Y017632D01*
X009770Y017628D01*
X009734Y017628D01*
X009698Y017632D01*
X009662Y017640D01*
X009628Y017652D01*
X009595Y017667D01*
X009564Y017686D01*
X009535Y017708D01*
X009509Y017733D01*
X009485Y017760D01*
X009465Y017790D01*
X009448Y017822D01*
X009435Y017856D01*
X009425Y017891D01*
X009419Y017927D01*
X009417Y017963D01*
X013748Y017963D02*
X013750Y017999D01*
X013756Y018035D01*
X013766Y018070D01*
X013779Y018104D01*
X013796Y018136D01*
X013816Y018166D01*
X013840Y018193D01*
X013866Y018218D01*
X013895Y018240D01*
X013926Y018259D01*
X013959Y018274D01*
X013993Y018286D01*
X014029Y018294D01*
X014065Y018298D01*
X014101Y018298D01*
X014137Y018294D01*
X014173Y018286D01*
X014207Y018274D01*
X014240Y018259D01*
X014271Y018240D01*
X014300Y018218D01*
X014326Y018193D01*
X014350Y018166D01*
X014370Y018136D01*
X014387Y018104D01*
X014400Y018070D01*
X014410Y018035D01*
X014416Y017999D01*
X014418Y017963D01*
X014416Y017927D01*
X014410Y017891D01*
X014400Y017856D01*
X014387Y017822D01*
X014370Y017790D01*
X014350Y017760D01*
X014326Y017733D01*
X014300Y017708D01*
X014271Y017686D01*
X014240Y017667D01*
X014207Y017652D01*
X014173Y017640D01*
X014137Y017632D01*
X014101Y017628D01*
X014065Y017628D01*
X014029Y017632D01*
X013993Y017640D01*
X013959Y017652D01*
X013926Y017667D01*
X013895Y017686D01*
X013866Y017708D01*
X013840Y017733D01*
X013816Y017760D01*
X013796Y017790D01*
X013779Y017822D01*
X013766Y017856D01*
X013756Y017891D01*
X013750Y017927D01*
X013748Y017963D01*
X013748Y020719D02*
X013750Y020755D01*
X013756Y020791D01*
X013766Y020826D01*
X013779Y020860D01*
X013796Y020892D01*
X013816Y020922D01*
X013840Y020949D01*
X013866Y020974D01*
X013895Y020996D01*
X013926Y021015D01*
X013959Y021030D01*
X013993Y021042D01*
X014029Y021050D01*
X014065Y021054D01*
X014101Y021054D01*
X014137Y021050D01*
X014173Y021042D01*
X014207Y021030D01*
X014240Y021015D01*
X014271Y020996D01*
X014300Y020974D01*
X014326Y020949D01*
X014350Y020922D01*
X014370Y020892D01*
X014387Y020860D01*
X014400Y020826D01*
X014410Y020791D01*
X014416Y020755D01*
X014418Y020719D01*
X014416Y020683D01*
X014410Y020647D01*
X014400Y020612D01*
X014387Y020578D01*
X014370Y020546D01*
X014350Y020516D01*
X014326Y020489D01*
X014300Y020464D01*
X014271Y020442D01*
X014240Y020423D01*
X014207Y020408D01*
X014173Y020396D01*
X014137Y020388D01*
X014101Y020384D01*
X014065Y020384D01*
X014029Y020388D01*
X013993Y020396D01*
X013959Y020408D01*
X013926Y020423D01*
X013895Y020442D01*
X013866Y020464D01*
X013840Y020489D01*
X013816Y020516D01*
X013796Y020546D01*
X013779Y020578D01*
X013766Y020612D01*
X013756Y020647D01*
X013750Y020683D01*
X013748Y020719D01*
X018078Y020719D02*
X018080Y020755D01*
X018086Y020791D01*
X018096Y020826D01*
X018109Y020860D01*
X018126Y020892D01*
X018146Y020922D01*
X018170Y020949D01*
X018196Y020974D01*
X018225Y020996D01*
X018256Y021015D01*
X018289Y021030D01*
X018323Y021042D01*
X018359Y021050D01*
X018395Y021054D01*
X018431Y021054D01*
X018467Y021050D01*
X018503Y021042D01*
X018537Y021030D01*
X018570Y021015D01*
X018601Y020996D01*
X018630Y020974D01*
X018656Y020949D01*
X018680Y020922D01*
X018700Y020892D01*
X018717Y020860D01*
X018730Y020826D01*
X018740Y020791D01*
X018746Y020755D01*
X018748Y020719D01*
X018746Y020683D01*
X018740Y020647D01*
X018730Y020612D01*
X018717Y020578D01*
X018700Y020546D01*
X018680Y020516D01*
X018656Y020489D01*
X018630Y020464D01*
X018601Y020442D01*
X018570Y020423D01*
X018537Y020408D01*
X018503Y020396D01*
X018467Y020388D01*
X018431Y020384D01*
X018395Y020384D01*
X018359Y020388D01*
X018323Y020396D01*
X018289Y020408D01*
X018256Y020423D01*
X018225Y020442D01*
X018196Y020464D01*
X018170Y020489D01*
X018146Y020516D01*
X018126Y020546D01*
X018109Y020578D01*
X018096Y020612D01*
X018086Y020647D01*
X018080Y020683D01*
X018078Y020719D01*
X018078Y017963D02*
X018080Y017999D01*
X018086Y018035D01*
X018096Y018070D01*
X018109Y018104D01*
X018126Y018136D01*
X018146Y018166D01*
X018170Y018193D01*
X018196Y018218D01*
X018225Y018240D01*
X018256Y018259D01*
X018289Y018274D01*
X018323Y018286D01*
X018359Y018294D01*
X018395Y018298D01*
X018431Y018298D01*
X018467Y018294D01*
X018503Y018286D01*
X018537Y018274D01*
X018570Y018259D01*
X018601Y018240D01*
X018630Y018218D01*
X018656Y018193D01*
X018680Y018166D01*
X018700Y018136D01*
X018717Y018104D01*
X018730Y018070D01*
X018740Y018035D01*
X018746Y017999D01*
X018748Y017963D01*
X018746Y017927D01*
X018740Y017891D01*
X018730Y017856D01*
X018717Y017822D01*
X018700Y017790D01*
X018680Y017760D01*
X018656Y017733D01*
X018630Y017708D01*
X018601Y017686D01*
X018570Y017667D01*
X018537Y017652D01*
X018503Y017640D01*
X018467Y017632D01*
X018431Y017628D01*
X018395Y017628D01*
X018359Y017632D01*
X018323Y017640D01*
X018289Y017652D01*
X018256Y017667D01*
X018225Y017686D01*
X018196Y017708D01*
X018170Y017733D01*
X018146Y017760D01*
X018126Y017790D01*
X018109Y017822D01*
X018096Y017856D01*
X018086Y017891D01*
X018080Y017927D01*
X018078Y017963D01*
D11*
X002429Y010207D03*
X002429Y009302D03*
X002429Y008396D03*
D12*
X004870Y009302D03*
D13*
X007488Y010542D03*
X007488Y011211D03*
X007724Y013829D03*
X007055Y013829D03*
X006346Y013829D03*
X005677Y013829D03*
X005362Y016191D03*
X004693Y016191D03*
X003787Y016191D03*
X003118Y016191D03*
X008039Y015699D03*
X008709Y015699D03*
X008433Y013829D03*
X009102Y013829D03*
X009811Y013829D03*
X010480Y013829D03*
X012370Y015699D03*
X013039Y015699D03*
X013886Y013573D03*
X013886Y012904D03*
X016051Y010621D03*
X016051Y009951D03*
X017035Y009951D03*
X017035Y010621D03*
X017626Y012904D03*
X017626Y013573D03*
X017370Y015699D03*
X016701Y015699D03*
X010343Y008652D03*
X010343Y007983D03*
X010402Y006743D03*
X011071Y006743D03*
X008118Y006054D03*
X007449Y006054D03*
X000894Y008180D03*
X000894Y008849D03*
X000894Y009754D03*
X000894Y010424D03*
D14*
X005677Y012648D03*
X006346Y012648D03*
X007055Y012648D03*
X007724Y012648D03*
X008433Y012648D03*
X009102Y012648D03*
X009811Y012648D03*
X010480Y012648D03*
X012075Y012747D03*
X012744Y012747D03*
X012744Y013731D03*
X012075Y013731D03*
X008571Y011211D03*
X008571Y010542D03*
X008571Y009440D03*
X008571Y008770D03*
X011780Y006054D03*
X012449Y006054D03*
X013846Y006447D03*
X014516Y006447D03*
X018610Y007294D03*
X018610Y007963D03*
D15*
X017528Y007727D03*
X016528Y007727D03*
X016559Y005463D03*
X015559Y005463D03*
X017559Y005463D03*
D16*
X017610Y004247D02*
X017610Y003727D01*
X016610Y003727D02*
X016610Y004247D01*
X018610Y004247D02*
X018610Y003727D01*
X019610Y003727D02*
X019610Y004247D01*
X020610Y004247D02*
X020610Y003727D01*
D17*
X003610Y012609D03*
X003610Y012924D03*
X003610Y013239D03*
X003610Y013554D03*
X003610Y013869D03*
D18*
X003551Y014991D03*
X001386Y014991D03*
X001386Y011487D03*
X003551Y011487D03*
D19*
X011169Y020365D03*
X012665Y021152D03*
X015500Y020365D03*
X016996Y021152D03*
X019831Y020365D03*
X008335Y021152D03*
D20*
X008335Y017373D03*
X010028Y015916D03*
X012665Y017373D03*
X014358Y015916D03*
X016996Y017373D03*
X018689Y015916D03*
D21*
X020618Y001617D03*
D22*
X020618Y002617D03*
X019618Y002617D03*
X018618Y002617D03*
X017618Y002617D03*
X016618Y002617D03*
X015618Y002617D03*
X015618Y001617D03*
X016618Y001617D03*
X017618Y001617D03*
X018618Y001617D03*
X019618Y001617D03*
D23*
X013984Y003665D02*
X013984Y004505D01*
X012606Y004505D02*
X012606Y003665D01*
X011228Y003665D02*
X011228Y004505D01*
X009850Y004505D02*
X009850Y003665D01*
X008472Y003665D02*
X008472Y004505D01*
X007094Y004505D02*
X007094Y003665D01*
D24*
X014890Y012766D03*
X014890Y013711D03*
X016622Y013711D03*
X016622Y012766D03*
D25*
X009673Y006743D03*
X008846Y006743D03*
D26*
X012065Y007579D03*
X012262Y007579D03*
X012459Y007579D03*
X012656Y007579D03*
X012852Y007579D03*
X013049Y007579D03*
X013246Y007579D03*
X013443Y007579D03*
X013640Y007579D03*
X013837Y007579D03*
X014033Y007579D03*
X014230Y007579D03*
X014230Y010926D03*
X014033Y010926D03*
X013837Y010926D03*
X013640Y010926D03*
X013443Y010926D03*
X013246Y010926D03*
X013049Y010926D03*
X012852Y010926D03*
X012656Y010926D03*
X012459Y010926D03*
X012262Y010926D03*
X012065Y010926D03*
D27*
X011474Y010335D03*
X011474Y010138D03*
X011474Y009941D03*
X011474Y009745D03*
X011474Y009548D03*
X011474Y009351D03*
X011474Y009154D03*
X011474Y008957D03*
X011474Y008760D03*
X011474Y008564D03*
X011474Y008367D03*
X011474Y008170D03*
X014821Y008170D03*
X014821Y008367D03*
X014821Y008564D03*
X014821Y008760D03*
X014821Y008957D03*
X014821Y009154D03*
X014821Y009351D03*
X014821Y009548D03*
X014821Y009745D03*
X014821Y009941D03*
X014821Y010138D03*
X014821Y010335D03*
D28*
X005913Y018672D03*
X005913Y021113D03*
X001583Y021113D03*
X001583Y018672D03*
D29*
X019122Y005955D03*
X019476Y005955D03*
D30*
X008571Y009440D02*
X008571Y010542D01*
X007488Y010542D01*
X007488Y011211D02*
X008571Y011211D01*
X003610Y011546D02*
X003610Y012609D01*
X003610Y011546D02*
X003551Y011487D01*
X003551Y009695D01*
X003157Y009302D01*
X002429Y009302D01*
X002075Y009302D01*
X001622Y009754D01*
X000894Y009754D01*
X000894Y008849D01*
X000894Y008180D02*
X002213Y008180D01*
X002429Y008396D01*
D31*
X005677Y008554D02*
X006652Y007579D01*
X012065Y007579D01*
X012459Y007579D02*
X012459Y006989D01*
X012213Y006743D01*
X011071Y006743D01*
X010402Y006743D02*
X009673Y006743D01*
X010736Y006054D02*
X008118Y006054D01*
X008118Y005030D01*
X008472Y004676D01*
X008472Y004085D01*
X011228Y004085D02*
X011228Y005502D01*
X011780Y006054D01*
X012449Y006054D02*
X012656Y006260D01*
X012656Y007579D01*
X013049Y007579D02*
X013049Y007087D01*
X012902Y006940D01*
X012902Y005758D01*
X013492Y005168D01*
X014378Y005168D01*
X015165Y004380D01*
X016217Y004380D01*
X016610Y003987D01*
X016610Y003821D01*
X017134Y003298D01*
X017134Y002117D01*
X017118Y002117D01*
X016618Y001617D01*
X016150Y002117D02*
X014969Y002117D01*
X015559Y002676D02*
X015618Y002617D01*
X015559Y002676D02*
X015559Y003987D01*
X015264Y004676D02*
X014476Y005463D01*
X013591Y005463D01*
X013148Y005906D01*
X013148Y006841D01*
X013246Y006940D01*
X013246Y007579D01*
X013837Y007579D02*
X013837Y007136D01*
X013394Y006693D01*
X013394Y006054D01*
X013640Y005808D01*
X015215Y005808D01*
X015559Y005463D01*
X015264Y004676D02*
X017232Y004676D01*
X017626Y004282D01*
X017626Y004002D01*
X017610Y003987D01*
X017610Y003806D01*
X018118Y003298D01*
X018118Y002117D01*
X017618Y001617D01*
X018618Y001617D02*
X019102Y002101D01*
X019102Y002904D01*
X019398Y003199D01*
X019988Y003199D01*
X020610Y003821D01*
X018610Y007294D02*
X017961Y007294D01*
X017528Y007727D01*
X017528Y008022D01*
X016002Y009548D01*
X014821Y009548D01*
X014821Y010138D02*
X013197Y010138D01*
X013197Y009006D01*
X013197Y008810D01*
X014033Y007973D01*
X014033Y007579D01*
X014033Y006890D01*
X013886Y006743D01*
X013886Y006487D01*
X013846Y006447D01*
X014378Y006585D02*
X014378Y006743D01*
X014230Y006890D01*
X014230Y007579D01*
X014821Y007579D02*
X014821Y008170D01*
X014821Y007579D02*
X016559Y005841D01*
X016559Y005463D01*
X014516Y006447D02*
X014378Y006585D01*
X012606Y006014D02*
X012449Y006054D01*
X012606Y005896D01*
X012606Y004085D01*
X016150Y002117D02*
X016618Y002585D01*
X016618Y002632D01*
X011474Y008170D02*
X010884Y008170D01*
X010736Y008022D01*
X010382Y008022D01*
X010343Y007983D01*
X010480Y008514D02*
X010343Y008652D01*
X010480Y008514D02*
X010736Y008514D01*
X010884Y008367D01*
X011474Y008367D01*
X012557Y008367D01*
X013197Y009006D01*
X013197Y010138D02*
X013148Y010138D01*
X012852Y010434D01*
X012852Y010926D01*
X012852Y012638D01*
X012744Y012747D01*
X013246Y012264D02*
X013886Y012904D01*
X014752Y012904D01*
X014890Y012766D01*
X015559Y012156D02*
X015756Y012353D01*
X015756Y013534D01*
X015953Y013731D01*
X016602Y013731D01*
X016622Y013711D01*
X017488Y013711D01*
X017626Y013573D01*
X016543Y011762D02*
X017035Y011270D01*
X017035Y010621D01*
X016996Y010621D01*
X017035Y009951D02*
X016051Y009951D01*
X015963Y009991D01*
X015657Y009991D01*
X015510Y010138D01*
X014821Y010138D01*
X014821Y010335D02*
X015510Y010335D01*
X015657Y010483D01*
X015907Y010483D02*
X016051Y010627D01*
X016051Y010621D02*
X015907Y010483D01*
X015657Y011762D02*
X016543Y011762D01*
X015657Y011762D02*
X014378Y010483D01*
X013098Y010483D01*
X013049Y010532D01*
X013049Y010926D01*
X013246Y010926D02*
X013246Y012264D01*
X013443Y011615D02*
X013984Y012156D01*
X015559Y012156D01*
X013886Y013573D02*
X013728Y013731D01*
X012744Y013731D01*
X012075Y012747D02*
X012075Y012392D01*
X012656Y011812D01*
X012656Y010926D01*
X012459Y010926D02*
X012459Y011615D01*
X011917Y012156D01*
X010047Y012156D01*
X009811Y012392D01*
X009811Y012648D01*
X010480Y012648D02*
X010490Y012658D01*
X010490Y013239D01*
X009112Y013239D02*
X009112Y012658D01*
X009102Y012648D01*
X008433Y012648D02*
X008433Y012294D01*
X008768Y011959D01*
X011819Y011959D01*
X012262Y011516D01*
X012262Y010926D01*
X012065Y010926D02*
X012065Y011418D01*
X011720Y011762D01*
X007587Y011762D01*
X007055Y012294D01*
X007055Y012648D01*
X007724Y012648D02*
X007734Y012658D01*
X007734Y013239D01*
X006356Y013239D02*
X006356Y012658D01*
X006346Y012648D01*
X005677Y012648D02*
X005677Y008554D01*
X008374Y009548D02*
X008571Y009440D01*
X008374Y009548D02*
X011474Y009548D01*
X011474Y009745D02*
X012163Y009745D01*
X012409Y009991D01*
X013443Y010926D02*
X013443Y011615D01*
X011474Y008760D02*
X010982Y008760D01*
X010933Y008810D01*
D32*
X011079Y009137D02*
X011004Y009168D01*
X010862Y009168D01*
X010730Y009113D01*
X010637Y009020D01*
X010609Y009036D01*
X010563Y009049D01*
X010361Y009049D01*
X010361Y008671D01*
X010324Y008671D01*
X010324Y009049D01*
X010122Y009049D01*
X010076Y009036D01*
X010035Y009013D01*
X010002Y008979D01*
X009978Y008938D01*
X009966Y008892D01*
X009966Y008671D01*
X010324Y008671D01*
X010324Y008634D01*
X009966Y008634D01*
X009966Y008412D01*
X009978Y008366D01*
X010002Y008325D01*
X010023Y008303D01*
X009986Y008266D01*
X009986Y008213D01*
X009969Y008213D01*
X009906Y008277D01*
X009774Y008331D01*
X009684Y008331D01*
X009109Y008906D01*
X009041Y008974D01*
X008953Y009010D01*
X008947Y009010D01*
X008947Y009033D01*
X008876Y009105D01*
X008947Y009176D01*
X008947Y009328D01*
X011079Y009328D01*
X011079Y009137D01*
X011079Y009259D02*
X008947Y009259D01*
X008880Y009101D02*
X010718Y009101D01*
X010361Y008942D02*
X010324Y008942D01*
X010324Y008784D02*
X010361Y008784D01*
X009966Y008784D02*
X009231Y008784D01*
X009073Y008942D02*
X009980Y008942D01*
X009966Y008625D02*
X009390Y008625D01*
X009548Y008467D02*
X009966Y008467D01*
X010018Y008308D02*
X009829Y008308D01*
X009703Y007973D02*
X008906Y008770D01*
X008571Y008770D01*
X008888Y008448D02*
X009345Y007992D01*
X009345Y007902D01*
X009387Y007799D01*
X006743Y007799D01*
X005897Y008645D01*
X005897Y012291D01*
X005960Y012291D01*
X005998Y012329D01*
X006019Y012307D01*
X006060Y012284D01*
X006106Y012271D01*
X006328Y012271D01*
X006328Y012630D01*
X006365Y012630D01*
X006365Y012271D01*
X006587Y012271D01*
X006632Y012284D01*
X006674Y012307D01*
X006707Y012341D01*
X006713Y012351D01*
X006772Y012291D01*
X006835Y012291D01*
X006835Y012203D01*
X006964Y012074D01*
X007367Y011671D01*
X007430Y011608D01*
X007268Y011608D01*
X007222Y011595D01*
X007181Y011572D01*
X007147Y011538D01*
X007124Y011497D01*
X007111Y011451D01*
X007111Y011230D01*
X007470Y011230D01*
X007470Y011193D01*
X007111Y011193D01*
X007111Y010971D01*
X007124Y010925D01*
X007147Y010884D01*
X007169Y010862D01*
X007131Y010825D01*
X007131Y010259D01*
X007225Y010165D01*
X007751Y010165D01*
X007845Y010259D01*
X007845Y010332D01*
X008194Y010332D01*
X008194Y010279D01*
X008288Y010185D01*
X008361Y010185D01*
X008361Y009796D01*
X008288Y009796D01*
X008225Y009734D01*
X008225Y009733D01*
X008194Y009703D01*
X008194Y009679D01*
X008154Y009639D01*
X008154Y009604D01*
X008137Y009574D01*
X008154Y009516D01*
X008154Y009457D01*
X008178Y009432D01*
X008188Y009399D01*
X008194Y009396D01*
X008194Y009176D01*
X008266Y009105D01*
X008194Y009033D01*
X008194Y008507D01*
X008288Y008413D01*
X008854Y008413D01*
X008888Y008448D01*
X009028Y008308D02*
X006234Y008308D01*
X006392Y008150D02*
X009186Y008150D01*
X009345Y007991D02*
X006551Y007991D01*
X006709Y007833D02*
X009373Y007833D01*
X009703Y007973D02*
X010333Y007973D01*
X010343Y007983D01*
X010699Y007802D02*
X010827Y007802D01*
X010956Y007931D01*
X010975Y007950D01*
X011776Y007950D01*
X011869Y008044D01*
X011869Y008224D01*
X011877Y008237D01*
X011889Y008283D01*
X011889Y008367D01*
X011889Y008450D01*
X011877Y008496D01*
X011869Y008510D01*
X011869Y009525D01*
X012255Y009525D01*
X012362Y009633D01*
X012481Y009633D01*
X012612Y009687D01*
X012713Y009788D01*
X012768Y009919D01*
X012768Y010062D01*
X012713Y010194D01*
X012612Y010294D01*
X012481Y010349D01*
X012338Y010349D01*
X012207Y010294D01*
X012106Y010194D01*
X012051Y010062D01*
X012051Y009965D01*
X011869Y009965D01*
X011869Y010461D01*
X011776Y010555D01*
X011173Y010555D01*
X011079Y010461D01*
X011079Y009768D01*
X008882Y009768D01*
X008854Y009796D01*
X008781Y009796D01*
X008781Y010185D01*
X008854Y010185D01*
X008947Y010279D01*
X008947Y010805D01*
X008888Y010864D01*
X008898Y010870D01*
X008931Y010904D01*
X008955Y010945D01*
X008967Y010991D01*
X008967Y011193D01*
X008589Y011193D01*
X008589Y011230D01*
X008967Y011230D01*
X008967Y011432D01*
X008955Y011477D01*
X008931Y011519D01*
X008908Y011542D01*
X011629Y011542D01*
X011845Y011327D01*
X011845Y010624D01*
X011939Y010531D01*
X012709Y010531D01*
X012723Y010523D01*
X012769Y010511D01*
X012829Y010511D01*
X012829Y010441D01*
X012878Y010392D01*
X013007Y010263D01*
X014417Y010263D01*
X014406Y010222D01*
X014406Y010138D01*
X014406Y010055D01*
X014418Y010009D01*
X014426Y009995D01*
X014426Y008044D01*
X014520Y007950D01*
X014601Y007950D01*
X014601Y007488D01*
X014730Y007359D01*
X015284Y006805D01*
X015193Y006805D01*
X015061Y006751D01*
X014997Y006687D01*
X014892Y006687D01*
X014892Y006710D01*
X014799Y006804D01*
X014598Y006804D01*
X014598Y006834D01*
X014469Y006963D01*
X014450Y006981D01*
X014450Y007881D01*
X014357Y007974D01*
X014176Y007974D01*
X014163Y007982D01*
X014117Y007994D01*
X014033Y007994D01*
X013950Y007994D01*
X013904Y007982D01*
X013891Y007974D01*
X011939Y007974D01*
X011845Y007881D01*
X011845Y007799D01*
X010699Y007799D01*
X010699Y007802D01*
X010858Y007833D02*
X011845Y007833D01*
X011817Y007991D02*
X013939Y007991D01*
X014033Y007991D02*
X014033Y007991D01*
X014033Y007994D02*
X014033Y007904D01*
X014033Y007904D01*
X014033Y007904D01*
X014033Y007994D01*
X014128Y007991D02*
X014478Y007991D01*
X014450Y007833D02*
X014601Y007833D01*
X014601Y007674D02*
X014450Y007674D01*
X014450Y007516D02*
X014601Y007516D01*
X014732Y007357D02*
X014450Y007357D01*
X014450Y007199D02*
X014890Y007199D01*
X015049Y007040D02*
X014450Y007040D01*
X014550Y006882D02*
X015207Y006882D01*
X015033Y006723D02*
X014879Y006723D01*
X014531Y006447D02*
X015264Y006447D01*
X014997Y006207D02*
X015061Y006144D01*
X015193Y006089D01*
X015335Y006089D01*
X015467Y006144D01*
X015567Y006245D01*
X015622Y006376D01*
X015622Y006467D01*
X016218Y005871D01*
X016110Y005763D01*
X016059Y005641D01*
X016008Y005763D01*
X015859Y005912D01*
X015664Y005993D01*
X015454Y005993D01*
X015373Y005960D01*
X015306Y006028D01*
X013731Y006028D01*
X013688Y006071D01*
X013828Y006071D01*
X013828Y006429D01*
X013865Y006429D01*
X013865Y006071D01*
X014087Y006071D01*
X014132Y006083D01*
X014174Y006106D01*
X014195Y006128D01*
X014233Y006091D01*
X014799Y006091D01*
X014892Y006184D01*
X014892Y006207D01*
X014997Y006207D01*
X015192Y006089D02*
X014144Y006089D01*
X013865Y006089D02*
X013828Y006089D01*
X013828Y006248D02*
X013865Y006248D01*
X013865Y006406D02*
X013828Y006406D01*
X013828Y006466D02*
X013828Y006817D01*
X013928Y006916D01*
X014010Y006999D01*
X014010Y006824D01*
X013865Y006824D01*
X013865Y006466D01*
X013828Y006466D01*
X013828Y006565D02*
X013865Y006565D01*
X013865Y006723D02*
X013828Y006723D01*
X013893Y006882D02*
X014010Y006882D01*
X014516Y006447D02*
X014524Y006455D01*
X014531Y006447D01*
X014663Y005588D02*
X015037Y005588D01*
X015029Y005569D01*
X015029Y005358D01*
X015110Y005163D01*
X015259Y005014D01*
X015454Y004933D01*
X015664Y004933D01*
X015859Y005014D01*
X016008Y005163D01*
X016059Y005285D01*
X016110Y005163D01*
X016259Y005014D01*
X016454Y004933D01*
X016664Y004933D01*
X016859Y005014D01*
X017008Y005163D01*
X017059Y005285D01*
X017110Y005163D01*
X017259Y005014D01*
X017454Y004933D01*
X017664Y004933D01*
X017859Y005014D01*
X018008Y005163D01*
X018089Y005358D01*
X018089Y005569D01*
X018008Y005763D01*
X017859Y005912D01*
X017664Y005993D01*
X017454Y005993D01*
X017259Y005912D01*
X017110Y005763D01*
X017059Y005641D01*
X017008Y005763D01*
X016859Y005912D01*
X016756Y005955D01*
X016650Y006061D01*
X015041Y007670D01*
X015041Y007950D01*
X015122Y007950D01*
X015216Y008044D01*
X015216Y009328D01*
X015911Y009328D01*
X017145Y008094D01*
X017078Y008027D01*
X017028Y007905D01*
X016977Y008027D01*
X016828Y008176D01*
X016633Y008257D01*
X016422Y008257D01*
X016227Y008176D01*
X016078Y008027D01*
X015998Y007832D01*
X015998Y007621D01*
X016078Y007427D01*
X016227Y007278D01*
X016312Y007243D01*
X016324Y007213D01*
X016392Y007145D01*
X016604Y006933D01*
X016692Y006896D01*
X017527Y006896D01*
X018604Y005819D01*
X018671Y005752D01*
X018759Y005715D01*
X018837Y005715D01*
X018837Y005639D01*
X018931Y005545D01*
X019370Y005545D01*
X019370Y004601D01*
X019254Y004485D01*
X019190Y004330D01*
X019190Y003643D01*
X019254Y003489D01*
X019372Y003371D01*
X019527Y003307D01*
X019694Y003307D01*
X019848Y003371D01*
X019966Y003489D01*
X020030Y003643D01*
X020030Y004330D01*
X019966Y004485D01*
X019850Y004601D01*
X019850Y005869D01*
X019814Y005957D01*
X019761Y006010D01*
X019761Y006272D01*
X019668Y006365D01*
X018931Y006365D01*
X018837Y006272D01*
X018837Y006265D01*
X018028Y007074D01*
X018234Y007074D01*
X018234Y007031D01*
X018327Y006937D01*
X018893Y006937D01*
X018987Y007031D01*
X018987Y007557D01*
X018927Y007616D01*
X018937Y007622D01*
X018971Y007656D01*
X018995Y007697D01*
X019007Y007743D01*
X019007Y007945D01*
X018629Y007945D01*
X018629Y007982D01*
X018592Y007982D01*
X018592Y008340D01*
X018370Y008340D01*
X018324Y008328D01*
X018283Y008304D01*
X018250Y008270D01*
X018226Y008229D01*
X018214Y008184D01*
X018214Y007982D01*
X018592Y007982D01*
X018592Y007945D01*
X018214Y007945D01*
X018214Y007743D01*
X018226Y007697D01*
X018250Y007656D01*
X018283Y007622D01*
X018293Y007616D01*
X018234Y007557D01*
X018234Y007514D01*
X018052Y007514D01*
X018024Y007541D01*
X018058Y007621D01*
X018058Y007832D01*
X017977Y008027D01*
X017828Y008176D01*
X017633Y008257D01*
X017604Y008257D01*
X016299Y009562D01*
X016318Y009567D01*
X016359Y009591D01*
X016392Y009624D01*
X016416Y009665D01*
X016428Y009711D01*
X016428Y009933D01*
X016070Y009933D01*
X016070Y009970D01*
X016428Y009970D01*
X016428Y010192D01*
X016416Y010237D01*
X016392Y010278D01*
X016370Y010300D01*
X016408Y010338D01*
X016408Y010903D01*
X016314Y010997D01*
X016291Y010997D01*
X016291Y011004D01*
X016355Y011067D01*
X016409Y011199D01*
X016409Y011341D01*
X016355Y011473D01*
X016285Y011542D01*
X016452Y011542D01*
X016677Y011317D01*
X016677Y011199D01*
X016732Y011067D01*
X016802Y010997D01*
X016772Y010997D01*
X016679Y010903D01*
X016679Y010338D01*
X016716Y010300D01*
X016695Y010278D01*
X016671Y010237D01*
X016659Y010192D01*
X016659Y009970D01*
X017017Y009970D01*
X017017Y009933D01*
X016659Y009933D01*
X016659Y009711D01*
X016671Y009665D01*
X016695Y009624D01*
X016728Y009591D01*
X016769Y009567D01*
X016815Y009555D01*
X017017Y009555D01*
X017017Y009933D01*
X017054Y009933D01*
X017054Y009970D01*
X017412Y009970D01*
X017412Y010192D01*
X017400Y010237D01*
X017376Y010278D01*
X017355Y010300D01*
X017392Y010338D01*
X017392Y010903D01*
X017299Y010997D01*
X017269Y010997D01*
X017339Y011067D01*
X017394Y011199D01*
X017394Y011341D01*
X017339Y011473D01*
X017238Y011574D01*
X017107Y011628D01*
X016988Y011628D01*
X016634Y011982D01*
X015696Y011982D01*
X015847Y012133D01*
X015976Y012262D01*
X015976Y013443D01*
X016044Y013511D01*
X016088Y013511D01*
X016088Y013369D01*
X016182Y013276D01*
X017062Y013276D01*
X017156Y013369D01*
X017156Y013491D01*
X017269Y013491D01*
X017269Y013291D01*
X017307Y013253D01*
X017285Y013231D01*
X017261Y013190D01*
X017249Y013144D01*
X017249Y012922D01*
X017608Y012922D01*
X017608Y012886D01*
X017644Y012886D01*
X017644Y012508D01*
X017847Y012508D01*
X017892Y012520D01*
X017933Y012543D01*
X017967Y012577D01*
X017991Y012618D01*
X018003Y012664D01*
X018003Y012886D01*
X017644Y012886D01*
X017644Y012922D01*
X018003Y012922D01*
X018003Y013144D01*
X017991Y013190D01*
X017967Y013231D01*
X017945Y013253D01*
X017983Y013291D01*
X017983Y013856D01*
X020985Y013856D01*
X020985Y014014D02*
X017156Y014014D01*
X017156Y014053D02*
X017062Y014147D01*
X016182Y014147D01*
X016088Y014053D01*
X016088Y013951D01*
X015862Y013951D01*
X015733Y013822D01*
X015536Y013625D01*
X015536Y012444D01*
X015468Y012376D01*
X015375Y012376D01*
X015424Y012424D01*
X015424Y013108D01*
X015330Y013202D01*
X014449Y013202D01*
X014372Y013124D01*
X014243Y013124D01*
X014243Y013187D01*
X014205Y013225D01*
X014227Y013246D01*
X014250Y013287D01*
X014263Y013333D01*
X014263Y013555D01*
X013904Y013555D01*
X013904Y013592D01*
X013867Y013592D01*
X013867Y013555D01*
X013509Y013555D01*
X013509Y013333D01*
X013521Y013287D01*
X013545Y013246D01*
X013567Y013225D01*
X013529Y013187D01*
X013529Y012858D01*
X013155Y012484D01*
X013026Y012355D01*
X013026Y011321D01*
X012995Y011321D01*
X012982Y011328D01*
X012936Y011341D01*
X012876Y011341D01*
X012876Y011903D01*
X012373Y012405D01*
X012395Y012427D01*
X012417Y012406D01*
X012458Y012382D01*
X012504Y012370D01*
X012726Y012370D01*
X012726Y012728D01*
X012763Y012728D01*
X012763Y012765D01*
X013141Y012765D01*
X013141Y012967D01*
X013128Y013013D01*
X013105Y013054D01*
X013071Y013087D01*
X013030Y013111D01*
X012984Y013123D01*
X012763Y013123D01*
X012763Y012765D01*
X012726Y012765D01*
X012726Y013123D01*
X012504Y013123D01*
X012458Y013111D01*
X012417Y013087D01*
X012395Y013066D01*
X012358Y013103D01*
X012315Y013103D01*
X012315Y013374D01*
X012358Y013374D01*
X012395Y013412D01*
X012417Y013390D01*
X012458Y013366D01*
X012504Y013354D01*
X012726Y013354D01*
X012726Y013712D01*
X012763Y013712D01*
X012763Y013749D01*
X013141Y013749D01*
X013141Y013951D01*
X013128Y013997D01*
X013105Y014038D01*
X013071Y014072D01*
X013030Y014095D01*
X012984Y014108D01*
X012763Y014108D01*
X012763Y013749D01*
X012726Y013749D01*
X012726Y014108D01*
X012504Y014108D01*
X012458Y014095D01*
X012417Y014072D01*
X012395Y014050D01*
X012358Y014088D01*
X011792Y014088D01*
X011698Y013994D01*
X011698Y013900D01*
X011416Y013618D01*
X011349Y013646D01*
X011206Y013646D01*
X011075Y013592D01*
X010974Y013491D01*
X010919Y013359D01*
X010919Y013217D01*
X010974Y013085D01*
X011075Y012984D01*
X011206Y012930D01*
X011349Y012930D01*
X011480Y012984D01*
X011581Y013085D01*
X011595Y013118D01*
X011629Y013152D01*
X011835Y013358D01*
X011835Y013103D01*
X011792Y013103D01*
X011698Y013010D01*
X011698Y012483D01*
X011792Y012390D01*
X011855Y012390D01*
X011855Y012376D01*
X010861Y012376D01*
X010865Y012382D01*
X010877Y012428D01*
X010877Y012630D01*
X010499Y012630D01*
X010499Y012667D01*
X010462Y012667D01*
X010462Y013025D01*
X010240Y013025D01*
X010194Y013013D01*
X010153Y012989D01*
X010132Y012967D01*
X010094Y013005D01*
X010051Y013005D01*
X010051Y013453D01*
X010074Y013453D01*
X010146Y013524D01*
X010217Y013453D01*
X010743Y013453D01*
X010837Y013546D01*
X010837Y014083D01*
X011229Y014475D01*
X012605Y014475D01*
X012797Y014284D01*
X012864Y014216D01*
X012952Y014180D01*
X015469Y014180D01*
X015557Y014216D01*
X015625Y014284D01*
X016664Y015323D01*
X016964Y015323D01*
X017035Y015394D01*
X017107Y015323D01*
X017633Y015323D01*
X017727Y015417D01*
X017727Y015459D01*
X017978Y015459D01*
X017978Y015298D01*
X018072Y015205D01*
X019306Y015205D01*
X019400Y015298D01*
X019400Y016248D01*
X019404Y016252D01*
X019441Y016341D01*
X019441Y018601D01*
X019404Y018690D01*
X018943Y019151D01*
X018855Y019187D01*
X017529Y019187D01*
X017236Y019480D01*
X017236Y020559D01*
X017599Y020559D01*
X017599Y020557D01*
X017723Y020258D01*
X017952Y020028D01*
X018251Y019904D01*
X018575Y019904D01*
X018875Y020028D01*
X019104Y020258D01*
X019120Y020295D01*
X019120Y019865D01*
X019213Y019772D01*
X020448Y019772D01*
X020542Y019865D01*
X020542Y020864D01*
X020448Y020958D01*
X019213Y020958D01*
X019201Y020946D01*
X019104Y021180D01*
X018875Y021410D01*
X018575Y021534D01*
X018251Y021534D01*
X017952Y021410D01*
X017723Y021180D01*
X017707Y021143D01*
X017707Y021651D01*
X017643Y021715D01*
X020985Y021715D01*
X020985Y004480D01*
X020946Y004533D01*
X020897Y004582D01*
X020841Y004623D01*
X020779Y004655D01*
X020713Y004676D01*
X020645Y004687D01*
X020610Y004687D01*
X020576Y004687D01*
X020507Y004676D01*
X020441Y004655D01*
X020380Y004623D01*
X020324Y004582D01*
X020275Y004533D01*
X020234Y004477D01*
X020202Y004416D01*
X020181Y004350D01*
X020170Y004281D01*
X020170Y003987D01*
X020610Y003987D01*
X020610Y004687D01*
X020610Y003987D01*
X020610Y003987D01*
X020610Y003987D01*
X020170Y003987D01*
X020170Y003692D01*
X020181Y003624D01*
X020202Y003558D01*
X020234Y003496D01*
X020275Y003440D01*
X020324Y003391D01*
X020380Y003350D01*
X020441Y003319D01*
X020507Y003298D01*
X020576Y003287D01*
X020610Y003287D01*
X020610Y003987D01*
X020610Y003987D01*
X020610Y003287D01*
X020645Y003287D01*
X020713Y003298D01*
X020779Y003319D01*
X020841Y003350D01*
X020897Y003391D01*
X020946Y003440D01*
X020985Y003493D01*
X020985Y002872D01*
X020800Y003057D01*
X020436Y003057D01*
X020178Y002799D01*
X020178Y002434D01*
X020436Y002177D01*
X020800Y002177D01*
X020985Y002361D01*
X020985Y001872D01*
X020867Y001990D01*
X020706Y002057D01*
X020531Y002057D01*
X020369Y001990D01*
X020245Y001866D01*
X020178Y001704D01*
X020178Y001529D01*
X020245Y001367D01*
X020369Y001244D01*
X020531Y001177D01*
X020706Y001177D01*
X020867Y001244D01*
X020985Y001361D01*
X020985Y001022D01*
X000685Y001022D01*
X000685Y007803D01*
X001157Y007803D01*
X001251Y007897D01*
X001251Y007970D01*
X002300Y007970D01*
X002369Y008039D01*
X002909Y008039D01*
X003003Y008133D01*
X003003Y008176D01*
X003550Y008176D01*
X005808Y005918D01*
X005876Y005850D01*
X005964Y005814D01*
X006336Y005814D01*
X006400Y005750D01*
X006531Y005696D01*
X006674Y005696D01*
X006805Y005750D01*
X006869Y005814D01*
X007092Y005814D01*
X007092Y005771D01*
X007186Y005677D01*
X007712Y005677D01*
X007783Y005749D01*
X007855Y005677D01*
X007898Y005677D01*
X007898Y004939D01*
X007992Y004845D01*
X007981Y004834D01*
X007892Y004621D01*
X007892Y003550D01*
X007981Y003337D01*
X008144Y003173D01*
X008357Y003085D01*
X008588Y003085D01*
X008801Y003173D01*
X008964Y003337D01*
X009052Y003550D01*
X009052Y004621D01*
X008964Y004834D01*
X008801Y004997D01*
X008588Y005085D01*
X008374Y005085D01*
X008338Y005121D01*
X008338Y005677D01*
X008381Y005677D01*
X008475Y005771D01*
X008475Y005834D01*
X010450Y005834D01*
X010533Y005750D01*
X010665Y005696D01*
X010807Y005696D01*
X010939Y005750D01*
X011040Y005851D01*
X011094Y005982D01*
X011094Y006125D01*
X011040Y006257D01*
X010939Y006357D01*
X010918Y006366D01*
X011334Y006366D01*
X011428Y006460D01*
X011428Y006523D01*
X012304Y006523D01*
X012433Y006652D01*
X012436Y006654D01*
X012436Y006411D01*
X012166Y006411D01*
X012128Y006373D01*
X012107Y006395D01*
X012066Y006418D01*
X012020Y006431D01*
X011798Y006431D01*
X011798Y006072D01*
X011761Y006072D01*
X011761Y006035D01*
X011798Y006035D01*
X011798Y005677D01*
X012020Y005677D01*
X012066Y005689D01*
X012107Y005713D01*
X012128Y005735D01*
X012166Y005697D01*
X012386Y005697D01*
X012386Y005042D01*
X012278Y004997D01*
X012115Y004834D01*
X012026Y004621D01*
X012026Y003550D01*
X012115Y003337D01*
X012278Y003173D01*
X012491Y003085D01*
X012722Y003085D01*
X012935Y003173D01*
X013098Y003337D01*
X013186Y003550D01*
X013186Y004621D01*
X013098Y004834D01*
X012935Y004997D01*
X012826Y005042D01*
X012826Y005523D01*
X013401Y004948D01*
X013607Y004948D01*
X013493Y004834D01*
X013404Y004621D01*
X013404Y003550D01*
X013493Y003337D01*
X013656Y003173D01*
X013869Y003085D01*
X014100Y003085D01*
X014313Y003173D01*
X014476Y003337D01*
X014564Y003550D01*
X014564Y004621D01*
X014529Y004706D01*
X015074Y004160D01*
X015243Y004160D01*
X015201Y004058D01*
X015201Y003916D01*
X015255Y003784D01*
X015339Y003700D01*
X015339Y002960D01*
X015178Y002799D01*
X015178Y002434D01*
X015436Y002177D01*
X015800Y002177D01*
X016058Y002434D01*
X016058Y002799D01*
X015800Y003057D01*
X015779Y003057D01*
X015779Y003700D01*
X015863Y003784D01*
X015917Y003916D01*
X015917Y004058D01*
X015875Y004160D01*
X016125Y004160D01*
X016190Y004096D01*
X016190Y003643D01*
X016254Y003489D01*
X016372Y003371D01*
X016527Y003307D01*
X016694Y003307D01*
X016779Y003342D01*
X016914Y003207D01*
X016914Y002971D01*
X016809Y003077D01*
X016628Y003077D01*
X016628Y002627D01*
X016608Y002627D01*
X016608Y003077D01*
X016428Y003077D01*
X016158Y002807D01*
X016158Y002627D01*
X016608Y002627D01*
X016608Y002607D01*
X016158Y002607D01*
X016158Y002426D01*
X016428Y002157D01*
X016608Y002157D01*
X016608Y002607D01*
X016628Y002607D01*
X016628Y002157D01*
X016809Y002157D01*
X016914Y002262D01*
X016914Y002224D01*
X016898Y002208D01*
X016747Y002057D01*
X016436Y002057D01*
X016178Y001799D01*
X016178Y001434D01*
X016436Y001177D01*
X016800Y001177D01*
X017058Y001434D01*
X017058Y001746D01*
X017209Y001897D01*
X017225Y001897D01*
X017354Y002026D01*
X017354Y002259D01*
X017436Y002177D01*
X017800Y002177D01*
X017898Y002274D01*
X017898Y002208D01*
X017747Y002057D01*
X017436Y002057D01*
X017178Y001799D01*
X017178Y001434D01*
X017436Y001177D01*
X017800Y001177D01*
X018058Y001434D01*
X018058Y001746D01*
X018209Y001897D01*
X018338Y002026D01*
X018338Y002274D01*
X018436Y002177D01*
X018800Y002177D01*
X019058Y002434D01*
X019058Y002799D01*
X018800Y003057D01*
X018436Y003057D01*
X018338Y002959D01*
X018338Y003389D01*
X018030Y003697D01*
X018030Y004330D01*
X017966Y004485D01*
X017848Y004603D01*
X017694Y004667D01*
X017552Y004667D01*
X017452Y004767D01*
X017323Y004896D01*
X015355Y004896D01*
X014696Y005554D01*
X014663Y005588D01*
X014795Y005455D02*
X015029Y005455D01*
X015054Y005297D02*
X014954Y005297D01*
X015112Y005138D02*
X015134Y005138D01*
X015271Y004980D02*
X015341Y004980D01*
X015777Y004980D02*
X016341Y004980D01*
X016134Y005138D02*
X015984Y005138D01*
X015999Y005772D02*
X016119Y005772D01*
X016158Y005931D02*
X015815Y005931D01*
X016000Y006089D02*
X015335Y006089D01*
X015569Y006248D02*
X015841Y006248D01*
X015683Y006406D02*
X015622Y006406D01*
X015988Y006723D02*
X017700Y006723D01*
X017858Y006565D02*
X016146Y006565D01*
X016305Y006406D02*
X018017Y006406D01*
X018175Y006248D02*
X016463Y006248D01*
X016622Y006089D02*
X018334Y006089D01*
X018492Y005931D02*
X017815Y005931D01*
X017999Y005772D02*
X018651Y005772D01*
X018807Y005955D02*
X019122Y005955D01*
X018807Y005955D02*
X017626Y007136D01*
X016740Y007136D01*
X016528Y007349D01*
X016528Y007727D01*
X016148Y007357D02*
X015354Y007357D01*
X015512Y007199D02*
X016338Y007199D01*
X016392Y007145D02*
X016392Y007145D01*
X016497Y007040D02*
X015671Y007040D01*
X015829Y006882D02*
X017541Y006882D01*
X018061Y007040D02*
X018234Y007040D01*
X018220Y006882D02*
X020985Y006882D01*
X020985Y007040D02*
X018987Y007040D01*
X018987Y007199D02*
X020985Y007199D01*
X020985Y007357D02*
X018987Y007357D01*
X018987Y007516D02*
X020985Y007516D01*
X020985Y007674D02*
X018982Y007674D01*
X019007Y007833D02*
X020985Y007833D01*
X020985Y007991D02*
X019007Y007991D01*
X019007Y007982D02*
X019007Y008184D01*
X018995Y008229D01*
X018971Y008270D01*
X018937Y008304D01*
X018896Y008328D01*
X018850Y008340D01*
X018629Y008340D01*
X018629Y007982D01*
X019007Y007982D01*
X019063Y007963D02*
X018610Y007963D01*
X018610Y008731D01*
X017390Y009951D01*
X017035Y009951D01*
X017054Y009933D02*
X017054Y009555D01*
X017256Y009555D01*
X017302Y009567D01*
X017343Y009591D01*
X017376Y009624D01*
X017400Y009665D01*
X017412Y009711D01*
X017412Y009933D01*
X017054Y009933D01*
X017054Y009893D02*
X017017Y009893D01*
X017017Y009735D02*
X017054Y009735D01*
X017054Y009576D02*
X017017Y009576D01*
X016753Y009576D02*
X016334Y009576D01*
X016428Y009735D02*
X016659Y009735D01*
X016659Y009893D02*
X016428Y009893D01*
X016428Y010052D02*
X016659Y010052D01*
X016664Y010210D02*
X016423Y010210D01*
X016408Y010369D02*
X016679Y010369D01*
X016679Y010527D02*
X016408Y010527D01*
X016408Y010686D02*
X016679Y010686D01*
X016679Y010844D02*
X016408Y010844D01*
X016291Y011003D02*
X016796Y011003D01*
X016693Y011161D02*
X016394Y011161D01*
X016409Y011320D02*
X016675Y011320D01*
X016516Y011478D02*
X016349Y011478D01*
X016051Y011270D02*
X016051Y010627D01*
X016051Y010621D02*
X015795Y010621D01*
X015657Y010483D01*
X015674Y010189D02*
X015674Y009970D01*
X016033Y009970D01*
X016033Y009933D01*
X015674Y009933D01*
X015674Y009768D01*
X015216Y009768D01*
X015216Y009815D01*
X015216Y009995D01*
X015224Y010009D01*
X015236Y010055D01*
X015236Y010115D01*
X015601Y010115D01*
X015674Y010189D01*
X015674Y010052D02*
X015235Y010052D01*
X015216Y009893D02*
X015674Y009893D01*
X015979Y009259D02*
X015216Y009259D01*
X015216Y009101D02*
X016138Y009101D01*
X016296Y008942D02*
X015216Y008942D01*
X015216Y008784D02*
X016455Y008784D01*
X016613Y008625D02*
X015216Y008625D01*
X015216Y008467D02*
X016772Y008467D01*
X016930Y008308D02*
X015216Y008308D01*
X015216Y008150D02*
X016201Y008150D01*
X016063Y007991D02*
X015164Y007991D01*
X015041Y007833D02*
X015998Y007833D01*
X015998Y007674D02*
X015041Y007674D01*
X015195Y007516D02*
X016041Y007516D01*
X016854Y008150D02*
X017089Y008150D01*
X017063Y007991D02*
X016992Y007991D01*
X017394Y008467D02*
X020985Y008467D01*
X020985Y008625D02*
X017235Y008625D01*
X017077Y008784D02*
X020985Y008784D01*
X020985Y008942D02*
X016918Y008942D01*
X016760Y009101D02*
X020985Y009101D01*
X020985Y009259D02*
X016601Y009259D01*
X016443Y009418D02*
X020985Y009418D01*
X020985Y009576D02*
X017318Y009576D01*
X017412Y009735D02*
X020985Y009735D01*
X020985Y009893D02*
X017412Y009893D01*
X017390Y009951D02*
X017626Y010188D01*
X017626Y012904D01*
X017644Y012905D02*
X020985Y012905D01*
X020985Y013063D02*
X018003Y013063D01*
X017972Y013222D02*
X020985Y013222D01*
X020985Y013380D02*
X017983Y013380D01*
X017983Y013539D02*
X020985Y013539D01*
X020985Y013697D02*
X017983Y013697D01*
X017983Y013856D02*
X017889Y013950D01*
X017363Y013950D01*
X017344Y013931D01*
X017156Y013931D01*
X017156Y014053D01*
X017156Y013380D02*
X017269Y013380D01*
X017280Y013222D02*
X015976Y013222D01*
X015976Y013380D02*
X016088Y013380D01*
X016182Y013202D02*
X016088Y013108D01*
X016088Y012424D01*
X016182Y012331D01*
X017062Y012331D01*
X017156Y012424D01*
X017156Y013108D01*
X017062Y013202D01*
X016182Y013202D01*
X016088Y013063D02*
X015976Y013063D01*
X015976Y012905D02*
X016088Y012905D01*
X016088Y012746D02*
X015976Y012746D01*
X015976Y012588D02*
X016088Y012588D01*
X016088Y012429D02*
X015976Y012429D01*
X015976Y012271D02*
X020985Y012271D01*
X020985Y012429D02*
X017156Y012429D01*
X017156Y012588D02*
X017279Y012588D01*
X017285Y012577D02*
X017319Y012543D01*
X017360Y012520D01*
X017405Y012508D01*
X017608Y012508D01*
X017608Y012886D01*
X017249Y012886D01*
X017249Y012664D01*
X017261Y012618D01*
X017285Y012577D01*
X017249Y012746D02*
X017156Y012746D01*
X017156Y012905D02*
X017608Y012905D01*
X017608Y012746D02*
X017644Y012746D01*
X017644Y012588D02*
X017608Y012588D01*
X017973Y012588D02*
X020985Y012588D01*
X020985Y012746D02*
X018003Y012746D01*
X017249Y013063D02*
X017156Y013063D01*
X016663Y011954D02*
X020985Y011954D01*
X020985Y012112D02*
X015827Y012112D01*
X015521Y012429D02*
X015424Y012429D01*
X015424Y012588D02*
X015536Y012588D01*
X015536Y012746D02*
X015424Y012746D01*
X015424Y012905D02*
X015536Y012905D01*
X015536Y013063D02*
X015424Y013063D01*
X015536Y013222D02*
X014208Y013222D01*
X014263Y013380D02*
X014356Y013380D01*
X014356Y013369D02*
X014449Y013276D01*
X015330Y013276D01*
X015424Y013369D01*
X015424Y014053D01*
X015330Y014147D01*
X014449Y014147D01*
X014356Y014053D01*
X014356Y013369D01*
X014356Y013539D02*
X014263Y013539D01*
X014263Y013592D02*
X014263Y013814D01*
X014250Y013859D01*
X014227Y013900D01*
X014193Y013934D01*
X014152Y013958D01*
X014106Y013970D01*
X013904Y013970D01*
X013904Y013592D01*
X014263Y013592D01*
X014263Y013697D02*
X014356Y013697D01*
X014356Y013856D02*
X014251Y013856D01*
X014356Y014014D02*
X013118Y014014D01*
X013141Y013856D02*
X013520Y013856D01*
X013521Y013859D02*
X013509Y013814D01*
X013509Y013592D01*
X013867Y013592D01*
X013867Y013970D01*
X013665Y013970D01*
X013619Y013958D01*
X013578Y013934D01*
X013545Y013900D01*
X013521Y013859D01*
X013509Y013697D02*
X013141Y013697D01*
X013141Y013712D02*
X012763Y013712D01*
X012763Y013354D01*
X012984Y013354D01*
X013030Y013366D01*
X013071Y013390D01*
X013105Y013423D01*
X013128Y013465D01*
X013141Y013510D01*
X013141Y013712D01*
X013141Y013539D02*
X013509Y013539D01*
X013509Y013380D02*
X013055Y013380D01*
X012763Y013380D02*
X012726Y013380D01*
X012726Y013539D02*
X012763Y013539D01*
X012763Y013697D02*
X012726Y013697D01*
X012744Y013731D02*
X012744Y012747D01*
X012763Y012746D02*
X013417Y012746D01*
X013529Y012905D02*
X013141Y012905D01*
X013095Y013063D02*
X013529Y013063D01*
X013564Y013222D02*
X012315Y013222D01*
X012364Y013380D02*
X012434Y013380D01*
X012726Y013063D02*
X012763Y013063D01*
X012763Y012905D02*
X012726Y012905D01*
X012763Y012728D02*
X013141Y012728D01*
X013141Y012526D01*
X013128Y012480D01*
X013105Y012439D01*
X013071Y012406D01*
X013030Y012382D01*
X012984Y012370D01*
X012763Y012370D01*
X012763Y012728D01*
X012763Y012588D02*
X012726Y012588D01*
X012726Y012429D02*
X012763Y012429D01*
X012507Y012271D02*
X013026Y012271D01*
X013026Y012112D02*
X012666Y012112D01*
X012824Y011954D02*
X013026Y011954D01*
X013026Y011795D02*
X012876Y011795D01*
X012876Y011637D02*
X013026Y011637D01*
X013026Y011478D02*
X012876Y011478D01*
X012715Y010527D02*
X011803Y010527D01*
X011845Y010686D02*
X008947Y010686D01*
X008947Y010527D02*
X011145Y010527D01*
X011079Y010369D02*
X008947Y010369D01*
X008879Y010210D02*
X011079Y010210D01*
X011079Y010052D02*
X008781Y010052D01*
X008781Y009893D02*
X011079Y009893D01*
X011869Y010052D02*
X012051Y010052D01*
X012123Y010210D02*
X011869Y010210D01*
X011869Y010369D02*
X012901Y010369D01*
X012696Y010210D02*
X014406Y010210D01*
X014406Y010138D02*
X014496Y010138D01*
X014406Y010138D01*
X014407Y010052D02*
X012768Y010052D01*
X012757Y009893D02*
X014426Y009893D01*
X014426Y009735D02*
X012660Y009735D01*
X012306Y009576D02*
X014426Y009576D01*
X014426Y009418D02*
X011869Y009418D01*
X011869Y009259D02*
X014426Y009259D01*
X014426Y009101D02*
X011869Y009101D01*
X011869Y008942D02*
X014426Y008942D01*
X014426Y008784D02*
X011869Y008784D01*
X011869Y008625D02*
X014426Y008625D01*
X014426Y008467D02*
X011885Y008467D01*
X011889Y008367D02*
X011799Y008367D01*
X011799Y008367D01*
X011799Y008367D01*
X011889Y008367D01*
X011889Y008308D02*
X014426Y008308D01*
X014426Y008150D02*
X011869Y008150D01*
X011845Y007359D02*
X011845Y007278D01*
X011939Y007184D01*
X012239Y007184D01*
X012239Y007080D01*
X012121Y006963D01*
X011428Y006963D01*
X011428Y007025D01*
X011334Y007119D01*
X010808Y007119D01*
X010736Y007048D01*
X010665Y007119D01*
X010138Y007119D01*
X010067Y007048D01*
X009976Y007139D01*
X009371Y007139D01*
X009277Y007045D01*
X009277Y006440D01*
X009371Y006346D01*
X009976Y006346D01*
X010067Y006438D01*
X010138Y006366D01*
X010555Y006366D01*
X010533Y006357D01*
X010450Y006274D01*
X008475Y006274D01*
X008475Y006336D01*
X008381Y006430D01*
X007855Y006430D01*
X007783Y006359D01*
X007712Y006430D01*
X007186Y006430D01*
X007092Y006336D01*
X007092Y006294D01*
X006869Y006294D01*
X006805Y006357D01*
X006674Y006412D01*
X006531Y006412D01*
X006400Y006357D01*
X006336Y006294D01*
X006111Y006294D01*
X003786Y008619D01*
X003697Y008656D01*
X003003Y008656D01*
X003003Y008659D01*
X002909Y008753D01*
X001949Y008753D01*
X001856Y008659D01*
X001856Y008390D01*
X001251Y008390D01*
X001251Y008462D01*
X001213Y008500D01*
X001235Y008522D01*
X001258Y008563D01*
X001271Y008609D01*
X001271Y008831D01*
X000912Y008831D01*
X000912Y008867D01*
X001271Y008867D01*
X001271Y009089D01*
X001258Y009135D01*
X001235Y009176D01*
X001201Y009210D01*
X001160Y009233D01*
X001114Y009245D01*
X000912Y009245D01*
X000912Y008867D01*
X000875Y008867D01*
X000875Y009245D01*
X000685Y009245D01*
X000685Y009358D01*
X000875Y009358D01*
X000875Y009736D01*
X000912Y009736D01*
X000912Y009358D01*
X001114Y009358D01*
X001160Y009370D01*
X001201Y009394D01*
X001235Y009427D01*
X001258Y009468D01*
X001271Y009514D01*
X001271Y009736D01*
X000912Y009736D01*
X000912Y009773D01*
X001271Y009773D01*
X001271Y009995D01*
X001258Y010040D01*
X001235Y010082D01*
X001213Y010103D01*
X001251Y010141D01*
X001251Y010184D01*
X001856Y010184D01*
X001856Y009944D01*
X001949Y009850D01*
X002909Y009850D01*
X003003Y009944D01*
X003003Y010470D01*
X002909Y010564D01*
X002709Y010564D01*
X002709Y010610D01*
X002772Y010674D01*
X002827Y010805D01*
X002827Y010948D01*
X002772Y011079D01*
X002709Y011143D01*
X002709Y011728D01*
X002879Y011799D01*
X002879Y011567D01*
X003471Y011567D01*
X003471Y012060D01*
X003129Y012060D01*
X003204Y012242D01*
X003204Y012330D01*
X003610Y012330D01*
X003610Y012609D01*
X004693Y012609D01*
X004929Y012845D01*
X004929Y013239D01*
X004929Y014321D01*
X004260Y014991D01*
X003551Y014991D01*
X001386Y014991D01*
X001386Y013239D01*
X001386Y011487D01*
X001466Y011478D02*
X002229Y011478D01*
X002229Y011320D02*
X002058Y011320D01*
X002058Y011407D02*
X002058Y011069D01*
X002046Y011024D01*
X002022Y010983D01*
X001988Y010949D01*
X001947Y010925D01*
X001902Y010913D01*
X001466Y010913D01*
X001466Y011407D01*
X001466Y011567D01*
X001306Y011567D01*
X001306Y012060D01*
X000870Y012060D01*
X000824Y012048D01*
X000783Y012024D01*
X000750Y011991D01*
X000726Y011950D01*
X000714Y011904D01*
X000714Y011567D01*
X001306Y011567D01*
X001306Y011407D01*
X000714Y011407D01*
X000714Y011069D01*
X000726Y011024D01*
X000750Y010983D01*
X000783Y010949D01*
X000824Y010925D01*
X000870Y010913D01*
X001306Y010913D01*
X001306Y011407D01*
X001466Y011407D01*
X002058Y011407D01*
X002058Y011567D02*
X002058Y011904D01*
X002048Y011942D01*
X002229Y011761D01*
X002229Y011143D01*
X002165Y011079D01*
X002110Y010948D01*
X002110Y010805D01*
X002165Y010674D01*
X002175Y010664D01*
X001251Y010664D01*
X001251Y010707D01*
X001157Y010800D01*
X000685Y010800D01*
X000685Y021715D01*
X001093Y021715D01*
X001029Y021651D01*
X001029Y020574D01*
X001123Y020480D01*
X001343Y020480D01*
X001343Y019304D01*
X001123Y019304D01*
X001029Y019210D01*
X001029Y018133D01*
X001123Y018039D01*
X001876Y018039D01*
X002878Y017037D01*
X002878Y016568D01*
X002855Y016568D01*
X002761Y016474D01*
X002761Y015909D01*
X002855Y015815D01*
X003381Y015815D01*
X003453Y015886D01*
X003524Y015815D01*
X004051Y015815D01*
X004144Y015909D01*
X004144Y015951D01*
X004336Y015951D01*
X004336Y015909D01*
X004430Y015815D01*
X004453Y015815D01*
X004453Y015691D01*
X004489Y015603D01*
X004557Y015535D01*
X005886Y014206D01*
X005414Y014206D01*
X005320Y014112D01*
X005320Y013546D01*
X005414Y013453D01*
X005437Y013453D01*
X005437Y013005D01*
X005394Y013005D01*
X005301Y012911D01*
X005301Y012385D01*
X005394Y012291D01*
X005457Y012291D01*
X005457Y008463D01*
X006432Y007488D01*
X006560Y007359D01*
X011845Y007359D01*
X011845Y007357D02*
X005048Y007357D01*
X005206Y007199D02*
X011924Y007199D01*
X012199Y007040D02*
X011413Y007040D01*
X011539Y006431D02*
X011494Y006418D01*
X011452Y006395D01*
X011419Y006361D01*
X011395Y006320D01*
X011383Y006274D01*
X011383Y006072D01*
X011761Y006072D01*
X011761Y006431D01*
X011539Y006431D01*
X011473Y006406D02*
X011374Y006406D01*
X011383Y006248D02*
X011043Y006248D01*
X011094Y006089D02*
X011383Y006089D01*
X011383Y006035D02*
X011383Y005833D01*
X011395Y005787D01*
X011419Y005746D01*
X011452Y005713D01*
X011494Y005689D01*
X011539Y005677D01*
X011761Y005677D01*
X011761Y006035D01*
X011383Y006035D01*
X011383Y005931D02*
X011073Y005931D01*
X010961Y005772D02*
X011404Y005772D01*
X011761Y005772D02*
X011798Y005772D01*
X011798Y005931D02*
X011761Y005931D01*
X011761Y006089D02*
X011798Y006089D01*
X011798Y006248D02*
X011761Y006248D01*
X011761Y006406D02*
X011798Y006406D01*
X012086Y006406D02*
X012162Y006406D01*
X012346Y006565D02*
X012436Y006565D01*
X012386Y005614D02*
X008338Y005614D01*
X008338Y005455D02*
X012386Y005455D01*
X012386Y005297D02*
X008338Y005297D01*
X008338Y005138D02*
X012386Y005138D01*
X012261Y004980D02*
X011596Y004980D01*
X011619Y004963D02*
X011543Y005018D01*
X011459Y005061D01*
X011369Y005090D01*
X011288Y005103D01*
X011288Y004145D01*
X011168Y004145D01*
X011168Y004025D01*
X010628Y004025D01*
X010628Y003618D01*
X010643Y003525D01*
X010672Y003435D01*
X010715Y003351D01*
X010771Y003274D01*
X010837Y003208D01*
X010914Y003152D01*
X010998Y003109D01*
X011088Y003080D01*
X011168Y003067D01*
X011168Y004025D01*
X011288Y004025D01*
X011288Y003067D01*
X011369Y003080D01*
X011459Y003109D01*
X011543Y003152D01*
X011619Y003208D01*
X011686Y003274D01*
X011742Y003351D01*
X011784Y003435D01*
X011814Y003525D01*
X011828Y003618D01*
X011828Y004025D01*
X011288Y004025D01*
X011288Y004145D01*
X011828Y004145D01*
X011828Y004552D01*
X011814Y004646D01*
X011784Y004735D01*
X011742Y004820D01*
X011686Y004896D01*
X011619Y004963D01*
X011740Y004821D02*
X012109Y004821D01*
X012044Y004663D02*
X011808Y004663D01*
X011828Y004504D02*
X012026Y004504D01*
X012026Y004346D02*
X011828Y004346D01*
X011828Y004187D02*
X012026Y004187D01*
X012026Y004029D02*
X011288Y004029D01*
X011228Y004085D02*
X011228Y003298D01*
X010638Y002707D01*
X014378Y002707D01*
X014969Y002117D01*
X015178Y002444D02*
X000685Y002444D01*
X000685Y002602D02*
X015178Y002602D01*
X015178Y002761D02*
X000685Y002761D01*
X000685Y002919D02*
X015299Y002919D01*
X015339Y003078D02*
X011356Y003078D01*
X011288Y003078D02*
X011168Y003078D01*
X011101Y003078D02*
X007222Y003078D01*
X007235Y003080D02*
X007325Y003109D01*
X007409Y003152D01*
X007485Y003208D01*
X007552Y003274D01*
X007608Y003351D01*
X007651Y003435D01*
X007680Y003525D01*
X007694Y003618D01*
X007694Y004025D01*
X007154Y004025D01*
X007154Y003067D01*
X007235Y003080D01*
X007154Y003078D02*
X007034Y003078D01*
X007034Y003067D02*
X007034Y004025D01*
X006494Y004025D01*
X006494Y003618D01*
X006509Y003525D01*
X006538Y003435D01*
X006581Y003351D01*
X006637Y003274D01*
X006704Y003208D01*
X006780Y003152D01*
X006864Y003109D01*
X006954Y003080D01*
X007034Y003067D01*
X006967Y003078D02*
X000685Y003078D01*
X000685Y003236D02*
X006675Y003236D01*
X006559Y003395D02*
X000685Y003395D01*
X000685Y003553D02*
X006505Y003553D01*
X006494Y003712D02*
X000685Y003712D01*
X000685Y003870D02*
X006494Y003870D01*
X006494Y004145D02*
X007034Y004145D01*
X007034Y004025D01*
X007154Y004025D01*
X007154Y004145D01*
X007034Y004145D01*
X007034Y005103D01*
X006954Y005090D01*
X006864Y005061D01*
X006780Y005018D01*
X006704Y004963D01*
X006637Y004896D01*
X006581Y004820D01*
X006538Y004735D01*
X006509Y004646D01*
X006494Y004552D01*
X006494Y004145D01*
X006494Y004187D02*
X000685Y004187D01*
X000685Y004029D02*
X007034Y004029D01*
X007094Y004085D02*
X007094Y003396D01*
X007783Y002707D01*
X010638Y002707D01*
X010809Y003236D02*
X010242Y003236D01*
X010179Y003173D02*
X010342Y003337D01*
X010430Y003550D01*
X010430Y004621D01*
X010342Y004834D01*
X010179Y004997D01*
X009966Y005085D01*
X009735Y005085D01*
X009522Y004997D01*
X009359Y004834D01*
X009270Y004621D01*
X009270Y003550D01*
X009359Y003337D01*
X009522Y003173D01*
X009735Y003085D01*
X009966Y003085D01*
X010179Y003173D01*
X010366Y003395D02*
X010693Y003395D01*
X010639Y003553D02*
X010430Y003553D01*
X010430Y003712D02*
X010628Y003712D01*
X010628Y003870D02*
X010430Y003870D01*
X010430Y004029D02*
X011168Y004029D01*
X011168Y004145D02*
X010628Y004145D01*
X010628Y004552D01*
X010643Y004646D01*
X010672Y004735D01*
X010715Y004820D01*
X010771Y004896D01*
X010837Y004963D01*
X010914Y005018D01*
X010998Y005061D01*
X011088Y005090D01*
X011168Y005103D01*
X011168Y004145D01*
X011168Y004187D02*
X011288Y004187D01*
X011288Y004346D02*
X011168Y004346D01*
X011168Y004504D02*
X011288Y004504D01*
X011288Y004663D02*
X011168Y004663D01*
X011168Y004821D02*
X011288Y004821D01*
X011288Y004980D02*
X011168Y004980D01*
X010861Y004980D02*
X010196Y004980D01*
X010347Y004821D02*
X010716Y004821D01*
X010649Y004663D02*
X010413Y004663D01*
X010430Y004504D02*
X010628Y004504D01*
X010628Y004346D02*
X010430Y004346D01*
X010430Y004187D02*
X010628Y004187D01*
X011168Y003870D02*
X011288Y003870D01*
X011288Y003712D02*
X011168Y003712D01*
X011168Y003553D02*
X011288Y003553D01*
X011288Y003395D02*
X011168Y003395D01*
X011168Y003236D02*
X011288Y003236D01*
X011648Y003236D02*
X012215Y003236D01*
X012090Y003395D02*
X011764Y003395D01*
X011818Y003553D02*
X012026Y003553D01*
X012026Y003712D02*
X011828Y003712D01*
X011828Y003870D02*
X012026Y003870D01*
X012998Y003236D02*
X013593Y003236D01*
X013468Y003395D02*
X013122Y003395D01*
X013186Y003553D02*
X013404Y003553D01*
X013404Y003712D02*
X013186Y003712D01*
X013186Y003870D02*
X013404Y003870D01*
X013404Y004029D02*
X013186Y004029D01*
X013186Y004187D02*
X013404Y004187D01*
X013404Y004346D02*
X013186Y004346D01*
X013186Y004504D02*
X013404Y004504D01*
X013422Y004663D02*
X013169Y004663D01*
X013103Y004821D02*
X013487Y004821D01*
X013369Y004980D02*
X012952Y004980D01*
X012826Y005138D02*
X013210Y005138D01*
X013052Y005297D02*
X012826Y005297D01*
X012826Y005455D02*
X012893Y005455D01*
X014547Y004663D02*
X014572Y004663D01*
X014564Y004504D02*
X014730Y004504D01*
X014889Y004346D02*
X014564Y004346D01*
X014564Y004187D02*
X015047Y004187D01*
X015201Y004029D02*
X014564Y004029D01*
X014564Y003870D02*
X015220Y003870D01*
X015327Y003712D02*
X014564Y003712D01*
X014564Y003553D02*
X015339Y003553D01*
X015339Y003395D02*
X014500Y003395D01*
X014376Y003236D02*
X015339Y003236D01*
X015779Y003236D02*
X016884Y003236D01*
X016914Y003078D02*
X015779Y003078D01*
X015938Y002919D02*
X016270Y002919D01*
X016158Y002761D02*
X016058Y002761D01*
X016058Y002602D02*
X016158Y002602D01*
X016158Y002444D02*
X016058Y002444D01*
X015909Y002285D02*
X016299Y002285D01*
X016608Y002285D02*
X016628Y002285D01*
X016628Y002444D02*
X016608Y002444D01*
X016608Y002602D02*
X016628Y002602D01*
X016618Y002617D02*
X016618Y002632D01*
X016608Y002761D02*
X016628Y002761D01*
X016628Y002919D02*
X016608Y002919D01*
X016348Y003395D02*
X015779Y003395D01*
X015779Y003553D02*
X016227Y003553D01*
X016190Y003712D02*
X015791Y003712D01*
X015898Y003870D02*
X016190Y003870D01*
X016190Y004029D02*
X015917Y004029D01*
X016777Y004980D02*
X017341Y004980D01*
X017398Y004821D02*
X019370Y004821D01*
X019370Y004663D02*
X018703Y004663D01*
X018694Y004667D02*
X018527Y004667D01*
X018372Y004603D01*
X018254Y004485D01*
X018190Y004330D01*
X018190Y003643D01*
X018254Y003489D01*
X018372Y003371D01*
X018527Y003307D01*
X018694Y003307D01*
X018848Y003371D01*
X018966Y003489D01*
X019030Y003643D01*
X019030Y004330D01*
X018966Y004485D01*
X018848Y004603D01*
X018694Y004667D01*
X018517Y004663D02*
X017703Y004663D01*
X017777Y004980D02*
X019370Y004980D01*
X019370Y005138D02*
X017984Y005138D01*
X018064Y005297D02*
X019370Y005297D01*
X019370Y005455D02*
X018089Y005455D01*
X018070Y005614D02*
X018862Y005614D01*
X019476Y005955D02*
X019610Y005821D01*
X019610Y003987D01*
X019190Y004029D02*
X019030Y004029D01*
X019030Y004187D02*
X019190Y004187D01*
X019197Y004346D02*
X019024Y004346D01*
X018947Y004504D02*
X019274Y004504D01*
X019850Y004663D02*
X020467Y004663D01*
X020610Y004663D02*
X020610Y004663D01*
X020753Y004663D02*
X020985Y004663D01*
X020985Y004821D02*
X019850Y004821D01*
X019850Y004980D02*
X020985Y004980D01*
X020985Y005138D02*
X019850Y005138D01*
X019850Y005297D02*
X020985Y005297D01*
X020985Y005455D02*
X019850Y005455D01*
X019850Y005614D02*
X020985Y005614D01*
X020985Y005772D02*
X019850Y005772D01*
X019825Y005931D02*
X020985Y005931D01*
X020985Y006089D02*
X019761Y006089D01*
X019761Y006248D02*
X020985Y006248D01*
X020985Y006406D02*
X018695Y006406D01*
X018537Y006565D02*
X020985Y006565D01*
X020985Y006723D02*
X018378Y006723D01*
X018234Y007516D02*
X018050Y007516D01*
X018058Y007674D02*
X018239Y007674D01*
X018214Y007833D02*
X018057Y007833D01*
X017992Y007991D02*
X018214Y007991D01*
X018214Y008150D02*
X017854Y008150D01*
X017552Y008308D02*
X018291Y008308D01*
X018592Y008308D02*
X018629Y008308D01*
X018629Y008150D02*
X018592Y008150D01*
X018592Y007991D02*
X018629Y007991D01*
X019007Y008150D02*
X020985Y008150D01*
X020985Y008308D02*
X018930Y008308D01*
X019063Y007963D02*
X019496Y007530D01*
X019496Y006940D01*
X017303Y005931D02*
X016815Y005931D01*
X016999Y005772D02*
X017119Y005772D01*
X017134Y005138D02*
X016984Y005138D01*
X017947Y004504D02*
X018274Y004504D01*
X018197Y004346D02*
X018024Y004346D01*
X018030Y004187D02*
X018190Y004187D01*
X018190Y004029D02*
X018030Y004029D01*
X018030Y003870D02*
X018190Y003870D01*
X018190Y003712D02*
X018030Y003712D01*
X018174Y003553D02*
X018227Y003553D01*
X018332Y003395D02*
X018348Y003395D01*
X018338Y003236D02*
X020985Y003236D01*
X020985Y003078D02*
X018338Y003078D01*
X018938Y002919D02*
X019299Y002919D01*
X019178Y002799D02*
X019436Y003057D01*
X019800Y003057D01*
X020058Y002799D01*
X020058Y002434D01*
X019800Y002177D01*
X019436Y002177D01*
X019178Y002434D01*
X019178Y002799D01*
X019178Y002761D02*
X019058Y002761D01*
X019058Y002602D02*
X019178Y002602D01*
X019178Y002444D02*
X019058Y002444D01*
X018909Y002285D02*
X019327Y002285D01*
X019436Y002057D02*
X019178Y001799D01*
X019178Y001434D01*
X019436Y001177D01*
X019800Y001177D01*
X020058Y001434D01*
X020058Y001799D01*
X019800Y002057D01*
X019436Y002057D01*
X019348Y001968D02*
X018917Y001968D01*
X018809Y002077D02*
X018628Y002077D01*
X018628Y001627D01*
X018608Y001627D01*
X018608Y002077D01*
X018428Y002077D01*
X018158Y001807D01*
X018158Y001627D01*
X018608Y001627D01*
X018608Y001607D01*
X018158Y001607D01*
X018158Y001426D01*
X018428Y001157D01*
X018608Y001157D01*
X018608Y001607D01*
X018628Y001607D01*
X018628Y001627D01*
X019078Y001627D01*
X019078Y001807D01*
X018809Y002077D01*
X018628Y001968D02*
X018608Y001968D01*
X018608Y001810D02*
X018628Y001810D01*
X018628Y001651D02*
X018608Y001651D01*
X018628Y001607D02*
X019078Y001607D01*
X019078Y001426D01*
X018809Y001157D01*
X018628Y001157D01*
X018628Y001607D01*
X018628Y001493D02*
X018608Y001493D01*
X018608Y001334D02*
X018628Y001334D01*
X018628Y001176D02*
X018608Y001176D01*
X018408Y001176D02*
X000685Y001176D01*
X000685Y001334D02*
X015278Y001334D01*
X015178Y001434D02*
X015436Y001177D01*
X015800Y001177D01*
X016058Y001434D01*
X016058Y001799D01*
X015800Y002057D01*
X015436Y002057D01*
X015178Y001799D01*
X015178Y001434D01*
X015178Y001493D02*
X000685Y001493D01*
X000685Y001651D02*
X015178Y001651D01*
X015189Y001810D02*
X000685Y001810D01*
X000685Y001968D02*
X015348Y001968D01*
X015327Y002285D02*
X000685Y002285D01*
X000685Y002127D02*
X016817Y002127D01*
X017122Y001810D02*
X017189Y001810D01*
X017178Y001651D02*
X017058Y001651D01*
X017058Y001493D02*
X017178Y001493D01*
X017278Y001334D02*
X016958Y001334D01*
X016278Y001334D02*
X015958Y001334D01*
X016058Y001493D02*
X016178Y001493D01*
X016178Y001651D02*
X016058Y001651D01*
X016047Y001810D02*
X016189Y001810D01*
X016348Y001968D02*
X015889Y001968D01*
X017297Y001968D02*
X017348Y001968D01*
X017354Y002127D02*
X017817Y002127D01*
X018122Y001810D02*
X018161Y001810D01*
X018158Y001651D02*
X018058Y001651D01*
X018058Y001493D02*
X018158Y001493D01*
X018250Y001334D02*
X017958Y001334D01*
X018281Y001968D02*
X018319Y001968D01*
X018338Y002127D02*
X020985Y002127D01*
X020985Y002285D02*
X020909Y002285D01*
X020889Y001968D02*
X020985Y001968D01*
X020348Y001968D02*
X019889Y001968D01*
X020047Y001810D02*
X020222Y001810D01*
X020178Y001651D02*
X020058Y001651D01*
X020058Y001493D02*
X020193Y001493D01*
X020278Y001334D02*
X019958Y001334D01*
X019278Y001334D02*
X018986Y001334D01*
X019078Y001493D02*
X019178Y001493D01*
X019178Y001651D02*
X019078Y001651D01*
X019075Y001810D02*
X019189Y001810D01*
X018828Y001176D02*
X020985Y001176D01*
X020985Y001334D02*
X020958Y001334D01*
X020327Y002285D02*
X019909Y002285D01*
X020058Y002444D02*
X020178Y002444D01*
X020178Y002602D02*
X020058Y002602D01*
X020058Y002761D02*
X020178Y002761D01*
X020299Y002919D02*
X019938Y002919D01*
X019872Y003395D02*
X020320Y003395D01*
X020205Y003553D02*
X019993Y003553D01*
X020030Y003712D02*
X020170Y003712D01*
X020170Y003870D02*
X020030Y003870D01*
X020030Y004029D02*
X020170Y004029D01*
X020170Y004187D02*
X020030Y004187D01*
X020024Y004346D02*
X020180Y004346D01*
X020254Y004504D02*
X019947Y004504D01*
X020610Y004504D02*
X020610Y004504D01*
X020610Y004346D02*
X020610Y004346D01*
X020610Y004187D02*
X020610Y004187D01*
X020610Y004029D02*
X020610Y004029D01*
X020610Y003870D02*
X020610Y003870D01*
X020610Y003712D02*
X020610Y003712D01*
X020610Y003553D02*
X020610Y003553D01*
X020610Y003395D02*
X020610Y003395D01*
X020901Y003395D02*
X020985Y003395D01*
X020985Y002919D02*
X020938Y002919D01*
X020967Y004504D02*
X020985Y004504D01*
X019348Y003395D02*
X018872Y003395D01*
X018993Y003553D02*
X019227Y003553D01*
X019190Y003712D02*
X019030Y003712D01*
X019030Y003870D02*
X019190Y003870D01*
X017412Y010052D02*
X020985Y010052D01*
X020985Y010210D02*
X017407Y010210D01*
X017392Y010369D02*
X020985Y010369D01*
X020985Y010527D02*
X017392Y010527D01*
X017392Y010686D02*
X020985Y010686D01*
X020985Y010844D02*
X017392Y010844D01*
X017275Y011003D02*
X020985Y011003D01*
X020985Y011161D02*
X017378Y011161D01*
X017394Y011320D02*
X020985Y011320D01*
X020985Y011478D02*
X017334Y011478D01*
X016980Y011637D02*
X020985Y011637D01*
X020985Y011795D02*
X016821Y011795D01*
X015536Y013380D02*
X015424Y013380D01*
X015424Y013539D02*
X015536Y013539D01*
X015608Y013697D02*
X015424Y013697D01*
X015424Y013856D02*
X015767Y013856D01*
X016088Y014014D02*
X015424Y014014D01*
X015625Y014284D02*
X015625Y014284D01*
X015672Y014331D02*
X020985Y014331D01*
X020985Y014173D02*
X010927Y014173D01*
X010837Y014014D02*
X011719Y014014D01*
X011654Y013856D02*
X010837Y013856D01*
X010837Y013697D02*
X011495Y013697D01*
X011868Y013731D02*
X011425Y013288D01*
X011278Y013288D01*
X011022Y013539D02*
X010830Y013539D01*
X010933Y013534D02*
X010933Y013485D01*
X010687Y013239D01*
X010490Y013239D01*
X010499Y013025D02*
X010499Y012667D01*
X010877Y012667D01*
X010877Y012869D01*
X010865Y012914D01*
X010841Y012956D01*
X010807Y012989D01*
X010766Y013013D01*
X010721Y013025D01*
X010499Y013025D01*
X010499Y012905D02*
X010462Y012905D01*
X010462Y012746D02*
X010499Y012746D01*
X010877Y012746D02*
X011698Y012746D01*
X011698Y012588D02*
X010877Y012588D01*
X010877Y012429D02*
X011752Y012429D01*
X012075Y012747D02*
X012075Y013731D01*
X011868Y013731D01*
X011720Y014321D02*
X010933Y013534D01*
X010928Y013380D02*
X010051Y013380D01*
X010051Y013222D02*
X010919Y013222D01*
X010996Y013063D02*
X010051Y013063D01*
X009811Y012648D02*
X009811Y013829D01*
X009462Y013539D02*
X009452Y013539D01*
X009457Y013544D02*
X009548Y013453D01*
X009571Y013453D01*
X009571Y013005D01*
X009528Y013005D01*
X009469Y012946D01*
X009463Y012956D01*
X009429Y012989D01*
X009388Y013013D01*
X009343Y013025D01*
X009121Y013025D01*
X009121Y012667D01*
X009084Y012667D01*
X009084Y013025D01*
X008862Y013025D01*
X008816Y013013D01*
X008775Y012989D01*
X008754Y012967D01*
X008716Y013005D01*
X008673Y013005D01*
X008673Y013453D01*
X008696Y013453D01*
X008768Y013524D01*
X008839Y013453D01*
X009365Y013453D01*
X009457Y013544D01*
X009571Y013380D02*
X008673Y013380D01*
X008673Y013222D02*
X009571Y013222D01*
X009571Y013063D02*
X008673Y013063D01*
X009084Y012905D02*
X009121Y012905D01*
X009121Y012746D02*
X009084Y012746D01*
X009084Y012630D02*
X009121Y012630D01*
X009121Y012271D01*
X009343Y012271D01*
X009388Y012284D01*
X009429Y012307D01*
X009463Y012341D01*
X009469Y012351D01*
X009528Y012291D01*
X009601Y012291D01*
X009713Y012179D01*
X008859Y012179D01*
X008731Y012307D01*
X008754Y012329D01*
X008775Y012307D01*
X008816Y012284D01*
X008862Y012271D01*
X009084Y012271D01*
X009084Y012630D01*
X009084Y012588D02*
X009121Y012588D01*
X009121Y012429D02*
X009084Y012429D01*
X008767Y012271D02*
X009621Y012271D01*
X008955Y011478D02*
X011693Y011478D01*
X011845Y011320D02*
X008967Y011320D01*
X008967Y011161D02*
X011845Y011161D01*
X011845Y011003D02*
X008967Y011003D01*
X008908Y010844D02*
X011845Y010844D01*
X013095Y012429D02*
X013100Y012429D01*
X013155Y012484D02*
X013155Y012484D01*
X013141Y012588D02*
X013259Y012588D01*
X012744Y013731D02*
X012754Y013741D01*
X012754Y014075D01*
X012508Y014321D01*
X011720Y014321D01*
X011086Y014331D02*
X012749Y014331D01*
X013000Y014420D02*
X015421Y014420D01*
X016701Y015699D01*
X016701Y017077D01*
X016996Y017373D01*
X016285Y017343D02*
X015110Y017343D01*
X015110Y017501D02*
X016285Y017501D01*
X016285Y017660D02*
X015110Y017660D01*
X015110Y017818D02*
X016285Y017818D01*
X016285Y017977D02*
X015110Y017977D01*
X015110Y018135D02*
X017603Y018135D01*
X017599Y018125D02*
X017599Y018084D01*
X016379Y018084D01*
X016285Y017990D01*
X016285Y016755D01*
X016379Y016661D01*
X016461Y016661D01*
X016461Y016076D01*
X016438Y016076D01*
X016344Y015982D01*
X016344Y015682D01*
X015322Y014660D01*
X013286Y014660D01*
X013400Y014707D01*
X013500Y014808D01*
X013555Y014939D01*
X013555Y015082D01*
X013500Y015213D01*
X013400Y015314D01*
X013325Y015345D01*
X013396Y015417D01*
X013396Y015459D01*
X013647Y015459D01*
X013647Y015298D01*
X013741Y015205D01*
X014976Y015205D01*
X015069Y015298D01*
X015069Y016248D01*
X015074Y016252D01*
X015110Y016341D01*
X015110Y018601D01*
X015074Y018690D01*
X015056Y018707D01*
X018081Y018707D01*
X017952Y018654D01*
X017723Y018425D01*
X017599Y018125D01*
X017669Y018294D02*
X015110Y018294D01*
X015110Y018452D02*
X017751Y018452D01*
X017909Y018611D02*
X015106Y018611D01*
X014870Y018554D02*
X014870Y016428D01*
X014358Y015916D01*
X014142Y015699D01*
X013039Y015699D01*
X013039Y015168D01*
X013197Y015010D01*
X013537Y015124D02*
X015786Y015124D01*
X015944Y015282D02*
X015053Y015282D01*
X015069Y015441D02*
X016103Y015441D01*
X016261Y015599D02*
X015069Y015599D01*
X015069Y015758D02*
X016344Y015758D01*
X016344Y015916D02*
X015069Y015916D01*
X015069Y016075D02*
X016437Y016075D01*
X016461Y016233D02*
X015069Y016233D01*
X015110Y016392D02*
X016461Y016392D01*
X016461Y016550D02*
X015110Y016550D01*
X015110Y016709D02*
X016331Y016709D01*
X016285Y016867D02*
X015110Y016867D01*
X015110Y017026D02*
X016285Y017026D01*
X016285Y017184D02*
X015110Y017184D01*
X014870Y016388D02*
X014811Y016329D01*
X014811Y015463D01*
X014358Y015916D01*
X013647Y015441D02*
X013396Y015441D01*
X013431Y015282D02*
X013663Y015282D01*
X013555Y014965D02*
X015627Y014965D01*
X015469Y014807D02*
X013500Y014807D01*
X013000Y014420D02*
X012705Y014715D01*
X011130Y014715D01*
X010480Y014065D01*
X010480Y013829D01*
X010441Y014617D02*
X009457Y014617D01*
X009102Y014262D01*
X009102Y013829D01*
X008768Y014134D02*
X008696Y014206D01*
X008170Y014206D01*
X008079Y014115D01*
X007988Y014206D01*
X007964Y014206D01*
X007964Y015285D01*
X008002Y015323D01*
X008302Y015323D01*
X008374Y015394D01*
X008446Y015323D01*
X008972Y015323D01*
X009066Y015417D01*
X009066Y015459D01*
X009316Y015459D01*
X009316Y015298D01*
X009410Y015205D01*
X010645Y015205D01*
X010739Y015298D01*
X010739Y016533D01*
X010720Y016552D01*
X010720Y018464D01*
X010684Y018552D01*
X010616Y018619D01*
X010528Y018707D01*
X013751Y018707D01*
X013621Y018654D01*
X013392Y018425D01*
X013268Y018125D01*
X013268Y018084D01*
X012048Y018084D01*
X011954Y017990D01*
X011954Y016755D01*
X012048Y016661D01*
X012130Y016661D01*
X012130Y016076D01*
X012107Y016076D01*
X012013Y015982D01*
X012013Y015939D01*
X011476Y015939D01*
X011388Y015903D01*
X011320Y015835D01*
X010342Y014857D01*
X009409Y014857D01*
X009321Y014820D01*
X008966Y014466D01*
X008899Y014398D01*
X008862Y014310D01*
X008862Y014206D01*
X008839Y014206D01*
X008768Y014134D01*
X008806Y014173D02*
X008729Y014173D01*
X008871Y014331D02*
X007964Y014331D01*
X007964Y014490D02*
X008991Y014490D01*
X009149Y014648D02*
X007964Y014648D01*
X007964Y014807D02*
X009308Y014807D01*
X009332Y015282D02*
X007964Y015282D01*
X007964Y015124D02*
X010609Y015124D01*
X010723Y015282D02*
X010767Y015282D01*
X010739Y015441D02*
X010926Y015441D01*
X011084Y015599D02*
X010739Y015599D01*
X010739Y015758D02*
X011243Y015758D01*
X011420Y015916D02*
X010739Y015916D01*
X010739Y016075D02*
X012106Y016075D01*
X012130Y016233D02*
X010739Y016233D01*
X010739Y016392D02*
X012130Y016392D01*
X012130Y016550D02*
X010722Y016550D01*
X010720Y016709D02*
X012000Y016709D01*
X011954Y016867D02*
X010720Y016867D01*
X010720Y017026D02*
X011954Y017026D01*
X011954Y017184D02*
X010720Y017184D01*
X010720Y017343D02*
X011954Y017343D01*
X011954Y017501D02*
X010720Y017501D01*
X010720Y017660D02*
X011954Y017660D01*
X011954Y017818D02*
X010720Y017818D01*
X010720Y017977D02*
X011954Y017977D01*
X012665Y017373D02*
X012370Y017077D01*
X012370Y015699D01*
X011524Y015699D01*
X010441Y014617D01*
X010450Y014965D02*
X007964Y014965D01*
X007484Y014965D02*
X005806Y014965D01*
X005964Y014807D02*
X007484Y014807D01*
X007484Y014648D02*
X006123Y014648D01*
X006281Y014490D02*
X007484Y014490D01*
X007484Y014331D02*
X006440Y014331D01*
X006511Y014260D02*
X004956Y015815D01*
X005028Y015886D01*
X005099Y015815D01*
X005625Y015815D01*
X005719Y015909D01*
X005719Y016209D01*
X006049Y016539D01*
X006117Y016607D01*
X006153Y016695D01*
X006153Y018039D01*
X006373Y018039D01*
X006467Y018133D01*
X006467Y019210D01*
X006373Y019304D01*
X005453Y019304D01*
X005360Y019210D01*
X005360Y018133D01*
X005453Y018039D01*
X005673Y018039D01*
X005673Y016842D01*
X005399Y016568D01*
X005099Y016568D01*
X005028Y016496D01*
X004956Y016568D01*
X004430Y016568D01*
X004336Y016474D01*
X004336Y016431D01*
X004144Y016431D01*
X004144Y016474D01*
X004051Y016568D01*
X003524Y016568D01*
X003453Y016496D01*
X003397Y016552D01*
X003397Y016978D01*
X005065Y018645D01*
X005133Y018713D01*
X005169Y018801D01*
X005169Y019242D01*
X005521Y019593D01*
X007782Y019593D01*
X008131Y019244D01*
X008199Y019177D01*
X008632Y018744D01*
X008720Y018707D01*
X009420Y018707D01*
X009291Y018654D01*
X009061Y018425D01*
X008937Y018125D01*
X008937Y018084D01*
X007717Y018084D01*
X007623Y017990D01*
X007623Y016755D01*
X007717Y016661D01*
X007799Y016661D01*
X007799Y016076D01*
X007776Y016076D01*
X007683Y015982D01*
X007683Y015682D01*
X007521Y015520D01*
X007484Y015432D01*
X007484Y014206D01*
X007461Y014206D01*
X007390Y014134D01*
X007318Y014206D01*
X006792Y014206D01*
X006701Y014115D01*
X006610Y014206D01*
X006533Y014206D01*
X006511Y014260D01*
X006642Y014173D02*
X006759Y014173D01*
X007055Y013829D02*
X007055Y012648D01*
X007376Y012329D02*
X007397Y012307D01*
X007438Y012284D01*
X007484Y012271D01*
X007706Y012271D01*
X007706Y012630D01*
X007743Y012630D01*
X007743Y012271D01*
X007965Y012271D01*
X008010Y012284D01*
X008051Y012307D01*
X008085Y012341D01*
X008091Y012351D01*
X008150Y012291D01*
X008213Y012291D01*
X008213Y012203D01*
X008342Y012074D01*
X008433Y011982D01*
X007678Y011982D01*
X007353Y012307D01*
X007376Y012329D01*
X007389Y012271D02*
X008213Y012271D01*
X008303Y012112D02*
X007548Y012112D01*
X007706Y012429D02*
X007743Y012429D01*
X007743Y012588D02*
X007706Y012588D01*
X007706Y012667D02*
X007706Y013025D01*
X007484Y013025D01*
X007438Y013013D01*
X007397Y012989D01*
X007376Y012967D01*
X007338Y013005D01*
X007295Y013005D01*
X007295Y013453D01*
X007318Y013453D01*
X007390Y013524D01*
X007461Y013453D01*
X007988Y013453D01*
X008079Y013544D01*
X008170Y013453D01*
X008193Y013453D01*
X008193Y013005D01*
X008150Y013005D01*
X008091Y012946D01*
X008085Y012956D01*
X008051Y012989D01*
X008010Y013013D01*
X007965Y013025D01*
X007743Y013025D01*
X007743Y012667D01*
X007706Y012667D01*
X007706Y012746D02*
X007743Y012746D01*
X007743Y012905D02*
X007706Y012905D01*
X007295Y013063D02*
X008193Y013063D01*
X008193Y013222D02*
X007295Y013222D01*
X007295Y013380D02*
X008193Y013380D01*
X008084Y013539D02*
X008074Y013539D01*
X007724Y013829D02*
X007724Y015384D01*
X008039Y015699D01*
X008039Y017077D01*
X008335Y017373D01*
X007670Y016709D02*
X006153Y016709D01*
X006153Y016867D02*
X007623Y016867D01*
X007623Y017026D02*
X006153Y017026D01*
X006153Y017184D02*
X007623Y017184D01*
X007623Y017343D02*
X006153Y017343D01*
X006153Y017501D02*
X007623Y017501D01*
X007623Y017660D02*
X006153Y017660D01*
X006153Y017818D02*
X007623Y017818D01*
X007623Y017977D02*
X006153Y017977D01*
X006467Y018135D02*
X008942Y018135D01*
X009007Y018294D02*
X006467Y018294D01*
X006467Y018452D02*
X009089Y018452D01*
X009248Y018611D02*
X006467Y018611D01*
X006467Y018769D02*
X008606Y018769D01*
X008448Y018928D02*
X006467Y018928D01*
X006467Y019086D02*
X008289Y019086D01*
X008199Y019177D02*
X008199Y019177D01*
X008131Y019244D02*
X008131Y019244D01*
X008131Y019245D02*
X006433Y019245D01*
X005913Y018672D02*
X005913Y016743D01*
X005362Y016191D01*
X005719Y016075D02*
X007775Y016075D01*
X007799Y016233D02*
X005744Y016233D01*
X005902Y016392D02*
X007799Y016392D01*
X007799Y016550D02*
X006061Y016550D01*
X005673Y016867D02*
X003397Y016867D01*
X003397Y016709D02*
X005540Y016709D01*
X005673Y017026D02*
X003445Y017026D01*
X003604Y017184D02*
X005673Y017184D01*
X005673Y017343D02*
X003762Y017343D01*
X003921Y017501D02*
X005673Y017501D01*
X005673Y017660D02*
X004079Y017660D01*
X004238Y017818D02*
X005673Y017818D01*
X005673Y017977D02*
X004396Y017977D01*
X004555Y018135D02*
X005360Y018135D01*
X005360Y018294D02*
X004713Y018294D01*
X004872Y018452D02*
X005360Y018452D01*
X005360Y018611D02*
X005030Y018611D01*
X005156Y018769D02*
X005360Y018769D01*
X005360Y018928D02*
X005169Y018928D01*
X005169Y019086D02*
X005360Y019086D01*
X005394Y019245D02*
X005172Y019245D01*
X005331Y019403D02*
X007972Y019403D01*
X007814Y019562D02*
X005489Y019562D01*
X005421Y019833D02*
X007882Y019833D01*
X008335Y019380D01*
X008335Y021152D01*
X008575Y020559D02*
X008937Y020559D01*
X008937Y020557D01*
X009061Y020258D01*
X009291Y020028D01*
X009590Y019904D01*
X009914Y019904D01*
X010213Y020028D01*
X010443Y020258D01*
X010458Y020295D01*
X010458Y019865D01*
X010552Y019772D01*
X011787Y019772D01*
X011880Y019865D01*
X011880Y020864D01*
X011787Y020958D01*
X010552Y020958D01*
X010540Y020946D01*
X010443Y021180D01*
X010213Y021410D01*
X009914Y021534D01*
X009590Y021534D01*
X009291Y021410D01*
X009061Y021180D01*
X009046Y021143D01*
X009046Y021651D01*
X008982Y021715D01*
X012018Y021715D01*
X011954Y021651D01*
X011954Y020653D01*
X012048Y020559D01*
X012425Y020559D01*
X012425Y019333D01*
X012462Y019244D01*
X012519Y019187D01*
X008867Y019187D01*
X008575Y019480D01*
X008575Y020559D01*
X008575Y020513D02*
X008956Y020513D01*
X009021Y020354D02*
X008575Y020354D01*
X008575Y020196D02*
X009123Y020196D01*
X009282Y020037D02*
X008575Y020037D01*
X008575Y019879D02*
X010458Y019879D01*
X010458Y020037D02*
X010222Y020037D01*
X010381Y020196D02*
X010458Y020196D01*
X010522Y020988D02*
X011954Y020988D01*
X011954Y020830D02*
X011880Y020830D01*
X011880Y020671D02*
X011954Y020671D01*
X011880Y020513D02*
X012425Y020513D01*
X012425Y020354D02*
X011880Y020354D01*
X011880Y020196D02*
X012425Y020196D01*
X012425Y020037D02*
X011880Y020037D01*
X011880Y019879D02*
X012425Y019879D01*
X012425Y019720D02*
X008575Y019720D01*
X008575Y019562D02*
X012425Y019562D01*
X012425Y019403D02*
X008651Y019403D01*
X008810Y019245D02*
X012462Y019245D01*
X012665Y019380D02*
X012665Y021152D01*
X013020Y021506D01*
X013313Y021715D02*
X016349Y021715D01*
X016285Y021651D01*
X016285Y020653D01*
X016379Y020559D01*
X016756Y020559D01*
X016756Y019333D01*
X016793Y019244D01*
X016850Y019187D01*
X013198Y019187D01*
X012905Y019480D01*
X012905Y020559D01*
X013268Y020559D01*
X013268Y020557D01*
X013392Y020258D01*
X013621Y020028D01*
X013921Y019904D01*
X014245Y019904D01*
X014544Y020028D01*
X014773Y020258D01*
X014789Y020295D01*
X014789Y019865D01*
X014883Y019772D01*
X016117Y019772D01*
X016211Y019865D01*
X016211Y020864D01*
X016117Y020958D01*
X014883Y020958D01*
X014871Y020946D01*
X014773Y021180D01*
X014544Y021410D01*
X014245Y021534D01*
X013921Y021534D01*
X013621Y021410D01*
X013392Y021180D01*
X013377Y021143D01*
X013377Y021651D01*
X013313Y021715D01*
X013377Y021622D02*
X016285Y021622D01*
X016285Y021464D02*
X014413Y021464D01*
X014648Y021305D02*
X016285Y021305D01*
X016285Y021147D02*
X014787Y021147D01*
X014853Y020988D02*
X016285Y020988D01*
X016285Y020830D02*
X016211Y020830D01*
X016211Y020671D02*
X016285Y020671D01*
X016211Y020513D02*
X016756Y020513D01*
X016756Y020354D02*
X016211Y020354D01*
X016211Y020196D02*
X016756Y020196D01*
X016756Y020037D02*
X016211Y020037D01*
X016211Y019879D02*
X016756Y019879D01*
X016756Y019720D02*
X012905Y019720D01*
X012905Y019562D02*
X016756Y019562D01*
X016756Y019403D02*
X012982Y019403D01*
X013140Y019245D02*
X016792Y019245D01*
X016996Y019380D02*
X016996Y021152D01*
X017236Y020513D02*
X017617Y020513D01*
X017683Y020354D02*
X017236Y020354D01*
X017236Y020196D02*
X017784Y020196D01*
X017943Y020037D02*
X017236Y020037D01*
X017236Y019879D02*
X019120Y019879D01*
X019120Y020037D02*
X018884Y020037D01*
X019042Y020196D02*
X019120Y020196D01*
X019184Y020988D02*
X020985Y020988D01*
X020985Y020830D02*
X020542Y020830D01*
X020542Y020671D02*
X020985Y020671D01*
X020985Y020513D02*
X020542Y020513D01*
X020542Y020354D02*
X020985Y020354D01*
X020985Y020196D02*
X020542Y020196D01*
X020542Y020037D02*
X020985Y020037D01*
X020985Y019879D02*
X020542Y019879D01*
X020985Y019720D02*
X017236Y019720D01*
X017236Y019562D02*
X020985Y019562D01*
X020985Y019403D02*
X017313Y019403D01*
X017471Y019245D02*
X020985Y019245D01*
X020985Y019086D02*
X019007Y019086D01*
X019166Y018928D02*
X020985Y018928D01*
X020985Y018769D02*
X019324Y018769D01*
X019437Y018611D02*
X020985Y018611D01*
X020985Y018452D02*
X019441Y018452D01*
X019441Y018294D02*
X020985Y018294D01*
X020985Y018135D02*
X019441Y018135D01*
X019441Y017977D02*
X020985Y017977D01*
X020985Y017818D02*
X019441Y017818D01*
X019441Y017660D02*
X020985Y017660D01*
X020985Y017501D02*
X019441Y017501D01*
X019441Y017343D02*
X020985Y017343D01*
X020985Y017184D02*
X019441Y017184D01*
X019441Y017026D02*
X020985Y017026D01*
X020985Y016867D02*
X019441Y016867D01*
X019441Y016709D02*
X020985Y016709D01*
X020985Y016550D02*
X019441Y016550D01*
X019441Y016392D02*
X020985Y016392D01*
X020985Y016233D02*
X019400Y016233D01*
X019400Y016075D02*
X020985Y016075D01*
X020985Y015916D02*
X019400Y015916D01*
X019400Y015758D02*
X020985Y015758D01*
X020985Y015599D02*
X019400Y015599D01*
X019400Y015441D02*
X020985Y015441D01*
X020985Y015282D02*
X019384Y015282D01*
X018728Y015916D02*
X018689Y015916D01*
X019201Y016428D01*
X019201Y018554D01*
X018807Y018947D01*
X017429Y018947D01*
X016996Y019380D01*
X017429Y018947D02*
X014476Y018947D01*
X013098Y018947D01*
X012665Y019380D01*
X012905Y019879D02*
X014789Y019879D01*
X014789Y020037D02*
X014553Y020037D01*
X014712Y020196D02*
X014789Y020196D01*
X013612Y020037D02*
X012905Y020037D01*
X012905Y020196D02*
X013454Y020196D01*
X013352Y020354D02*
X012905Y020354D01*
X012905Y020513D02*
X013286Y020513D01*
X013377Y021147D02*
X013378Y021147D01*
X013377Y021305D02*
X013517Y021305D01*
X013377Y021464D02*
X013752Y021464D01*
X012665Y021152D02*
X012311Y021506D01*
X011954Y021464D02*
X010082Y021464D01*
X010318Y021305D02*
X011954Y021305D01*
X011954Y021147D02*
X010457Y021147D01*
X009421Y021464D02*
X009046Y021464D01*
X009046Y021622D02*
X011954Y021622D01*
X009186Y021305D02*
X009046Y021305D01*
X009046Y021147D02*
X009047Y021147D01*
X008095Y020559D02*
X008095Y019960D01*
X008018Y020037D01*
X007930Y020073D01*
X005374Y020073D01*
X005285Y020037D01*
X005218Y019969D01*
X004726Y019477D01*
X004689Y019389D01*
X004689Y018948D01*
X003167Y017427D01*
X002136Y018457D01*
X002136Y019210D01*
X002043Y019304D01*
X001823Y019304D01*
X001823Y020480D01*
X002043Y020480D01*
X002136Y020574D01*
X002136Y021651D01*
X002072Y021715D01*
X003226Y021715D01*
X003074Y021563D01*
X002953Y021271D01*
X002953Y020955D01*
X003074Y020662D01*
X003298Y020439D01*
X003590Y020318D01*
X003906Y020318D01*
X004198Y020439D01*
X004422Y020662D01*
X004543Y020955D01*
X004543Y021271D01*
X004422Y021563D01*
X004270Y021715D01*
X005424Y021715D01*
X005360Y021651D01*
X005360Y020574D01*
X005453Y020480D01*
X006373Y020480D01*
X006467Y020574D01*
X006467Y021651D01*
X006403Y021715D01*
X007687Y021715D01*
X007623Y021651D01*
X007623Y020653D01*
X007717Y020559D01*
X008095Y020559D01*
X008095Y020513D02*
X006406Y020513D01*
X006467Y020671D02*
X007623Y020671D01*
X007623Y020830D02*
X006467Y020830D01*
X006467Y020988D02*
X007623Y020988D01*
X007623Y021147D02*
X006467Y021147D01*
X006467Y021305D02*
X007623Y021305D01*
X007623Y021464D02*
X006467Y021464D01*
X006467Y021622D02*
X007623Y021622D01*
X008095Y020354D02*
X003995Y020354D01*
X003914Y020175D02*
X003582Y020175D01*
X003275Y020048D01*
X003041Y019814D01*
X002914Y019507D01*
X002914Y019175D01*
X003041Y018868D01*
X003275Y018634D01*
X003582Y018507D01*
X003914Y018507D01*
X004221Y018634D01*
X004455Y018868D01*
X004582Y019175D01*
X004582Y019507D01*
X004455Y019814D01*
X004221Y020048D01*
X003914Y020175D01*
X003501Y020354D02*
X001823Y020354D01*
X001823Y020196D02*
X008095Y020196D01*
X008095Y020037D02*
X008016Y020037D01*
X008335Y019380D02*
X008768Y018947D01*
X009949Y018947D01*
X010480Y018416D01*
X010480Y016369D01*
X010481Y016369D02*
X010479Y016327D01*
X010473Y016286D01*
X010464Y016245D01*
X010450Y016205D01*
X010434Y016167D01*
X010413Y016131D01*
X010390Y016096D01*
X010363Y016064D01*
X010333Y016034D01*
X010301Y016007D01*
X010266Y015984D01*
X010230Y015963D01*
X010192Y015947D01*
X010152Y015933D01*
X010111Y015924D01*
X010070Y015918D01*
X010028Y015916D01*
X009811Y015699D01*
X008709Y015699D01*
X009066Y015441D02*
X009316Y015441D01*
X008137Y014173D02*
X008020Y014173D01*
X008433Y013829D02*
X008433Y012648D01*
X008234Y011542D02*
X007825Y011542D01*
X007829Y011538D01*
X007853Y011497D01*
X007865Y011451D01*
X007865Y011230D01*
X007507Y011230D01*
X007507Y011193D01*
X007865Y011193D01*
X007865Y010971D01*
X007853Y010925D01*
X007829Y010884D01*
X007807Y010862D01*
X007845Y010825D01*
X007845Y010752D01*
X008194Y010752D01*
X008194Y010805D01*
X008254Y010864D01*
X008244Y010870D01*
X008210Y010904D01*
X008187Y010945D01*
X008174Y010991D01*
X008174Y011193D01*
X008552Y011193D01*
X008552Y011230D01*
X008174Y011230D01*
X008174Y011432D01*
X008187Y011477D01*
X008210Y011519D01*
X008234Y011542D01*
X008187Y011478D02*
X007858Y011478D01*
X007865Y011320D02*
X008174Y011320D01*
X008174Y011161D02*
X007865Y011161D01*
X007865Y011003D02*
X008174Y011003D01*
X008234Y010844D02*
X007825Y010844D01*
X007796Y010210D02*
X008263Y010210D01*
X008361Y010052D02*
X005897Y010052D01*
X005897Y010210D02*
X007180Y010210D01*
X007131Y010369D02*
X005897Y010369D01*
X005897Y010527D02*
X007131Y010527D01*
X007131Y010686D02*
X005897Y010686D01*
X005897Y010844D02*
X007151Y010844D01*
X007111Y011003D02*
X005897Y011003D01*
X005897Y011161D02*
X007111Y011161D01*
X007111Y011320D02*
X005897Y011320D01*
X005897Y011478D02*
X007119Y011478D01*
X007401Y011637D02*
X005897Y011637D01*
X005897Y011795D02*
X007242Y011795D01*
X007084Y011954D02*
X005897Y011954D01*
X005897Y012112D02*
X006925Y012112D01*
X006835Y012271D02*
X005897Y012271D01*
X005677Y012648D02*
X005677Y013829D01*
X005320Y013856D02*
X004518Y013856D01*
X004518Y014014D02*
X005320Y014014D01*
X005381Y014173D02*
X003204Y014173D01*
X003204Y014127D02*
X003204Y014236D01*
X003129Y014417D01*
X003471Y014417D01*
X003471Y014911D01*
X002879Y014911D01*
X002879Y014679D01*
X002678Y014762D01*
X002417Y014762D01*
X002175Y014662D01*
X002048Y014535D01*
X002058Y014573D01*
X002058Y014911D01*
X001466Y014911D01*
X001466Y015071D01*
X001306Y015071D01*
X001306Y015564D01*
X000870Y015564D01*
X000824Y015552D01*
X000783Y015528D01*
X000750Y015495D01*
X000726Y015454D01*
X000714Y015408D01*
X000714Y015071D01*
X001306Y015071D01*
X001306Y014911D01*
X000714Y014911D01*
X000714Y014573D01*
X000726Y014528D01*
X000750Y014486D01*
X000783Y014453D01*
X000824Y014429D01*
X000870Y014417D01*
X001306Y014417D01*
X001306Y014911D01*
X001466Y014911D01*
X001466Y014417D01*
X001902Y014417D01*
X001947Y014429D01*
X001977Y014447D01*
X001890Y014236D01*
X001890Y013974D01*
X001990Y013733D01*
X002159Y013564D01*
X001939Y013344D01*
X001939Y013344D01*
X001871Y013276D01*
X001835Y013188D01*
X001835Y012207D01*
X001871Y012119D01*
X001939Y012051D01*
X001940Y012050D01*
X001902Y012060D01*
X001466Y012060D01*
X001466Y011567D01*
X002058Y011567D01*
X002058Y011637D02*
X002229Y011637D01*
X002194Y011795D02*
X002058Y011795D01*
X001877Y012112D02*
X000685Y012112D01*
X000685Y011954D02*
X000728Y011954D01*
X000714Y011795D02*
X000685Y011795D01*
X000685Y011637D02*
X000714Y011637D01*
X000685Y011478D02*
X001306Y011478D01*
X001306Y011320D02*
X001466Y011320D01*
X001466Y011161D02*
X001306Y011161D01*
X001306Y011003D02*
X001466Y011003D01*
X001251Y010686D02*
X002160Y010686D01*
X002110Y010844D02*
X000685Y010844D01*
X000685Y011003D02*
X000738Y011003D01*
X000714Y011161D02*
X000685Y011161D01*
X000685Y011320D02*
X000714Y011320D01*
X001306Y011637D02*
X001466Y011637D01*
X001466Y011795D02*
X001306Y011795D01*
X001306Y011954D02*
X001466Y011954D01*
X001835Y012271D02*
X000685Y012271D01*
X000685Y012429D02*
X001835Y012429D01*
X001835Y012588D02*
X000685Y012588D01*
X000685Y012746D02*
X001835Y012746D01*
X001835Y012905D02*
X000685Y012905D01*
X000685Y013063D02*
X001835Y013063D01*
X001849Y013222D02*
X000685Y013222D01*
X000685Y013380D02*
X001975Y013380D01*
X002134Y013539D02*
X000685Y013539D01*
X000685Y013697D02*
X002025Y013697D01*
X001939Y013856D02*
X000685Y013856D01*
X000685Y014014D02*
X001890Y014014D01*
X001890Y014173D02*
X000685Y014173D01*
X000685Y014331D02*
X001930Y014331D01*
X002058Y014648D02*
X002161Y014648D01*
X002058Y014807D02*
X002879Y014807D01*
X002879Y015071D02*
X003471Y015071D01*
X003471Y015564D01*
X003035Y015564D01*
X002990Y015552D01*
X002949Y015528D01*
X002915Y015495D01*
X002891Y015454D01*
X002879Y015408D01*
X002879Y015071D01*
X002879Y015124D02*
X002058Y015124D01*
X002058Y015071D02*
X002058Y015408D01*
X002046Y015454D01*
X002022Y015495D01*
X001988Y015528D01*
X001947Y015552D01*
X001902Y015564D01*
X001466Y015564D01*
X001466Y015071D01*
X002058Y015071D01*
X002058Y015282D02*
X002879Y015282D01*
X002888Y015441D02*
X002049Y015441D01*
X001466Y015441D02*
X001306Y015441D01*
X001306Y015282D02*
X001466Y015282D01*
X001466Y015124D02*
X001306Y015124D01*
X001306Y014965D02*
X000685Y014965D01*
X000685Y014807D02*
X000714Y014807D01*
X000714Y014648D02*
X000685Y014648D01*
X000685Y014490D02*
X000748Y014490D01*
X001306Y014490D02*
X001466Y014490D01*
X001466Y014648D02*
X001306Y014648D01*
X001306Y014807D02*
X001466Y014807D01*
X001466Y014965D02*
X003471Y014965D01*
X003471Y014911D02*
X003471Y015071D01*
X003631Y015071D01*
X003631Y015564D01*
X004067Y015564D01*
X004113Y015552D01*
X004154Y015528D01*
X004187Y015495D01*
X004211Y015454D01*
X004223Y015408D01*
X004223Y015071D01*
X003631Y015071D01*
X003631Y014911D01*
X004223Y014911D01*
X004223Y014573D01*
X004211Y014528D01*
X004187Y014486D01*
X004154Y014453D01*
X004113Y014429D01*
X004067Y014417D01*
X003631Y014417D01*
X003631Y014911D01*
X003471Y014911D01*
X003471Y014807D02*
X003631Y014807D01*
X003631Y014965D02*
X005127Y014965D01*
X005285Y014807D02*
X004223Y014807D01*
X004223Y014648D02*
X005444Y014648D01*
X005602Y014490D02*
X004189Y014490D01*
X004425Y014127D02*
X003204Y014127D01*
X003165Y014331D02*
X005761Y014331D01*
X006307Y014125D02*
X006307Y013770D01*
X006346Y013829D01*
X006307Y014125D02*
X004693Y015739D01*
X004693Y016191D01*
X003787Y016191D01*
X004144Y015916D02*
X004336Y015916D01*
X004453Y015758D02*
X000685Y015758D01*
X000685Y015916D02*
X002761Y015916D01*
X002761Y016075D02*
X000685Y016075D01*
X000685Y016233D02*
X002761Y016233D01*
X002761Y016392D02*
X000685Y016392D01*
X000685Y016550D02*
X002837Y016550D01*
X002878Y016709D02*
X000685Y016709D01*
X000685Y016867D02*
X002878Y016867D01*
X002878Y017026D02*
X000685Y017026D01*
X000685Y017184D02*
X002731Y017184D01*
X002572Y017343D02*
X000685Y017343D01*
X000685Y017501D02*
X002414Y017501D01*
X002255Y017660D02*
X000685Y017660D01*
X000685Y017818D02*
X002097Y017818D01*
X001938Y017977D02*
X000685Y017977D01*
X000685Y018135D02*
X001029Y018135D01*
X001029Y018294D02*
X000685Y018294D01*
X000685Y018452D02*
X001029Y018452D01*
X001029Y018611D02*
X000685Y018611D01*
X000685Y018769D02*
X001029Y018769D01*
X001029Y018928D02*
X000685Y018928D01*
X000685Y019086D02*
X001029Y019086D01*
X001063Y019245D02*
X000685Y019245D01*
X000685Y019403D02*
X001343Y019403D01*
X001343Y019562D02*
X000685Y019562D01*
X000685Y019720D02*
X001343Y019720D01*
X001343Y019879D02*
X000685Y019879D01*
X000685Y020037D02*
X001343Y020037D01*
X001343Y020196D02*
X000685Y020196D01*
X000685Y020354D02*
X001343Y020354D01*
X001090Y020513D02*
X000685Y020513D01*
X000685Y020671D02*
X001029Y020671D01*
X001029Y020830D02*
X000685Y020830D01*
X000685Y020988D02*
X001029Y020988D01*
X001029Y021147D02*
X000685Y021147D01*
X000685Y021305D02*
X001029Y021305D01*
X001029Y021464D02*
X000685Y021464D01*
X000685Y021622D02*
X001029Y021622D01*
X001583Y021113D02*
X001583Y018672D01*
X003118Y017136D01*
X003118Y016191D01*
X003157Y016231D01*
X003157Y017077D01*
X004929Y018849D01*
X004929Y019341D01*
X005421Y019833D01*
X005287Y020037D02*
X004232Y020037D01*
X004390Y019879D02*
X005128Y019879D01*
X004969Y019720D02*
X004494Y019720D01*
X004560Y019562D02*
X004811Y019562D01*
X004695Y019403D02*
X004582Y019403D01*
X004582Y019245D02*
X004689Y019245D01*
X004689Y019086D02*
X004546Y019086D01*
X004480Y018928D02*
X004669Y018928D01*
X004510Y018769D02*
X004356Y018769D01*
X004352Y018611D02*
X004165Y018611D01*
X004193Y018452D02*
X002141Y018452D01*
X002136Y018611D02*
X003331Y018611D01*
X003140Y018769D02*
X002136Y018769D01*
X002136Y018928D02*
X003016Y018928D01*
X002950Y019086D02*
X002136Y019086D01*
X002102Y019245D02*
X002914Y019245D01*
X002914Y019403D02*
X001823Y019403D01*
X001823Y019562D02*
X002936Y019562D01*
X003002Y019720D02*
X001823Y019720D01*
X001823Y019879D02*
X003106Y019879D01*
X003264Y020037D02*
X001823Y020037D01*
X002075Y020513D02*
X003224Y020513D01*
X003070Y020671D02*
X002136Y020671D01*
X002136Y020830D02*
X003005Y020830D01*
X002953Y020988D02*
X002136Y020988D01*
X002136Y021147D02*
X002953Y021147D01*
X002967Y021305D02*
X002136Y021305D01*
X002136Y021464D02*
X003033Y021464D01*
X003133Y021622D02*
X002136Y021622D01*
X004363Y021622D02*
X005360Y021622D01*
X005360Y021464D02*
X004463Y021464D01*
X004529Y021305D02*
X005360Y021305D01*
X005360Y021147D02*
X004543Y021147D01*
X004543Y020988D02*
X005360Y020988D01*
X005360Y020830D02*
X004491Y020830D01*
X004426Y020671D02*
X005360Y020671D01*
X005421Y020513D02*
X004272Y020513D01*
X004035Y018294D02*
X002300Y018294D01*
X002458Y018135D02*
X003876Y018135D01*
X003718Y017977D02*
X002617Y017977D01*
X002775Y017818D02*
X003559Y017818D01*
X003401Y017660D02*
X002934Y017660D01*
X003092Y017501D02*
X003242Y017501D01*
X003399Y016550D02*
X003507Y016550D01*
X004068Y016550D02*
X004412Y016550D01*
X004974Y016550D02*
X005081Y016550D01*
X005719Y015916D02*
X007683Y015916D01*
X007683Y015758D02*
X005013Y015758D01*
X005172Y015599D02*
X007600Y015599D01*
X007488Y015441D02*
X005330Y015441D01*
X005489Y015282D02*
X007484Y015282D01*
X007484Y015124D02*
X005647Y015124D01*
X004968Y015124D02*
X004223Y015124D01*
X004223Y015282D02*
X004810Y015282D01*
X004651Y015441D02*
X004215Y015441D01*
X004493Y015599D02*
X000685Y015599D01*
X000685Y015441D02*
X000722Y015441D01*
X000714Y015282D02*
X000685Y015282D01*
X000685Y015124D02*
X000714Y015124D01*
X002075Y013140D02*
X002075Y012254D01*
X002469Y011861D01*
X002469Y010877D01*
X002469Y010483D01*
X002409Y010424D01*
X000894Y010424D01*
X001252Y010052D02*
X001856Y010052D01*
X001906Y009893D02*
X001271Y009893D01*
X001271Y009735D02*
X004297Y009735D01*
X004297Y009893D02*
X002952Y009893D01*
X003003Y010052D02*
X004297Y010052D01*
X004297Y010096D02*
X004297Y008507D01*
X004390Y008413D01*
X005350Y008413D01*
X005443Y008507D01*
X005443Y010096D01*
X005350Y010190D01*
X004390Y010190D01*
X004297Y010096D01*
X004297Y009576D02*
X003005Y009576D01*
X003010Y009568D02*
X002987Y009609D01*
X002953Y009643D01*
X002912Y009666D01*
X002866Y009679D01*
X002448Y009679D01*
X002448Y009320D01*
X003023Y009320D01*
X003023Y009522D01*
X003010Y009568D01*
X003023Y009418D02*
X004297Y009418D01*
X004297Y009259D02*
X003023Y009259D01*
X003023Y009283D02*
X003023Y009081D01*
X003010Y009035D01*
X002987Y008994D01*
X002953Y008961D01*
X002912Y008937D01*
X002866Y008925D01*
X002448Y008925D01*
X002448Y009283D01*
X002448Y009320D01*
X002411Y009320D01*
X002411Y009679D01*
X001992Y009679D01*
X001946Y009666D01*
X001905Y009643D01*
X001872Y009609D01*
X001848Y009568D01*
X001836Y009522D01*
X001836Y009320D01*
X002411Y009320D01*
X002411Y009283D01*
X002448Y009283D01*
X003023Y009283D01*
X003023Y009101D02*
X004297Y009101D01*
X004297Y008942D02*
X002921Y008942D01*
X002448Y008942D02*
X002411Y008942D01*
X002411Y008925D02*
X002411Y009283D01*
X001836Y009283D01*
X001836Y009081D01*
X001848Y009035D01*
X001872Y008994D01*
X001905Y008961D01*
X001946Y008937D01*
X001992Y008925D01*
X002411Y008925D01*
X002411Y009101D02*
X002448Y009101D01*
X002448Y009259D02*
X002411Y009259D01*
X002411Y009418D02*
X002448Y009418D01*
X002448Y009576D02*
X002411Y009576D01*
X002429Y010207D02*
X002469Y010247D01*
X002469Y010483D01*
X002777Y010686D02*
X005457Y010686D01*
X005457Y010844D02*
X002827Y010844D01*
X002804Y011003D02*
X002903Y011003D01*
X002915Y010983D02*
X002891Y011024D01*
X002879Y011069D01*
X002879Y011407D01*
X003471Y011407D01*
X003471Y011567D01*
X003631Y011567D01*
X003631Y012060D01*
X004067Y012060D01*
X004113Y012048D01*
X004154Y012024D01*
X004187Y011991D01*
X004211Y011950D01*
X004223Y011904D01*
X004223Y011567D01*
X003631Y011567D01*
X003631Y011407D01*
X004223Y011407D01*
X004223Y011069D01*
X004211Y011024D01*
X004187Y010983D01*
X004154Y010949D01*
X004113Y010925D01*
X004067Y010913D01*
X003631Y010913D01*
X003631Y011407D01*
X003471Y011407D01*
X003471Y010913D01*
X003035Y010913D01*
X002990Y010925D01*
X002949Y010949D01*
X002915Y010983D01*
X002879Y011161D02*
X002709Y011161D01*
X002709Y011320D02*
X002879Y011320D01*
X002709Y011478D02*
X003471Y011478D01*
X003471Y011320D02*
X003631Y011320D01*
X003631Y011478D02*
X005457Y011478D01*
X005457Y011320D02*
X004223Y011320D01*
X004223Y011161D02*
X005457Y011161D01*
X005457Y011003D02*
X004199Y011003D01*
X003631Y011003D02*
X003471Y011003D01*
X003471Y011161D02*
X003631Y011161D01*
X003631Y011637D02*
X003471Y011637D01*
X003471Y011795D02*
X003631Y011795D01*
X003631Y011954D02*
X003471Y011954D01*
X003151Y012112D02*
X005457Y012112D01*
X005457Y011954D02*
X004209Y011954D01*
X004223Y011795D02*
X005457Y011795D01*
X005457Y011637D02*
X004223Y011637D01*
X004382Y012330D02*
X003610Y012330D01*
X003610Y012609D01*
X003610Y012609D01*
X004538Y012609D01*
X004538Y012731D01*
X004526Y012777D01*
X004518Y012790D01*
X004518Y014033D01*
X004425Y014127D01*
X004518Y013697D02*
X005320Y013697D01*
X005328Y013539D02*
X004518Y013539D01*
X004518Y013380D02*
X005437Y013380D01*
X005437Y013222D02*
X004518Y013222D01*
X004518Y013063D02*
X005437Y013063D01*
X005301Y012905D02*
X004518Y012905D01*
X004534Y012746D02*
X005301Y012746D01*
X005301Y012588D02*
X004538Y012588D01*
X004538Y012609D02*
X003610Y012609D01*
X003610Y012609D01*
X003610Y012588D02*
X003610Y012588D01*
X003610Y012429D02*
X003610Y012429D01*
X003204Y012271D02*
X005457Y012271D01*
X005301Y012429D02*
X004519Y012429D01*
X004526Y012441D02*
X004538Y012487D01*
X004538Y012609D01*
X004526Y012441D02*
X004502Y012400D01*
X004469Y012366D01*
X004428Y012343D01*
X004382Y012330D01*
X003610Y013869D02*
X003600Y013878D01*
X002813Y013878D01*
X002075Y013140D01*
X002871Y011795D02*
X002879Y011795D01*
X002879Y011637D02*
X002709Y011637D01*
X002229Y011161D02*
X002058Y011161D01*
X002034Y011003D02*
X002133Y011003D01*
X002945Y010527D02*
X005457Y010527D01*
X005457Y010369D02*
X003003Y010369D01*
X003003Y010210D02*
X005457Y010210D01*
X005443Y010052D02*
X005457Y010052D01*
X005443Y009893D02*
X005457Y009893D01*
X005443Y009735D02*
X005457Y009735D01*
X005443Y009576D02*
X005457Y009576D01*
X005443Y009418D02*
X005457Y009418D01*
X005443Y009259D02*
X005457Y009259D01*
X005443Y009101D02*
X005457Y009101D01*
X005443Y008942D02*
X005457Y008942D01*
X005443Y008784D02*
X005457Y008784D01*
X005443Y008625D02*
X005457Y008625D01*
X005457Y008467D02*
X005403Y008467D01*
X005611Y008308D02*
X004097Y008308D01*
X004255Y008150D02*
X005770Y008150D01*
X005928Y007991D02*
X004414Y007991D01*
X004572Y007833D02*
X006087Y007833D01*
X006245Y007674D02*
X004731Y007674D01*
X004889Y007516D02*
X006404Y007516D01*
X006432Y007488D02*
X006432Y007488D01*
X006075Y008467D02*
X008235Y008467D01*
X008194Y008625D02*
X005917Y008625D01*
X005897Y008784D02*
X008194Y008784D01*
X008194Y008942D02*
X005897Y008942D01*
X005897Y009101D02*
X008262Y009101D01*
X008194Y009259D02*
X005897Y009259D01*
X005897Y009418D02*
X008183Y009418D01*
X008139Y009576D02*
X005897Y009576D01*
X005897Y009735D02*
X008227Y009735D01*
X008225Y009734D02*
X008225Y009734D01*
X008361Y009893D02*
X005897Y009893D01*
X004297Y008784D02*
X001271Y008784D01*
X001271Y008942D02*
X001937Y008942D01*
X001836Y009101D02*
X001267Y009101D01*
X001225Y009418D02*
X001836Y009418D01*
X001836Y009259D02*
X000685Y009259D01*
X000875Y009101D02*
X000912Y009101D01*
X000912Y008942D02*
X000875Y008942D01*
X001271Y008625D02*
X001856Y008625D01*
X001856Y008467D02*
X001246Y008467D01*
X001187Y007833D02*
X003893Y007833D01*
X003735Y007991D02*
X002321Y007991D01*
X002429Y008396D02*
X002449Y008416D01*
X003650Y008416D01*
X006012Y006054D01*
X006602Y006054D01*
X007449Y006054D01*
X007736Y006406D02*
X007831Y006406D01*
X008405Y006406D02*
X008460Y006406D01*
X008466Y006396D02*
X008500Y006362D01*
X008541Y006339D01*
X008587Y006326D01*
X008808Y006326D01*
X008808Y006705D01*
X008430Y006705D01*
X008430Y006483D01*
X008443Y006437D01*
X008466Y006396D01*
X008430Y006565D02*
X005840Y006565D01*
X005682Y006723D02*
X008808Y006723D01*
X008808Y006705D02*
X008808Y006781D01*
X008808Y007159D01*
X008587Y007159D01*
X008541Y007147D01*
X008500Y007123D01*
X008466Y007089D01*
X008443Y007048D01*
X008430Y007003D01*
X008430Y006781D01*
X008808Y006781D01*
X008885Y006781D01*
X009263Y006781D01*
X009263Y007003D01*
X009250Y007048D01*
X009227Y007089D01*
X009193Y007123D01*
X009152Y007147D01*
X009106Y007159D01*
X008885Y007159D01*
X008885Y006781D01*
X008885Y006705D01*
X009263Y006705D01*
X009263Y006483D01*
X009250Y006437D01*
X009227Y006396D01*
X009193Y006362D01*
X009152Y006339D01*
X009106Y006326D01*
X008885Y006326D01*
X008885Y006705D01*
X008808Y006705D01*
X008885Y006723D02*
X009277Y006723D01*
X009263Y006565D02*
X009277Y006565D01*
X009311Y006406D02*
X009233Y006406D01*
X008885Y006406D02*
X008808Y006406D01*
X008808Y006565D02*
X008885Y006565D01*
X008885Y006882D02*
X008808Y006882D01*
X008808Y007040D02*
X008885Y007040D01*
X009253Y007040D02*
X009277Y007040D01*
X009263Y006882D02*
X009277Y006882D01*
X010036Y006406D02*
X010098Y006406D01*
X010511Y005772D02*
X008475Y005772D01*
X007898Y005614D02*
X000685Y005614D01*
X000685Y005772D02*
X006377Y005772D01*
X006828Y005772D02*
X007092Y005772D01*
X007162Y006406D02*
X006687Y006406D01*
X006518Y006406D02*
X005999Y006406D01*
X005637Y006089D02*
X000685Y006089D01*
X000685Y005931D02*
X005795Y005931D01*
X005478Y006248D02*
X000685Y006248D01*
X000685Y006406D02*
X005320Y006406D01*
X005161Y006565D02*
X000685Y006565D01*
X000685Y006723D02*
X005003Y006723D01*
X004844Y006882D02*
X000685Y006882D01*
X000685Y007040D02*
X004686Y007040D01*
X004527Y007199D02*
X000685Y007199D01*
X000685Y007357D02*
X004369Y007357D01*
X004210Y007516D02*
X000685Y007516D01*
X000685Y007674D02*
X004052Y007674D01*
X003576Y008150D02*
X003003Y008150D01*
X003771Y008625D02*
X004297Y008625D01*
X004337Y008467D02*
X003938Y008467D01*
X005365Y007040D02*
X008440Y007040D01*
X008430Y006882D02*
X005523Y006882D01*
X006727Y004980D02*
X000685Y004980D01*
X000685Y005138D02*
X007898Y005138D01*
X007898Y004980D02*
X007462Y004980D01*
X007485Y004963D02*
X007409Y005018D01*
X007325Y005061D01*
X007235Y005090D01*
X007154Y005103D01*
X007154Y004145D01*
X007694Y004145D01*
X007694Y004552D01*
X007680Y004646D01*
X007651Y004735D01*
X007608Y004820D01*
X007552Y004896D01*
X007485Y004963D01*
X007606Y004821D02*
X007976Y004821D01*
X007910Y004663D02*
X007674Y004663D01*
X007694Y004504D02*
X007892Y004504D01*
X007892Y004346D02*
X007694Y004346D01*
X007694Y004187D02*
X007892Y004187D01*
X007892Y004029D02*
X007154Y004029D01*
X007154Y004187D02*
X007034Y004187D01*
X007034Y004346D02*
X007154Y004346D01*
X007154Y004504D02*
X007034Y004504D01*
X007034Y004663D02*
X007154Y004663D01*
X007154Y004821D02*
X007034Y004821D01*
X007034Y004980D02*
X007154Y004980D01*
X006583Y004821D02*
X000685Y004821D01*
X000685Y004663D02*
X006515Y004663D01*
X006494Y004504D02*
X000685Y004504D01*
X000685Y004346D02*
X006494Y004346D01*
X007034Y003870D02*
X007154Y003870D01*
X007154Y003712D02*
X007034Y003712D01*
X007034Y003553D02*
X007154Y003553D01*
X007154Y003395D02*
X007034Y003395D01*
X007034Y003236D02*
X007154Y003236D01*
X007514Y003236D02*
X008081Y003236D01*
X007957Y003395D02*
X007630Y003395D01*
X007684Y003553D02*
X007892Y003553D01*
X007892Y003712D02*
X007694Y003712D01*
X007694Y003870D02*
X007892Y003870D01*
X008864Y003236D02*
X009459Y003236D01*
X009335Y003395D02*
X008988Y003395D01*
X009052Y003553D02*
X009270Y003553D01*
X009270Y003712D02*
X009052Y003712D01*
X009052Y003870D02*
X009270Y003870D01*
X009270Y004029D02*
X009052Y004029D01*
X009052Y004187D02*
X009270Y004187D01*
X009270Y004346D02*
X009052Y004346D01*
X009052Y004504D02*
X009270Y004504D01*
X009288Y004663D02*
X009035Y004663D01*
X008969Y004821D02*
X009354Y004821D01*
X009505Y004980D02*
X008818Y004980D01*
X007898Y005297D02*
X000685Y005297D01*
X000685Y005455D02*
X007898Y005455D01*
X001853Y009576D02*
X001271Y009576D01*
X000912Y009576D02*
X000875Y009576D01*
X000875Y009418D02*
X000912Y009418D01*
X000912Y009735D02*
X000875Y009735D01*
X003471Y014490D02*
X003631Y014490D01*
X003631Y014648D02*
X003471Y014648D01*
X003471Y015124D02*
X003631Y015124D01*
X003631Y015282D02*
X003471Y015282D01*
X003471Y015441D02*
X003631Y015441D01*
X005917Y013453D02*
X005917Y013005D01*
X005960Y013005D01*
X005998Y012967D01*
X006019Y012989D01*
X006060Y013013D01*
X006106Y013025D01*
X006328Y013025D01*
X006328Y012667D01*
X006365Y012667D01*
X006365Y013025D01*
X006587Y013025D01*
X006632Y013013D01*
X006674Y012989D01*
X006707Y012956D01*
X006713Y012946D01*
X006772Y013005D01*
X006815Y013005D01*
X006815Y013453D01*
X006792Y013453D01*
X006701Y013544D01*
X006610Y013453D01*
X006083Y013453D01*
X006012Y013524D01*
X005940Y013453D01*
X005917Y013453D01*
X005917Y013380D02*
X006815Y013380D01*
X006815Y013222D02*
X005917Y013222D01*
X005917Y013063D02*
X006815Y013063D01*
X006365Y012905D02*
X006328Y012905D01*
X006328Y012746D02*
X006365Y012746D01*
X006365Y012588D02*
X006328Y012588D01*
X006328Y012429D02*
X006365Y012429D01*
X006696Y013539D02*
X006706Y013539D01*
X007351Y014173D02*
X007428Y014173D01*
X010867Y012905D02*
X011698Y012905D01*
X011752Y013063D02*
X011559Y013063D01*
X011699Y013222D02*
X011835Y013222D01*
X012726Y013856D02*
X012763Y013856D01*
X012763Y014014D02*
X012726Y014014D01*
X013867Y013856D02*
X013904Y013856D01*
X013904Y013697D02*
X013867Y013697D01*
X015831Y014490D02*
X020985Y014490D01*
X020985Y014648D02*
X015989Y014648D01*
X016148Y014807D02*
X020985Y014807D01*
X020985Y014965D02*
X016306Y014965D01*
X016465Y015124D02*
X020985Y015124D01*
X019201Y016388D02*
X018728Y015916D01*
X018512Y015699D01*
X017370Y015699D01*
X017727Y015441D02*
X017978Y015441D01*
X017994Y015282D02*
X016623Y015282D01*
X014870Y018554D02*
X014476Y018947D01*
X013578Y018611D02*
X010625Y018611D01*
X010616Y018619D02*
X010616Y018619D01*
X010720Y018452D02*
X013420Y018452D01*
X013338Y018294D02*
X010720Y018294D01*
X010720Y018135D02*
X013272Y018135D01*
X013098Y018947D02*
X009949Y018947D01*
X017707Y021147D02*
X017709Y021147D01*
X017707Y021305D02*
X017848Y021305D01*
X017707Y021464D02*
X018083Y021464D01*
X017707Y021622D02*
X020985Y021622D01*
X020985Y021464D02*
X018744Y021464D01*
X018979Y021305D02*
X020985Y021305D01*
X020985Y021147D02*
X019118Y021147D01*
X014496Y010138D02*
X014496Y010138D01*
X014496Y010138D01*
D33*
X013787Y009892D03*
X013787Y008514D03*
X012508Y008514D03*
X012409Y009991D03*
X010933Y008810D03*
X010638Y010089D03*
X010146Y011270D03*
X010490Y013239D03*
X011278Y013288D03*
X013197Y015010D03*
X011524Y018357D03*
X011425Y021310D03*
X015756Y021310D03*
X015854Y018357D03*
X020185Y018357D03*
X018807Y013239D03*
X017035Y011270D03*
X016051Y011270D03*
X019496Y006940D03*
X020382Y005955D03*
X020382Y008416D03*
X015559Y003987D03*
X015264Y006447D03*
X010736Y006054D03*
X009703Y007973D03*
X009260Y009105D03*
X006996Y009302D03*
X005815Y007432D03*
X006602Y006054D03*
X003551Y007038D03*
X001484Y007038D03*
X002469Y010877D03*
X004929Y011369D03*
X004929Y013239D03*
X006356Y013239D03*
X007734Y013239D03*
X009112Y013239D03*
X006602Y015207D03*
X006602Y018357D03*
X006898Y020621D03*
X001386Y013239D03*
M02*
