G04 EAGLE Gerber RS-274X export*
G75*
%MOMM*%
%FSLAX34Y34*%
%LPD*%
%INMilling*%
%IPPOS*%
%AMOC8*
5,1,8,0,0,1.08239X$1,22.5*%
G01*
%ADD10C,1.000000*%
%ADD11C,0.254000*%


D10*
X1260000Y281800D02*
X1253000Y281800D01*
X1296249Y195300D02*
X1300249Y195300D01*
X1300339Y281863D02*
X1296339Y281863D01*
X1260000Y195300D02*
X1253000Y195300D01*
D11*
X0Y100000D02*
X381Y91284D01*
X1519Y82635D01*
X3407Y74118D01*
X6031Y65798D01*
X9369Y57738D01*
X13397Y50000D01*
X18085Y42642D01*
X23396Y35721D01*
X29289Y29289D01*
X35721Y23396D01*
X42642Y18085D01*
X50000Y13397D01*
X57738Y9369D01*
X65798Y6031D01*
X74118Y3407D01*
X82635Y1519D01*
X91284Y381D01*
X100000Y0D01*
X274000Y0D01*
X274000Y191000D01*
X804000Y191000D01*
X804000Y0D01*
X1214000Y0D01*
X1222716Y381D01*
X1231365Y1519D01*
X1239882Y3407D01*
X1248202Y6031D01*
X1256262Y9369D01*
X1264000Y13397D01*
X1271358Y18085D01*
X1278279Y23396D01*
X1284711Y29289D01*
X1290604Y35721D01*
X1295915Y42642D01*
X1300603Y50000D01*
X1304631Y57738D01*
X1307969Y65798D01*
X1310593Y74118D01*
X1312481Y82635D01*
X1313619Y91284D01*
X1314000Y100000D01*
X1314000Y958000D01*
X1313619Y966716D01*
X1312481Y975365D01*
X1310593Y983882D01*
X1307969Y992202D01*
X1304631Y1000262D01*
X1300603Y1008000D01*
X1295915Y1015358D01*
X1290604Y1022279D01*
X1284711Y1028711D01*
X1278279Y1034604D01*
X1271358Y1039915D01*
X1264000Y1044603D01*
X1256262Y1048631D01*
X1248202Y1051969D01*
X1239882Y1054593D01*
X1231365Y1056481D01*
X1222716Y1057619D01*
X1214000Y1058000D01*
X100000Y1058000D01*
X91284Y1057619D01*
X82635Y1056481D01*
X74118Y1054593D01*
X65798Y1051969D01*
X57738Y1048631D01*
X50000Y1044603D01*
X42642Y1039915D01*
X35721Y1034604D01*
X29289Y1028711D01*
X23396Y1022279D01*
X18085Y1015358D01*
X13397Y1008000D01*
X9369Y1000262D01*
X6031Y992202D01*
X3407Y983882D01*
X1519Y975365D01*
X381Y966716D01*
X0Y958000D01*
X0Y100000D01*
M02*
