G04 EAGLE Gerber RS-274X export*
G75*
%MOMM*%
%FSLAX34Y34*%
%LPD*%
%IN*%
%IPPOS*%
%AMOC8*
5,1,8,0,0,1.08239X$1,22.5*%
G01*
%ADD10C,0.254000*%


D10*
X0Y100000D02*
X381Y91284D01*
X1519Y82635D01*
X3407Y74118D01*
X6031Y65798D01*
X9369Y57738D01*
X13397Y50000D01*
X18085Y42642D01*
X23396Y35721D01*
X29289Y29289D01*
X35721Y23396D01*
X42642Y18085D01*
X50000Y13397D01*
X57738Y9369D01*
X65798Y6031D01*
X74118Y3407D01*
X82635Y1519D01*
X91284Y381D01*
X100000Y0D01*
X274000Y0D01*
X274000Y191000D01*
X804000Y191000D01*
X804000Y0D01*
X1214000Y0D01*
X1222716Y381D01*
X1231365Y1519D01*
X1239882Y3407D01*
X1248202Y6031D01*
X1256262Y9369D01*
X1264000Y13397D01*
X1271358Y18085D01*
X1278279Y23396D01*
X1284711Y29289D01*
X1290604Y35721D01*
X1295915Y42642D01*
X1300603Y50000D01*
X1304631Y57738D01*
X1307969Y65798D01*
X1310593Y74118D01*
X1312481Y82635D01*
X1313619Y91284D01*
X1314000Y100000D01*
X1314000Y958000D01*
X1313619Y966716D01*
X1312481Y975365D01*
X1310593Y983882D01*
X1307969Y992202D01*
X1304631Y1000262D01*
X1300603Y1008000D01*
X1295915Y1015358D01*
X1290604Y1022279D01*
X1284711Y1028711D01*
X1278279Y1034604D01*
X1271358Y1039915D01*
X1264000Y1044603D01*
X1256262Y1048631D01*
X1248202Y1051969D01*
X1239882Y1054593D01*
X1231365Y1056481D01*
X1222716Y1057619D01*
X1214000Y1058000D01*
X100000Y1058000D01*
X91284Y1057619D01*
X82635Y1056481D01*
X74118Y1054593D01*
X65798Y1051969D01*
X57738Y1048631D01*
X50000Y1044603D01*
X42642Y1039915D01*
X35721Y1034604D01*
X29289Y1028711D01*
X23396Y1022279D01*
X18085Y1015358D01*
X13397Y1008000D01*
X9369Y1000262D01*
X6031Y992202D01*
X3407Y983882D01*
X1519Y975365D01*
X381Y966716D01*
X0Y958000D01*
X0Y100000D01*
X1282500Y1007927D02*
X1282425Y1006784D01*
X1282276Y1005648D01*
X1282052Y1004524D01*
X1281755Y1003417D01*
X1281387Y1002332D01*
X1280949Y1001274D01*
X1280442Y1000246D01*
X1279869Y999254D01*
X1279232Y998301D01*
X1278535Y997392D01*
X1277779Y996531D01*
X1276969Y995721D01*
X1276108Y994965D01*
X1275199Y994268D01*
X1274246Y993631D01*
X1273254Y993058D01*
X1272226Y992551D01*
X1271168Y992113D01*
X1270083Y991745D01*
X1268976Y991448D01*
X1267852Y991225D01*
X1266716Y991075D01*
X1265573Y991000D01*
X1264427Y991000D01*
X1263284Y991075D01*
X1262148Y991225D01*
X1261024Y991448D01*
X1259917Y991745D01*
X1258832Y992113D01*
X1257774Y992551D01*
X1256746Y993058D01*
X1255754Y993631D01*
X1254801Y994268D01*
X1253892Y994965D01*
X1253031Y995721D01*
X1252221Y996531D01*
X1251465Y997392D01*
X1250768Y998301D01*
X1250131Y999254D01*
X1249558Y1000246D01*
X1249051Y1001274D01*
X1248613Y1002332D01*
X1248245Y1003417D01*
X1247948Y1004524D01*
X1247725Y1005648D01*
X1247575Y1006784D01*
X1247500Y1007927D01*
X1247500Y1009073D01*
X1247575Y1010216D01*
X1247725Y1011352D01*
X1247948Y1012476D01*
X1248245Y1013583D01*
X1248613Y1014668D01*
X1249051Y1015726D01*
X1249558Y1016754D01*
X1250131Y1017746D01*
X1250768Y1018699D01*
X1251465Y1019608D01*
X1252221Y1020469D01*
X1253031Y1021279D01*
X1253892Y1022035D01*
X1254801Y1022732D01*
X1255754Y1023369D01*
X1256746Y1023942D01*
X1257774Y1024449D01*
X1258832Y1024887D01*
X1259917Y1025255D01*
X1261024Y1025552D01*
X1262148Y1025776D01*
X1263284Y1025925D01*
X1264427Y1026000D01*
X1265573Y1026000D01*
X1266716Y1025925D01*
X1267852Y1025776D01*
X1268976Y1025552D01*
X1270083Y1025255D01*
X1271168Y1024887D01*
X1272226Y1024449D01*
X1273254Y1023942D01*
X1274246Y1023369D01*
X1275199Y1022732D01*
X1276108Y1022035D01*
X1276969Y1021279D01*
X1277779Y1020469D01*
X1278535Y1019608D01*
X1279232Y1018699D01*
X1279869Y1017746D01*
X1280442Y1016754D01*
X1280949Y1015726D01*
X1281387Y1014668D01*
X1281755Y1013583D01*
X1282052Y1012476D01*
X1282276Y1011352D01*
X1282425Y1010216D01*
X1282500Y1009073D01*
X1282500Y1007927D01*
X67000Y1007927D02*
X66925Y1006784D01*
X66776Y1005648D01*
X66552Y1004524D01*
X66255Y1003417D01*
X65887Y1002332D01*
X65449Y1001274D01*
X64942Y1000246D01*
X64369Y999254D01*
X63732Y998301D01*
X63035Y997392D01*
X62279Y996531D01*
X61469Y995721D01*
X60608Y994965D01*
X59699Y994268D01*
X58746Y993631D01*
X57754Y993058D01*
X56726Y992551D01*
X55668Y992113D01*
X54583Y991745D01*
X53476Y991448D01*
X52352Y991225D01*
X51216Y991075D01*
X50073Y991000D01*
X48927Y991000D01*
X47784Y991075D01*
X46648Y991225D01*
X45524Y991448D01*
X44417Y991745D01*
X43332Y992113D01*
X42274Y992551D01*
X41246Y993058D01*
X40254Y993631D01*
X39301Y994268D01*
X38392Y994965D01*
X37531Y995721D01*
X36721Y996531D01*
X35965Y997392D01*
X35268Y998301D01*
X34631Y999254D01*
X34058Y1000246D01*
X33551Y1001274D01*
X33113Y1002332D01*
X32745Y1003417D01*
X32448Y1004524D01*
X32225Y1005648D01*
X32075Y1006784D01*
X32000Y1007927D01*
X32000Y1009073D01*
X32075Y1010216D01*
X32225Y1011352D01*
X32448Y1012476D01*
X32745Y1013583D01*
X33113Y1014668D01*
X33551Y1015726D01*
X34058Y1016754D01*
X34631Y1017746D01*
X35268Y1018699D01*
X35965Y1019608D01*
X36721Y1020469D01*
X37531Y1021279D01*
X38392Y1022035D01*
X39301Y1022732D01*
X40254Y1023369D01*
X41246Y1023942D01*
X42274Y1024449D01*
X43332Y1024887D01*
X44417Y1025255D01*
X45524Y1025552D01*
X46648Y1025776D01*
X47784Y1025925D01*
X48927Y1026000D01*
X50073Y1026000D01*
X51216Y1025925D01*
X52352Y1025776D01*
X53476Y1025552D01*
X54583Y1025255D01*
X55668Y1024887D01*
X56726Y1024449D01*
X57754Y1023942D01*
X58746Y1023369D01*
X59699Y1022732D01*
X60608Y1022035D01*
X61469Y1021279D01*
X62279Y1020469D01*
X63035Y1019608D01*
X63732Y1018699D01*
X64369Y1017746D01*
X64942Y1016754D01*
X65449Y1015726D01*
X65887Y1014668D01*
X66255Y1013583D01*
X66552Y1012476D01*
X66776Y1011352D01*
X66925Y1010216D01*
X67000Y1009073D01*
X67000Y1007927D01*
X67000Y48927D02*
X66925Y47784D01*
X66776Y46648D01*
X66552Y45524D01*
X66255Y44417D01*
X65887Y43332D01*
X65449Y42274D01*
X64942Y41246D01*
X64369Y40254D01*
X63732Y39301D01*
X63035Y38392D01*
X62279Y37531D01*
X61469Y36721D01*
X60608Y35965D01*
X59699Y35268D01*
X58746Y34631D01*
X57754Y34058D01*
X56726Y33551D01*
X55668Y33113D01*
X54583Y32745D01*
X53476Y32448D01*
X52352Y32225D01*
X51216Y32075D01*
X50073Y32000D01*
X48927Y32000D01*
X47784Y32075D01*
X46648Y32225D01*
X45524Y32448D01*
X44417Y32745D01*
X43332Y33113D01*
X42274Y33551D01*
X41246Y34058D01*
X40254Y34631D01*
X39301Y35268D01*
X38392Y35965D01*
X37531Y36721D01*
X36721Y37531D01*
X35965Y38392D01*
X35268Y39301D01*
X34631Y40254D01*
X34058Y41246D01*
X33551Y42274D01*
X33113Y43332D01*
X32745Y44417D01*
X32448Y45524D01*
X32225Y46648D01*
X32075Y47784D01*
X32000Y48927D01*
X32000Y50073D01*
X32075Y51216D01*
X32225Y52352D01*
X32448Y53476D01*
X32745Y54583D01*
X33113Y55668D01*
X33551Y56726D01*
X34058Y57754D01*
X34631Y58746D01*
X35268Y59699D01*
X35965Y60608D01*
X36721Y61469D01*
X37531Y62279D01*
X38392Y63035D01*
X39301Y63732D01*
X40254Y64369D01*
X41246Y64942D01*
X42274Y65449D01*
X43332Y65887D01*
X44417Y66255D01*
X45524Y66552D01*
X46648Y66776D01*
X47784Y66925D01*
X48927Y67000D01*
X50073Y67000D01*
X51216Y66925D01*
X52352Y66776D01*
X53476Y66552D01*
X54583Y66255D01*
X55668Y65887D01*
X56726Y65449D01*
X57754Y64942D01*
X58746Y64369D01*
X59699Y63732D01*
X60608Y63035D01*
X61469Y62279D01*
X62279Y61469D01*
X63035Y60608D01*
X63732Y59699D01*
X64369Y58746D01*
X64942Y57754D01*
X65449Y56726D01*
X65887Y55668D01*
X66255Y54583D01*
X66552Y53476D01*
X66776Y52352D01*
X66925Y51216D01*
X67000Y50073D01*
X67000Y48927D01*
X1282500Y48927D02*
X1282425Y47784D01*
X1282276Y46648D01*
X1282052Y45524D01*
X1281755Y44417D01*
X1281387Y43332D01*
X1280949Y42274D01*
X1280442Y41246D01*
X1279869Y40254D01*
X1279232Y39301D01*
X1278535Y38392D01*
X1277779Y37531D01*
X1276969Y36721D01*
X1276108Y35965D01*
X1275199Y35268D01*
X1274246Y34631D01*
X1273254Y34058D01*
X1272226Y33551D01*
X1271168Y33113D01*
X1270083Y32745D01*
X1268976Y32448D01*
X1267852Y32225D01*
X1266716Y32075D01*
X1265573Y32000D01*
X1264427Y32000D01*
X1263284Y32075D01*
X1262148Y32225D01*
X1261024Y32448D01*
X1259917Y32745D01*
X1258832Y33113D01*
X1257774Y33551D01*
X1256746Y34058D01*
X1255754Y34631D01*
X1254801Y35268D01*
X1253892Y35965D01*
X1253031Y36721D01*
X1252221Y37531D01*
X1251465Y38392D01*
X1250768Y39301D01*
X1250131Y40254D01*
X1249558Y41246D01*
X1249051Y42274D01*
X1248613Y43332D01*
X1248245Y44417D01*
X1247948Y45524D01*
X1247725Y46648D01*
X1247575Y47784D01*
X1247500Y48927D01*
X1247500Y50073D01*
X1247575Y51216D01*
X1247725Y52352D01*
X1247948Y53476D01*
X1248245Y54583D01*
X1248613Y55668D01*
X1249051Y56726D01*
X1249558Y57754D01*
X1250131Y58746D01*
X1250768Y59699D01*
X1251465Y60608D01*
X1252221Y61469D01*
X1253031Y62279D01*
X1253892Y63035D01*
X1254801Y63732D01*
X1255754Y64369D01*
X1256746Y64942D01*
X1257774Y65449D01*
X1258832Y65887D01*
X1259917Y66255D01*
X1261024Y66552D01*
X1262148Y66776D01*
X1263284Y66925D01*
X1264427Y67000D01*
X1265573Y67000D01*
X1266716Y66925D01*
X1267852Y66776D01*
X1268976Y66552D01*
X1270083Y66255D01*
X1271168Y65887D01*
X1272226Y65449D01*
X1273254Y64942D01*
X1274246Y64369D01*
X1275199Y63732D01*
X1276108Y63035D01*
X1276969Y62279D01*
X1277779Y61469D01*
X1278535Y60608D01*
X1279232Y59699D01*
X1279869Y58746D01*
X1280442Y57754D01*
X1280949Y56726D01*
X1281387Y55668D01*
X1281755Y54583D01*
X1282052Y53476D01*
X1282276Y52352D01*
X1282425Y51216D01*
X1282500Y50073D01*
X1282500Y48927D01*
X158900Y791480D02*
X158832Y790441D01*
X158696Y789409D01*
X158493Y788388D01*
X158224Y787382D01*
X157889Y786396D01*
X157491Y785434D01*
X157030Y784501D01*
X156510Y783599D01*
X155931Y782734D01*
X155297Y781908D01*
X154611Y781125D01*
X153875Y780389D01*
X153092Y779703D01*
X152266Y779069D01*
X151401Y778490D01*
X150499Y777970D01*
X149566Y777510D01*
X148604Y777111D01*
X147618Y776777D01*
X146612Y776507D01*
X145591Y776304D01*
X144559Y776168D01*
X143521Y776100D01*
X142480Y776100D01*
X141441Y776168D01*
X140409Y776304D01*
X139388Y776507D01*
X138382Y776777D01*
X137396Y777111D01*
X136434Y777510D01*
X135501Y777970D01*
X134599Y778490D01*
X133734Y779069D01*
X132908Y779703D01*
X132125Y780389D01*
X131389Y781125D01*
X130703Y781908D01*
X130069Y782734D01*
X129490Y783599D01*
X128970Y784501D01*
X128510Y785434D01*
X128111Y786396D01*
X127777Y787382D01*
X127507Y788388D01*
X127304Y789409D01*
X127168Y790441D01*
X127100Y791480D01*
X127100Y792521D01*
X127168Y793559D01*
X127304Y794591D01*
X127507Y795612D01*
X127777Y796618D01*
X128111Y797604D01*
X128510Y798566D01*
X128970Y799499D01*
X129490Y800401D01*
X130069Y801266D01*
X130703Y802092D01*
X131389Y802875D01*
X132125Y803611D01*
X132908Y804297D01*
X133734Y804931D01*
X134599Y805510D01*
X135501Y806030D01*
X136434Y806491D01*
X137396Y806889D01*
X138382Y807224D01*
X139388Y807493D01*
X140409Y807696D01*
X141441Y807832D01*
X142480Y807900D01*
X143521Y807900D01*
X144559Y807832D01*
X145591Y807696D01*
X146612Y807493D01*
X147618Y807224D01*
X148604Y806889D01*
X149566Y806491D01*
X150499Y806030D01*
X151401Y805510D01*
X152266Y804931D01*
X153092Y804297D01*
X153875Y803611D01*
X154611Y802875D01*
X155297Y802092D01*
X155931Y801266D01*
X156510Y800401D01*
X157030Y799499D01*
X157491Y798566D01*
X157889Y797604D01*
X158224Y796618D01*
X158493Y795612D01*
X158696Y794591D01*
X158832Y793559D01*
X158900Y792521D01*
X158900Y791480D01*
X156500Y1031632D02*
X156428Y1030898D01*
X156284Y1030175D01*
X156070Y1029470D01*
X155788Y1028789D01*
X155441Y1028140D01*
X155031Y1027527D01*
X154564Y1026957D01*
X154043Y1026436D01*
X153473Y1025969D01*
X152860Y1025559D01*
X152211Y1025212D01*
X151530Y1024930D01*
X150825Y1024716D01*
X150102Y1024572D01*
X149368Y1024500D01*
X148632Y1024500D01*
X147898Y1024572D01*
X147175Y1024716D01*
X146470Y1024930D01*
X145789Y1025212D01*
X145140Y1025559D01*
X144527Y1025969D01*
X143957Y1026436D01*
X143436Y1026957D01*
X142969Y1027527D01*
X142559Y1028140D01*
X142212Y1028789D01*
X141930Y1029470D01*
X141716Y1030175D01*
X141572Y1030898D01*
X141500Y1031632D01*
X141500Y1032368D01*
X141572Y1033102D01*
X141716Y1033825D01*
X141930Y1034530D01*
X142212Y1035211D01*
X142559Y1035860D01*
X142969Y1036473D01*
X143436Y1037043D01*
X143957Y1037564D01*
X144527Y1038031D01*
X145140Y1038441D01*
X145789Y1038788D01*
X146470Y1039070D01*
X147175Y1039284D01*
X147898Y1039428D01*
X148632Y1039500D01*
X149368Y1039500D01*
X150102Y1039428D01*
X150825Y1039284D01*
X151530Y1039070D01*
X152211Y1038788D01*
X152860Y1038441D01*
X153473Y1038031D01*
X154043Y1037564D01*
X154564Y1037043D01*
X155031Y1036473D01*
X155441Y1035860D01*
X155788Y1035211D01*
X156070Y1034530D01*
X156284Y1033825D01*
X156428Y1033102D01*
X156500Y1032368D01*
X156500Y1031632D01*
X156500Y961632D02*
X156428Y960898D01*
X156284Y960175D01*
X156070Y959470D01*
X155788Y958789D01*
X155441Y958140D01*
X155031Y957527D01*
X154564Y956957D01*
X154043Y956436D01*
X153473Y955969D01*
X152860Y955559D01*
X152211Y955212D01*
X151530Y954930D01*
X150825Y954716D01*
X150102Y954572D01*
X149368Y954500D01*
X148632Y954500D01*
X147898Y954572D01*
X147175Y954716D01*
X146470Y954930D01*
X145789Y955212D01*
X145140Y955559D01*
X144527Y955969D01*
X143957Y956436D01*
X143436Y956957D01*
X142969Y957527D01*
X142559Y958140D01*
X142212Y958789D01*
X141930Y959470D01*
X141716Y960175D01*
X141572Y960898D01*
X141500Y961632D01*
X141500Y962368D01*
X141572Y963102D01*
X141716Y963825D01*
X141930Y964530D01*
X142212Y965211D01*
X142559Y965860D01*
X142969Y966473D01*
X143436Y967043D01*
X143957Y967564D01*
X144527Y968031D01*
X145140Y968441D01*
X145789Y968788D01*
X146470Y969070D01*
X147175Y969284D01*
X147898Y969428D01*
X148632Y969500D01*
X149368Y969500D01*
X150102Y969428D01*
X150825Y969284D01*
X151530Y969070D01*
X152211Y968788D01*
X152860Y968441D01*
X153473Y968031D01*
X154043Y967564D01*
X154564Y967043D01*
X155031Y966473D01*
X155441Y965860D01*
X155788Y965211D01*
X156070Y964530D01*
X156284Y963825D01*
X156428Y963102D01*
X156500Y962368D01*
X156500Y961632D01*
X283500Y1031632D02*
X283428Y1030898D01*
X283284Y1030175D01*
X283070Y1029470D01*
X282788Y1028789D01*
X282441Y1028140D01*
X282031Y1027527D01*
X281564Y1026957D01*
X281043Y1026436D01*
X280473Y1025969D01*
X279860Y1025559D01*
X279211Y1025212D01*
X278530Y1024930D01*
X277825Y1024716D01*
X277102Y1024572D01*
X276368Y1024500D01*
X275632Y1024500D01*
X274898Y1024572D01*
X274175Y1024716D01*
X273470Y1024930D01*
X272789Y1025212D01*
X272140Y1025559D01*
X271527Y1025969D01*
X270957Y1026436D01*
X270436Y1026957D01*
X269969Y1027527D01*
X269559Y1028140D01*
X269212Y1028789D01*
X268930Y1029470D01*
X268716Y1030175D01*
X268572Y1030898D01*
X268500Y1031632D01*
X268500Y1032368D01*
X268572Y1033102D01*
X268716Y1033825D01*
X268930Y1034530D01*
X269212Y1035211D01*
X269559Y1035860D01*
X269969Y1036473D01*
X270436Y1037043D01*
X270957Y1037564D01*
X271527Y1038031D01*
X272140Y1038441D01*
X272789Y1038788D01*
X273470Y1039070D01*
X274175Y1039284D01*
X274898Y1039428D01*
X275632Y1039500D01*
X276368Y1039500D01*
X277102Y1039428D01*
X277825Y1039284D01*
X278530Y1039070D01*
X279211Y1038788D01*
X279860Y1038441D01*
X280473Y1038031D01*
X281043Y1037564D01*
X281564Y1037043D01*
X282031Y1036473D01*
X282441Y1035860D01*
X282788Y1035211D01*
X283070Y1034530D01*
X283284Y1033825D01*
X283428Y1033102D01*
X283500Y1032368D01*
X283500Y1031632D01*
X283500Y961632D02*
X283428Y960898D01*
X283284Y960175D01*
X283070Y959470D01*
X282788Y958789D01*
X282441Y958140D01*
X282031Y957527D01*
X281564Y956957D01*
X281043Y956436D01*
X280473Y955969D01*
X279860Y955559D01*
X279211Y955212D01*
X278530Y954930D01*
X277825Y954716D01*
X277102Y954572D01*
X276368Y954500D01*
X275632Y954500D01*
X274898Y954572D01*
X274175Y954716D01*
X273470Y954930D01*
X272789Y955212D01*
X272140Y955559D01*
X271527Y955969D01*
X270957Y956436D01*
X270436Y956957D01*
X269969Y957527D01*
X269559Y958140D01*
X269212Y958789D01*
X268930Y959470D01*
X268716Y960175D01*
X268572Y960898D01*
X268500Y961632D01*
X268500Y962368D01*
X268572Y963102D01*
X268716Y963825D01*
X268930Y964530D01*
X269212Y965211D01*
X269559Y965860D01*
X269969Y966473D01*
X270436Y967043D01*
X270957Y967564D01*
X271527Y968031D01*
X272140Y968441D01*
X272789Y968788D01*
X273470Y969070D01*
X274175Y969284D01*
X274898Y969428D01*
X275632Y969500D01*
X276368Y969500D01*
X277102Y969428D01*
X277825Y969284D01*
X278530Y969070D01*
X279211Y968788D01*
X279860Y968441D01*
X280473Y968031D01*
X281043Y967564D01*
X281564Y967043D01*
X282031Y966473D01*
X282441Y965860D01*
X282788Y965211D01*
X283070Y964530D01*
X283284Y963825D01*
X283428Y963102D01*
X283500Y962368D01*
X283500Y961632D01*
X410500Y1031632D02*
X410428Y1030898D01*
X410284Y1030175D01*
X410070Y1029470D01*
X409788Y1028789D01*
X409441Y1028140D01*
X409031Y1027527D01*
X408564Y1026957D01*
X408043Y1026436D01*
X407473Y1025969D01*
X406860Y1025559D01*
X406211Y1025212D01*
X405530Y1024930D01*
X404825Y1024716D01*
X404102Y1024572D01*
X403368Y1024500D01*
X402632Y1024500D01*
X401898Y1024572D01*
X401175Y1024716D01*
X400470Y1024930D01*
X399789Y1025212D01*
X399140Y1025559D01*
X398527Y1025969D01*
X397957Y1026436D01*
X397436Y1026957D01*
X396969Y1027527D01*
X396559Y1028140D01*
X396212Y1028789D01*
X395930Y1029470D01*
X395716Y1030175D01*
X395572Y1030898D01*
X395500Y1031632D01*
X395500Y1032368D01*
X395572Y1033102D01*
X395716Y1033825D01*
X395930Y1034530D01*
X396212Y1035211D01*
X396559Y1035860D01*
X396969Y1036473D01*
X397436Y1037043D01*
X397957Y1037564D01*
X398527Y1038031D01*
X399140Y1038441D01*
X399789Y1038788D01*
X400470Y1039070D01*
X401175Y1039284D01*
X401898Y1039428D01*
X402632Y1039500D01*
X403368Y1039500D01*
X404102Y1039428D01*
X404825Y1039284D01*
X405530Y1039070D01*
X406211Y1038788D01*
X406860Y1038441D01*
X407473Y1038031D01*
X408043Y1037564D01*
X408564Y1037043D01*
X409031Y1036473D01*
X409441Y1035860D01*
X409788Y1035211D01*
X410070Y1034530D01*
X410284Y1033825D01*
X410428Y1033102D01*
X410500Y1032368D01*
X410500Y1031632D01*
X410500Y961632D02*
X410428Y960898D01*
X410284Y960175D01*
X410070Y959470D01*
X409788Y958789D01*
X409441Y958140D01*
X409031Y957527D01*
X408564Y956957D01*
X408043Y956436D01*
X407473Y955969D01*
X406860Y955559D01*
X406211Y955212D01*
X405530Y954930D01*
X404825Y954716D01*
X404102Y954572D01*
X403368Y954500D01*
X402632Y954500D01*
X401898Y954572D01*
X401175Y954716D01*
X400470Y954930D01*
X399789Y955212D01*
X399140Y955559D01*
X398527Y955969D01*
X397957Y956436D01*
X397436Y956957D01*
X396969Y957527D01*
X396559Y958140D01*
X396212Y958789D01*
X395930Y959470D01*
X395716Y960175D01*
X395572Y960898D01*
X395500Y961632D01*
X395500Y962368D01*
X395572Y963102D01*
X395716Y963825D01*
X395930Y964530D01*
X396212Y965211D01*
X396559Y965860D01*
X396969Y966473D01*
X397436Y967043D01*
X397957Y967564D01*
X398527Y968031D01*
X399140Y968441D01*
X399789Y968788D01*
X400470Y969070D01*
X401175Y969284D01*
X401898Y969428D01*
X402632Y969500D01*
X403368Y969500D01*
X404102Y969428D01*
X404825Y969284D01*
X405530Y969070D01*
X406211Y968788D01*
X406860Y968441D01*
X407473Y968031D01*
X408043Y967564D01*
X408564Y967043D01*
X409031Y966473D01*
X409441Y965860D01*
X409788Y965211D01*
X410070Y964530D01*
X410284Y963825D01*
X410428Y963102D01*
X410500Y962368D01*
X410500Y961632D01*
X791500Y1031632D02*
X791428Y1030898D01*
X791284Y1030175D01*
X791070Y1029470D01*
X790788Y1028789D01*
X790441Y1028140D01*
X790031Y1027527D01*
X789564Y1026957D01*
X789043Y1026436D01*
X788473Y1025969D01*
X787860Y1025559D01*
X787211Y1025212D01*
X786530Y1024930D01*
X785825Y1024716D01*
X785102Y1024572D01*
X784368Y1024500D01*
X783632Y1024500D01*
X782898Y1024572D01*
X782175Y1024716D01*
X781470Y1024930D01*
X780789Y1025212D01*
X780140Y1025559D01*
X779527Y1025969D01*
X778957Y1026436D01*
X778436Y1026957D01*
X777969Y1027527D01*
X777559Y1028140D01*
X777212Y1028789D01*
X776930Y1029470D01*
X776716Y1030175D01*
X776572Y1030898D01*
X776500Y1031632D01*
X776500Y1032368D01*
X776572Y1033102D01*
X776716Y1033825D01*
X776930Y1034530D01*
X777212Y1035211D01*
X777559Y1035860D01*
X777969Y1036473D01*
X778436Y1037043D01*
X778957Y1037564D01*
X779527Y1038031D01*
X780140Y1038441D01*
X780789Y1038788D01*
X781470Y1039070D01*
X782175Y1039284D01*
X782898Y1039428D01*
X783632Y1039500D01*
X784368Y1039500D01*
X785102Y1039428D01*
X785825Y1039284D01*
X786530Y1039070D01*
X787211Y1038788D01*
X787860Y1038441D01*
X788473Y1038031D01*
X789043Y1037564D01*
X789564Y1037043D01*
X790031Y1036473D01*
X790441Y1035860D01*
X790788Y1035211D01*
X791070Y1034530D01*
X791284Y1033825D01*
X791428Y1033102D01*
X791500Y1032368D01*
X791500Y1031632D01*
X791500Y961632D02*
X791428Y960898D01*
X791284Y960175D01*
X791070Y959470D01*
X790788Y958789D01*
X790441Y958140D01*
X790031Y957527D01*
X789564Y956957D01*
X789043Y956436D01*
X788473Y955969D01*
X787860Y955559D01*
X787211Y955212D01*
X786530Y954930D01*
X785825Y954716D01*
X785102Y954572D01*
X784368Y954500D01*
X783632Y954500D01*
X782898Y954572D01*
X782175Y954716D01*
X781470Y954930D01*
X780789Y955212D01*
X780140Y955559D01*
X779527Y955969D01*
X778957Y956436D01*
X778436Y956957D01*
X777969Y957527D01*
X777559Y958140D01*
X777212Y958789D01*
X776930Y959470D01*
X776716Y960175D01*
X776572Y960898D01*
X776500Y961632D01*
X776500Y962368D01*
X776572Y963102D01*
X776716Y963825D01*
X776930Y964530D01*
X777212Y965211D01*
X777559Y965860D01*
X777969Y966473D01*
X778436Y967043D01*
X778957Y967564D01*
X779527Y968031D01*
X780140Y968441D01*
X780789Y968788D01*
X781470Y969070D01*
X782175Y969284D01*
X782898Y969428D01*
X783632Y969500D01*
X784368Y969500D01*
X785102Y969428D01*
X785825Y969284D01*
X786530Y969070D01*
X787211Y968788D01*
X787860Y968441D01*
X788473Y968031D01*
X789043Y967564D01*
X789564Y967043D01*
X790031Y966473D01*
X790441Y965860D01*
X790788Y965211D01*
X791070Y964530D01*
X791284Y963825D01*
X791428Y963102D01*
X791500Y962368D01*
X791500Y961632D01*
X664500Y1031632D02*
X664428Y1030898D01*
X664284Y1030175D01*
X664070Y1029470D01*
X663788Y1028789D01*
X663441Y1028140D01*
X663031Y1027527D01*
X662564Y1026957D01*
X662043Y1026436D01*
X661473Y1025969D01*
X660860Y1025559D01*
X660211Y1025212D01*
X659530Y1024930D01*
X658825Y1024716D01*
X658102Y1024572D01*
X657368Y1024500D01*
X656632Y1024500D01*
X655898Y1024572D01*
X655175Y1024716D01*
X654470Y1024930D01*
X653789Y1025212D01*
X653140Y1025559D01*
X652527Y1025969D01*
X651957Y1026436D01*
X651436Y1026957D01*
X650969Y1027527D01*
X650559Y1028140D01*
X650212Y1028789D01*
X649930Y1029470D01*
X649716Y1030175D01*
X649572Y1030898D01*
X649500Y1031632D01*
X649500Y1032368D01*
X649572Y1033102D01*
X649716Y1033825D01*
X649930Y1034530D01*
X650212Y1035211D01*
X650559Y1035860D01*
X650969Y1036473D01*
X651436Y1037043D01*
X651957Y1037564D01*
X652527Y1038031D01*
X653140Y1038441D01*
X653789Y1038788D01*
X654470Y1039070D01*
X655175Y1039284D01*
X655898Y1039428D01*
X656632Y1039500D01*
X657368Y1039500D01*
X658102Y1039428D01*
X658825Y1039284D01*
X659530Y1039070D01*
X660211Y1038788D01*
X660860Y1038441D01*
X661473Y1038031D01*
X662043Y1037564D01*
X662564Y1037043D01*
X663031Y1036473D01*
X663441Y1035860D01*
X663788Y1035211D01*
X664070Y1034530D01*
X664284Y1033825D01*
X664428Y1033102D01*
X664500Y1032368D01*
X664500Y1031632D01*
X664500Y961632D02*
X664428Y960898D01*
X664284Y960175D01*
X664070Y959470D01*
X663788Y958789D01*
X663441Y958140D01*
X663031Y957527D01*
X662564Y956957D01*
X662043Y956436D01*
X661473Y955969D01*
X660860Y955559D01*
X660211Y955212D01*
X659530Y954930D01*
X658825Y954716D01*
X658102Y954572D01*
X657368Y954500D01*
X656632Y954500D01*
X655898Y954572D01*
X655175Y954716D01*
X654470Y954930D01*
X653789Y955212D01*
X653140Y955559D01*
X652527Y955969D01*
X651957Y956436D01*
X651436Y956957D01*
X650969Y957527D01*
X650559Y958140D01*
X650212Y958789D01*
X649930Y959470D01*
X649716Y960175D01*
X649572Y960898D01*
X649500Y961632D01*
X649500Y962368D01*
X649572Y963102D01*
X649716Y963825D01*
X649930Y964530D01*
X650212Y965211D01*
X650559Y965860D01*
X650969Y966473D01*
X651436Y967043D01*
X651957Y967564D01*
X652527Y968031D01*
X653140Y968441D01*
X653789Y968788D01*
X654470Y969070D01*
X655175Y969284D01*
X655898Y969428D01*
X656632Y969500D01*
X657368Y969500D01*
X658102Y969428D01*
X658825Y969284D01*
X659530Y969070D01*
X660211Y968788D01*
X660860Y968441D01*
X661473Y968031D01*
X662043Y967564D01*
X662564Y967043D01*
X663031Y966473D01*
X663441Y965860D01*
X663788Y965211D01*
X664070Y964530D01*
X664284Y963825D01*
X664428Y963102D01*
X664500Y962368D01*
X664500Y961632D01*
X537500Y1031632D02*
X537428Y1030898D01*
X537284Y1030175D01*
X537070Y1029470D01*
X536788Y1028789D01*
X536441Y1028140D01*
X536031Y1027527D01*
X535564Y1026957D01*
X535043Y1026436D01*
X534473Y1025969D01*
X533860Y1025559D01*
X533211Y1025212D01*
X532530Y1024930D01*
X531825Y1024716D01*
X531102Y1024572D01*
X530368Y1024500D01*
X529632Y1024500D01*
X528898Y1024572D01*
X528175Y1024716D01*
X527470Y1024930D01*
X526789Y1025212D01*
X526140Y1025559D01*
X525527Y1025969D01*
X524957Y1026436D01*
X524436Y1026957D01*
X523969Y1027527D01*
X523559Y1028140D01*
X523212Y1028789D01*
X522930Y1029470D01*
X522716Y1030175D01*
X522572Y1030898D01*
X522500Y1031632D01*
X522500Y1032368D01*
X522572Y1033102D01*
X522716Y1033825D01*
X522930Y1034530D01*
X523212Y1035211D01*
X523559Y1035860D01*
X523969Y1036473D01*
X524436Y1037043D01*
X524957Y1037564D01*
X525527Y1038031D01*
X526140Y1038441D01*
X526789Y1038788D01*
X527470Y1039070D01*
X528175Y1039284D01*
X528898Y1039428D01*
X529632Y1039500D01*
X530368Y1039500D01*
X531102Y1039428D01*
X531825Y1039284D01*
X532530Y1039070D01*
X533211Y1038788D01*
X533860Y1038441D01*
X534473Y1038031D01*
X535043Y1037564D01*
X535564Y1037043D01*
X536031Y1036473D01*
X536441Y1035860D01*
X536788Y1035211D01*
X537070Y1034530D01*
X537284Y1033825D01*
X537428Y1033102D01*
X537500Y1032368D01*
X537500Y1031632D01*
X537500Y961632D02*
X537428Y960898D01*
X537284Y960175D01*
X537070Y959470D01*
X536788Y958789D01*
X536441Y958140D01*
X536031Y957527D01*
X535564Y956957D01*
X535043Y956436D01*
X534473Y955969D01*
X533860Y955559D01*
X533211Y955212D01*
X532530Y954930D01*
X531825Y954716D01*
X531102Y954572D01*
X530368Y954500D01*
X529632Y954500D01*
X528898Y954572D01*
X528175Y954716D01*
X527470Y954930D01*
X526789Y955212D01*
X526140Y955559D01*
X525527Y955969D01*
X524957Y956436D01*
X524436Y956957D01*
X523969Y957527D01*
X523559Y958140D01*
X523212Y958789D01*
X522930Y959470D01*
X522716Y960175D01*
X522572Y960898D01*
X522500Y961632D01*
X522500Y962368D01*
X522572Y963102D01*
X522716Y963825D01*
X522930Y964530D01*
X523212Y965211D01*
X523559Y965860D01*
X523969Y966473D01*
X524436Y967043D01*
X524957Y967564D01*
X525527Y968031D01*
X526140Y968441D01*
X526789Y968788D01*
X527470Y969070D01*
X528175Y969284D01*
X528898Y969428D01*
X529632Y969500D01*
X530368Y969500D01*
X531102Y969428D01*
X531825Y969284D01*
X532530Y969070D01*
X533211Y968788D01*
X533860Y968441D01*
X534473Y968031D01*
X535043Y967564D01*
X535564Y967043D01*
X536031Y966473D01*
X536441Y965860D01*
X536788Y965211D01*
X537070Y964530D01*
X537284Y963825D01*
X537428Y963102D01*
X537500Y962368D01*
X537500Y961632D01*
X918500Y1031632D02*
X918428Y1030898D01*
X918284Y1030175D01*
X918070Y1029470D01*
X917788Y1028789D01*
X917441Y1028140D01*
X917031Y1027527D01*
X916564Y1026957D01*
X916043Y1026436D01*
X915473Y1025969D01*
X914860Y1025559D01*
X914211Y1025212D01*
X913530Y1024930D01*
X912825Y1024716D01*
X912102Y1024572D01*
X911368Y1024500D01*
X910632Y1024500D01*
X909898Y1024572D01*
X909175Y1024716D01*
X908470Y1024930D01*
X907789Y1025212D01*
X907140Y1025559D01*
X906527Y1025969D01*
X905957Y1026436D01*
X905436Y1026957D01*
X904969Y1027527D01*
X904559Y1028140D01*
X904212Y1028789D01*
X903930Y1029470D01*
X903716Y1030175D01*
X903572Y1030898D01*
X903500Y1031632D01*
X903500Y1032368D01*
X903572Y1033102D01*
X903716Y1033825D01*
X903930Y1034530D01*
X904212Y1035211D01*
X904559Y1035860D01*
X904969Y1036473D01*
X905436Y1037043D01*
X905957Y1037564D01*
X906527Y1038031D01*
X907140Y1038441D01*
X907789Y1038788D01*
X908470Y1039070D01*
X909175Y1039284D01*
X909898Y1039428D01*
X910632Y1039500D01*
X911368Y1039500D01*
X912102Y1039428D01*
X912825Y1039284D01*
X913530Y1039070D01*
X914211Y1038788D01*
X914860Y1038441D01*
X915473Y1038031D01*
X916043Y1037564D01*
X916564Y1037043D01*
X917031Y1036473D01*
X917441Y1035860D01*
X917788Y1035211D01*
X918070Y1034530D01*
X918284Y1033825D01*
X918428Y1033102D01*
X918500Y1032368D01*
X918500Y1031632D01*
X918500Y961632D02*
X918428Y960898D01*
X918284Y960175D01*
X918070Y959470D01*
X917788Y958789D01*
X917441Y958140D01*
X917031Y957527D01*
X916564Y956957D01*
X916043Y956436D01*
X915473Y955969D01*
X914860Y955559D01*
X914211Y955212D01*
X913530Y954930D01*
X912825Y954716D01*
X912102Y954572D01*
X911368Y954500D01*
X910632Y954500D01*
X909898Y954572D01*
X909175Y954716D01*
X908470Y954930D01*
X907789Y955212D01*
X907140Y955559D01*
X906527Y955969D01*
X905957Y956436D01*
X905436Y956957D01*
X904969Y957527D01*
X904559Y958140D01*
X904212Y958789D01*
X903930Y959470D01*
X903716Y960175D01*
X903572Y960898D01*
X903500Y961632D01*
X903500Y962368D01*
X903572Y963102D01*
X903716Y963825D01*
X903930Y964530D01*
X904212Y965211D01*
X904559Y965860D01*
X904969Y966473D01*
X905436Y967043D01*
X905957Y967564D01*
X906527Y968031D01*
X907140Y968441D01*
X907789Y968788D01*
X908470Y969070D01*
X909175Y969284D01*
X909898Y969428D01*
X910632Y969500D01*
X911368Y969500D01*
X912102Y969428D01*
X912825Y969284D01*
X913530Y969070D01*
X914211Y968788D01*
X914860Y968441D01*
X915473Y968031D01*
X916043Y967564D01*
X916564Y967043D01*
X917031Y966473D01*
X917441Y965860D01*
X917788Y965211D01*
X918070Y964530D01*
X918284Y963825D01*
X918428Y963102D01*
X918500Y962368D01*
X918500Y961632D01*
X1045500Y1031632D02*
X1045428Y1030898D01*
X1045284Y1030175D01*
X1045070Y1029470D01*
X1044788Y1028789D01*
X1044441Y1028140D01*
X1044031Y1027527D01*
X1043564Y1026957D01*
X1043043Y1026436D01*
X1042473Y1025969D01*
X1041860Y1025559D01*
X1041211Y1025212D01*
X1040530Y1024930D01*
X1039825Y1024716D01*
X1039102Y1024572D01*
X1038368Y1024500D01*
X1037632Y1024500D01*
X1036898Y1024572D01*
X1036175Y1024716D01*
X1035470Y1024930D01*
X1034789Y1025212D01*
X1034140Y1025559D01*
X1033527Y1025969D01*
X1032957Y1026436D01*
X1032436Y1026957D01*
X1031969Y1027527D01*
X1031559Y1028140D01*
X1031212Y1028789D01*
X1030930Y1029470D01*
X1030716Y1030175D01*
X1030572Y1030898D01*
X1030500Y1031632D01*
X1030500Y1032368D01*
X1030572Y1033102D01*
X1030716Y1033825D01*
X1030930Y1034530D01*
X1031212Y1035211D01*
X1031559Y1035860D01*
X1031969Y1036473D01*
X1032436Y1037043D01*
X1032957Y1037564D01*
X1033527Y1038031D01*
X1034140Y1038441D01*
X1034789Y1038788D01*
X1035470Y1039070D01*
X1036175Y1039284D01*
X1036898Y1039428D01*
X1037632Y1039500D01*
X1038368Y1039500D01*
X1039102Y1039428D01*
X1039825Y1039284D01*
X1040530Y1039070D01*
X1041211Y1038788D01*
X1041860Y1038441D01*
X1042473Y1038031D01*
X1043043Y1037564D01*
X1043564Y1037043D01*
X1044031Y1036473D01*
X1044441Y1035860D01*
X1044788Y1035211D01*
X1045070Y1034530D01*
X1045284Y1033825D01*
X1045428Y1033102D01*
X1045500Y1032368D01*
X1045500Y1031632D01*
X1045500Y961632D02*
X1045428Y960898D01*
X1045284Y960175D01*
X1045070Y959470D01*
X1044788Y958789D01*
X1044441Y958140D01*
X1044031Y957527D01*
X1043564Y956957D01*
X1043043Y956436D01*
X1042473Y955969D01*
X1041860Y955559D01*
X1041211Y955212D01*
X1040530Y954930D01*
X1039825Y954716D01*
X1039102Y954572D01*
X1038368Y954500D01*
X1037632Y954500D01*
X1036898Y954572D01*
X1036175Y954716D01*
X1035470Y954930D01*
X1034789Y955212D01*
X1034140Y955559D01*
X1033527Y955969D01*
X1032957Y956436D01*
X1032436Y956957D01*
X1031969Y957527D01*
X1031559Y958140D01*
X1031212Y958789D01*
X1030930Y959470D01*
X1030716Y960175D01*
X1030572Y960898D01*
X1030500Y961632D01*
X1030500Y962368D01*
X1030572Y963102D01*
X1030716Y963825D01*
X1030930Y964530D01*
X1031212Y965211D01*
X1031559Y965860D01*
X1031969Y966473D01*
X1032436Y967043D01*
X1032957Y967564D01*
X1033527Y968031D01*
X1034140Y968441D01*
X1034789Y968788D01*
X1035470Y969070D01*
X1036175Y969284D01*
X1036898Y969428D01*
X1037632Y969500D01*
X1038368Y969500D01*
X1039102Y969428D01*
X1039825Y969284D01*
X1040530Y969070D01*
X1041211Y968788D01*
X1041860Y968441D01*
X1042473Y968031D01*
X1043043Y967564D01*
X1043564Y967043D01*
X1044031Y966473D01*
X1044441Y965860D01*
X1044788Y965211D01*
X1045070Y964530D01*
X1045284Y963825D01*
X1045428Y963102D01*
X1045500Y962368D01*
X1045500Y961632D01*
X1172500Y1031632D02*
X1172428Y1030898D01*
X1172284Y1030175D01*
X1172070Y1029470D01*
X1171788Y1028789D01*
X1171441Y1028140D01*
X1171031Y1027527D01*
X1170564Y1026957D01*
X1170043Y1026436D01*
X1169473Y1025969D01*
X1168860Y1025559D01*
X1168211Y1025212D01*
X1167530Y1024930D01*
X1166825Y1024716D01*
X1166102Y1024572D01*
X1165368Y1024500D01*
X1164632Y1024500D01*
X1163898Y1024572D01*
X1163175Y1024716D01*
X1162470Y1024930D01*
X1161789Y1025212D01*
X1161140Y1025559D01*
X1160527Y1025969D01*
X1159957Y1026436D01*
X1159436Y1026957D01*
X1158969Y1027527D01*
X1158559Y1028140D01*
X1158212Y1028789D01*
X1157930Y1029470D01*
X1157716Y1030175D01*
X1157572Y1030898D01*
X1157500Y1031632D01*
X1157500Y1032368D01*
X1157572Y1033102D01*
X1157716Y1033825D01*
X1157930Y1034530D01*
X1158212Y1035211D01*
X1158559Y1035860D01*
X1158969Y1036473D01*
X1159436Y1037043D01*
X1159957Y1037564D01*
X1160527Y1038031D01*
X1161140Y1038441D01*
X1161789Y1038788D01*
X1162470Y1039070D01*
X1163175Y1039284D01*
X1163898Y1039428D01*
X1164632Y1039500D01*
X1165368Y1039500D01*
X1166102Y1039428D01*
X1166825Y1039284D01*
X1167530Y1039070D01*
X1168211Y1038788D01*
X1168860Y1038441D01*
X1169473Y1038031D01*
X1170043Y1037564D01*
X1170564Y1037043D01*
X1171031Y1036473D01*
X1171441Y1035860D01*
X1171788Y1035211D01*
X1172070Y1034530D01*
X1172284Y1033825D01*
X1172428Y1033102D01*
X1172500Y1032368D01*
X1172500Y1031632D01*
X1172500Y961632D02*
X1172428Y960898D01*
X1172284Y960175D01*
X1172070Y959470D01*
X1171788Y958789D01*
X1171441Y958140D01*
X1171031Y957527D01*
X1170564Y956957D01*
X1170043Y956436D01*
X1169473Y955969D01*
X1168860Y955559D01*
X1168211Y955212D01*
X1167530Y954930D01*
X1166825Y954716D01*
X1166102Y954572D01*
X1165368Y954500D01*
X1164632Y954500D01*
X1163898Y954572D01*
X1163175Y954716D01*
X1162470Y954930D01*
X1161789Y955212D01*
X1161140Y955559D01*
X1160527Y955969D01*
X1159957Y956436D01*
X1159436Y956957D01*
X1158969Y957527D01*
X1158559Y958140D01*
X1158212Y958789D01*
X1157930Y959470D01*
X1157716Y960175D01*
X1157572Y960898D01*
X1157500Y961632D01*
X1157500Y962368D01*
X1157572Y963102D01*
X1157716Y963825D01*
X1157930Y964530D01*
X1158212Y965211D01*
X1158559Y965860D01*
X1158969Y966473D01*
X1159436Y967043D01*
X1159957Y967564D01*
X1160527Y968031D01*
X1161140Y968441D01*
X1161789Y968788D01*
X1162470Y969070D01*
X1163175Y969284D01*
X1163898Y969428D01*
X1164632Y969500D01*
X1165368Y969500D01*
X1166102Y969428D01*
X1166825Y969284D01*
X1167530Y969070D01*
X1168211Y968788D01*
X1168860Y968441D01*
X1169473Y968031D01*
X1170043Y967564D01*
X1170564Y967043D01*
X1171031Y966473D01*
X1171441Y965860D01*
X1171788Y965211D01*
X1172070Y964530D01*
X1172284Y963825D01*
X1172428Y963102D01*
X1172500Y962368D01*
X1172500Y961632D01*
X1292000Y469393D02*
X1292077Y470175D01*
X1292230Y470946D01*
X1292459Y471698D01*
X1292759Y472425D01*
X1293130Y473118D01*
X1293567Y473771D01*
X1294065Y474379D01*
X1294621Y474935D01*
X1295229Y475433D01*
X1295882Y475870D01*
X1296575Y476241D01*
X1297302Y476541D01*
X1298054Y476770D01*
X1298825Y476923D01*
X1299607Y477000D01*
X1300393Y477000D01*
X1301175Y476923D01*
X1301946Y476770D01*
X1302698Y476541D01*
X1303425Y476241D01*
X1304118Y475870D01*
X1304771Y475433D01*
X1305379Y474935D01*
X1305935Y474379D01*
X1306433Y473771D01*
X1306870Y473118D01*
X1307241Y472425D01*
X1307541Y471698D01*
X1307770Y470946D01*
X1307923Y470175D01*
X1308000Y469393D01*
X1308000Y468607D01*
X1307923Y467825D01*
X1307770Y467054D01*
X1307541Y466302D01*
X1307241Y465575D01*
X1306870Y464882D01*
X1306433Y464229D01*
X1305935Y463621D01*
X1305379Y463065D01*
X1304771Y462567D01*
X1304118Y462130D01*
X1303425Y461759D01*
X1302698Y461459D01*
X1301946Y461230D01*
X1301175Y461077D01*
X1300393Y461000D01*
X1299607Y461000D01*
X1298825Y461077D01*
X1298054Y461230D01*
X1297302Y461459D01*
X1296575Y461759D01*
X1295882Y462130D01*
X1295229Y462567D01*
X1294621Y463065D01*
X1294065Y463621D01*
X1293567Y464229D01*
X1293130Y464882D01*
X1292759Y465575D01*
X1292459Y466302D01*
X1292230Y467054D01*
X1292077Y467825D01*
X1292000Y468607D01*
X1292000Y469393D01*
X1246000Y469393D02*
X1246069Y470176D01*
X1246205Y470950D01*
X1246408Y471709D01*
X1246677Y472447D01*
X1247009Y473160D01*
X1247402Y473840D01*
X1247853Y474484D01*
X1248358Y475086D01*
X1248914Y475642D01*
X1249516Y476147D01*
X1250160Y476598D01*
X1250840Y476991D01*
X1251553Y477323D01*
X1252291Y477592D01*
X1253050Y477795D01*
X1253824Y477932D01*
X1254607Y478000D01*
X1255393Y478000D01*
X1256176Y477932D01*
X1256950Y477795D01*
X1257709Y477592D01*
X1258447Y477323D01*
X1259160Y476991D01*
X1259840Y476598D01*
X1260484Y476147D01*
X1261086Y475642D01*
X1261642Y475086D01*
X1262147Y474484D01*
X1262598Y473840D01*
X1262991Y473160D01*
X1263323Y472447D01*
X1263592Y471709D01*
X1263795Y470950D01*
X1263932Y470176D01*
X1264000Y469393D01*
X1264000Y468607D01*
X1263932Y467824D01*
X1263795Y467050D01*
X1263592Y466291D01*
X1263323Y465553D01*
X1262991Y464840D01*
X1262598Y464160D01*
X1262147Y463516D01*
X1261642Y462914D01*
X1261086Y462358D01*
X1260484Y461853D01*
X1259840Y461402D01*
X1259160Y461009D01*
X1258447Y460677D01*
X1257709Y460408D01*
X1256950Y460205D01*
X1256176Y460069D01*
X1255393Y460000D01*
X1254607Y460000D01*
X1253824Y460069D01*
X1253050Y460205D01*
X1252291Y460408D01*
X1251553Y460677D01*
X1250840Y461009D01*
X1250160Y461402D01*
X1249516Y461853D01*
X1248914Y462358D01*
X1248358Y462914D01*
X1247853Y463516D01*
X1247402Y464160D01*
X1247009Y464840D01*
X1246677Y465553D01*
X1246408Y466291D01*
X1246205Y467050D01*
X1246069Y467824D01*
X1246000Y468607D01*
X1246000Y469393D01*
X41968Y436512D02*
X40906Y436581D01*
X39852Y436720D01*
X38808Y436928D01*
X37780Y437203D01*
X36773Y437545D01*
X35790Y437952D01*
X34836Y438423D01*
X33914Y438955D01*
X33030Y439546D01*
X32186Y440194D01*
X31386Y440895D01*
X30633Y441647D01*
X29932Y442447D01*
X29284Y443291D01*
X28693Y444176D01*
X28161Y445097D01*
X27691Y446052D01*
X27283Y447035D01*
X26941Y448042D01*
X26666Y449070D01*
X26458Y450113D01*
X26320Y451168D01*
X26250Y452230D01*
X26250Y453294D01*
X26320Y454355D01*
X26458Y455410D01*
X26666Y456454D01*
X26941Y457481D01*
X27283Y458489D01*
X27691Y459472D01*
X28161Y460426D01*
X28693Y461347D01*
X29284Y462232D01*
X29932Y463076D01*
X30633Y463876D01*
X31386Y464628D01*
X32186Y465330D01*
X33030Y465978D01*
X33914Y466569D01*
X34836Y467101D01*
X35790Y467571D01*
X36773Y467978D01*
X37780Y468320D01*
X38808Y468596D01*
X39852Y468803D01*
X40906Y468942D01*
X41968Y469012D01*
X43032Y469012D01*
X44094Y468942D01*
X45148Y468803D01*
X46192Y468596D01*
X47220Y468320D01*
X48227Y467978D01*
X49210Y467571D01*
X50164Y467101D01*
X51086Y466569D01*
X51970Y465978D01*
X52814Y465330D01*
X53614Y464628D01*
X54367Y463876D01*
X55068Y463076D01*
X55716Y462232D01*
X56307Y461347D01*
X56839Y460426D01*
X57309Y459472D01*
X57717Y458489D01*
X58059Y457481D01*
X58334Y456454D01*
X58542Y455410D01*
X58680Y454355D01*
X58750Y453294D01*
X58750Y452230D01*
X58680Y451168D01*
X58542Y450113D01*
X58334Y449070D01*
X58059Y448042D01*
X57717Y447035D01*
X57309Y446052D01*
X56839Y445097D01*
X56307Y444176D01*
X55716Y443291D01*
X55068Y442447D01*
X54367Y441647D01*
X53614Y440895D01*
X52814Y440194D01*
X51970Y439546D01*
X51086Y438955D01*
X50164Y438423D01*
X49210Y437952D01*
X48227Y437545D01*
X47220Y437203D01*
X46192Y436928D01*
X45148Y436720D01*
X44094Y436581D01*
X43032Y436512D01*
X41968Y436512D01*
X41968Y322212D02*
X40906Y322281D01*
X39852Y322420D01*
X38808Y322628D01*
X37780Y322903D01*
X36773Y323245D01*
X35790Y323652D01*
X34836Y324123D01*
X33914Y324655D01*
X33030Y325246D01*
X32186Y325894D01*
X31386Y326595D01*
X30633Y327347D01*
X29932Y328147D01*
X29284Y328991D01*
X28693Y329876D01*
X28161Y330797D01*
X27691Y331752D01*
X27283Y332735D01*
X26941Y333742D01*
X26666Y334770D01*
X26458Y335813D01*
X26320Y336868D01*
X26250Y337930D01*
X26250Y338994D01*
X26320Y340055D01*
X26458Y341110D01*
X26666Y342154D01*
X26941Y343181D01*
X27283Y344189D01*
X27691Y345172D01*
X28161Y346126D01*
X28693Y347047D01*
X29284Y347932D01*
X29932Y348776D01*
X30633Y349576D01*
X31386Y350328D01*
X32186Y351030D01*
X33030Y351678D01*
X33914Y352269D01*
X34836Y352801D01*
X35790Y353271D01*
X36773Y353678D01*
X37780Y354020D01*
X38808Y354296D01*
X39852Y354503D01*
X40906Y354642D01*
X41968Y354712D01*
X43032Y354712D01*
X44094Y354642D01*
X45148Y354503D01*
X46192Y354296D01*
X47220Y354020D01*
X48227Y353678D01*
X49210Y353271D01*
X50164Y352801D01*
X51086Y352269D01*
X51970Y351678D01*
X52814Y351030D01*
X53614Y350328D01*
X54367Y349576D01*
X55068Y348776D01*
X55716Y347932D01*
X56307Y347047D01*
X56839Y346126D01*
X57309Y345172D01*
X57717Y344189D01*
X58059Y343181D01*
X58334Y342154D01*
X58542Y341110D01*
X58680Y340055D01*
X58750Y338994D01*
X58750Y337930D01*
X58680Y336868D01*
X58542Y335813D01*
X58334Y334770D01*
X58059Y333742D01*
X57717Y332735D01*
X57309Y331752D01*
X56839Y330797D01*
X56307Y329876D01*
X55716Y328991D01*
X55068Y328147D01*
X54367Y327347D01*
X53614Y326595D01*
X52814Y325894D01*
X51970Y325246D01*
X51086Y324655D01*
X50164Y324123D01*
X49210Y323652D01*
X48227Y323245D01*
X47220Y322903D01*
X46192Y322628D01*
X45148Y322420D01*
X44094Y322281D01*
X43032Y322212D01*
X41968Y322212D01*
X778324Y211378D02*
X777291Y211452D01*
X776265Y211600D01*
X775253Y211820D01*
X774260Y212112D01*
X773289Y212474D01*
X772347Y212904D01*
X771438Y213400D01*
X770567Y213960D01*
X769737Y214581D01*
X768955Y215259D01*
X768222Y215992D01*
X767544Y216774D01*
X766923Y217604D01*
X766363Y218475D01*
X765867Y219384D01*
X765437Y220326D01*
X765075Y221296D01*
X764783Y222290D01*
X764563Y223302D01*
X764415Y224327D01*
X764342Y225361D01*
X764342Y226396D01*
X764415Y227429D01*
X764563Y228455D01*
X764783Y229467D01*
X765075Y230460D01*
X765437Y231431D01*
X765867Y232373D01*
X766363Y233282D01*
X766923Y234153D01*
X767544Y234983D01*
X768222Y235765D01*
X768955Y236498D01*
X769737Y237176D01*
X770567Y237797D01*
X771438Y238357D01*
X772347Y238853D01*
X773289Y239283D01*
X774260Y239645D01*
X775253Y239937D01*
X776265Y240157D01*
X777291Y240305D01*
X778324Y240378D01*
X779359Y240378D01*
X780392Y240305D01*
X781418Y240157D01*
X782430Y239937D01*
X783424Y239645D01*
X784394Y239283D01*
X785336Y238853D01*
X786245Y238357D01*
X787116Y237797D01*
X787946Y237176D01*
X788728Y236498D01*
X789461Y235765D01*
X790139Y234983D01*
X790760Y234153D01*
X791320Y233282D01*
X791816Y232373D01*
X792246Y231431D01*
X792608Y230460D01*
X792900Y229467D01*
X793120Y228455D01*
X793268Y227429D01*
X793342Y226396D01*
X793342Y225361D01*
X793268Y224327D01*
X793120Y223302D01*
X792900Y222290D01*
X792608Y221296D01*
X792246Y220326D01*
X791816Y219384D01*
X791320Y218475D01*
X790760Y217604D01*
X790139Y216774D01*
X789461Y215992D01*
X788728Y215259D01*
X787946Y214581D01*
X787116Y213960D01*
X786245Y213400D01*
X785336Y212904D01*
X784394Y212474D01*
X783424Y212112D01*
X782430Y211820D01*
X781418Y211600D01*
X780392Y211452D01*
X779359Y211378D01*
X778324Y211378D01*
X1261736Y212600D02*
X1262203Y212526D01*
X1262652Y212380D01*
X1263072Y212166D01*
X1263454Y211888D01*
X1263788Y211554D01*
X1264066Y211172D01*
X1264280Y210752D01*
X1264426Y210303D01*
X1264500Y209836D01*
X1264500Y209364D01*
X1264426Y208898D01*
X1264280Y208448D01*
X1264066Y208028D01*
X1263788Y207646D01*
X1263454Y207312D01*
X1263072Y207034D01*
X1262652Y206820D01*
X1262203Y206674D01*
X1261736Y206600D01*
X1261264Y206600D01*
X1260798Y206674D01*
X1260348Y206820D01*
X1259928Y207034D01*
X1259546Y207312D01*
X1259212Y207646D01*
X1258934Y208028D01*
X1258720Y208448D01*
X1258574Y208898D01*
X1258500Y209364D01*
X1258500Y209836D01*
X1258574Y210303D01*
X1258720Y210752D01*
X1258934Y211172D01*
X1259212Y211554D01*
X1259546Y211888D01*
X1259928Y212166D01*
X1260348Y212380D01*
X1260798Y212526D01*
X1261264Y212600D01*
X1261736Y212600D01*
X1261736Y270400D02*
X1262203Y270326D01*
X1262652Y270180D01*
X1263072Y269966D01*
X1263454Y269688D01*
X1263788Y269354D01*
X1264066Y268972D01*
X1264280Y268552D01*
X1264426Y268103D01*
X1264500Y267636D01*
X1264500Y267164D01*
X1264426Y266698D01*
X1264280Y266248D01*
X1264066Y265828D01*
X1263788Y265446D01*
X1263454Y265112D01*
X1263072Y264834D01*
X1262652Y264620D01*
X1262203Y264474D01*
X1261736Y264400D01*
X1261264Y264400D01*
X1260798Y264474D01*
X1260348Y264620D01*
X1259928Y264834D01*
X1259546Y265112D01*
X1259212Y265446D01*
X1258934Y265828D01*
X1258720Y266248D01*
X1258574Y266698D01*
X1258500Y267164D01*
X1258500Y267636D01*
X1258574Y268103D01*
X1258720Y268552D01*
X1258934Y268972D01*
X1259212Y269354D01*
X1259546Y269688D01*
X1259928Y269966D01*
X1260348Y270180D01*
X1260798Y270326D01*
X1261264Y270400D01*
X1261736Y270400D01*
X41968Y280512D02*
X40906Y280581D01*
X39852Y280720D01*
X38808Y280928D01*
X37780Y281203D01*
X36773Y281545D01*
X35790Y281952D01*
X34836Y282423D01*
X33914Y282955D01*
X33030Y283546D01*
X32186Y284194D01*
X31386Y284895D01*
X30633Y285647D01*
X29932Y286447D01*
X29284Y287291D01*
X28693Y288176D01*
X28161Y289097D01*
X27691Y290052D01*
X27283Y291035D01*
X26941Y292042D01*
X26666Y293070D01*
X26458Y294113D01*
X26320Y295168D01*
X26250Y296230D01*
X26250Y297294D01*
X26320Y298355D01*
X26458Y299410D01*
X26666Y300454D01*
X26941Y301481D01*
X27283Y302489D01*
X27691Y303472D01*
X28161Y304426D01*
X28693Y305347D01*
X29284Y306232D01*
X29932Y307076D01*
X30633Y307876D01*
X31386Y308628D01*
X32186Y309330D01*
X33030Y309978D01*
X33914Y310569D01*
X34836Y311101D01*
X35790Y311571D01*
X36773Y311978D01*
X37780Y312320D01*
X38808Y312596D01*
X39852Y312803D01*
X40906Y312942D01*
X41968Y313012D01*
X43032Y313012D01*
X44094Y312942D01*
X45148Y312803D01*
X46192Y312596D01*
X47220Y312320D01*
X48227Y311978D01*
X49210Y311571D01*
X50164Y311101D01*
X51086Y310569D01*
X51970Y309978D01*
X52814Y309330D01*
X53614Y308628D01*
X54367Y307876D01*
X55068Y307076D01*
X55716Y306232D01*
X56307Y305347D01*
X56839Y304426D01*
X57309Y303472D01*
X57717Y302489D01*
X58059Y301481D01*
X58334Y300454D01*
X58542Y299410D01*
X58680Y298355D01*
X58750Y297294D01*
X58750Y296230D01*
X58680Y295168D01*
X58542Y294113D01*
X58334Y293070D01*
X58059Y292042D01*
X57717Y291035D01*
X57309Y290052D01*
X56839Y289097D01*
X56307Y288176D01*
X55716Y287291D01*
X55068Y286447D01*
X54367Y285647D01*
X53614Y284895D01*
X52814Y284194D01*
X51970Y283546D01*
X51086Y282955D01*
X50164Y282423D01*
X49210Y281952D01*
X48227Y281545D01*
X47220Y281203D01*
X46192Y280928D01*
X45148Y280720D01*
X44094Y280581D01*
X43032Y280512D01*
X41968Y280512D01*
X41968Y166212D02*
X40906Y166281D01*
X39852Y166420D01*
X38808Y166628D01*
X37780Y166903D01*
X36773Y167245D01*
X35790Y167652D01*
X34836Y168123D01*
X33914Y168655D01*
X33030Y169246D01*
X32186Y169894D01*
X31386Y170595D01*
X30633Y171347D01*
X29932Y172147D01*
X29284Y172991D01*
X28693Y173876D01*
X28161Y174797D01*
X27691Y175752D01*
X27283Y176735D01*
X26941Y177742D01*
X26666Y178770D01*
X26458Y179813D01*
X26320Y180868D01*
X26250Y181930D01*
X26250Y182994D01*
X26320Y184055D01*
X26458Y185110D01*
X26666Y186154D01*
X26941Y187181D01*
X27283Y188189D01*
X27691Y189172D01*
X28161Y190126D01*
X28693Y191047D01*
X29284Y191932D01*
X29932Y192776D01*
X30633Y193576D01*
X31386Y194328D01*
X32186Y195030D01*
X33030Y195678D01*
X33914Y196269D01*
X34836Y196801D01*
X35790Y197271D01*
X36773Y197678D01*
X37780Y198020D01*
X38808Y198296D01*
X39852Y198503D01*
X40906Y198642D01*
X41968Y198712D01*
X43032Y198712D01*
X44094Y198642D01*
X45148Y198503D01*
X46192Y198296D01*
X47220Y198020D01*
X48227Y197678D01*
X49210Y197271D01*
X50164Y196801D01*
X51086Y196269D01*
X51970Y195678D01*
X52814Y195030D01*
X53614Y194328D01*
X54367Y193576D01*
X55068Y192776D01*
X55716Y191932D01*
X56307Y191047D01*
X56839Y190126D01*
X57309Y189172D01*
X57717Y188189D01*
X58059Y187181D01*
X58334Y186154D01*
X58542Y185110D01*
X58680Y184055D01*
X58750Y182994D01*
X58750Y181930D01*
X58680Y180868D01*
X58542Y179813D01*
X58334Y178770D01*
X58059Y177742D01*
X57717Y176735D01*
X57309Y175752D01*
X56839Y174797D01*
X56307Y173876D01*
X55716Y172991D01*
X55068Y172147D01*
X54367Y171347D01*
X53614Y170595D01*
X52814Y169894D01*
X51970Y169246D01*
X51086Y168655D01*
X50164Y168123D01*
X49210Y167652D01*
X48227Y167245D01*
X47220Y166903D01*
X46192Y166628D01*
X45148Y166420D01*
X44094Y166281D01*
X43032Y166212D01*
X41968Y166212D01*
X782571Y463354D02*
X782509Y463990D01*
X782384Y464616D01*
X782199Y465227D01*
X781954Y465818D01*
X781653Y466381D01*
X781299Y466912D01*
X780893Y467405D01*
X780442Y467857D01*
X779948Y468262D01*
X779417Y468617D01*
X778854Y468918D01*
X778264Y469162D01*
X777653Y469348D01*
X777026Y469472D01*
X776391Y469535D01*
X775752Y469535D01*
X775116Y469472D01*
X774490Y469348D01*
X773879Y469162D01*
X773289Y468918D01*
X772726Y468617D01*
X772195Y468262D01*
X771701Y467857D01*
X771249Y467405D01*
X770844Y466912D01*
X770489Y466381D01*
X770188Y465818D01*
X769944Y465227D01*
X769759Y464616D01*
X769634Y463990D01*
X769571Y463354D01*
X769571Y462716D01*
X769634Y462080D01*
X769759Y461454D01*
X769944Y460843D01*
X770188Y460253D01*
X770489Y459689D01*
X770844Y459158D01*
X771249Y458665D01*
X771701Y458213D01*
X772195Y457808D01*
X772726Y457453D01*
X773289Y457152D01*
X773879Y456908D01*
X774490Y456722D01*
X775116Y456598D01*
X775752Y456535D01*
X776391Y456535D01*
X777026Y456598D01*
X777653Y456722D01*
X778264Y456908D01*
X778854Y457152D01*
X779417Y457453D01*
X779948Y457808D01*
X780442Y458213D01*
X780893Y458665D01*
X781299Y459158D01*
X781653Y459689D01*
X781954Y460253D01*
X782199Y460843D01*
X782384Y461454D01*
X782509Y462080D01*
X782571Y462716D01*
X782571Y463354D01*
X781071Y388316D02*
X781009Y388874D01*
X780884Y389421D01*
X780698Y389951D01*
X780454Y390457D01*
X780156Y390933D01*
X779805Y391372D01*
X779408Y391769D01*
X778969Y392119D01*
X778494Y392418D01*
X777988Y392662D01*
X777458Y392847D01*
X776910Y392972D01*
X776352Y393035D01*
X775791Y393035D01*
X775233Y392972D01*
X774685Y392847D01*
X774155Y392662D01*
X773649Y392418D01*
X773173Y392119D01*
X772734Y391769D01*
X772337Y391372D01*
X771987Y390933D01*
X771688Y390457D01*
X771445Y389951D01*
X771259Y389421D01*
X771134Y388874D01*
X771071Y388316D01*
X771071Y387754D01*
X771134Y387196D01*
X771259Y386649D01*
X771445Y386119D01*
X771688Y385613D01*
X771987Y385137D01*
X772337Y384698D01*
X772734Y384301D01*
X773173Y383951D01*
X773649Y383652D01*
X774155Y383408D01*
X774685Y383223D01*
X775233Y383098D01*
X775791Y383035D01*
X776352Y383035D01*
X776910Y383098D01*
X777458Y383223D01*
X777988Y383408D01*
X778494Y383652D01*
X778969Y383951D01*
X779408Y384301D01*
X779805Y384698D01*
X780156Y385137D01*
X780454Y385613D01*
X780698Y386119D01*
X780884Y386649D01*
X781009Y387196D01*
X781071Y387754D01*
X781071Y388316D01*
M02*
