G04 EAGLE Gerber RS-274X export*
G75*
%MOMM*%
%FSLAX34Y34*%
%LPD*%
%INSoldermask Bottom*%
%IPPOS*%
%AMOC8*
5,1,8,0,0,1.08239X$1,22.5*%
G01*
%ADD10C,3.601600*%
%ADD11C,3.281600*%
%ADD12C,1.601600*%
%ADD13C,1.601600*%
%ADD14C,1.701600*%
%ADD15C,1.901600*%
%ADD16C,3.351600*%
%ADD17C,3.001600*%
%ADD18P,1.429621X8X22.500000*%
%ADD19R,5.101600X5.101600*%
%ADD20R,2.101600X1.001600*%
%ADD21R,1.001600X2.101600*%
%ADD22R,1.201600X1.101600*%
%ADD23C,1.981200*%
%ADD24R,1.371600X0.736600*%
%ADD25R,0.736600X1.371600*%
%ADD26R,1.601600X1.401600*%
%ADD27R,1.101600X1.201600*%
%ADD28C,0.701600*%
%ADD29R,2.401600X4.401600*%
%ADD30R,2.401600X3.761600*%
%ADD31C,1.401600*%
%ADD32C,1.101600*%
%ADD33P,1.759533X8X292.500000*%
%ADD34C,2.349500*%
%ADD35R,2.101600X1.551600*%
%ADD36R,1.601600X0.901600*%
%ADD37C,2.501600*%
%ADD38C,2.651600*%

G36*
X420717Y393268D02*
X420717Y393268D01*
X420783Y393270D01*
X420827Y393288D01*
X420873Y393296D01*
X420930Y393330D01*
X420991Y393355D01*
X421026Y393386D01*
X421066Y393410D01*
X421108Y393462D01*
X421157Y393506D01*
X421178Y393548D01*
X421208Y393585D01*
X421229Y393647D01*
X421259Y393706D01*
X421267Y393760D01*
X421280Y393797D01*
X421279Y393837D01*
X421287Y393891D01*
X421287Y396431D01*
X421275Y396496D01*
X421273Y396561D01*
X421255Y396605D01*
X421247Y396652D01*
X421214Y396709D01*
X421189Y396769D01*
X421157Y396804D01*
X421133Y396845D01*
X421082Y396886D01*
X421037Y396935D01*
X420995Y396957D01*
X420959Y396986D01*
X420896Y397007D01*
X420838Y397038D01*
X420783Y397046D01*
X420746Y397058D01*
X420707Y397057D01*
X420652Y397065D01*
X416842Y397065D01*
X416778Y397054D01*
X416712Y397052D01*
X416668Y397034D01*
X416622Y397026D01*
X416565Y396992D01*
X416504Y396967D01*
X416469Y396935D01*
X416428Y396911D01*
X416387Y396860D01*
X416338Y396816D01*
X416317Y396774D01*
X416287Y396737D01*
X416266Y396675D01*
X416236Y396616D01*
X416228Y396562D01*
X416215Y396525D01*
X416215Y396522D01*
X416216Y396485D01*
X416208Y396431D01*
X416208Y393891D01*
X416220Y393826D01*
X416222Y393760D01*
X416240Y393717D01*
X416248Y393670D01*
X416281Y393613D01*
X416306Y393552D01*
X416338Y393518D01*
X416362Y393477D01*
X416413Y393435D01*
X416457Y393387D01*
X416500Y393365D01*
X416536Y393336D01*
X416598Y393314D01*
X416657Y393284D01*
X416712Y393276D01*
X416749Y393264D01*
X416788Y393265D01*
X416842Y393257D01*
X420652Y393257D01*
X420717Y393268D01*
G37*
D10*
X1265000Y1008500D03*
X49500Y1008500D03*
X49500Y49500D03*
X1265000Y49500D03*
D11*
X143000Y792000D03*
D12*
X1283150Y107125D02*
X1298150Y107125D01*
X1298150Y132525D02*
X1283150Y132525D01*
D13*
X149000Y1032000D03*
X149000Y962000D03*
X276000Y1032000D03*
X276000Y962000D03*
X403000Y1032000D03*
X403000Y962000D03*
X784000Y1032000D03*
X784000Y962000D03*
X657000Y1032000D03*
X657000Y962000D03*
X530000Y1032000D03*
X530000Y962000D03*
X911000Y1032000D03*
X911000Y962000D03*
X1038000Y1032000D03*
X1038000Y962000D03*
X1165000Y1032000D03*
X1165000Y962000D03*
D14*
X1300000Y469000D03*
D15*
X1255000Y469000D03*
D16*
X42500Y452762D03*
X42500Y338462D03*
D17*
X778842Y225878D03*
D12*
X826705Y305821D02*
X841705Y305821D01*
X1221705Y305821D02*
X1236705Y305821D01*
X841705Y130821D02*
X826705Y130821D01*
X1221705Y130821D02*
X1236705Y130821D01*
X841705Y331221D02*
X826705Y331221D01*
X1221705Y105421D02*
X1236705Y105421D01*
X841705Y105421D02*
X826705Y105421D01*
X1221705Y331221D02*
X1236705Y331221D01*
D18*
X99426Y856405D03*
X201026Y856405D03*
X225951Y856405D03*
X327551Y856405D03*
X352419Y856405D03*
X454019Y856405D03*
X733200Y856405D03*
X834800Y856405D03*
X606811Y856405D03*
X708411Y856405D03*
X480097Y856405D03*
X581697Y856405D03*
X862179Y856405D03*
X963779Y856405D03*
X987246Y856405D03*
X1088846Y856405D03*
X1115083Y856405D03*
X1216683Y856405D03*
D19*
X576260Y348925D03*
D20*
X501260Y273925D03*
X501260Y286625D03*
X501260Y299325D03*
X501260Y312025D03*
X501260Y324725D03*
X501260Y337425D03*
X501260Y350125D03*
X501260Y362825D03*
X501260Y375525D03*
X501260Y388225D03*
X501260Y400925D03*
X501260Y413625D03*
X501260Y426325D03*
X501260Y439025D03*
D21*
X529110Y449025D03*
X541810Y449025D03*
X554510Y449025D03*
X567210Y449025D03*
X579910Y449025D03*
X592610Y449025D03*
X605310Y449025D03*
X618010Y449025D03*
X630710Y449025D03*
X643410Y449025D03*
D20*
X671260Y439025D03*
X671260Y426325D03*
X671260Y413625D03*
X671260Y400925D03*
X671260Y388225D03*
X671260Y375525D03*
X671260Y362825D03*
X671260Y350125D03*
X671260Y337425D03*
X671260Y324725D03*
X671260Y312025D03*
X671260Y299325D03*
X671260Y286625D03*
X671260Y273925D03*
D22*
X463195Y317250D03*
X480195Y317250D03*
D23*
X731799Y304967D03*
X731799Y330367D03*
D24*
X631027Y466863D03*
X631027Y474991D03*
D25*
X700402Y308392D03*
X691402Y308392D03*
X700406Y328383D03*
X691406Y328383D03*
D26*
X451867Y288277D03*
X451867Y269277D03*
X431002Y288277D03*
X431002Y269277D03*
D27*
X410785Y286365D03*
X410785Y269365D03*
D12*
X1249000Y195300D02*
X1264000Y195300D01*
D28*
X1261500Y209600D03*
X1261500Y267400D03*
D12*
X1264000Y281800D02*
X1249000Y281800D01*
X1290800Y195300D02*
X1305800Y195300D01*
X1305800Y281800D02*
X1290800Y281800D01*
D16*
X42500Y296762D03*
X42500Y182462D03*
D25*
X481540Y287155D03*
X472540Y287155D03*
X689142Y375370D03*
X698142Y375370D03*
D12*
X133900Y524500D02*
X133900Y539500D01*
X159300Y539500D02*
X159300Y524500D01*
X184700Y524500D02*
X184700Y539500D01*
X210100Y539500D02*
X210100Y524500D01*
D29*
X776071Y341577D03*
D30*
X776071Y505990D03*
D31*
X776071Y463035D03*
D32*
X776071Y388035D03*
D12*
X345953Y215577D02*
X345953Y200577D01*
X371353Y200577D02*
X371353Y215577D01*
X396753Y215577D02*
X396753Y200577D01*
X422153Y200577D02*
X422153Y215577D01*
X447553Y215577D02*
X447553Y200577D01*
X472953Y200577D02*
X472953Y215577D01*
D33*
X22506Y778971D03*
X22506Y733759D03*
D34*
X47398Y791417D03*
X47398Y721313D03*
D35*
X204286Y357263D03*
X204286Y219763D03*
X121286Y357263D03*
X121286Y219763D03*
D36*
X178286Y256463D03*
X178286Y267463D03*
X178286Y278463D03*
X178286Y289463D03*
X178286Y300463D03*
X178286Y311463D03*
X178286Y322463D03*
X178286Y333463D03*
D12*
X1264303Y656441D02*
X1279303Y656441D01*
X1279303Y621441D02*
X1264303Y621441D01*
X1264303Y586441D02*
X1279303Y586441D01*
X1279303Y691441D02*
X1264303Y691441D01*
X1264303Y726441D02*
X1279303Y726441D01*
X1279303Y761441D02*
X1264303Y761441D01*
X51470Y605510D02*
X36470Y605510D01*
X36470Y640510D02*
X51470Y640510D01*
X51470Y675510D02*
X36470Y675510D01*
X36470Y570510D02*
X51470Y570510D01*
X51470Y535510D02*
X36470Y535510D01*
X36470Y500510D02*
X51470Y500510D01*
X910870Y57820D02*
X910870Y42820D01*
X875870Y42820D02*
X875870Y57820D01*
X840870Y57820D02*
X840870Y42820D01*
X945870Y42820D02*
X945870Y57820D01*
X980870Y57820D02*
X980870Y42820D01*
X1015870Y42820D02*
X1015870Y57820D01*
X114760Y48248D02*
X114760Y33248D01*
X140160Y33248D02*
X140160Y48248D01*
X165560Y48248D02*
X165560Y33248D01*
X190960Y33248D02*
X190960Y48248D01*
X216360Y48248D02*
X216360Y33248D01*
X241760Y33248D02*
X241760Y48248D01*
D23*
X578471Y646481D03*
X229843Y243741D03*
X850326Y751378D03*
X551894Y762572D03*
X1045327Y706120D03*
D25*
X413667Y395161D03*
X423827Y395161D03*
D23*
X1251577Y157488D03*
X1089303Y503535D03*
D12*
X266340Y138406D02*
X251340Y138406D01*
X251340Y113006D02*
X266340Y113006D01*
X266340Y87606D02*
X251340Y87606D01*
D37*
X1090862Y35592D03*
D38*
X1116262Y10192D03*
X1116262Y60992D03*
X1065462Y60992D03*
X1065462Y10192D03*
D23*
X523286Y654695D03*
X508201Y617070D03*
X774222Y646410D03*
X524871Y585422D03*
D33*
X1000869Y613890D03*
X1026269Y613890D03*
X1000869Y588490D03*
X1026269Y588490D03*
X1000869Y563090D03*
X1026269Y563090D03*
X1000869Y537690D03*
X1026269Y537690D03*
X1000869Y512290D03*
X1026269Y512290D03*
X1000869Y486890D03*
X1026269Y486890D03*
X1000869Y461490D03*
X1026269Y461490D03*
D23*
X454030Y573484D03*
X926310Y663402D03*
X978802Y653722D03*
M02*
