G04 EAGLE Gerber RS-274X export*
G75*
%MOMM*%
%FSLAX34Y34*%
%LPD*%
%INSolderpaste Bottom*%
%IPPOS*%
%AMOC8*
5,1,8,0,0,1.08239X$1,22.5*%
G01*
%ADD10R,3.164769X3.166009*%
%ADD11R,2.000000X0.900000*%
%ADD12R,0.900000X2.000000*%
%ADD13R,1.100000X1.000000*%
%ADD14R,1.500000X1.300000*%
%ADD15R,1.000000X1.100000*%
%ADD16R,2.300000X4.300000*%
%ADD17R,2.300000X3.660000*%
%ADD18R,2.000000X1.450000*%
%ADD19R,1.500000X0.800000*%


D10*
X576247Y348944D03*
D11*
X501260Y273925D03*
X501260Y286625D03*
X501260Y299325D03*
X501260Y312025D03*
X501260Y324725D03*
X501260Y337425D03*
X501260Y350125D03*
X501260Y362825D03*
X501260Y375525D03*
X501260Y388225D03*
X501260Y400925D03*
X501260Y413625D03*
X501260Y426325D03*
X501260Y439025D03*
D12*
X529110Y449025D03*
X541810Y449025D03*
X554510Y449025D03*
X567210Y449025D03*
X579910Y449025D03*
X592610Y449025D03*
X605310Y449025D03*
X618010Y449025D03*
X630710Y449025D03*
X643410Y449025D03*
D11*
X671260Y439025D03*
X671260Y426325D03*
X671260Y413625D03*
X671260Y400925D03*
X671260Y388225D03*
X671260Y375525D03*
X671260Y362825D03*
X671260Y350125D03*
X671260Y337425D03*
X671260Y324725D03*
X671260Y312025D03*
X671260Y299325D03*
X671260Y286625D03*
X671260Y273925D03*
D13*
X463195Y317250D03*
X480195Y317250D03*
D14*
X451867Y288277D03*
X451867Y269277D03*
X431002Y288277D03*
X431002Y269277D03*
D15*
X410785Y286365D03*
X410785Y269365D03*
D16*
X776071Y341577D03*
D17*
X776071Y505990D03*
D18*
X204286Y357263D03*
X204286Y219763D03*
X121286Y357263D03*
X121286Y219763D03*
D19*
X178286Y256463D03*
X178286Y267463D03*
X178286Y278463D03*
X178286Y289463D03*
X178286Y300463D03*
X178286Y311463D03*
X178286Y322463D03*
X178286Y333463D03*
M02*
