G04 EAGLE Gerber RS-274X export*
G75*
%MOMM*%
%FSLAX34Y34*%
%LPD*%
%INSolderpaste Top*%
%IPPOS*%
%AMOC8*
5,1,8,0,0,1.08239X$1,22.5*%
G01*
%ADD10R,1.000000X2.100000*%
%ADD11R,3.700000X2.100000*%
%ADD12R,1.100000X1.000000*%
%ADD13R,2.800000X2.200000*%
%ADD14R,2.800000X2.800000*%
%ADD15R,1.300000X1.500000*%
%ADD16R,1.500000X1.300000*%
%ADD17R,1.000000X1.100000*%
%ADD18R,1.200000X1.200000*%
%ADD19R,2.400000X2.000000*%
%ADD20R,6.350000X0.760000*%
%ADD21R,1.500000X0.270000*%
%ADD22R,0.270000X1.500000*%
%ADD23R,1.300000X1.900000*%
%ADD24R,3.000000X1.500000*%
%ADD25R,1.778000X1.270000*%
%ADD26R,1.016000X0.635000*%
%ADD27R,0.600000X0.800000*%
%ADD28R,3.700000X1.700000*%
%ADD29R,1.400000X0.600000*%
%ADD30R,1.400000X0.300000*%
%ADD31R,0.800000X0.600000*%
%ADD32R,1.526000X0.650000*%
%ADD33R,1.800000X1.400000*%
%ADD34R,0.900000X0.800000*%
%ADD35R,0.800000X0.900000*%
%ADD36R,1.600000X2.700000*%
%ADD37R,1.525000X0.650000*%
%ADD38R,1.114600X1.361200*%
%ADD39R,1.050000X0.650000*%
%ADD40R,0.300000X0.750000*%


D10*
X1158410Y371617D03*
X1135410Y371617D03*
X1112410Y371617D03*
D11*
X1135410Y309617D03*
D12*
X697348Y388923D03*
X697348Y371923D03*
D13*
X113000Y1043000D03*
D14*
X113000Y947000D03*
D13*
X185000Y1023000D03*
D14*
X156000Y910000D03*
D15*
X140726Y869185D03*
X159726Y869185D03*
D12*
X469826Y768927D03*
X469826Y751927D03*
D15*
X450666Y729498D03*
X469666Y729498D03*
D13*
X240000Y1043000D03*
D14*
X240000Y947000D03*
D13*
X312000Y1023000D03*
D14*
X283000Y910000D03*
D15*
X267251Y869185D03*
X286251Y869185D03*
D12*
X519510Y768927D03*
X519510Y751927D03*
D15*
X500397Y729498D03*
X519397Y729498D03*
D13*
X367000Y1043000D03*
D14*
X367000Y947000D03*
D13*
X439000Y1023000D03*
D14*
X410000Y910000D03*
D15*
X393719Y869185D03*
X412719Y869185D03*
D12*
X569194Y768927D03*
X569194Y751927D03*
D15*
X550128Y729498D03*
X569128Y729498D03*
D16*
X1040035Y765010D03*
X1040035Y784010D03*
D12*
X197500Y410000D03*
X197500Y427000D03*
D17*
X45329Y890840D03*
X62329Y890840D03*
D18*
X9281Y890840D03*
X30281Y890840D03*
D13*
X748000Y1043000D03*
D14*
X748000Y947000D03*
D13*
X820000Y1023000D03*
D14*
X791000Y910000D03*
D13*
X621000Y1043000D03*
D14*
X621000Y947000D03*
D13*
X693000Y1023000D03*
D14*
X664000Y910000D03*
D13*
X494000Y1043000D03*
D14*
X494000Y947000D03*
D13*
X566000Y1023000D03*
D14*
X537000Y910000D03*
D13*
X875000Y1043000D03*
D14*
X875000Y947000D03*
D13*
X947000Y1023000D03*
D14*
X918000Y910000D03*
D13*
X1002000Y1043000D03*
D14*
X1002000Y947000D03*
D13*
X1074000Y1023000D03*
D14*
X1045000Y910000D03*
D13*
X1129000Y1043000D03*
D14*
X1129000Y947000D03*
D13*
X1201000Y1023000D03*
D14*
X1172000Y910000D03*
D19*
X1300000Y414000D03*
X1238000Y414000D03*
X1238000Y524000D03*
X1300000Y524000D03*
D20*
X144750Y440062D03*
X144750Y427362D03*
X144750Y414662D03*
X144750Y401962D03*
X144750Y389262D03*
X144750Y376562D03*
X144750Y363862D03*
X144750Y351162D03*
D21*
X582500Y504000D03*
X582500Y509000D03*
X582500Y514000D03*
X582500Y519000D03*
X582500Y524000D03*
X582500Y529000D03*
X582500Y534000D03*
X582500Y539000D03*
X582500Y544000D03*
X582500Y549000D03*
X582500Y554000D03*
X582500Y559000D03*
X582500Y564000D03*
X582500Y569000D03*
X582500Y574000D03*
X582500Y579000D03*
X582500Y584000D03*
X582500Y589000D03*
X582500Y594000D03*
X582500Y599000D03*
X582500Y604000D03*
X582500Y609000D03*
X582500Y614000D03*
X582500Y619000D03*
X582500Y624000D03*
X737500Y504000D03*
X737500Y509000D03*
X737500Y514000D03*
X737500Y519000D03*
X737500Y524000D03*
X737500Y529000D03*
X737500Y534000D03*
X737500Y539000D03*
X737500Y544000D03*
X737500Y549000D03*
X737500Y554000D03*
X737500Y559000D03*
X737500Y564000D03*
X737500Y569000D03*
X737500Y574000D03*
X737500Y579000D03*
X737500Y584000D03*
X737500Y589000D03*
X737500Y594000D03*
X737500Y599000D03*
X737500Y604000D03*
X737500Y609000D03*
X737500Y614000D03*
X737500Y619000D03*
X737500Y624000D03*
D22*
X720000Y641500D03*
X715000Y641500D03*
X710000Y641500D03*
X705000Y641500D03*
X700000Y641500D03*
X695000Y641500D03*
X690000Y641500D03*
X685000Y641500D03*
X680000Y641500D03*
X675000Y641500D03*
X670000Y641500D03*
X665000Y641500D03*
X660000Y641500D03*
X655000Y641500D03*
X650000Y641500D03*
X645000Y641500D03*
X640000Y641500D03*
X635000Y641500D03*
X630000Y641500D03*
X625000Y641500D03*
X620000Y641500D03*
X615000Y641500D03*
X610000Y641500D03*
X605000Y641500D03*
X600000Y641500D03*
X600000Y486500D03*
X605000Y486500D03*
X610000Y486500D03*
X615000Y486500D03*
X620000Y486500D03*
X625000Y486500D03*
X630000Y486500D03*
X635000Y486500D03*
X640000Y486500D03*
X645000Y486500D03*
X650000Y486500D03*
X655000Y486500D03*
X660000Y486500D03*
X665000Y486500D03*
X670000Y486500D03*
X675000Y486500D03*
X680000Y486500D03*
X685000Y486500D03*
X690000Y486500D03*
X695000Y486500D03*
X700000Y486500D03*
X705000Y486500D03*
X710000Y486500D03*
X715000Y486500D03*
X720000Y486500D03*
D12*
X1138248Y536344D03*
X1138248Y519344D03*
D16*
X1064252Y735300D03*
X1064252Y754300D03*
X1089721Y710158D03*
X1089721Y729158D03*
D12*
X1138249Y558136D03*
X1138249Y575136D03*
D15*
X521397Y869185D03*
X540397Y869185D03*
D12*
X618878Y768927D03*
X618878Y751927D03*
D15*
X599860Y729498D03*
X618860Y729498D03*
X648111Y869185D03*
X667111Y869185D03*
D12*
X668562Y768927D03*
X668562Y751927D03*
D15*
X649591Y729498D03*
X668591Y729498D03*
X774500Y869185D03*
X793500Y869185D03*
D12*
X718247Y768927D03*
X718247Y751927D03*
D15*
X699322Y729498D03*
X718322Y729498D03*
X903479Y869185D03*
X922479Y869185D03*
D12*
X767931Y768927D03*
X767931Y751927D03*
D15*
X749054Y729498D03*
X768054Y729498D03*
X1028546Y869185D03*
X1047546Y869185D03*
D12*
X817615Y768927D03*
X817615Y751927D03*
D15*
X798785Y729498D03*
X817785Y729498D03*
X1156383Y869185D03*
X1175383Y869185D03*
D12*
X867299Y768927D03*
X867299Y751927D03*
D15*
X848516Y729498D03*
X867516Y729498D03*
D23*
X799628Y478975D03*
X854628Y478975D03*
X854628Y510975D03*
X799628Y510975D03*
D24*
X947783Y250264D03*
X947783Y230264D03*
X947783Y210264D03*
X947783Y190264D03*
X947783Y170264D03*
X947783Y150264D03*
X947783Y130264D03*
X1107783Y130264D03*
X1107783Y150264D03*
X1107783Y170264D03*
X1107783Y190264D03*
X1107783Y210264D03*
X1107783Y230264D03*
X1107783Y250264D03*
D17*
X44750Y853840D03*
X61750Y853840D03*
D18*
X9281Y853840D03*
X30281Y853840D03*
D17*
X45227Y817051D03*
X62227Y817051D03*
D18*
X9281Y816840D03*
X30281Y816840D03*
D25*
X317299Y757173D03*
X261419Y757173D03*
X317299Y731773D03*
X261419Y731773D03*
X317299Y706373D03*
X261419Y706373D03*
X317299Y680973D03*
X261419Y680973D03*
X317299Y655573D03*
X261419Y655573D03*
X317299Y630173D03*
X261419Y630173D03*
X317299Y604773D03*
X261419Y604773D03*
X317299Y579373D03*
X261419Y579373D03*
X317299Y553973D03*
X261419Y553973D03*
X317299Y528573D03*
X261419Y528573D03*
X317299Y503173D03*
X261419Y503173D03*
X317299Y477773D03*
X261419Y477773D03*
X317299Y452373D03*
X261419Y452373D03*
X317299Y426973D03*
X261419Y426973D03*
X317299Y401573D03*
X261419Y401573D03*
X317299Y376173D03*
X261419Y376173D03*
X317299Y350773D03*
X261419Y350773D03*
X317299Y325373D03*
X261419Y325373D03*
X317299Y299973D03*
X261419Y299973D03*
X317299Y274573D03*
X261419Y274573D03*
D17*
X1181915Y151199D03*
X1181915Y168199D03*
D12*
X893000Y169500D03*
X893000Y152500D03*
X869000Y169500D03*
X869000Y152500D03*
X910000Y222500D03*
X910000Y205500D03*
D17*
X886500Y189000D03*
X869500Y189000D03*
X922500Y291000D03*
X905500Y291000D03*
X827336Y156799D03*
X844336Y156799D03*
X793500Y293000D03*
X776500Y293000D03*
X793122Y314759D03*
X776122Y314759D03*
D26*
X850000Y257000D03*
X830000Y247500D03*
X830000Y266500D03*
X850000Y213000D03*
X830000Y203500D03*
X830000Y222500D03*
X864368Y295470D03*
X884368Y304970D03*
X884368Y285970D03*
D12*
X187900Y376685D03*
X204900Y376685D03*
D16*
X1139174Y150211D03*
X1139174Y169211D03*
D12*
X1238640Y370264D03*
X1238640Y353264D03*
D18*
X1259329Y386931D03*
X1238329Y386931D03*
D27*
X119782Y833085D03*
X104782Y833085D03*
X244087Y841833D03*
X229087Y841833D03*
X374244Y833085D03*
X359244Y833085D03*
X501475Y833085D03*
X486475Y833085D03*
X628706Y833085D03*
X613706Y833085D03*
X755937Y833085D03*
X740937Y833085D03*
X883168Y833085D03*
X868168Y833085D03*
X1010399Y833085D03*
X995399Y833085D03*
X1137630Y833085D03*
X1122630Y833085D03*
D16*
X218000Y727500D03*
X218000Y708500D03*
X196000Y727500D03*
X196000Y708500D03*
D17*
X239000Y726500D03*
X239000Y709500D03*
X197500Y440500D03*
X197500Y457500D03*
X192000Y355500D03*
X192000Y338500D03*
D28*
X1294000Y305500D03*
X1294000Y364500D03*
D29*
X1249500Y206500D03*
X1249500Y214500D03*
X1249500Y262500D03*
X1249500Y270500D03*
D30*
X1249500Y221000D03*
X1249500Y226000D03*
X1249500Y231000D03*
X1249500Y236000D03*
X1249500Y241000D03*
X1249500Y246000D03*
X1249500Y251000D03*
X1249500Y256000D03*
D20*
X144750Y284062D03*
X144750Y271362D03*
X144750Y258662D03*
X144750Y245962D03*
X144750Y233262D03*
X144750Y220562D03*
X144750Y207862D03*
X144750Y195162D03*
D12*
X202218Y208864D03*
X219218Y208864D03*
D17*
X198000Y258500D03*
X198000Y275500D03*
D12*
X202310Y188407D03*
X219310Y188407D03*
D17*
X71233Y642349D03*
X71233Y659349D03*
X70813Y604212D03*
X70813Y587212D03*
D31*
X89452Y643314D03*
X89452Y658314D03*
X86934Y612453D03*
X86934Y597453D03*
D17*
X911124Y95267D03*
X911124Y112267D03*
D31*
X891832Y94984D03*
X891832Y109984D03*
D12*
X198279Y227967D03*
X198279Y244967D03*
D16*
X400337Y233192D03*
X400337Y252192D03*
X972702Y633876D03*
X972702Y614876D03*
X1184486Y267865D03*
X1184486Y248865D03*
D17*
X800119Y422268D03*
X783119Y422268D03*
D31*
X1210294Y242253D03*
X1210294Y227253D03*
D16*
X1162544Y268015D03*
X1162544Y249015D03*
D12*
X134416Y560969D03*
X134416Y577969D03*
X159045Y560609D03*
X159045Y577609D03*
D17*
X760332Y569642D03*
X777332Y569642D03*
D16*
X1187233Y348023D03*
X1187233Y329023D03*
D12*
X860686Y569082D03*
X877686Y569082D03*
X860843Y544980D03*
X877843Y544980D03*
D17*
X886290Y482792D03*
X886290Y465792D03*
X886224Y500385D03*
X886224Y517385D03*
D16*
X1086126Y371295D03*
X1086126Y352295D03*
D32*
X907071Y619376D03*
X907071Y632076D03*
X907071Y644776D03*
X907071Y657476D03*
X852831Y657476D03*
X852831Y644776D03*
X852831Y632076D03*
X852831Y619376D03*
D17*
X833576Y616064D03*
X833576Y599064D03*
X559887Y645087D03*
X542887Y645087D03*
D27*
X104827Y876864D03*
X119827Y876864D03*
X232096Y876864D03*
X247096Y876864D03*
X359366Y876864D03*
X374366Y876864D03*
X613904Y876864D03*
X628904Y876864D03*
X486635Y876864D03*
X501635Y876864D03*
X741173Y876864D03*
X756173Y876864D03*
X868443Y876864D03*
X883443Y876864D03*
X995712Y876864D03*
X1010712Y876864D03*
X1122981Y876864D03*
X1137981Y876864D03*
D17*
X243118Y324760D03*
X226118Y324760D03*
X243013Y299457D03*
X226013Y299457D03*
X1129159Y731269D03*
X1112159Y731269D03*
X1114862Y755933D03*
X1097862Y755933D03*
X1106411Y779356D03*
X1089411Y779356D03*
D31*
X86864Y550913D03*
X86864Y565913D03*
X87056Y575228D03*
X87056Y590228D03*
X73157Y556014D03*
X73157Y541014D03*
X72757Y530259D03*
X72757Y515259D03*
D12*
X1221561Y261556D03*
X1204561Y261556D03*
D17*
X359998Y554314D03*
X342998Y554314D03*
D33*
X796821Y544815D03*
X840821Y544815D03*
X840821Y568815D03*
X796821Y568815D03*
D17*
X432165Y678466D03*
X432165Y695466D03*
D12*
X1281625Y889823D03*
X1264625Y889823D03*
D15*
X1156383Y842693D03*
X1175383Y842693D03*
X774500Y842693D03*
X793500Y842693D03*
X393719Y842693D03*
X412719Y842693D03*
X267251Y842693D03*
X286251Y842693D03*
X648111Y842693D03*
X667111Y842693D03*
X140726Y842693D03*
X159726Y842693D03*
X521397Y842693D03*
X540397Y842693D03*
X1028546Y842693D03*
X1047546Y842693D03*
X903479Y842693D03*
X922479Y842693D03*
D12*
X723717Y384946D03*
X723717Y401946D03*
D17*
X671940Y386081D03*
X654940Y386081D03*
D34*
X1157309Y226190D03*
X1142069Y226190D03*
D12*
X1223110Y206848D03*
X1206110Y206848D03*
D17*
X996799Y286888D03*
X979799Y286888D03*
X997470Y309438D03*
X980470Y309438D03*
X1226086Y243671D03*
X1226086Y226671D03*
X945294Y633576D03*
X945294Y616576D03*
X801842Y616294D03*
X801842Y599294D03*
D35*
X1200973Y151051D03*
X1200973Y166291D03*
D34*
X1004367Y641896D03*
X1019607Y641896D03*
D17*
X1229284Y146537D03*
X1229284Y163537D03*
X728309Y461844D03*
X728309Y444844D03*
X563265Y489167D03*
X563265Y506167D03*
D12*
X594596Y665320D03*
X611596Y665320D03*
X709954Y661678D03*
X726954Y661678D03*
X741654Y402691D03*
X758654Y402691D03*
X796336Y636498D03*
X813336Y636498D03*
X795897Y660800D03*
X812897Y660800D03*
D17*
X528851Y608839D03*
X528851Y625839D03*
D12*
X489057Y650414D03*
X489057Y633414D03*
D10*
X1158410Y469226D03*
X1135410Y469226D03*
X1112410Y469226D03*
D11*
X1135410Y407226D03*
D16*
X1186678Y448194D03*
X1186678Y429194D03*
X1084184Y460020D03*
X1084184Y441020D03*
D34*
X1157309Y209817D03*
X1142069Y209817D03*
X1157309Y193444D03*
X1142069Y193444D03*
X1175240Y467782D03*
X1190480Y467782D03*
X1175565Y376974D03*
X1190805Y376974D03*
D16*
X1160790Y150233D03*
X1160790Y169233D03*
D12*
X1120400Y105201D03*
X1137400Y105201D03*
D17*
X382199Y459952D03*
X382199Y442952D03*
D15*
X1091374Y595930D03*
X1110374Y595930D03*
D12*
X1091364Y557470D03*
X1091364Y574470D03*
D17*
X444104Y634463D03*
X444104Y651463D03*
D12*
X465417Y633660D03*
X465417Y650660D03*
D15*
X143907Y88181D03*
X124907Y88181D03*
D36*
X1175454Y551241D03*
X1203454Y551241D03*
D37*
X1172072Y776025D03*
X1172072Y763325D03*
X1172072Y750625D03*
X1172072Y737925D03*
X1172072Y725225D03*
X1172072Y712525D03*
X1172072Y699825D03*
X1226312Y699825D03*
X1226312Y712525D03*
X1226312Y725225D03*
X1226312Y737925D03*
X1226312Y750625D03*
X1226312Y763325D03*
X1226312Y776025D03*
D17*
X1189573Y657019D03*
X1206573Y657019D03*
X1189696Y635900D03*
X1206696Y635900D03*
X1206394Y678079D03*
X1189394Y678079D03*
D12*
X1217270Y915031D03*
X1217270Y898031D03*
X1091179Y916194D03*
X1091179Y899194D03*
X964535Y915572D03*
X964535Y898572D03*
X582155Y912344D03*
X582155Y895344D03*
X710430Y912326D03*
X710430Y895326D03*
X837171Y914302D03*
X837171Y897302D03*
X454317Y913230D03*
X454317Y896230D03*
X329778Y913814D03*
X329778Y896814D03*
X203020Y914617D03*
X203020Y897617D03*
D17*
X488283Y573481D03*
X471283Y573481D03*
D12*
X505249Y591181D03*
X505249Y574181D03*
D15*
X479161Y594251D03*
X460161Y594251D03*
D17*
X484793Y615503D03*
X467793Y615503D03*
D38*
X402760Y770844D03*
X370752Y770844D03*
X376111Y748472D03*
X408119Y748472D03*
D39*
X838104Y432998D03*
X838104Y413798D03*
X860104Y423398D03*
D17*
X819267Y414410D03*
X819267Y431410D03*
D40*
X559092Y616301D03*
X552592Y616301D03*
X546092Y616301D03*
X546092Y597301D03*
X559092Y597301D03*
D17*
X880008Y424611D03*
X880008Y441611D03*
D12*
X773582Y625253D03*
X773582Y608253D03*
D31*
X1113013Y553092D03*
X1113013Y538092D03*
X1112794Y577098D03*
X1112794Y562098D03*
D27*
X893814Y423631D03*
X908814Y423631D03*
D16*
X813610Y395128D03*
X813610Y376128D03*
X835503Y395128D03*
X835503Y376128D03*
M02*
