M48
;GenerationSoftware,Autodesk,EAGLE,9.6.2*%
;CreationDate,2020-08-22T10:39:19Z*%
FMAT,2
ICI,OFF
METRIC,TZ,000.000
T15C0.500
T14C0.600
T13C0.813
T12C1.000
T11C1.016
T10C1.300
T9C1.400
T8C1.499
T7C1.500
T6C1.600
T5C1.800
T4C2.900
T3C3.180
T2C3.250
T1C3.500
%
G90
M71
T1
X126500Y4950
X4950Y4950
X4950Y100850
X126500Y100850
T2
X4250Y18246
X4250Y29676
X4250Y33846
X4250Y45276
T3
X14300Y79200
T4
X77884Y22588
T5
X125500Y46900
T6
X130000Y46900
T7
X91100Y103200
X91100Y96200
X103800Y103200
X103800Y96200
X116500Y103200
X116500Y96200
X53000Y96200
X14900Y103200
X53000Y103200
X65700Y96200
X65700Y103200
X78400Y96200
X78400Y103200
X40300Y96200
X40300Y103200
X27600Y96200
X27600Y103200
X14900Y96200
T8
X4740Y79142
X4740Y72131
T9
X106546Y1019
X106546Y6099
X111626Y6099
X111626Y1019
X109086Y3559
T10
X77607Y46304
T11
X97880Y65372
X92631Y66340
X45403Y57348
X102627Y46149
X100087Y46149
X102627Y48689
X100087Y48689
X102627Y51229
X100087Y51229
X102627Y53769
X100087Y53769
X102627Y56309
X100087Y56309
X102627Y58849
X100087Y58849
X102627Y61389
X100087Y61389
X52487Y58542
X77422Y64641
X50820Y61707
X52329Y65470
X108930Y50353
X125158Y15749
X104533Y70612
X2251Y73376
X2251Y77897
X55189Y76257
X85033Y75138
X22984Y24374
X57847Y64648
X73180Y30497
X73180Y33037
T12
X21010Y53200
X19096Y4075
X15930Y53200
X13390Y53200
X129830Y28180
X129830Y19530
X125650Y28180
X125650Y19530
X34595Y20808
X37135Y20808
X16556Y4075
X14016Y4075
X11476Y4075
X101587Y5032
X98087Y5032
X94587Y5032
X84087Y5032
X87587Y5032
X91087Y5032
X4397Y50051
X18470Y53200
X4397Y53551
X4397Y57051
X4397Y67551
X4397Y64051
X4397Y60551
X127180Y76144
X127180Y72644
X122920Y33122
X83421Y10542
X122920Y10542
X83421Y33122
X122920Y13082
X83421Y13082
X122920Y30582
X83421Y30582
X129065Y13252
X129065Y10713
X39675Y20808
X42215Y20808
X44755Y20808
X47295Y20808
X24176Y4075
X77607Y38804
X21636Y4075
X127180Y65644
X25884Y13841
X127180Y69144
X127180Y58644
X25884Y11301
X25884Y8761
X127180Y62144
T13
X9943Y85640
X20103Y85640
X22595Y85640
X32755Y85640
X35242Y85640
X45402Y85640
X73320Y85640
X60681Y85640
X70841Y85640
X48010Y85640
X58170Y85640
X86218Y85640
X96378Y85640
X98725Y85640
X108885Y85640
X111508Y85640
X121668Y85640
X83480Y85640
T14
X126150Y20960
X126150Y26740
T15
X114348Y58558
X124000Y75035
X121314Y75061
X49971Y46131
X38543Y47492
X33367Y42751
X21298Y42790
X115821Y77569
X112299Y71754
X61215Y57483
X53931Y55103
X38608Y60126
X5578Y84238
X60817Y56570
X53538Y54211
X39282Y59452
X6842Y78373
X70976Y42202
X75749Y30472
X70976Y43550
X76702Y30408
X85977Y22019
X87779Y22039
X86755Y26996
X86858Y24722
X61291Y52372
X49509Y51225
X34472Y45354
X24454Y43895
X23862Y41844
X14421Y34116
X40412Y39671
X34611Y40285
X21913Y38302
X23620Y63417
X41266Y48196
X36188Y43042
X36485Y40855
X33928Y32601
X39350Y54859
X22733Y64654
X40313Y48196
X36800Y43778
X35531Y40712
X33928Y33554
X40095Y51760
X64491Y46544
X61085Y39753
X45889Y43688
X41963Y43655
X30195Y36566
X22603Y33778
X65480Y46967
X60975Y38799
X45215Y43014
X41992Y42702
X30195Y35613
X23702Y33837
X55859Y54036
X34817Y73187
X65376Y34225
X46854Y50340
X18932Y65467
X24071Y69487
X94677Y40005
X93110Y34437
X90094Y31357
X75750Y27481
X73031Y27481
X69993Y29159
X64248Y30823
X54618Y53370
X34918Y70713
X59713Y55027
X61410Y34866
X47794Y49779
X19713Y66294
X24285Y68272
X33503Y69135
X95351Y39331
X93529Y33449
X90768Y30683
X75750Y26528
X73031Y26528
X63278Y31044
X65025Y30124
X46031Y22382
X71299Y45447
X97382Y23116
X52027Y43232
X44289Y38193
X37654Y39640
X51635Y44234
X46288Y40504
X45103Y42003
X55488Y40351
X52538Y40290
X51775Y36717
X48294Y36686
X42900Y35862
X37019Y38522
X82086Y23698
X81574Y21302
X64129Y37060
X60022Y38532
X48280Y38513
X126878Y36441
X92663Y46634
X80279Y40602
X76209Y38868
X31226Y28726
X31226Y25190
X36112Y24145
X69718Y36114
X70625Y44773
X96728Y15060
X65053Y49980
X88810Y8649
X46025Y46735
X39613Y46758
X30394Y38931
X22477Y39237
X20571Y39762
X8248Y23397
X60426Y54342
X48569Y50836
X35425Y45300
X23469Y40065
X23359Y37381
X10582Y19520
X71492Y61015
X36721Y62282
X24005Y67136
X37179Y61393
X22986Y67185
X64413Y42946
X61096Y42749
X45239Y44705
X34892Y47709
X64424Y41796
X61096Y41796
X46367Y44557
X34871Y50295
X64446Y40646
X61096Y40843
X47458Y44367
X34880Y52767
X77795Y43414
X101979Y23057
X78814Y43381
X99694Y25308
X79785Y43448
X98759Y26276
X79014Y45068
X108499Y20895
X61871Y49978
X22929Y47711
X35787Y53420
X37895Y55488
X57945Y47466
X56962Y61386
X40089Y63273
X62482Y34772
X63422Y32531
X71851Y31498
X63227Y35505
X64822Y32662
X70980Y32203
X48148Y30366
X37934Y60800
X6207Y87949
X71956Y51352
X75339Y45153
X60078Y53127
X96943Y31613
X60078Y52173
X96258Y30590
X68263Y45865
X68282Y50238
X67621Y52037
X65684Y57455
X63000Y51387
X64312Y51692
X76178Y44314
X5129Y96325
X15386Y100536
X28010Y100667
X41160Y100404
X52469Y100799
X65619Y100799
X78243Y100536
X91393Y100799
X104411Y100141
X117298Y100799
X74081Y66881
X55932Y68033
X71694Y59685
X70494Y59818
X83017Y65330
X82713Y66808
X84821Y59639
X85849Y59658
X56650Y66094
X20530Y79067
X130204Y49110
X116457Y40660
X113559Y42697
X110835Y40591
X119809Y40635
X120259Y41581
X118814Y41161
X117009Y42920
X118730Y49123
X120250Y47539
X113468Y44675
X113606Y48824
X114653Y48824
X112573Y48789
X114566Y44664
X112342Y44537
X108417Y42452
X110082Y44063
X110133Y42258
X112874Y22601
X112957Y23664
X113984Y23949
X125113Y88623
X113215Y78665
X111066Y83290
X98445Y83211
X85666Y83290
X72966Y83330
X60147Y83330
X47368Y83330
X34708Y83251
X22008Y83251
X9426Y83408
X65536Y62549
X58719Y72918
X53702Y72932
X48693Y72971
X43605Y72971
X63681Y72932
X68611Y73011
X73620Y72932
X78432Y72971
X83599Y72971
X77799Y59604
X82164Y60006
X82690Y64129
X122176Y43215
X68260Y66835
X128070Y54513
X91224Y77168
X48936Y56054
X51427Y59910
X39772Y68283
X59841Y59243
X61247Y60105
X42619Y65677
X16621Y94615
X29307Y94680
X42317Y95331
X54742Y94680
X67363Y94485
X80048Y94225
X92733Y94485
X105418Y94290
X118429Y94420
X9662Y90883
X110670Y60934
X124046Y73773
X121351Y73806
X123742Y79383
X100821Y75070
X103879Y73214
X100517Y70960
X109184Y74238
X106614Y76748
X102532Y78395
X120428Y71314
X45444Y61283
X119361Y76670
X111821Y69350
X130804Y55078
X129774Y96327
X127287Y67434
X39378Y74858
X40797Y73279
X55242Y62559
X76199Y59558
X44665Y59452
X110064Y53456
X115436Y42753
X111261Y42668
X127040Y74440
X112422Y64110
X101473Y68614
X122751Y68922
X91695Y68774
X88746Y66806
X101066Y28893
X126273Y23297
X126319Y24326
X100948Y31065
X111238Y49140
X22328Y87120
X9444Y87697
X35051Y87085
X47604Y87663
X73136Y87356
X60604Y87278
X85841Y87385
X98538Y87403
X111356Y87358
X109923Y46779
X109826Y48377
X111225Y50452
X115949Y73794
X118530Y73812
X38892Y76674
X38921Y77640
X56872Y59696
X112327Y58160
X108562Y47833
X120070Y24844
X91763Y38694
X91553Y43269
X112902Y19548
X113067Y18594
X114828Y18291
X107058Y15928
X107058Y17866
X105795Y17866
X105795Y15689
X107265Y9725
X105697Y9594
X104365Y8287
X104365Y5909
X106089Y4229
X104339Y3584
X104312Y1624
X109111Y1339
X111785Y4326
X114032Y1337
X114215Y3114
X113875Y5126
X114006Y7138
X113823Y8705
X110713Y9469
X43306Y40740
X48525Y35083
X66006Y50279
X44364Y48146
X117102Y68946
X117232Y66490
X54070Y62342
X115714Y75911
X121857Y62544
X118696Y71246
X122693Y65105
X56971Y67681
X23966Y14946
X48849Y46226
X23474Y12279
X47167Y46843
X77243Y42608
X76017Y52236
X80823Y32748
X71047Y34033
X68728Y39205
X35274Y65311
X66158Y54389
X110061Y36169
X105869Y36725
X106896Y36090
X107031Y37265
X106166Y38103
X107333Y38365
X41221Y29962
X42621Y30331
X43888Y30292
X44932Y30252
X120040Y17646
X6988Y56380
X8534Y54289
X55158Y49383
X71019Y67302
X58950Y67580
X72384Y37440
X122490Y35371
X110048Y38060
X19692Y28761
X10700Y27150
X18274Y42675
X20882Y24523
X46947Y27580
X47259Y29898
X72432Y47234
X85064Y37303
X95901Y65048
X93437Y58706
X115084Y32932
X116327Y31513
X116233Y30419
X112450Y36620
X114679Y37809
X95755Y59902
X98453Y60118
X11577Y54995
X41699Y61998
X45452Y50267
X90126Y40853
X105065Y24200
X102668Y20312
X118048Y30724
X118998Y30111
X119036Y31031
X107220Y33944
X108469Y33538
X109910Y33704
X29752Y40682
X29784Y49583
X119579Y6041
X120826Y6258
X120555Y5174
X36881Y50915
X73874Y37040
X27864Y58984
X27981Y46290
X27950Y37607
X29855Y33737
X90048Y11838
X65370Y36145
X39435Y44224
X88887Y55698
X87402Y45605
X89714Y52730
X73436Y43682
X55702Y32530
X57177Y32508
X58618Y32508
X59707Y32574
X65735Y55524
X55158Y50453
X42999Y25623
X41825Y25685
X44225Y25637
X55776Y35275
X56645Y34444
X56921Y35701
X112935Y20593
X112921Y21491
X111425Y32858
X87642Y32702
X20016Y32960
X897Y84065
X21998Y35333
X10653Y35881
X89399Y20886
X77087Y34136
X129493Y32066
X110814Y30060
X112788Y32932
X110783Y31553
X27361Y70594
X32969Y65072
X30476Y45159
X27300Y40119
X25845Y33966
X33079Y27170
X19739Y46924
X10575Y38646
X10555Y25744
X10683Y23326
X10507Y42777
X66192Y56540
X23595Y21860
X65227Y56540
X59367Y35669
X87944Y55753
X23078Y70950
X24862Y70668
X24849Y60393
X32973Y65919
X24831Y52531
X32954Y45278
X33070Y28026
X24777Y34970
X24822Y40207
X21675Y37256
X22900Y19848
X59197Y36835
X57388Y36818
X55955Y36852
X57969Y34378
X59430Y34527
X58153Y35585
X126524Y37411
X83964Y20105
X90965Y23264
X92289Y28153
X75735Y43290
M30