M48
;GenerationSoftware,Autodesk,EAGLE,9.5.0*%
;CreationDate,2019-09-16T18:30:42Z*%
FMAT,2
ICI,OFF
METRIC,TZ,000.000
T13C0.500
T12C0.600
T11C0.800
T10C0.813
T9C1.000
T8C1.016
T7C1.100
T6C1.600
T5C1.700
T4C1.800
T3C2.750
T2C3.250
T1C3.500
%
G90
M71
T1
X123950Y100850
X4950Y100850
X4950Y4950
X123950Y4950
X126041Y84851
X113410Y2950
T2
X9813Y4965
X21243Y4965
T3
X75344Y22588
T4
X121436Y72320
X121436Y58350
X121436Y44380
T5
X13970Y101538
X13970Y94538
X26670Y101538
X26670Y94538
X39370Y101538
X39370Y94538
X77470Y101538
X77470Y94538
X64770Y101538
X64770Y94538
X52070Y101538
X52070Y94538
X90170Y101538
X90170Y94538
X102870Y101538
X102870Y94538
X115570Y101538
X115570Y94538
T6
X125936Y44380
X125936Y58350
X125936Y72320
T7
X3034Y67261
X3034Y62831
X3034Y55831
X3034Y74261
X3034Y51457
X87391Y3166
X80391Y3166
X98440Y3166
X91440Y3166
X3034Y21597
X3034Y28597
X3034Y33027
X3034Y40027
X3034Y44457
T8
X84655Y43741
X82115Y43741
X64311Y39597
X61771Y39597
X40640Y53340
X40640Y55880
T9
X127131Y27888
X127131Y19238
X122951Y19238
X122951Y27888
T10
X57277Y85471
X19260Y85669
X19260Y93289
X31623Y85515
X31623Y93135
X44450Y85471
X44450Y93091
X57277Y93091
X70104Y85471
X70104Y93091
X82804Y85471
X82804Y93091
X87122Y86487
X94742Y86487
X99441Y86360
X107061Y86360
X112776Y86106
X120396Y86106
T11
X81915Y32385
X121415Y32385
X81915Y14885
X121415Y14885
X121415Y29845
X121415Y17425
X81915Y17425
X81915Y29845
T12
X123451Y20668
X123451Y26448
T13
X58174Y23886
X54948Y26688
X14697Y22797
X23398Y21248
X31385Y20852
X9155Y14420
X1802Y87117
X13621Y82083
X10095Y86404
X1332Y94954
X14141Y19122
X16894Y19494
X78525Y61342
X66753Y58282
X67271Y53908
X90339Y16044
X21714Y34305
X21961Y40329
X16326Y33037
X116219Y27945
X115166Y27843
X117238Y27809
X112602Y23818
X16804Y63559
X16446Y45083
X21398Y44574
X14530Y51111
X116066Y34517
X114980Y34823
X114029Y35429
X108269Y49064
X108303Y55925
X108092Y62618
X108444Y69875
X109360Y79774
X109853Y83930
X101757Y80556
X96418Y81228
X73125Y86731
X96538Y74302
X30666Y27630
X20288Y84004
X23871Y81762
X15160Y77415
X22054Y86025
X35622Y84785
X5095Y70538
X5299Y36327
X17348Y7324
X83926Y6609
X94035Y5792
X114252Y11101
X119767Y7018
X123545Y45415
X123852Y59917
X123545Y74010
X125588Y95047
X113641Y97089
X98630Y96987
X88623Y97498
X77186Y98111
X64116Y97804
X52067Y97906
X39200Y98008
X26130Y98111
X13264Y97906
X29848Y80911
X45925Y67211
X66375Y26941
X64948Y23841
X71788Y26350
X72723Y28762
X58094Y39119
X61156Y36940
X41463Y35315
X47478Y36464
X42172Y31380
X43083Y29363
X38220Y34781
X91472Y17708
X91490Y18611
X96118Y17462
X96142Y18347
X71016Y23462
X67636Y20903
X68415Y22742
X68164Y38285
X57602Y44098
X55938Y42884
X57476Y41478
X119125Y23480
X116840Y21273
X115252Y24924
X108267Y38735
X106680Y38735
X50165Y30162
X47149Y30321
X25876Y32544
X27146Y32544
X60642Y24924
X119760Y26046
X112856Y27095
X62389Y20003
X89217Y13494
X94774Y68580
X98584Y67786
X102394Y41434
X72866Y44291
X74136Y43974
X105727Y41593
X97949Y43656
X117634Y23654
X117475Y24924
X53657Y49212
X55404Y49212
X73660Y63976
X73501Y61754
X73660Y59214
X69691Y67786
X60484Y55880
X64452Y55880
X36989Y28734
X30956Y28734
X18098Y64452
X15399Y64294
X33973Y64452
X56674Y64611
X82550Y59690
X79375Y59690
X73131Y32524
X67787Y29924
X60531Y28129
X58567Y20311
X90329Y58102
X88741Y58102
X69778Y53082
X73819Y49847
X76041Y48736
X57150Y52229
X60484Y51117
X63500Y61912
X60801Y66675
X60801Y71914
X69374Y72866
X56713Y48832
X59055Y50165
X62865Y62706
X63659Y67786
X64135Y69691
X67310Y69691
X31274Y69215
X32226Y70168
X33179Y85566
X88106Y55562
X105569Y54610
X32861Y84296
X31591Y83979
X73660Y53022
X74295Y51752
X34131Y58261
X14287Y58261
X68421Y60960
X69691Y61119
X64929Y65881
X93821Y72549
X95091Y73184
X88741Y56356
X105569Y56356
X95409Y79058
X97314Y79058
X59690Y85408
X13176Y53340
X42228Y51435
X62230Y56991
X60484Y56991
X73660Y48736
X72549Y47466
X72708Y52546
X73343Y50800
X77470Y48736
X78740Y47466
X73184Y81756
X74930Y83503
X62865Y81756
X64611Y83503
X64452Y62706
X63659Y66675
X74930Y80328
X76835Y80328
X66358Y66199
X70961Y66199
X96361Y78105
X98742Y78105
X99219Y38259
X92075Y38259
X67945Y40005
X51276Y48577
X66358Y36036
X53022Y46355
X73268Y35950
X75249Y36415
X94619Y36708
X100732Y35208
X103743Y32784
X106003Y32432
X110786Y30906
X115042Y29174
X57150Y50959
X120670Y23331
X7937Y90170
X9208Y90170
X27940Y74295
X33020Y68421
X55404Y66834
X58102Y58896
X18098Y60007
X40640Y60007
X52705Y58420
X54292Y59690
X60325Y41116
X59055Y40481
X44609Y48260
X41751Y48260
X99219Y34925
X95250Y34925
X65246Y36671
X62547Y36830
X32544Y45244
X59531Y41910
X56356Y40323
X50482Y42386
X47625Y42386
X34608Y45085
X91757Y28575
X89535Y28575
X53975Y36513
X30639Y44291
X57150Y45402
X56039Y46196
X46514Y46831
X43180Y46831
X104616Y36989
X72866Y43180
X70803Y45402
X25717Y48577
X107632Y29369
X88741Y27940
X46990Y29210
X45244Y29369
X32861Y36671
X22066Y48260
X25717Y45879
X50482Y43656
X61436Y41116
X61912Y47307
X59849Y52864
X58896Y32544
X64770Y32226
X71120Y38576
X69215Y39370
X62908Y42031
X62849Y46467
X62230Y59055
X57150Y53499
X52546Y52229
X42704Y50165
X18098Y50324
X14922Y37941
X13335Y37941
X33338Y59055
X21590Y58896
X19685Y49371
X17939Y49212
X72549Y40323
X98584Y35878
X34925Y57467
X25559Y57467
X30956Y62389
X26194Y62389
X59849Y54134
X51276Y52864
X49530Y52864
X18098Y51435
X9843Y49371
X7144Y49371
X73184Y60325
X71120Y63182
X88741Y68263
X90329Y68263
X72231Y67945
X91440Y59372
X80645Y44767
X86836Y49054
X69850Y50959
X71279Y49054
X83185Y48736
X84138Y47784
X69056Y51752
X63569Y47199
X63639Y38010
X67337Y37389
X67151Y61595
X73343Y58102
X79693Y57467
X91916Y57467
X86360Y71120
X93345Y71120
X80328Y71914
X91757Y67628
X67786Y57467
X73501Y62865
X85249Y52705
X88265Y52705
X65768Y62574
X71755Y65087
X93027Y60484
X94774Y60325
X38418Y54451
X12065Y53340
X57150Y55086
X60960Y58420
X39370Y65246
X25717Y67469
X19685Y29686
X17145Y26987
X28416Y69374
X17463Y69056
X57944Y51594
X53975Y51594
X43021Y52070
X15875Y53657
X28099Y43974
X26511Y43974
X28099Y66834
X26511Y66834
X72390Y42228
X98266Y41275
X72866Y49371
X71755Y48101
X93345Y44767
X99219Y44767
X90646Y48419
X92710Y46355
X64888Y47246
X70803Y47307
X92869Y39053
X94774Y39053
X38259Y65405
X32067Y65405
X57184Y59270
X52864Y62389
X36036Y63182
X26194Y61277
X52546Y59531
X51911Y63341
X38576Y62389
X19844Y60642
X58102Y34766
X47625Y33338
X92234Y40640
X90329Y40640
X61595Y35401
X24765Y38894
X27146Y38894
X48895Y29527
X76359Y34290
X69374Y34290
X61595Y33973
X49689Y31274
X63659Y27464
X62389Y27464
X50324Y33020
X56039Y32861
X48736Y28416
X54610Y43656
X25717Y49689
X65881Y40164
X66993Y38894
X30956Y41275
X54610Y28892
X63182Y34608
X38100Y46990
X52070Y45402
X45720Y47625
X24289Y49054
X91122Y74454
X89852Y74613
X94774Y51117
X104775Y51117
X26511Y28257
X27622Y27464
X30956Y26511
X32544Y26511
X60484Y21907
X73184Y21907
X107632Y37941
X106204Y37465
X102560Y9666
X111216Y9727
X54683Y38313
X57162Y35928
X54348Y34902
X59032Y28696
X57268Y28318
X60046Y26141
X37696Y40018
X40192Y41083
X49629Y39970
X54069Y39621
X60587Y35531
X60332Y30137
X68274Y28884
X73116Y26250
X73158Y24041
X91761Y23956
X63964Y29492
X48114Y38193
X32475Y33015
X32686Y39567
X38040Y38651
X42048Y41039
X36413Y46664
X25226Y56183
X22340Y56598
X8375Y57503
X17573Y55533
X21473Y72156
X29272Y77128
X22676Y77428
X34238Y88295
X51110Y84913
X60868Y85107
X69333Y76606
X81761Y81680
X71928Y85132
X75058Y75927
X66046Y79399
X58295Y71457
X69760Y58721
X62285Y44033
X49796Y50884
X48590Y57052
X46173Y60059
X52229Y64927
X55328Y68282
X70222Y69271
X88031Y54069
X31725Y55800
X64283Y50724
X64414Y60287
X68949Y55644
X79000Y56553
X78105Y58783
X80449Y64139
X77294Y64373
X76827Y60519
X21859Y61320
X35167Y61129
X28162Y65379
X21316Y70929
X8635Y67087
X15292Y68428
X15623Y51782
X22436Y51672
X85539Y81777
X93226Y82816
X81220Y65910
X91198Y64712
X90073Y64736
X94372Y66682
X95651Y69593
X102313Y35313
X100416Y37435
X88756Y20405
X89379Y26496
X87250Y29395
X96838Y11344
X81921Y11569
X102444Y5674
X102541Y4598
X102468Y6946
X103715Y7827
X105256Y7729
X111150Y7191
X110098Y7680
X110930Y6139
X110954Y5014
X123818Y10712
X116935Y18525
X113718Y21196
X112500Y22256
X87498Y31931
X67569Y43269
X70555Y43867
X81286Y55773
X99653Y49647
X93383Y50105
X93101Y53550
X68739Y50165
X117595Y29145
M30