G04 EAGLE Gerber RS-274X export*
G75*
%MOMM*%
%FSLAX34Y34*%
%LPD*%
%IN*%
%IPPOS*%
%AMOC8*
5,1,8,0,0,1.08239X$1,22.5*%
G01*
%ADD10C,0.254000*%


D10*
X0Y100000D02*
X381Y91284D01*
X1519Y82635D01*
X3407Y74118D01*
X6031Y65798D01*
X9369Y57738D01*
X13397Y50000D01*
X18085Y42642D01*
X23396Y35721D01*
X29289Y29289D01*
X35721Y23396D01*
X42642Y18085D01*
X50000Y13397D01*
X57738Y9369D01*
X65798Y6031D01*
X74118Y3407D01*
X82635Y1519D01*
X91284Y381D01*
X100000Y0D01*
X248600Y0D01*
X248600Y190660D01*
X778670Y190660D01*
X778670Y0D01*
X1026000Y0D01*
X1026000Y20000D01*
X1106000Y20000D01*
X1106000Y0D01*
X1189050Y0D01*
X1197766Y381D01*
X1206415Y1519D01*
X1214932Y3407D01*
X1223252Y6031D01*
X1231312Y9369D01*
X1239050Y13397D01*
X1246408Y18085D01*
X1253329Y23396D01*
X1259761Y29289D01*
X1265654Y35721D01*
X1270965Y42642D01*
X1275653Y50000D01*
X1279681Y57738D01*
X1283019Y65798D01*
X1285643Y74118D01*
X1287531Y82635D01*
X1288669Y91284D01*
X1289050Y100000D01*
X1289050Y957910D01*
X1288669Y966626D01*
X1287531Y975275D01*
X1285643Y983792D01*
X1283019Y992112D01*
X1279681Y1000172D01*
X1275653Y1007910D01*
X1270965Y1015268D01*
X1265654Y1022189D01*
X1259761Y1028621D01*
X1253329Y1034514D01*
X1246408Y1039825D01*
X1239050Y1044513D01*
X1231312Y1048541D01*
X1223252Y1051879D01*
X1214932Y1054503D01*
X1206415Y1056391D01*
X1197766Y1057529D01*
X1189050Y1057910D01*
X100000Y1057910D01*
X91284Y1057529D01*
X82635Y1056391D01*
X74118Y1054503D01*
X65798Y1051879D01*
X57738Y1048541D01*
X50000Y1044513D01*
X42642Y1039825D01*
X35721Y1034514D01*
X29289Y1028621D01*
X23396Y1022189D01*
X18085Y1015268D01*
X13397Y1007910D01*
X9369Y1000172D01*
X6031Y992112D01*
X3407Y983792D01*
X1519Y975275D01*
X381Y966626D01*
X0Y957910D01*
X0Y100000D01*
X1257000Y1007927D02*
X1256925Y1006784D01*
X1256776Y1005648D01*
X1256552Y1004524D01*
X1256255Y1003417D01*
X1255887Y1002332D01*
X1255449Y1001274D01*
X1254942Y1000246D01*
X1254369Y999254D01*
X1253732Y998301D01*
X1253035Y997392D01*
X1252279Y996531D01*
X1251469Y995721D01*
X1250608Y994965D01*
X1249699Y994268D01*
X1248746Y993631D01*
X1247754Y993058D01*
X1246726Y992551D01*
X1245668Y992113D01*
X1244583Y991745D01*
X1243476Y991448D01*
X1242352Y991225D01*
X1241216Y991075D01*
X1240073Y991000D01*
X1238927Y991000D01*
X1237784Y991075D01*
X1236648Y991225D01*
X1235524Y991448D01*
X1234417Y991745D01*
X1233332Y992113D01*
X1232274Y992551D01*
X1231246Y993058D01*
X1230254Y993631D01*
X1229301Y994268D01*
X1228392Y994965D01*
X1227531Y995721D01*
X1226721Y996531D01*
X1225965Y997392D01*
X1225268Y998301D01*
X1224631Y999254D01*
X1224058Y1000246D01*
X1223551Y1001274D01*
X1223113Y1002332D01*
X1222745Y1003417D01*
X1222448Y1004524D01*
X1222225Y1005648D01*
X1222075Y1006784D01*
X1222000Y1007927D01*
X1222000Y1009073D01*
X1222075Y1010216D01*
X1222225Y1011352D01*
X1222448Y1012476D01*
X1222745Y1013583D01*
X1223113Y1014668D01*
X1223551Y1015726D01*
X1224058Y1016754D01*
X1224631Y1017746D01*
X1225268Y1018699D01*
X1225965Y1019608D01*
X1226721Y1020469D01*
X1227531Y1021279D01*
X1228392Y1022035D01*
X1229301Y1022732D01*
X1230254Y1023369D01*
X1231246Y1023942D01*
X1232274Y1024449D01*
X1233332Y1024887D01*
X1234417Y1025255D01*
X1235524Y1025552D01*
X1236648Y1025776D01*
X1237784Y1025925D01*
X1238927Y1026000D01*
X1240073Y1026000D01*
X1241216Y1025925D01*
X1242352Y1025776D01*
X1243476Y1025552D01*
X1244583Y1025255D01*
X1245668Y1024887D01*
X1246726Y1024449D01*
X1247754Y1023942D01*
X1248746Y1023369D01*
X1249699Y1022732D01*
X1250608Y1022035D01*
X1251469Y1021279D01*
X1252279Y1020469D01*
X1253035Y1019608D01*
X1253732Y1018699D01*
X1254369Y1017746D01*
X1254942Y1016754D01*
X1255449Y1015726D01*
X1255887Y1014668D01*
X1256255Y1013583D01*
X1256552Y1012476D01*
X1256776Y1011352D01*
X1256925Y1010216D01*
X1257000Y1009073D01*
X1257000Y1007927D01*
X67000Y1007927D02*
X66925Y1006784D01*
X66776Y1005648D01*
X66552Y1004524D01*
X66255Y1003417D01*
X65887Y1002332D01*
X65449Y1001274D01*
X64942Y1000246D01*
X64369Y999254D01*
X63732Y998301D01*
X63035Y997392D01*
X62279Y996531D01*
X61469Y995721D01*
X60608Y994965D01*
X59699Y994268D01*
X58746Y993631D01*
X57754Y993058D01*
X56726Y992551D01*
X55668Y992113D01*
X54583Y991745D01*
X53476Y991448D01*
X52352Y991225D01*
X51216Y991075D01*
X50073Y991000D01*
X48927Y991000D01*
X47784Y991075D01*
X46648Y991225D01*
X45524Y991448D01*
X44417Y991745D01*
X43332Y992113D01*
X42274Y992551D01*
X41246Y993058D01*
X40254Y993631D01*
X39301Y994268D01*
X38392Y994965D01*
X37531Y995721D01*
X36721Y996531D01*
X35965Y997392D01*
X35268Y998301D01*
X34631Y999254D01*
X34058Y1000246D01*
X33551Y1001274D01*
X33113Y1002332D01*
X32745Y1003417D01*
X32448Y1004524D01*
X32225Y1005648D01*
X32075Y1006784D01*
X32000Y1007927D01*
X32000Y1009073D01*
X32075Y1010216D01*
X32225Y1011352D01*
X32448Y1012476D01*
X32745Y1013583D01*
X33113Y1014668D01*
X33551Y1015726D01*
X34058Y1016754D01*
X34631Y1017746D01*
X35268Y1018699D01*
X35965Y1019608D01*
X36721Y1020469D01*
X37531Y1021279D01*
X38392Y1022035D01*
X39301Y1022732D01*
X40254Y1023369D01*
X41246Y1023942D01*
X42274Y1024449D01*
X43332Y1024887D01*
X44417Y1025255D01*
X45524Y1025552D01*
X46648Y1025776D01*
X47784Y1025925D01*
X48927Y1026000D01*
X50073Y1026000D01*
X51216Y1025925D01*
X52352Y1025776D01*
X53476Y1025552D01*
X54583Y1025255D01*
X55668Y1024887D01*
X56726Y1024449D01*
X57754Y1023942D01*
X58746Y1023369D01*
X59699Y1022732D01*
X60608Y1022035D01*
X61469Y1021279D01*
X62279Y1020469D01*
X63035Y1019608D01*
X63732Y1018699D01*
X64369Y1017746D01*
X64942Y1016754D01*
X65449Y1015726D01*
X65887Y1014668D01*
X66255Y1013583D01*
X66552Y1012476D01*
X66776Y1011352D01*
X66925Y1010216D01*
X67000Y1009073D01*
X67000Y1007927D01*
X67000Y48927D02*
X66925Y47784D01*
X66776Y46648D01*
X66552Y45524D01*
X66255Y44417D01*
X65887Y43332D01*
X65449Y42274D01*
X64942Y41246D01*
X64369Y40254D01*
X63732Y39301D01*
X63035Y38392D01*
X62279Y37531D01*
X61469Y36721D01*
X60608Y35965D01*
X59699Y35268D01*
X58746Y34631D01*
X57754Y34058D01*
X56726Y33551D01*
X55668Y33113D01*
X54583Y32745D01*
X53476Y32448D01*
X52352Y32225D01*
X51216Y32075D01*
X50073Y32000D01*
X48927Y32000D01*
X47784Y32075D01*
X46648Y32225D01*
X45524Y32448D01*
X44417Y32745D01*
X43332Y33113D01*
X42274Y33551D01*
X41246Y34058D01*
X40254Y34631D01*
X39301Y35268D01*
X38392Y35965D01*
X37531Y36721D01*
X36721Y37531D01*
X35965Y38392D01*
X35268Y39301D01*
X34631Y40254D01*
X34058Y41246D01*
X33551Y42274D01*
X33113Y43332D01*
X32745Y44417D01*
X32448Y45524D01*
X32225Y46648D01*
X32075Y47784D01*
X32000Y48927D01*
X32000Y50073D01*
X32075Y51216D01*
X32225Y52352D01*
X32448Y53476D01*
X32745Y54583D01*
X33113Y55668D01*
X33551Y56726D01*
X34058Y57754D01*
X34631Y58746D01*
X35268Y59699D01*
X35965Y60608D01*
X36721Y61469D01*
X37531Y62279D01*
X38392Y63035D01*
X39301Y63732D01*
X40254Y64369D01*
X41246Y64942D01*
X42274Y65449D01*
X43332Y65887D01*
X44417Y66255D01*
X45524Y66552D01*
X46648Y66776D01*
X47784Y66925D01*
X48927Y67000D01*
X50073Y67000D01*
X51216Y66925D01*
X52352Y66776D01*
X53476Y66552D01*
X54583Y66255D01*
X55668Y65887D01*
X56726Y65449D01*
X57754Y64942D01*
X58746Y64369D01*
X59699Y63732D01*
X60608Y63035D01*
X61469Y62279D01*
X62279Y61469D01*
X63035Y60608D01*
X63732Y59699D01*
X64369Y58746D01*
X64942Y57754D01*
X65449Y56726D01*
X65887Y55668D01*
X66255Y54583D01*
X66552Y53476D01*
X66776Y52352D01*
X66925Y51216D01*
X67000Y50073D01*
X67000Y48927D01*
X1257000Y48927D02*
X1256925Y47784D01*
X1256776Y46648D01*
X1256552Y45524D01*
X1256255Y44417D01*
X1255887Y43332D01*
X1255449Y42274D01*
X1254942Y41246D01*
X1254369Y40254D01*
X1253732Y39301D01*
X1253035Y38392D01*
X1252279Y37531D01*
X1251469Y36721D01*
X1250608Y35965D01*
X1249699Y35268D01*
X1248746Y34631D01*
X1247754Y34058D01*
X1246726Y33551D01*
X1245668Y33113D01*
X1244583Y32745D01*
X1243476Y32448D01*
X1242352Y32225D01*
X1241216Y32075D01*
X1240073Y32000D01*
X1238927Y32000D01*
X1237784Y32075D01*
X1236648Y32225D01*
X1235524Y32448D01*
X1234417Y32745D01*
X1233332Y33113D01*
X1232274Y33551D01*
X1231246Y34058D01*
X1230254Y34631D01*
X1229301Y35268D01*
X1228392Y35965D01*
X1227531Y36721D01*
X1226721Y37531D01*
X1225965Y38392D01*
X1225268Y39301D01*
X1224631Y40254D01*
X1224058Y41246D01*
X1223551Y42274D01*
X1223113Y43332D01*
X1222745Y44417D01*
X1222448Y45524D01*
X1222225Y46648D01*
X1222075Y47784D01*
X1222000Y48927D01*
X1222000Y50073D01*
X1222075Y51216D01*
X1222225Y52352D01*
X1222448Y53476D01*
X1222745Y54583D01*
X1223113Y55668D01*
X1223551Y56726D01*
X1224058Y57754D01*
X1224631Y58746D01*
X1225268Y59699D01*
X1225965Y60608D01*
X1226721Y61469D01*
X1227531Y62279D01*
X1228392Y63035D01*
X1229301Y63732D01*
X1230254Y64369D01*
X1231246Y64942D01*
X1232274Y65449D01*
X1233332Y65887D01*
X1234417Y66255D01*
X1235524Y66552D01*
X1236648Y66776D01*
X1237784Y66925D01*
X1238927Y67000D01*
X1240073Y67000D01*
X1241216Y66925D01*
X1242352Y66776D01*
X1243476Y66552D01*
X1244583Y66255D01*
X1245668Y65887D01*
X1246726Y65449D01*
X1247754Y64942D01*
X1248746Y64369D01*
X1249699Y63732D01*
X1250608Y63035D01*
X1251469Y62279D01*
X1252279Y61469D01*
X1253035Y60608D01*
X1253732Y59699D01*
X1254369Y58746D01*
X1254942Y57754D01*
X1255449Y56726D01*
X1255887Y55668D01*
X1256255Y54583D01*
X1256552Y53476D01*
X1256776Y52352D01*
X1256925Y51216D01*
X1257000Y50073D01*
X1257000Y48927D01*
X1277909Y847942D02*
X1277834Y846799D01*
X1277685Y845663D01*
X1277461Y844539D01*
X1277165Y843432D01*
X1276796Y842347D01*
X1276358Y841289D01*
X1275851Y840261D01*
X1275278Y839269D01*
X1274642Y838316D01*
X1273944Y837407D01*
X1273189Y836546D01*
X1272378Y835735D01*
X1271517Y834980D01*
X1270608Y834282D01*
X1269655Y833646D01*
X1268663Y833073D01*
X1267635Y832566D01*
X1266577Y832128D01*
X1265492Y831759D01*
X1264385Y831463D01*
X1263261Y831239D01*
X1262125Y831090D01*
X1260982Y831015D01*
X1259836Y831015D01*
X1258693Y831090D01*
X1257557Y831239D01*
X1256433Y831463D01*
X1255326Y831759D01*
X1254241Y832128D01*
X1253183Y832566D01*
X1252155Y833073D01*
X1251163Y833646D01*
X1250210Y834282D01*
X1249301Y834980D01*
X1248440Y835735D01*
X1247630Y836546D01*
X1246874Y837407D01*
X1246177Y838316D01*
X1245540Y839269D01*
X1244967Y840261D01*
X1244460Y841289D01*
X1244022Y842347D01*
X1243654Y843432D01*
X1243357Y844539D01*
X1243134Y845663D01*
X1242984Y846799D01*
X1242909Y847942D01*
X1242909Y849088D01*
X1242984Y850231D01*
X1243134Y851367D01*
X1243357Y852491D01*
X1243654Y853598D01*
X1244022Y854683D01*
X1244460Y855741D01*
X1244967Y856769D01*
X1245540Y857761D01*
X1246177Y858714D01*
X1246874Y859623D01*
X1247630Y860484D01*
X1248440Y861294D01*
X1249301Y862050D01*
X1250210Y862747D01*
X1251163Y863384D01*
X1252155Y863957D01*
X1253183Y864464D01*
X1254241Y864902D01*
X1255326Y865270D01*
X1256433Y865567D01*
X1257557Y865790D01*
X1258693Y865940D01*
X1259836Y866015D01*
X1260982Y866015D01*
X1262125Y865940D01*
X1263261Y865790D01*
X1264385Y865567D01*
X1265492Y865270D01*
X1266577Y864902D01*
X1267635Y864464D01*
X1268663Y863957D01*
X1269655Y863384D01*
X1270608Y862747D01*
X1271517Y862050D01*
X1272378Y861294D01*
X1273189Y860484D01*
X1273944Y859623D01*
X1274642Y858714D01*
X1275278Y857761D01*
X1275851Y856769D01*
X1276358Y855741D01*
X1276796Y854683D01*
X1277165Y853598D01*
X1277461Y852491D01*
X1277685Y851367D01*
X1277834Y850231D01*
X1277909Y849088D01*
X1277909Y847942D01*
X1151600Y28927D02*
X1151525Y27784D01*
X1151376Y26648D01*
X1151152Y25524D01*
X1150855Y24417D01*
X1150487Y23332D01*
X1150049Y22274D01*
X1149542Y21246D01*
X1148969Y20254D01*
X1148332Y19301D01*
X1147635Y18392D01*
X1146879Y17531D01*
X1146069Y16721D01*
X1145208Y15965D01*
X1144299Y15268D01*
X1143346Y14631D01*
X1142354Y14058D01*
X1141326Y13551D01*
X1140268Y13113D01*
X1139183Y12745D01*
X1138076Y12448D01*
X1136952Y12225D01*
X1135816Y12075D01*
X1134673Y12000D01*
X1133527Y12000D01*
X1132384Y12075D01*
X1131248Y12225D01*
X1130124Y12448D01*
X1129017Y12745D01*
X1127932Y13113D01*
X1126874Y13551D01*
X1125846Y14058D01*
X1124854Y14631D01*
X1123901Y15268D01*
X1122992Y15965D01*
X1122131Y16721D01*
X1121321Y17531D01*
X1120565Y18392D01*
X1119868Y19301D01*
X1119231Y20254D01*
X1118658Y21246D01*
X1118151Y22274D01*
X1117713Y23332D01*
X1117345Y24417D01*
X1117048Y25524D01*
X1116825Y26648D01*
X1116675Y27784D01*
X1116600Y28927D01*
X1116600Y30073D01*
X1116675Y31216D01*
X1116825Y32352D01*
X1117048Y33476D01*
X1117345Y34583D01*
X1117713Y35668D01*
X1118151Y36726D01*
X1118658Y37754D01*
X1119231Y38746D01*
X1119868Y39699D01*
X1120565Y40608D01*
X1121321Y41469D01*
X1122131Y42279D01*
X1122992Y43035D01*
X1123901Y43732D01*
X1124854Y44369D01*
X1125846Y44942D01*
X1126874Y45449D01*
X1127932Y45887D01*
X1129017Y46255D01*
X1130124Y46552D01*
X1131248Y46776D01*
X1132384Y46925D01*
X1133527Y47000D01*
X1134673Y47000D01*
X1135816Y46925D01*
X1136952Y46776D01*
X1138076Y46552D01*
X1139183Y46255D01*
X1140268Y45887D01*
X1141326Y45449D01*
X1142354Y44942D01*
X1143346Y44369D01*
X1144299Y43732D01*
X1145208Y43035D01*
X1146069Y42279D01*
X1146879Y41469D01*
X1147635Y40608D01*
X1148332Y39699D01*
X1148969Y38746D01*
X1149542Y37754D01*
X1150049Y36726D01*
X1150487Y35668D01*
X1150855Y34583D01*
X1151152Y33476D01*
X1151376Y32352D01*
X1151525Y31216D01*
X1151600Y30073D01*
X1151600Y28927D01*
X148200Y1015004D02*
X148135Y1014265D01*
X148006Y1013534D01*
X147814Y1012817D01*
X147560Y1012120D01*
X147247Y1011447D01*
X146876Y1010804D01*
X146450Y1010196D01*
X145973Y1009628D01*
X145448Y1009103D01*
X144879Y1008626D01*
X144271Y1008200D01*
X143629Y1007829D01*
X142956Y1007515D01*
X142258Y1007261D01*
X141542Y1007069D01*
X140811Y1006940D01*
X140071Y1006876D01*
X139329Y1006876D01*
X138589Y1006940D01*
X137859Y1007069D01*
X137142Y1007261D01*
X136444Y1007515D01*
X135771Y1007829D01*
X135129Y1008200D01*
X134521Y1008626D01*
X133952Y1009103D01*
X133427Y1009628D01*
X132950Y1010196D01*
X132524Y1010804D01*
X132153Y1011447D01*
X131840Y1012120D01*
X131586Y1012817D01*
X131394Y1013534D01*
X131265Y1014265D01*
X131200Y1015004D01*
X131200Y1015747D01*
X131265Y1016486D01*
X131394Y1017217D01*
X131586Y1017934D01*
X131840Y1018631D01*
X132153Y1019304D01*
X132524Y1019947D01*
X132950Y1020555D01*
X133427Y1021124D01*
X133952Y1021648D01*
X134521Y1022126D01*
X135129Y1022551D01*
X135771Y1022922D01*
X136444Y1023236D01*
X137142Y1023490D01*
X137859Y1023682D01*
X138589Y1023811D01*
X139329Y1023876D01*
X140071Y1023876D01*
X140811Y1023811D01*
X141542Y1023682D01*
X142258Y1023490D01*
X142956Y1023236D01*
X143629Y1022922D01*
X144271Y1022551D01*
X144879Y1022126D01*
X145448Y1021648D01*
X145973Y1021124D01*
X146450Y1020555D01*
X146876Y1019947D01*
X147247Y1019304D01*
X147560Y1018631D01*
X147814Y1017934D01*
X148006Y1017217D01*
X148135Y1016486D01*
X148200Y1015747D01*
X148200Y1015004D01*
X148200Y945004D02*
X148135Y944265D01*
X148006Y943534D01*
X147814Y942817D01*
X147560Y942120D01*
X147247Y941447D01*
X146876Y940804D01*
X146450Y940196D01*
X145973Y939628D01*
X145448Y939103D01*
X144879Y938626D01*
X144271Y938200D01*
X143629Y937829D01*
X142956Y937515D01*
X142258Y937261D01*
X141542Y937069D01*
X140811Y936940D01*
X140071Y936876D01*
X139329Y936876D01*
X138589Y936940D01*
X137859Y937069D01*
X137142Y937261D01*
X136444Y937515D01*
X135771Y937829D01*
X135129Y938200D01*
X134521Y938626D01*
X133952Y939103D01*
X133427Y939628D01*
X132950Y940196D01*
X132524Y940804D01*
X132153Y941447D01*
X131840Y942120D01*
X131586Y942817D01*
X131394Y943534D01*
X131265Y944265D01*
X131200Y945004D01*
X131200Y945747D01*
X131265Y946486D01*
X131394Y947217D01*
X131586Y947934D01*
X131840Y948631D01*
X132153Y949304D01*
X132524Y949947D01*
X132950Y950555D01*
X133427Y951124D01*
X133952Y951648D01*
X134521Y952126D01*
X135129Y952551D01*
X135771Y952922D01*
X136444Y953236D01*
X137142Y953490D01*
X137859Y953682D01*
X138589Y953811D01*
X139329Y953876D01*
X140071Y953876D01*
X140811Y953811D01*
X141542Y953682D01*
X142258Y953490D01*
X142956Y953236D01*
X143629Y952922D01*
X144271Y952551D01*
X144879Y952126D01*
X145448Y951648D01*
X145973Y951124D01*
X146450Y950555D01*
X146876Y949947D01*
X147247Y949304D01*
X147560Y948631D01*
X147814Y947934D01*
X148006Y947217D01*
X148135Y946486D01*
X148200Y945747D01*
X148200Y945004D01*
X275200Y1015004D02*
X275135Y1014265D01*
X275006Y1013534D01*
X274814Y1012817D01*
X274560Y1012120D01*
X274247Y1011447D01*
X273876Y1010804D01*
X273450Y1010196D01*
X272973Y1009628D01*
X272448Y1009103D01*
X271879Y1008626D01*
X271271Y1008200D01*
X270629Y1007829D01*
X269956Y1007515D01*
X269258Y1007261D01*
X268542Y1007069D01*
X267811Y1006940D01*
X267071Y1006876D01*
X266329Y1006876D01*
X265589Y1006940D01*
X264859Y1007069D01*
X264142Y1007261D01*
X263444Y1007515D01*
X262771Y1007829D01*
X262129Y1008200D01*
X261521Y1008626D01*
X260952Y1009103D01*
X260427Y1009628D01*
X259950Y1010196D01*
X259524Y1010804D01*
X259153Y1011447D01*
X258840Y1012120D01*
X258586Y1012817D01*
X258394Y1013534D01*
X258265Y1014265D01*
X258200Y1015004D01*
X258200Y1015747D01*
X258265Y1016486D01*
X258394Y1017217D01*
X258586Y1017934D01*
X258840Y1018631D01*
X259153Y1019304D01*
X259524Y1019947D01*
X259950Y1020555D01*
X260427Y1021124D01*
X260952Y1021648D01*
X261521Y1022126D01*
X262129Y1022551D01*
X262771Y1022922D01*
X263444Y1023236D01*
X264142Y1023490D01*
X264859Y1023682D01*
X265589Y1023811D01*
X266329Y1023876D01*
X267071Y1023876D01*
X267811Y1023811D01*
X268542Y1023682D01*
X269258Y1023490D01*
X269956Y1023236D01*
X270629Y1022922D01*
X271271Y1022551D01*
X271879Y1022126D01*
X272448Y1021648D01*
X272973Y1021124D01*
X273450Y1020555D01*
X273876Y1019947D01*
X274247Y1019304D01*
X274560Y1018631D01*
X274814Y1017934D01*
X275006Y1017217D01*
X275135Y1016486D01*
X275200Y1015747D01*
X275200Y1015004D01*
X275200Y945004D02*
X275135Y944265D01*
X275006Y943534D01*
X274814Y942817D01*
X274560Y942120D01*
X274247Y941447D01*
X273876Y940804D01*
X273450Y940196D01*
X272973Y939628D01*
X272448Y939103D01*
X271879Y938626D01*
X271271Y938200D01*
X270629Y937829D01*
X269956Y937515D01*
X269258Y937261D01*
X268542Y937069D01*
X267811Y936940D01*
X267071Y936876D01*
X266329Y936876D01*
X265589Y936940D01*
X264859Y937069D01*
X264142Y937261D01*
X263444Y937515D01*
X262771Y937829D01*
X262129Y938200D01*
X261521Y938626D01*
X260952Y939103D01*
X260427Y939628D01*
X259950Y940196D01*
X259524Y940804D01*
X259153Y941447D01*
X258840Y942120D01*
X258586Y942817D01*
X258394Y943534D01*
X258265Y944265D01*
X258200Y945004D01*
X258200Y945747D01*
X258265Y946486D01*
X258394Y947217D01*
X258586Y947934D01*
X258840Y948631D01*
X259153Y949304D01*
X259524Y949947D01*
X259950Y950555D01*
X260427Y951124D01*
X260952Y951648D01*
X261521Y952126D01*
X262129Y952551D01*
X262771Y952922D01*
X263444Y953236D01*
X264142Y953490D01*
X264859Y953682D01*
X265589Y953811D01*
X266329Y953876D01*
X267071Y953876D01*
X267811Y953811D01*
X268542Y953682D01*
X269258Y953490D01*
X269956Y953236D01*
X270629Y952922D01*
X271271Y952551D01*
X271879Y952126D01*
X272448Y951648D01*
X272973Y951124D01*
X273450Y950555D01*
X273876Y949947D01*
X274247Y949304D01*
X274560Y948631D01*
X274814Y947934D01*
X275006Y947217D01*
X275135Y946486D01*
X275200Y945747D01*
X275200Y945004D01*
X402200Y1015004D02*
X402135Y1014265D01*
X402006Y1013534D01*
X401814Y1012817D01*
X401560Y1012120D01*
X401247Y1011447D01*
X400876Y1010804D01*
X400450Y1010196D01*
X399973Y1009628D01*
X399448Y1009103D01*
X398879Y1008626D01*
X398271Y1008200D01*
X397629Y1007829D01*
X396956Y1007515D01*
X396258Y1007261D01*
X395542Y1007069D01*
X394811Y1006940D01*
X394071Y1006876D01*
X393329Y1006876D01*
X392589Y1006940D01*
X391859Y1007069D01*
X391142Y1007261D01*
X390444Y1007515D01*
X389771Y1007829D01*
X389129Y1008200D01*
X388521Y1008626D01*
X387952Y1009103D01*
X387427Y1009628D01*
X386950Y1010196D01*
X386524Y1010804D01*
X386153Y1011447D01*
X385840Y1012120D01*
X385586Y1012817D01*
X385394Y1013534D01*
X385265Y1014265D01*
X385200Y1015004D01*
X385200Y1015747D01*
X385265Y1016486D01*
X385394Y1017217D01*
X385586Y1017934D01*
X385840Y1018631D01*
X386153Y1019304D01*
X386524Y1019947D01*
X386950Y1020555D01*
X387427Y1021124D01*
X387952Y1021648D01*
X388521Y1022126D01*
X389129Y1022551D01*
X389771Y1022922D01*
X390444Y1023236D01*
X391142Y1023490D01*
X391859Y1023682D01*
X392589Y1023811D01*
X393329Y1023876D01*
X394071Y1023876D01*
X394811Y1023811D01*
X395542Y1023682D01*
X396258Y1023490D01*
X396956Y1023236D01*
X397629Y1022922D01*
X398271Y1022551D01*
X398879Y1022126D01*
X399448Y1021648D01*
X399973Y1021124D01*
X400450Y1020555D01*
X400876Y1019947D01*
X401247Y1019304D01*
X401560Y1018631D01*
X401814Y1017934D01*
X402006Y1017217D01*
X402135Y1016486D01*
X402200Y1015747D01*
X402200Y1015004D01*
X402200Y945004D02*
X402135Y944265D01*
X402006Y943534D01*
X401814Y942817D01*
X401560Y942120D01*
X401247Y941447D01*
X400876Y940804D01*
X400450Y940196D01*
X399973Y939628D01*
X399448Y939103D01*
X398879Y938626D01*
X398271Y938200D01*
X397629Y937829D01*
X396956Y937515D01*
X396258Y937261D01*
X395542Y937069D01*
X394811Y936940D01*
X394071Y936876D01*
X393329Y936876D01*
X392589Y936940D01*
X391859Y937069D01*
X391142Y937261D01*
X390444Y937515D01*
X389771Y937829D01*
X389129Y938200D01*
X388521Y938626D01*
X387952Y939103D01*
X387427Y939628D01*
X386950Y940196D01*
X386524Y940804D01*
X386153Y941447D01*
X385840Y942120D01*
X385586Y942817D01*
X385394Y943534D01*
X385265Y944265D01*
X385200Y945004D01*
X385200Y945747D01*
X385265Y946486D01*
X385394Y947217D01*
X385586Y947934D01*
X385840Y948631D01*
X386153Y949304D01*
X386524Y949947D01*
X386950Y950555D01*
X387427Y951124D01*
X387952Y951648D01*
X388521Y952126D01*
X389129Y952551D01*
X389771Y952922D01*
X390444Y953236D01*
X391142Y953490D01*
X391859Y953682D01*
X392589Y953811D01*
X393329Y953876D01*
X394071Y953876D01*
X394811Y953811D01*
X395542Y953682D01*
X396258Y953490D01*
X396956Y953236D01*
X397629Y952922D01*
X398271Y952551D01*
X398879Y952126D01*
X399448Y951648D01*
X399973Y951124D01*
X400450Y950555D01*
X400876Y949947D01*
X401247Y949304D01*
X401560Y948631D01*
X401814Y947934D01*
X402006Y947217D01*
X402135Y946486D01*
X402200Y945747D01*
X402200Y945004D01*
X1251355Y723597D02*
X1251432Y724379D01*
X1251586Y725150D01*
X1251814Y725902D01*
X1252115Y726628D01*
X1252485Y727322D01*
X1252922Y727975D01*
X1253420Y728583D01*
X1253976Y729139D01*
X1254584Y729637D01*
X1255237Y730074D01*
X1255931Y730444D01*
X1256657Y730745D01*
X1257409Y730973D01*
X1258180Y731127D01*
X1258962Y731204D01*
X1259748Y731204D01*
X1260530Y731127D01*
X1261301Y730973D01*
X1262054Y730745D01*
X1262780Y730444D01*
X1263473Y730074D01*
X1264126Y729637D01*
X1264734Y729139D01*
X1265290Y728583D01*
X1265789Y727975D01*
X1266225Y727322D01*
X1266596Y726628D01*
X1266897Y725902D01*
X1267125Y725150D01*
X1267278Y724379D01*
X1267355Y723597D01*
X1267355Y722811D01*
X1267278Y722029D01*
X1267125Y721258D01*
X1266897Y720505D01*
X1266596Y719779D01*
X1266225Y719086D01*
X1265789Y718432D01*
X1265290Y717825D01*
X1264734Y717269D01*
X1264126Y716770D01*
X1263473Y716334D01*
X1262780Y715963D01*
X1262054Y715662D01*
X1261301Y715434D01*
X1260530Y715281D01*
X1259748Y715204D01*
X1258962Y715204D01*
X1258180Y715281D01*
X1257409Y715434D01*
X1256657Y715662D01*
X1255931Y715963D01*
X1255237Y716334D01*
X1254584Y716770D01*
X1253976Y717269D01*
X1253420Y717825D01*
X1252922Y718432D01*
X1252485Y719086D01*
X1252115Y719779D01*
X1251814Y720505D01*
X1251586Y721258D01*
X1251432Y722029D01*
X1251355Y722811D01*
X1251355Y723597D01*
X1205355Y723597D02*
X1205424Y724380D01*
X1205560Y725154D01*
X1205764Y725913D01*
X1206032Y726651D01*
X1206364Y727363D01*
X1206757Y728044D01*
X1207208Y728688D01*
X1207713Y729290D01*
X1208269Y729846D01*
X1208871Y730351D01*
X1209515Y730802D01*
X1210195Y731194D01*
X1210908Y731527D01*
X1211646Y731795D01*
X1212405Y731999D01*
X1213179Y732135D01*
X1213962Y732204D01*
X1214748Y732204D01*
X1215531Y732135D01*
X1216305Y731999D01*
X1217064Y731795D01*
X1217803Y731527D01*
X1218515Y731194D01*
X1219195Y730802D01*
X1219839Y730351D01*
X1220441Y729846D01*
X1220997Y729290D01*
X1221502Y728688D01*
X1221953Y728044D01*
X1222346Y727363D01*
X1222678Y726651D01*
X1222947Y725913D01*
X1223150Y725154D01*
X1223287Y724380D01*
X1223355Y723597D01*
X1223355Y722811D01*
X1223287Y722028D01*
X1223150Y721254D01*
X1222947Y720495D01*
X1222678Y719756D01*
X1222346Y719044D01*
X1221953Y718363D01*
X1221502Y717720D01*
X1220997Y717118D01*
X1220441Y716562D01*
X1219839Y716057D01*
X1219195Y715606D01*
X1218515Y715213D01*
X1217803Y714881D01*
X1217064Y714612D01*
X1216305Y714409D01*
X1215531Y714272D01*
X1214748Y714204D01*
X1213962Y714204D01*
X1213179Y714272D01*
X1212405Y714409D01*
X1211646Y714612D01*
X1210908Y714881D01*
X1210195Y715213D01*
X1209515Y715606D01*
X1208871Y716057D01*
X1208269Y716562D01*
X1207713Y717118D01*
X1207208Y717720D01*
X1206757Y718363D01*
X1206364Y719044D01*
X1206032Y719756D01*
X1205764Y720495D01*
X1205560Y721254D01*
X1205424Y722028D01*
X1205355Y722811D01*
X1205355Y723597D01*
X783200Y1015004D02*
X783135Y1014265D01*
X783006Y1013534D01*
X782814Y1012817D01*
X782560Y1012120D01*
X782247Y1011447D01*
X781876Y1010804D01*
X781450Y1010196D01*
X780973Y1009628D01*
X780448Y1009103D01*
X779879Y1008626D01*
X779271Y1008200D01*
X778629Y1007829D01*
X777956Y1007515D01*
X777258Y1007261D01*
X776542Y1007069D01*
X775811Y1006940D01*
X775071Y1006876D01*
X774329Y1006876D01*
X773589Y1006940D01*
X772859Y1007069D01*
X772142Y1007261D01*
X771444Y1007515D01*
X770771Y1007829D01*
X770129Y1008200D01*
X769521Y1008626D01*
X768952Y1009103D01*
X768427Y1009628D01*
X767950Y1010196D01*
X767524Y1010804D01*
X767153Y1011447D01*
X766840Y1012120D01*
X766586Y1012817D01*
X766394Y1013534D01*
X766265Y1014265D01*
X766200Y1015004D01*
X766200Y1015747D01*
X766265Y1016486D01*
X766394Y1017217D01*
X766586Y1017934D01*
X766840Y1018631D01*
X767153Y1019304D01*
X767524Y1019947D01*
X767950Y1020555D01*
X768427Y1021124D01*
X768952Y1021648D01*
X769521Y1022126D01*
X770129Y1022551D01*
X770771Y1022922D01*
X771444Y1023236D01*
X772142Y1023490D01*
X772859Y1023682D01*
X773589Y1023811D01*
X774329Y1023876D01*
X775071Y1023876D01*
X775811Y1023811D01*
X776542Y1023682D01*
X777258Y1023490D01*
X777956Y1023236D01*
X778629Y1022922D01*
X779271Y1022551D01*
X779879Y1022126D01*
X780448Y1021648D01*
X780973Y1021124D01*
X781450Y1020555D01*
X781876Y1019947D01*
X782247Y1019304D01*
X782560Y1018631D01*
X782814Y1017934D01*
X783006Y1017217D01*
X783135Y1016486D01*
X783200Y1015747D01*
X783200Y1015004D01*
X783200Y945004D02*
X783135Y944265D01*
X783006Y943534D01*
X782814Y942817D01*
X782560Y942120D01*
X782247Y941447D01*
X781876Y940804D01*
X781450Y940196D01*
X780973Y939628D01*
X780448Y939103D01*
X779879Y938626D01*
X779271Y938200D01*
X778629Y937829D01*
X777956Y937515D01*
X777258Y937261D01*
X776542Y937069D01*
X775811Y936940D01*
X775071Y936876D01*
X774329Y936876D01*
X773589Y936940D01*
X772859Y937069D01*
X772142Y937261D01*
X771444Y937515D01*
X770771Y937829D01*
X770129Y938200D01*
X769521Y938626D01*
X768952Y939103D01*
X768427Y939628D01*
X767950Y940196D01*
X767524Y940804D01*
X767153Y941447D01*
X766840Y942120D01*
X766586Y942817D01*
X766394Y943534D01*
X766265Y944265D01*
X766200Y945004D01*
X766200Y945747D01*
X766265Y946486D01*
X766394Y947217D01*
X766586Y947934D01*
X766840Y948631D01*
X767153Y949304D01*
X767524Y949947D01*
X767950Y950555D01*
X768427Y951124D01*
X768952Y951648D01*
X769521Y952126D01*
X770129Y952551D01*
X770771Y952922D01*
X771444Y953236D01*
X772142Y953490D01*
X772859Y953682D01*
X773589Y953811D01*
X774329Y953876D01*
X775071Y953876D01*
X775811Y953811D01*
X776542Y953682D01*
X777258Y953490D01*
X777956Y953236D01*
X778629Y952922D01*
X779271Y952551D01*
X779879Y952126D01*
X780448Y951648D01*
X780973Y951124D01*
X781450Y950555D01*
X781876Y949947D01*
X782247Y949304D01*
X782560Y948631D01*
X782814Y947934D01*
X783006Y947217D01*
X783135Y946486D01*
X783200Y945747D01*
X783200Y945004D01*
X656200Y1015004D02*
X656135Y1014265D01*
X656006Y1013534D01*
X655814Y1012817D01*
X655560Y1012120D01*
X655247Y1011447D01*
X654876Y1010804D01*
X654450Y1010196D01*
X653973Y1009628D01*
X653448Y1009103D01*
X652879Y1008626D01*
X652271Y1008200D01*
X651629Y1007829D01*
X650956Y1007515D01*
X650258Y1007261D01*
X649542Y1007069D01*
X648811Y1006940D01*
X648071Y1006876D01*
X647329Y1006876D01*
X646589Y1006940D01*
X645859Y1007069D01*
X645142Y1007261D01*
X644444Y1007515D01*
X643771Y1007829D01*
X643129Y1008200D01*
X642521Y1008626D01*
X641952Y1009103D01*
X641427Y1009628D01*
X640950Y1010196D01*
X640524Y1010804D01*
X640153Y1011447D01*
X639840Y1012120D01*
X639586Y1012817D01*
X639394Y1013534D01*
X639265Y1014265D01*
X639200Y1015004D01*
X639200Y1015747D01*
X639265Y1016486D01*
X639394Y1017217D01*
X639586Y1017934D01*
X639840Y1018631D01*
X640153Y1019304D01*
X640524Y1019947D01*
X640950Y1020555D01*
X641427Y1021124D01*
X641952Y1021648D01*
X642521Y1022126D01*
X643129Y1022551D01*
X643771Y1022922D01*
X644444Y1023236D01*
X645142Y1023490D01*
X645859Y1023682D01*
X646589Y1023811D01*
X647329Y1023876D01*
X648071Y1023876D01*
X648811Y1023811D01*
X649542Y1023682D01*
X650258Y1023490D01*
X650956Y1023236D01*
X651629Y1022922D01*
X652271Y1022551D01*
X652879Y1022126D01*
X653448Y1021648D01*
X653973Y1021124D01*
X654450Y1020555D01*
X654876Y1019947D01*
X655247Y1019304D01*
X655560Y1018631D01*
X655814Y1017934D01*
X656006Y1017217D01*
X656135Y1016486D01*
X656200Y1015747D01*
X656200Y1015004D01*
X656200Y945004D02*
X656135Y944265D01*
X656006Y943534D01*
X655814Y942817D01*
X655560Y942120D01*
X655247Y941447D01*
X654876Y940804D01*
X654450Y940196D01*
X653973Y939628D01*
X653448Y939103D01*
X652879Y938626D01*
X652271Y938200D01*
X651629Y937829D01*
X650956Y937515D01*
X650258Y937261D01*
X649542Y937069D01*
X648811Y936940D01*
X648071Y936876D01*
X647329Y936876D01*
X646589Y936940D01*
X645859Y937069D01*
X645142Y937261D01*
X644444Y937515D01*
X643771Y937829D01*
X643129Y938200D01*
X642521Y938626D01*
X641952Y939103D01*
X641427Y939628D01*
X640950Y940196D01*
X640524Y940804D01*
X640153Y941447D01*
X639840Y942120D01*
X639586Y942817D01*
X639394Y943534D01*
X639265Y944265D01*
X639200Y945004D01*
X639200Y945747D01*
X639265Y946486D01*
X639394Y947217D01*
X639586Y947934D01*
X639840Y948631D01*
X640153Y949304D01*
X640524Y949947D01*
X640950Y950555D01*
X641427Y951124D01*
X641952Y951648D01*
X642521Y952126D01*
X643129Y952551D01*
X643771Y952922D01*
X644444Y953236D01*
X645142Y953490D01*
X645859Y953682D01*
X646589Y953811D01*
X647329Y953876D01*
X648071Y953876D01*
X648811Y953811D01*
X649542Y953682D01*
X650258Y953490D01*
X650956Y953236D01*
X651629Y952922D01*
X652271Y952551D01*
X652879Y952126D01*
X653448Y951648D01*
X653973Y951124D01*
X654450Y950555D01*
X654876Y949947D01*
X655247Y949304D01*
X655560Y948631D01*
X655814Y947934D01*
X656006Y947217D01*
X656135Y946486D01*
X656200Y945747D01*
X656200Y945004D01*
X529200Y1015004D02*
X529135Y1014265D01*
X529006Y1013534D01*
X528814Y1012817D01*
X528560Y1012120D01*
X528247Y1011447D01*
X527876Y1010804D01*
X527450Y1010196D01*
X526973Y1009628D01*
X526448Y1009103D01*
X525879Y1008626D01*
X525271Y1008200D01*
X524629Y1007829D01*
X523956Y1007515D01*
X523258Y1007261D01*
X522542Y1007069D01*
X521811Y1006940D01*
X521071Y1006876D01*
X520329Y1006876D01*
X519589Y1006940D01*
X518859Y1007069D01*
X518142Y1007261D01*
X517444Y1007515D01*
X516771Y1007829D01*
X516129Y1008200D01*
X515521Y1008626D01*
X514952Y1009103D01*
X514427Y1009628D01*
X513950Y1010196D01*
X513524Y1010804D01*
X513153Y1011447D01*
X512840Y1012120D01*
X512586Y1012817D01*
X512394Y1013534D01*
X512265Y1014265D01*
X512200Y1015004D01*
X512200Y1015747D01*
X512265Y1016486D01*
X512394Y1017217D01*
X512586Y1017934D01*
X512840Y1018631D01*
X513153Y1019304D01*
X513524Y1019947D01*
X513950Y1020555D01*
X514427Y1021124D01*
X514952Y1021648D01*
X515521Y1022126D01*
X516129Y1022551D01*
X516771Y1022922D01*
X517444Y1023236D01*
X518142Y1023490D01*
X518859Y1023682D01*
X519589Y1023811D01*
X520329Y1023876D01*
X521071Y1023876D01*
X521811Y1023811D01*
X522542Y1023682D01*
X523258Y1023490D01*
X523956Y1023236D01*
X524629Y1022922D01*
X525271Y1022551D01*
X525879Y1022126D01*
X526448Y1021648D01*
X526973Y1021124D01*
X527450Y1020555D01*
X527876Y1019947D01*
X528247Y1019304D01*
X528560Y1018631D01*
X528814Y1017934D01*
X529006Y1017217D01*
X529135Y1016486D01*
X529200Y1015747D01*
X529200Y1015004D01*
X529200Y945004D02*
X529135Y944265D01*
X529006Y943534D01*
X528814Y942817D01*
X528560Y942120D01*
X528247Y941447D01*
X527876Y940804D01*
X527450Y940196D01*
X526973Y939628D01*
X526448Y939103D01*
X525879Y938626D01*
X525271Y938200D01*
X524629Y937829D01*
X523956Y937515D01*
X523258Y937261D01*
X522542Y937069D01*
X521811Y936940D01*
X521071Y936876D01*
X520329Y936876D01*
X519589Y936940D01*
X518859Y937069D01*
X518142Y937261D01*
X517444Y937515D01*
X516771Y937829D01*
X516129Y938200D01*
X515521Y938626D01*
X514952Y939103D01*
X514427Y939628D01*
X513950Y940196D01*
X513524Y940804D01*
X513153Y941447D01*
X512840Y942120D01*
X512586Y942817D01*
X512394Y943534D01*
X512265Y944265D01*
X512200Y945004D01*
X512200Y945747D01*
X512265Y946486D01*
X512394Y947217D01*
X512586Y947934D01*
X512840Y948631D01*
X513153Y949304D01*
X513524Y949947D01*
X513950Y950555D01*
X514427Y951124D01*
X514952Y951648D01*
X515521Y952126D01*
X516129Y952551D01*
X516771Y952922D01*
X517444Y953236D01*
X518142Y953490D01*
X518859Y953682D01*
X519589Y953811D01*
X520329Y953876D01*
X521071Y953876D01*
X521811Y953811D01*
X522542Y953682D01*
X523258Y953490D01*
X523956Y953236D01*
X524629Y952922D01*
X525271Y952551D01*
X525879Y952126D01*
X526448Y951648D01*
X526973Y951124D01*
X527450Y950555D01*
X527876Y949947D01*
X528247Y949304D01*
X528560Y948631D01*
X528814Y947934D01*
X529006Y947217D01*
X529135Y946486D01*
X529200Y945747D01*
X529200Y945004D01*
X910200Y1015004D02*
X910135Y1014265D01*
X910006Y1013534D01*
X909814Y1012817D01*
X909560Y1012120D01*
X909247Y1011447D01*
X908876Y1010804D01*
X908450Y1010196D01*
X907973Y1009628D01*
X907448Y1009103D01*
X906879Y1008626D01*
X906271Y1008200D01*
X905629Y1007829D01*
X904956Y1007515D01*
X904258Y1007261D01*
X903542Y1007069D01*
X902811Y1006940D01*
X902071Y1006876D01*
X901329Y1006876D01*
X900589Y1006940D01*
X899859Y1007069D01*
X899142Y1007261D01*
X898444Y1007515D01*
X897771Y1007829D01*
X897129Y1008200D01*
X896521Y1008626D01*
X895952Y1009103D01*
X895427Y1009628D01*
X894950Y1010196D01*
X894524Y1010804D01*
X894153Y1011447D01*
X893840Y1012120D01*
X893586Y1012817D01*
X893394Y1013534D01*
X893265Y1014265D01*
X893200Y1015004D01*
X893200Y1015747D01*
X893265Y1016486D01*
X893394Y1017217D01*
X893586Y1017934D01*
X893840Y1018631D01*
X894153Y1019304D01*
X894524Y1019947D01*
X894950Y1020555D01*
X895427Y1021124D01*
X895952Y1021648D01*
X896521Y1022126D01*
X897129Y1022551D01*
X897771Y1022922D01*
X898444Y1023236D01*
X899142Y1023490D01*
X899859Y1023682D01*
X900589Y1023811D01*
X901329Y1023876D01*
X902071Y1023876D01*
X902811Y1023811D01*
X903542Y1023682D01*
X904258Y1023490D01*
X904956Y1023236D01*
X905629Y1022922D01*
X906271Y1022551D01*
X906879Y1022126D01*
X907448Y1021648D01*
X907973Y1021124D01*
X908450Y1020555D01*
X908876Y1019947D01*
X909247Y1019304D01*
X909560Y1018631D01*
X909814Y1017934D01*
X910006Y1017217D01*
X910135Y1016486D01*
X910200Y1015747D01*
X910200Y1015004D01*
X910200Y945004D02*
X910135Y944265D01*
X910006Y943534D01*
X909814Y942817D01*
X909560Y942120D01*
X909247Y941447D01*
X908876Y940804D01*
X908450Y940196D01*
X907973Y939628D01*
X907448Y939103D01*
X906879Y938626D01*
X906271Y938200D01*
X905629Y937829D01*
X904956Y937515D01*
X904258Y937261D01*
X903542Y937069D01*
X902811Y936940D01*
X902071Y936876D01*
X901329Y936876D01*
X900589Y936940D01*
X899859Y937069D01*
X899142Y937261D01*
X898444Y937515D01*
X897771Y937829D01*
X897129Y938200D01*
X896521Y938626D01*
X895952Y939103D01*
X895427Y939628D01*
X894950Y940196D01*
X894524Y940804D01*
X894153Y941447D01*
X893840Y942120D01*
X893586Y942817D01*
X893394Y943534D01*
X893265Y944265D01*
X893200Y945004D01*
X893200Y945747D01*
X893265Y946486D01*
X893394Y947217D01*
X893586Y947934D01*
X893840Y948631D01*
X894153Y949304D01*
X894524Y949947D01*
X894950Y950555D01*
X895427Y951124D01*
X895952Y951648D01*
X896521Y952126D01*
X897129Y952551D01*
X897771Y952922D01*
X898444Y953236D01*
X899142Y953490D01*
X899859Y953682D01*
X900589Y953811D01*
X901329Y953876D01*
X902071Y953876D01*
X902811Y953811D01*
X903542Y953682D01*
X904258Y953490D01*
X904956Y953236D01*
X905629Y952922D01*
X906271Y952551D01*
X906879Y952126D01*
X907448Y951648D01*
X907973Y951124D01*
X908450Y950555D01*
X908876Y949947D01*
X909247Y949304D01*
X909560Y948631D01*
X909814Y947934D01*
X910006Y947217D01*
X910135Y946486D01*
X910200Y945747D01*
X910200Y945004D01*
X1037200Y1015004D02*
X1037135Y1014265D01*
X1037006Y1013534D01*
X1036814Y1012817D01*
X1036560Y1012120D01*
X1036247Y1011447D01*
X1035876Y1010804D01*
X1035450Y1010196D01*
X1034973Y1009628D01*
X1034448Y1009103D01*
X1033879Y1008626D01*
X1033271Y1008200D01*
X1032629Y1007829D01*
X1031956Y1007515D01*
X1031258Y1007261D01*
X1030542Y1007069D01*
X1029811Y1006940D01*
X1029071Y1006876D01*
X1028329Y1006876D01*
X1027589Y1006940D01*
X1026859Y1007069D01*
X1026142Y1007261D01*
X1025444Y1007515D01*
X1024771Y1007829D01*
X1024129Y1008200D01*
X1023521Y1008626D01*
X1022952Y1009103D01*
X1022427Y1009628D01*
X1021950Y1010196D01*
X1021524Y1010804D01*
X1021153Y1011447D01*
X1020840Y1012120D01*
X1020586Y1012817D01*
X1020394Y1013534D01*
X1020265Y1014265D01*
X1020200Y1015004D01*
X1020200Y1015747D01*
X1020265Y1016486D01*
X1020394Y1017217D01*
X1020586Y1017934D01*
X1020840Y1018631D01*
X1021153Y1019304D01*
X1021524Y1019947D01*
X1021950Y1020555D01*
X1022427Y1021124D01*
X1022952Y1021648D01*
X1023521Y1022126D01*
X1024129Y1022551D01*
X1024771Y1022922D01*
X1025444Y1023236D01*
X1026142Y1023490D01*
X1026859Y1023682D01*
X1027589Y1023811D01*
X1028329Y1023876D01*
X1029071Y1023876D01*
X1029811Y1023811D01*
X1030542Y1023682D01*
X1031258Y1023490D01*
X1031956Y1023236D01*
X1032629Y1022922D01*
X1033271Y1022551D01*
X1033879Y1022126D01*
X1034448Y1021648D01*
X1034973Y1021124D01*
X1035450Y1020555D01*
X1035876Y1019947D01*
X1036247Y1019304D01*
X1036560Y1018631D01*
X1036814Y1017934D01*
X1037006Y1017217D01*
X1037135Y1016486D01*
X1037200Y1015747D01*
X1037200Y1015004D01*
X1037200Y945004D02*
X1037135Y944265D01*
X1037006Y943534D01*
X1036814Y942817D01*
X1036560Y942120D01*
X1036247Y941447D01*
X1035876Y940804D01*
X1035450Y940196D01*
X1034973Y939628D01*
X1034448Y939103D01*
X1033879Y938626D01*
X1033271Y938200D01*
X1032629Y937829D01*
X1031956Y937515D01*
X1031258Y937261D01*
X1030542Y937069D01*
X1029811Y936940D01*
X1029071Y936876D01*
X1028329Y936876D01*
X1027589Y936940D01*
X1026859Y937069D01*
X1026142Y937261D01*
X1025444Y937515D01*
X1024771Y937829D01*
X1024129Y938200D01*
X1023521Y938626D01*
X1022952Y939103D01*
X1022427Y939628D01*
X1021950Y940196D01*
X1021524Y940804D01*
X1021153Y941447D01*
X1020840Y942120D01*
X1020586Y942817D01*
X1020394Y943534D01*
X1020265Y944265D01*
X1020200Y945004D01*
X1020200Y945747D01*
X1020265Y946486D01*
X1020394Y947217D01*
X1020586Y947934D01*
X1020840Y948631D01*
X1021153Y949304D01*
X1021524Y949947D01*
X1021950Y950555D01*
X1022427Y951124D01*
X1022952Y951648D01*
X1023521Y952126D01*
X1024129Y952551D01*
X1024771Y952922D01*
X1025444Y953236D01*
X1026142Y953490D01*
X1026859Y953682D01*
X1027589Y953811D01*
X1028329Y953876D01*
X1029071Y953876D01*
X1029811Y953811D01*
X1030542Y953682D01*
X1031258Y953490D01*
X1031956Y953236D01*
X1032629Y952922D01*
X1033271Y952551D01*
X1033879Y952126D01*
X1034448Y951648D01*
X1034973Y951124D01*
X1035450Y950555D01*
X1035876Y949947D01*
X1036247Y949304D01*
X1036560Y948631D01*
X1036814Y947934D01*
X1037006Y947217D01*
X1037135Y946486D01*
X1037200Y945747D01*
X1037200Y945004D01*
X1164200Y1015004D02*
X1164135Y1014265D01*
X1164006Y1013534D01*
X1163814Y1012817D01*
X1163560Y1012120D01*
X1163247Y1011447D01*
X1162876Y1010804D01*
X1162450Y1010196D01*
X1161973Y1009628D01*
X1161448Y1009103D01*
X1160879Y1008626D01*
X1160271Y1008200D01*
X1159629Y1007829D01*
X1158956Y1007515D01*
X1158258Y1007261D01*
X1157542Y1007069D01*
X1156811Y1006940D01*
X1156071Y1006876D01*
X1155329Y1006876D01*
X1154589Y1006940D01*
X1153859Y1007069D01*
X1153142Y1007261D01*
X1152444Y1007515D01*
X1151771Y1007829D01*
X1151129Y1008200D01*
X1150521Y1008626D01*
X1149952Y1009103D01*
X1149427Y1009628D01*
X1148950Y1010196D01*
X1148524Y1010804D01*
X1148153Y1011447D01*
X1147840Y1012120D01*
X1147586Y1012817D01*
X1147394Y1013534D01*
X1147265Y1014265D01*
X1147200Y1015004D01*
X1147200Y1015747D01*
X1147265Y1016486D01*
X1147394Y1017217D01*
X1147586Y1017934D01*
X1147840Y1018631D01*
X1148153Y1019304D01*
X1148524Y1019947D01*
X1148950Y1020555D01*
X1149427Y1021124D01*
X1149952Y1021648D01*
X1150521Y1022126D01*
X1151129Y1022551D01*
X1151771Y1022922D01*
X1152444Y1023236D01*
X1153142Y1023490D01*
X1153859Y1023682D01*
X1154589Y1023811D01*
X1155329Y1023876D01*
X1156071Y1023876D01*
X1156811Y1023811D01*
X1157542Y1023682D01*
X1158258Y1023490D01*
X1158956Y1023236D01*
X1159629Y1022922D01*
X1160271Y1022551D01*
X1160879Y1022126D01*
X1161448Y1021648D01*
X1161973Y1021124D01*
X1162450Y1020555D01*
X1162876Y1019947D01*
X1163247Y1019304D01*
X1163560Y1018631D01*
X1163814Y1017934D01*
X1164006Y1017217D01*
X1164135Y1016486D01*
X1164200Y1015747D01*
X1164200Y1015004D01*
X1164200Y945004D02*
X1164135Y944265D01*
X1164006Y943534D01*
X1163814Y942817D01*
X1163560Y942120D01*
X1163247Y941447D01*
X1162876Y940804D01*
X1162450Y940196D01*
X1161973Y939628D01*
X1161448Y939103D01*
X1160879Y938626D01*
X1160271Y938200D01*
X1159629Y937829D01*
X1158956Y937515D01*
X1158258Y937261D01*
X1157542Y937069D01*
X1156811Y936940D01*
X1156071Y936876D01*
X1155329Y936876D01*
X1154589Y936940D01*
X1153859Y937069D01*
X1153142Y937261D01*
X1152444Y937515D01*
X1151771Y937829D01*
X1151129Y938200D01*
X1150521Y938626D01*
X1149952Y939103D01*
X1149427Y939628D01*
X1148950Y940196D01*
X1148524Y940804D01*
X1148153Y941447D01*
X1147840Y942120D01*
X1147586Y942817D01*
X1147394Y943534D01*
X1147265Y944265D01*
X1147200Y945004D01*
X1147200Y945747D01*
X1147265Y946486D01*
X1147394Y947217D01*
X1147586Y947934D01*
X1147840Y948631D01*
X1148153Y949304D01*
X1148524Y949947D01*
X1148950Y950555D01*
X1149427Y951124D01*
X1149952Y951648D01*
X1150521Y952126D01*
X1151129Y952551D01*
X1151771Y952922D01*
X1152444Y953236D01*
X1153142Y953490D01*
X1153859Y953682D01*
X1154589Y953811D01*
X1155329Y953876D01*
X1156071Y953876D01*
X1156811Y953811D01*
X1157542Y953682D01*
X1158258Y953490D01*
X1158956Y953236D01*
X1159629Y952922D01*
X1160271Y952551D01*
X1160879Y952126D01*
X1161448Y951648D01*
X1161973Y951124D01*
X1162450Y950555D01*
X1162876Y949947D01*
X1163247Y949304D01*
X1163560Y948631D01*
X1163814Y947934D01*
X1164006Y947217D01*
X1164135Y946486D01*
X1164200Y945747D01*
X1164200Y945004D01*
X1251355Y583897D02*
X1251432Y584679D01*
X1251586Y585450D01*
X1251814Y586202D01*
X1252115Y586928D01*
X1252485Y587622D01*
X1252922Y588275D01*
X1253420Y588883D01*
X1253976Y589439D01*
X1254584Y589937D01*
X1255237Y590374D01*
X1255931Y590744D01*
X1256657Y591045D01*
X1257409Y591273D01*
X1258180Y591427D01*
X1258962Y591504D01*
X1259748Y591504D01*
X1260530Y591427D01*
X1261301Y591273D01*
X1262054Y591045D01*
X1262780Y590744D01*
X1263473Y590374D01*
X1264126Y589937D01*
X1264734Y589439D01*
X1265290Y588883D01*
X1265789Y588275D01*
X1266225Y587622D01*
X1266596Y586928D01*
X1266897Y586202D01*
X1267125Y585450D01*
X1267278Y584679D01*
X1267355Y583897D01*
X1267355Y583111D01*
X1267278Y582329D01*
X1267125Y581558D01*
X1266897Y580805D01*
X1266596Y580079D01*
X1266225Y579386D01*
X1265789Y578732D01*
X1265290Y578125D01*
X1264734Y577569D01*
X1264126Y577070D01*
X1263473Y576634D01*
X1262780Y576263D01*
X1262054Y575962D01*
X1261301Y575734D01*
X1260530Y575581D01*
X1259748Y575504D01*
X1258962Y575504D01*
X1258180Y575581D01*
X1257409Y575734D01*
X1256657Y575962D01*
X1255931Y576263D01*
X1255237Y576634D01*
X1254584Y577070D01*
X1253976Y577569D01*
X1253420Y578125D01*
X1252922Y578732D01*
X1252485Y579386D01*
X1252115Y580079D01*
X1251814Y580805D01*
X1251586Y581558D01*
X1251432Y582329D01*
X1251355Y583111D01*
X1251355Y583897D01*
X1205355Y583897D02*
X1205424Y584680D01*
X1205560Y585454D01*
X1205764Y586213D01*
X1206032Y586951D01*
X1206364Y587663D01*
X1206757Y588344D01*
X1207208Y588988D01*
X1207713Y589590D01*
X1208269Y590146D01*
X1208871Y590651D01*
X1209515Y591102D01*
X1210195Y591494D01*
X1210908Y591827D01*
X1211646Y592095D01*
X1212405Y592299D01*
X1213179Y592435D01*
X1213962Y592504D01*
X1214748Y592504D01*
X1215531Y592435D01*
X1216305Y592299D01*
X1217064Y592095D01*
X1217803Y591827D01*
X1218515Y591494D01*
X1219195Y591102D01*
X1219839Y590651D01*
X1220441Y590146D01*
X1220997Y589590D01*
X1221502Y588988D01*
X1221953Y588344D01*
X1222346Y587663D01*
X1222678Y586951D01*
X1222947Y586213D01*
X1223150Y585454D01*
X1223287Y584680D01*
X1223355Y583897D01*
X1223355Y583111D01*
X1223287Y582328D01*
X1223150Y581554D01*
X1222947Y580795D01*
X1222678Y580056D01*
X1222346Y579344D01*
X1221953Y578663D01*
X1221502Y578020D01*
X1220997Y577418D01*
X1220441Y576862D01*
X1219839Y576357D01*
X1219195Y575906D01*
X1218515Y575513D01*
X1217803Y575181D01*
X1217064Y574912D01*
X1216305Y574709D01*
X1215531Y574572D01*
X1214748Y574504D01*
X1213962Y574504D01*
X1213179Y574572D01*
X1212405Y574709D01*
X1211646Y574912D01*
X1210908Y575181D01*
X1210195Y575513D01*
X1209515Y575906D01*
X1208871Y576357D01*
X1208269Y576862D01*
X1207713Y577418D01*
X1207208Y578020D01*
X1206757Y578663D01*
X1206364Y579344D01*
X1206032Y580056D01*
X1205764Y580795D01*
X1205560Y581554D01*
X1205424Y582328D01*
X1205355Y583111D01*
X1205355Y583897D01*
X1251355Y444197D02*
X1251432Y444979D01*
X1251586Y445750D01*
X1251814Y446502D01*
X1252115Y447228D01*
X1252485Y447922D01*
X1252922Y448575D01*
X1253420Y449183D01*
X1253976Y449739D01*
X1254584Y450237D01*
X1255237Y450674D01*
X1255931Y451044D01*
X1256657Y451345D01*
X1257409Y451573D01*
X1258180Y451727D01*
X1258962Y451804D01*
X1259748Y451804D01*
X1260530Y451727D01*
X1261301Y451573D01*
X1262054Y451345D01*
X1262780Y451044D01*
X1263473Y450674D01*
X1264126Y450237D01*
X1264734Y449739D01*
X1265290Y449183D01*
X1265789Y448575D01*
X1266225Y447922D01*
X1266596Y447228D01*
X1266897Y446502D01*
X1267125Y445750D01*
X1267278Y444979D01*
X1267355Y444197D01*
X1267355Y443411D01*
X1267278Y442629D01*
X1267125Y441858D01*
X1266897Y441105D01*
X1266596Y440379D01*
X1266225Y439686D01*
X1265789Y439032D01*
X1265290Y438425D01*
X1264734Y437869D01*
X1264126Y437370D01*
X1263473Y436934D01*
X1262780Y436563D01*
X1262054Y436262D01*
X1261301Y436034D01*
X1260530Y435881D01*
X1259748Y435804D01*
X1258962Y435804D01*
X1258180Y435881D01*
X1257409Y436034D01*
X1256657Y436262D01*
X1255931Y436563D01*
X1255237Y436934D01*
X1254584Y437370D01*
X1253976Y437869D01*
X1253420Y438425D01*
X1252922Y439032D01*
X1252485Y439686D01*
X1252115Y440379D01*
X1251814Y441105D01*
X1251586Y441858D01*
X1251432Y442629D01*
X1251355Y443411D01*
X1251355Y444197D01*
X1205355Y444197D02*
X1205424Y444980D01*
X1205560Y445754D01*
X1205764Y446513D01*
X1206032Y447251D01*
X1206364Y447963D01*
X1206757Y448644D01*
X1207208Y449288D01*
X1207713Y449890D01*
X1208269Y450446D01*
X1208871Y450951D01*
X1209515Y451402D01*
X1210195Y451794D01*
X1210908Y452127D01*
X1211646Y452395D01*
X1212405Y452599D01*
X1213179Y452735D01*
X1213962Y452804D01*
X1214748Y452804D01*
X1215531Y452735D01*
X1216305Y452599D01*
X1217064Y452395D01*
X1217803Y452127D01*
X1218515Y451794D01*
X1219195Y451402D01*
X1219839Y450951D01*
X1220441Y450446D01*
X1220997Y449890D01*
X1221502Y449288D01*
X1221953Y448644D01*
X1222346Y447963D01*
X1222678Y447251D01*
X1222947Y446513D01*
X1223150Y445754D01*
X1223287Y444980D01*
X1223355Y444197D01*
X1223355Y443411D01*
X1223287Y442628D01*
X1223150Y441854D01*
X1222947Y441095D01*
X1222678Y440356D01*
X1222346Y439644D01*
X1221953Y438963D01*
X1221502Y438320D01*
X1220997Y437718D01*
X1220441Y437162D01*
X1219839Y436657D01*
X1219195Y436206D01*
X1218515Y435813D01*
X1217803Y435481D01*
X1217064Y435212D01*
X1216305Y435009D01*
X1215531Y434872D01*
X1214748Y434804D01*
X1213962Y434804D01*
X1213179Y434872D01*
X1212405Y435009D01*
X1211646Y435212D01*
X1210908Y435481D01*
X1210195Y435813D01*
X1209515Y436206D01*
X1208871Y436657D01*
X1208269Y437162D01*
X1207713Y437718D01*
X1207208Y438320D01*
X1206757Y438963D01*
X1206364Y439644D01*
X1206032Y440356D01*
X1205764Y441095D01*
X1205560Y441854D01*
X1205424Y442628D01*
X1205355Y443411D01*
X1205355Y444197D01*
X114383Y49121D02*
X114313Y48060D01*
X114174Y47005D01*
X113967Y45961D01*
X113692Y44934D01*
X113350Y43926D01*
X112942Y42943D01*
X112472Y41989D01*
X111940Y41067D01*
X111349Y40183D01*
X110701Y39339D01*
X110000Y38539D01*
X109247Y37787D01*
X108447Y37085D01*
X107603Y36437D01*
X106719Y35846D01*
X105797Y35314D01*
X104843Y34844D01*
X103860Y34437D01*
X102853Y34095D01*
X101825Y33819D01*
X100781Y33612D01*
X99727Y33473D01*
X98665Y33403D01*
X97601Y33403D01*
X96539Y33473D01*
X95484Y33612D01*
X94441Y33819D01*
X93413Y34095D01*
X92406Y34437D01*
X91423Y34844D01*
X90469Y35314D01*
X89547Y35846D01*
X88663Y36437D01*
X87818Y37085D01*
X87019Y37787D01*
X86266Y38539D01*
X85565Y39339D01*
X84917Y40183D01*
X84326Y41067D01*
X83794Y41989D01*
X83323Y42943D01*
X82916Y43926D01*
X82574Y44934D01*
X82299Y45961D01*
X82091Y47005D01*
X81952Y48060D01*
X81883Y49121D01*
X81883Y50185D01*
X81952Y51247D01*
X82091Y52302D01*
X82299Y53345D01*
X82574Y54373D01*
X82916Y55380D01*
X83323Y56363D01*
X83794Y57317D01*
X84326Y58239D01*
X84917Y59124D01*
X85565Y59968D01*
X86266Y60767D01*
X87019Y61520D01*
X87818Y62221D01*
X88663Y62869D01*
X89547Y63460D01*
X90469Y63992D01*
X91423Y64463D01*
X92406Y64870D01*
X93413Y65212D01*
X94441Y65487D01*
X95484Y65695D01*
X96539Y65834D01*
X97601Y65903D01*
X98665Y65903D01*
X99727Y65834D01*
X100781Y65695D01*
X101825Y65487D01*
X102853Y65212D01*
X103860Y64870D01*
X104843Y64463D01*
X105797Y63992D01*
X106719Y63460D01*
X107603Y62869D01*
X108447Y62221D01*
X109247Y61520D01*
X110000Y60767D01*
X110701Y59968D01*
X111349Y59124D01*
X111940Y58239D01*
X112472Y57317D01*
X112942Y56363D01*
X113350Y55380D01*
X113692Y54373D01*
X113967Y53345D01*
X114174Y52302D01*
X114313Y51247D01*
X114383Y50185D01*
X114383Y49121D01*
X228683Y49121D02*
X228613Y48060D01*
X228474Y47005D01*
X228267Y45961D01*
X227992Y44934D01*
X227650Y43926D01*
X227242Y42943D01*
X226772Y41989D01*
X226240Y41067D01*
X225649Y40183D01*
X225001Y39339D01*
X224300Y38539D01*
X223547Y37787D01*
X222747Y37085D01*
X221903Y36437D01*
X221019Y35846D01*
X220097Y35314D01*
X219143Y34844D01*
X218160Y34437D01*
X217153Y34095D01*
X216125Y33819D01*
X215081Y33612D01*
X214027Y33473D01*
X212965Y33403D01*
X211901Y33403D01*
X210839Y33473D01*
X209784Y33612D01*
X208741Y33819D01*
X207713Y34095D01*
X206706Y34437D01*
X205723Y34844D01*
X204769Y35314D01*
X203847Y35846D01*
X202963Y36437D01*
X202118Y37085D01*
X201319Y37787D01*
X200566Y38539D01*
X199865Y39339D01*
X199217Y40183D01*
X198626Y41067D01*
X198094Y41989D01*
X197623Y42943D01*
X197216Y43926D01*
X196874Y44934D01*
X196599Y45961D01*
X196391Y47005D01*
X196252Y48060D01*
X196183Y49121D01*
X196183Y50185D01*
X196252Y51247D01*
X196391Y52302D01*
X196599Y53345D01*
X196874Y54373D01*
X197216Y55380D01*
X197623Y56363D01*
X198094Y57317D01*
X198626Y58239D01*
X199217Y59124D01*
X199865Y59968D01*
X200566Y60767D01*
X201319Y61520D01*
X202118Y62221D01*
X202963Y62869D01*
X203847Y63460D01*
X204769Y63992D01*
X205723Y64463D01*
X206706Y64870D01*
X207713Y65212D01*
X208741Y65487D01*
X209784Y65695D01*
X210839Y65834D01*
X211901Y65903D01*
X212965Y65903D01*
X214027Y65834D01*
X215081Y65695D01*
X216125Y65487D01*
X217153Y65212D01*
X218160Y64870D01*
X219143Y64463D01*
X220097Y63992D01*
X221019Y63460D01*
X221903Y62869D01*
X222747Y62221D01*
X223547Y61520D01*
X224300Y60767D01*
X225001Y59968D01*
X225649Y59124D01*
X226240Y58239D01*
X226772Y57317D01*
X227242Y56363D01*
X227650Y55380D01*
X227992Y54373D01*
X228267Y53345D01*
X228474Y52302D01*
X228613Y51247D01*
X228683Y50185D01*
X228683Y49121D01*
X30029Y737110D02*
X29415Y737179D01*
X28812Y737316D01*
X28229Y737520D01*
X27673Y737788D01*
X27150Y738117D01*
X26667Y738502D01*
X26230Y738939D01*
X25845Y739422D01*
X25516Y739945D01*
X25248Y740502D01*
X25044Y741085D01*
X24907Y741687D01*
X24837Y742301D01*
X24837Y742919D01*
X24907Y743532D01*
X25044Y744135D01*
X25248Y744718D01*
X25516Y745274D01*
X25845Y745797D01*
X26230Y746280D01*
X26667Y746717D01*
X27150Y747102D01*
X27673Y747431D01*
X28229Y747699D01*
X28812Y747903D01*
X29415Y748040D01*
X30029Y748110D01*
X30646Y748110D01*
X31260Y748040D01*
X31862Y747903D01*
X32446Y747699D01*
X33002Y747431D01*
X33525Y747102D01*
X34008Y746717D01*
X34445Y746280D01*
X34830Y745797D01*
X35159Y745274D01*
X35427Y744718D01*
X35631Y744135D01*
X35768Y743532D01*
X35837Y742919D01*
X35837Y742301D01*
X35768Y741687D01*
X35631Y741085D01*
X35427Y740502D01*
X35159Y739945D01*
X34830Y739422D01*
X34445Y738939D01*
X34008Y738502D01*
X33525Y738117D01*
X33002Y737788D01*
X32446Y737520D01*
X31862Y737316D01*
X31260Y737179D01*
X30646Y737110D01*
X30029Y737110D01*
X30029Y667110D02*
X29415Y667179D01*
X28812Y667316D01*
X28229Y667520D01*
X27673Y667788D01*
X27150Y668117D01*
X26667Y668502D01*
X26230Y668939D01*
X25845Y669422D01*
X25516Y669945D01*
X25248Y670502D01*
X25044Y671085D01*
X24907Y671687D01*
X24837Y672301D01*
X24837Y672919D01*
X24907Y673532D01*
X25044Y674135D01*
X25248Y674718D01*
X25516Y675274D01*
X25845Y675797D01*
X26230Y676280D01*
X26667Y676717D01*
X27150Y677102D01*
X27673Y677431D01*
X28229Y677699D01*
X28812Y677903D01*
X29415Y678040D01*
X30029Y678110D01*
X30646Y678110D01*
X31260Y678040D01*
X31862Y677903D01*
X32446Y677699D01*
X33002Y677431D01*
X33525Y677102D01*
X34008Y676717D01*
X34445Y676280D01*
X34830Y675797D01*
X35159Y675274D01*
X35427Y674718D01*
X35631Y674135D01*
X35768Y673532D01*
X35837Y672919D01*
X35837Y672301D01*
X35768Y671687D01*
X35631Y671085D01*
X35427Y670502D01*
X35159Y669945D01*
X34830Y669422D01*
X34445Y668939D01*
X34008Y668502D01*
X33525Y668117D01*
X33002Y667788D01*
X32446Y667520D01*
X31862Y667316D01*
X31260Y667179D01*
X30646Y667110D01*
X30029Y667110D01*
X30029Y622810D02*
X29415Y622879D01*
X28812Y623016D01*
X28229Y623220D01*
X27673Y623488D01*
X27150Y623817D01*
X26667Y624202D01*
X26230Y624639D01*
X25845Y625122D01*
X25516Y625645D01*
X25248Y626202D01*
X25044Y626785D01*
X24907Y627387D01*
X24837Y628001D01*
X24837Y628619D01*
X24907Y629232D01*
X25044Y629835D01*
X25248Y630418D01*
X25516Y630974D01*
X25845Y631497D01*
X26230Y631980D01*
X26667Y632417D01*
X27150Y632802D01*
X27673Y633131D01*
X28229Y633399D01*
X28812Y633603D01*
X29415Y633740D01*
X30029Y633810D01*
X30646Y633810D01*
X31260Y633740D01*
X31862Y633603D01*
X32446Y633399D01*
X33002Y633131D01*
X33525Y632802D01*
X34008Y632417D01*
X34445Y631980D01*
X34830Y631497D01*
X35159Y630974D01*
X35427Y630418D01*
X35631Y629835D01*
X35768Y629232D01*
X35837Y628619D01*
X35837Y628001D01*
X35768Y627387D01*
X35631Y626785D01*
X35427Y626202D01*
X35159Y625645D01*
X34830Y625122D01*
X34445Y624639D01*
X34008Y624202D01*
X33525Y623817D01*
X33002Y623488D01*
X32446Y623220D01*
X31862Y623016D01*
X31260Y622879D01*
X30646Y622810D01*
X30029Y622810D01*
X30029Y552810D02*
X29415Y552879D01*
X28812Y553016D01*
X28229Y553220D01*
X27673Y553488D01*
X27150Y553817D01*
X26667Y554202D01*
X26230Y554639D01*
X25845Y555122D01*
X25516Y555645D01*
X25248Y556202D01*
X25044Y556785D01*
X24907Y557387D01*
X24837Y558001D01*
X24837Y558619D01*
X24907Y559232D01*
X25044Y559835D01*
X25248Y560418D01*
X25516Y560974D01*
X25845Y561497D01*
X26230Y561980D01*
X26667Y562417D01*
X27150Y562802D01*
X27673Y563131D01*
X28229Y563399D01*
X28812Y563603D01*
X29415Y563740D01*
X30029Y563810D01*
X30646Y563810D01*
X31260Y563740D01*
X31862Y563603D01*
X32446Y563399D01*
X33002Y563131D01*
X33525Y562802D01*
X34008Y562417D01*
X34445Y561980D01*
X34830Y561497D01*
X35159Y560974D01*
X35427Y560418D01*
X35631Y559835D01*
X35768Y559232D01*
X35837Y558619D01*
X35837Y558001D01*
X35768Y557387D01*
X35631Y556785D01*
X35427Y556202D01*
X35159Y555645D01*
X34830Y555122D01*
X34445Y554639D01*
X34008Y554202D01*
X33525Y553817D01*
X33002Y553488D01*
X32446Y553220D01*
X31862Y553016D01*
X31260Y552879D01*
X30646Y552810D01*
X30029Y552810D01*
X752950Y212128D02*
X751971Y212199D01*
X750999Y212338D01*
X750039Y212547D01*
X749097Y212824D01*
X748176Y213167D01*
X747283Y213575D01*
X746421Y214046D01*
X745595Y214577D01*
X744808Y215165D01*
X744066Y215808D01*
X743372Y216503D01*
X742728Y217245D01*
X742140Y218032D01*
X741609Y218858D01*
X741138Y219720D01*
X740730Y220613D01*
X740387Y221533D01*
X740110Y222476D01*
X739901Y223436D01*
X739762Y224408D01*
X739692Y225387D01*
X739692Y226370D01*
X739762Y227349D01*
X739901Y228321D01*
X740110Y229281D01*
X740387Y230223D01*
X740730Y231144D01*
X741138Y232037D01*
X741609Y232899D01*
X742140Y233725D01*
X742728Y234512D01*
X743372Y235254D01*
X744066Y235948D01*
X744808Y236592D01*
X745595Y237180D01*
X746421Y237711D01*
X747283Y238182D01*
X748176Y238590D01*
X749097Y238933D01*
X750039Y239210D01*
X750999Y239419D01*
X751971Y239558D01*
X752950Y239628D01*
X753933Y239628D01*
X754912Y239558D01*
X755884Y239419D01*
X756844Y239210D01*
X757787Y238933D01*
X758707Y238590D01*
X759600Y238182D01*
X760462Y237711D01*
X761288Y237180D01*
X762075Y236592D01*
X762817Y235948D01*
X763511Y235254D01*
X764155Y234512D01*
X764743Y233725D01*
X765274Y232899D01*
X765745Y232037D01*
X766153Y231144D01*
X766496Y230223D01*
X766773Y229281D01*
X766982Y228321D01*
X767121Y227349D01*
X767192Y226370D01*
X767192Y225387D01*
X767121Y224408D01*
X766982Y223436D01*
X766773Y222476D01*
X766496Y221533D01*
X766153Y220613D01*
X765745Y219720D01*
X765274Y218858D01*
X764743Y218032D01*
X764155Y217245D01*
X763511Y216503D01*
X762817Y215808D01*
X762075Y215165D01*
X761288Y214577D01*
X760462Y214046D01*
X759600Y213575D01*
X758707Y213167D01*
X757787Y212824D01*
X756844Y212547D01*
X755884Y212338D01*
X754912Y212199D01*
X753933Y212128D01*
X752950Y212128D01*
X30029Y509070D02*
X29415Y509139D01*
X28812Y509276D01*
X28229Y509480D01*
X27673Y509748D01*
X27150Y510077D01*
X26667Y510462D01*
X26230Y510899D01*
X25845Y511382D01*
X25516Y511905D01*
X25248Y512462D01*
X25044Y513045D01*
X24907Y513647D01*
X24837Y514261D01*
X24837Y514879D01*
X24907Y515492D01*
X25044Y516095D01*
X25248Y516678D01*
X25516Y517234D01*
X25845Y517757D01*
X26230Y518240D01*
X26667Y518677D01*
X27150Y519062D01*
X27673Y519391D01*
X28229Y519659D01*
X28812Y519863D01*
X29415Y520000D01*
X30029Y520070D01*
X30646Y520070D01*
X31260Y520000D01*
X31862Y519863D01*
X32446Y519659D01*
X33002Y519391D01*
X33525Y519062D01*
X34008Y518677D01*
X34445Y518240D01*
X34830Y517757D01*
X35159Y517234D01*
X35427Y516678D01*
X35631Y516095D01*
X35768Y515492D01*
X35837Y514879D01*
X35837Y514261D01*
X35768Y513647D01*
X35631Y513045D01*
X35427Y512462D01*
X35159Y511905D01*
X34830Y511382D01*
X34445Y510899D01*
X34008Y510462D01*
X33525Y510077D01*
X33002Y509748D01*
X32446Y509480D01*
X31862Y509276D01*
X31260Y509139D01*
X30646Y509070D01*
X30029Y509070D01*
X30029Y439070D02*
X29415Y439139D01*
X28812Y439276D01*
X28229Y439480D01*
X27673Y439748D01*
X27150Y440077D01*
X26667Y440462D01*
X26230Y440899D01*
X25845Y441382D01*
X25516Y441905D01*
X25248Y442462D01*
X25044Y443045D01*
X24907Y443647D01*
X24837Y444261D01*
X24837Y444879D01*
X24907Y445492D01*
X25044Y446095D01*
X25248Y446678D01*
X25516Y447234D01*
X25845Y447757D01*
X26230Y448240D01*
X26667Y448677D01*
X27150Y449062D01*
X27673Y449391D01*
X28229Y449659D01*
X28812Y449863D01*
X29415Y450000D01*
X30029Y450070D01*
X30646Y450070D01*
X31260Y450000D01*
X31862Y449863D01*
X32446Y449659D01*
X33002Y449391D01*
X33525Y449062D01*
X34008Y448677D01*
X34445Y448240D01*
X34830Y447757D01*
X35159Y447234D01*
X35427Y446678D01*
X35631Y446095D01*
X35768Y445492D01*
X35837Y444879D01*
X35837Y444261D01*
X35768Y443647D01*
X35631Y443045D01*
X35427Y442462D01*
X35159Y441905D01*
X34830Y441382D01*
X34445Y440899D01*
X34008Y440462D01*
X33525Y440077D01*
X33002Y439748D01*
X32446Y439480D01*
X31862Y439276D01*
X31260Y439139D01*
X30646Y439070D01*
X30029Y439070D01*
X30029Y394770D02*
X29415Y394839D01*
X28812Y394976D01*
X28229Y395180D01*
X27673Y395448D01*
X27150Y395777D01*
X26667Y396162D01*
X26230Y396599D01*
X25845Y397082D01*
X25516Y397605D01*
X25248Y398162D01*
X25044Y398745D01*
X24907Y399347D01*
X24837Y399961D01*
X24837Y400579D01*
X24907Y401192D01*
X25044Y401795D01*
X25248Y402378D01*
X25516Y402934D01*
X25845Y403457D01*
X26230Y403940D01*
X26667Y404377D01*
X27150Y404762D01*
X27673Y405091D01*
X28229Y405359D01*
X28812Y405563D01*
X29415Y405700D01*
X30029Y405770D01*
X30646Y405770D01*
X31260Y405700D01*
X31862Y405563D01*
X32446Y405359D01*
X33002Y405091D01*
X33525Y404762D01*
X34008Y404377D01*
X34445Y403940D01*
X34830Y403457D01*
X35159Y402934D01*
X35427Y402378D01*
X35631Y401795D01*
X35768Y401192D01*
X35837Y400579D01*
X35837Y399961D01*
X35768Y399347D01*
X35631Y398745D01*
X35427Y398162D01*
X35159Y397605D01*
X34830Y397082D01*
X34445Y396599D01*
X34008Y396162D01*
X33525Y395777D01*
X33002Y395448D01*
X32446Y395180D01*
X31862Y394976D01*
X31260Y394839D01*
X30646Y394770D01*
X30029Y394770D01*
X30029Y324770D02*
X29415Y324839D01*
X28812Y324976D01*
X28229Y325180D01*
X27673Y325448D01*
X27150Y325777D01*
X26667Y326162D01*
X26230Y326599D01*
X25845Y327082D01*
X25516Y327605D01*
X25248Y328162D01*
X25044Y328745D01*
X24907Y329347D01*
X24837Y329961D01*
X24837Y330579D01*
X24907Y331192D01*
X25044Y331795D01*
X25248Y332378D01*
X25516Y332934D01*
X25845Y333457D01*
X26230Y333940D01*
X26667Y334377D01*
X27150Y334762D01*
X27673Y335091D01*
X28229Y335359D01*
X28812Y335563D01*
X29415Y335700D01*
X30029Y335770D01*
X30646Y335770D01*
X31260Y335700D01*
X31862Y335563D01*
X32446Y335359D01*
X33002Y335091D01*
X33525Y334762D01*
X34008Y334377D01*
X34445Y333940D01*
X34830Y333457D01*
X35159Y332934D01*
X35427Y332378D01*
X35631Y331795D01*
X35768Y331192D01*
X35837Y330579D01*
X35837Y329961D01*
X35768Y329347D01*
X35631Y328745D01*
X35427Y328162D01*
X35159Y327605D01*
X34830Y327082D01*
X34445Y326599D01*
X34008Y326162D01*
X33525Y325777D01*
X33002Y325448D01*
X32446Y325180D01*
X31862Y324976D01*
X31260Y324839D01*
X30646Y324770D01*
X30029Y324770D01*
X30029Y280470D02*
X29415Y280539D01*
X28812Y280676D01*
X28229Y280880D01*
X27673Y281148D01*
X27150Y281477D01*
X26667Y281862D01*
X26230Y282299D01*
X25845Y282782D01*
X25516Y283305D01*
X25248Y283862D01*
X25044Y284445D01*
X24907Y285047D01*
X24837Y285661D01*
X24837Y286279D01*
X24907Y286892D01*
X25044Y287495D01*
X25248Y288078D01*
X25516Y288634D01*
X25845Y289157D01*
X26230Y289640D01*
X26667Y290077D01*
X27150Y290462D01*
X27673Y290791D01*
X28229Y291059D01*
X28812Y291263D01*
X29415Y291400D01*
X30029Y291470D01*
X30646Y291470D01*
X31260Y291400D01*
X31862Y291263D01*
X32446Y291059D01*
X33002Y290791D01*
X33525Y290462D01*
X34008Y290077D01*
X34445Y289640D01*
X34830Y289157D01*
X35159Y288634D01*
X35427Y288078D01*
X35631Y287495D01*
X35768Y286892D01*
X35837Y286279D01*
X35837Y285661D01*
X35768Y285047D01*
X35631Y284445D01*
X35427Y283862D01*
X35159Y283305D01*
X34830Y282782D01*
X34445Y282299D01*
X34008Y281862D01*
X33525Y281477D01*
X33002Y281148D01*
X32446Y280880D01*
X31862Y280676D01*
X31260Y280539D01*
X30646Y280470D01*
X30029Y280470D01*
X30029Y210470D02*
X29415Y210539D01*
X28812Y210676D01*
X28229Y210880D01*
X27673Y211148D01*
X27150Y211477D01*
X26667Y211862D01*
X26230Y212299D01*
X25845Y212782D01*
X25516Y213305D01*
X25248Y213862D01*
X25044Y214445D01*
X24907Y215047D01*
X24837Y215661D01*
X24837Y216279D01*
X24907Y216892D01*
X25044Y217495D01*
X25248Y218078D01*
X25516Y218634D01*
X25845Y219157D01*
X26230Y219640D01*
X26667Y220077D01*
X27150Y220462D01*
X27673Y220791D01*
X28229Y221059D01*
X28812Y221263D01*
X29415Y221400D01*
X30029Y221470D01*
X30646Y221470D01*
X31260Y221400D01*
X31862Y221263D01*
X32446Y221059D01*
X33002Y220791D01*
X33525Y220462D01*
X34008Y220077D01*
X34445Y219640D01*
X34830Y219157D01*
X35159Y218634D01*
X35427Y218078D01*
X35631Y217495D01*
X35768Y216892D01*
X35837Y216279D01*
X35837Y215661D01*
X35768Y215047D01*
X35631Y214445D01*
X35427Y213862D01*
X35159Y213305D01*
X34830Y212782D01*
X34445Y212299D01*
X34008Y211862D01*
X33525Y211477D01*
X33002Y211148D01*
X32446Y210880D01*
X31862Y210676D01*
X31260Y210539D01*
X30646Y210470D01*
X30029Y210470D01*
X919900Y31351D02*
X919831Y30737D01*
X919693Y30135D01*
X919489Y29552D01*
X919221Y28995D01*
X918893Y28472D01*
X918508Y27989D01*
X918071Y27553D01*
X917588Y27167D01*
X917065Y26839D01*
X916508Y26571D01*
X915925Y26367D01*
X915323Y26229D01*
X914709Y26160D01*
X914091Y26160D01*
X913477Y26229D01*
X912875Y26367D01*
X912292Y26571D01*
X911735Y26839D01*
X911212Y27167D01*
X910729Y27553D01*
X910293Y27989D01*
X909907Y28472D01*
X909579Y28995D01*
X909311Y29552D01*
X909107Y30135D01*
X908969Y30737D01*
X908900Y31351D01*
X908900Y31969D01*
X908969Y32583D01*
X909107Y33185D01*
X909311Y33768D01*
X909579Y34325D01*
X909907Y34848D01*
X910293Y35331D01*
X910729Y35768D01*
X911212Y36153D01*
X911735Y36481D01*
X912292Y36749D01*
X912875Y36953D01*
X913477Y37091D01*
X914091Y37160D01*
X914709Y37160D01*
X915323Y37091D01*
X915925Y36953D01*
X916508Y36749D01*
X917065Y36481D01*
X917588Y36153D01*
X918071Y35768D01*
X918508Y35331D01*
X918893Y34848D01*
X919221Y34325D01*
X919489Y33768D01*
X919693Y33185D01*
X919831Y32583D01*
X919900Y31969D01*
X919900Y31351D01*
X989900Y31351D02*
X989831Y30737D01*
X989693Y30135D01*
X989489Y29552D01*
X989221Y28995D01*
X988893Y28472D01*
X988508Y27989D01*
X988071Y27553D01*
X987588Y27167D01*
X987065Y26839D01*
X986508Y26571D01*
X985925Y26367D01*
X985323Y26229D01*
X984709Y26160D01*
X984091Y26160D01*
X983477Y26229D01*
X982875Y26367D01*
X982292Y26571D01*
X981735Y26839D01*
X981212Y27167D01*
X980729Y27553D01*
X980293Y27989D01*
X979907Y28472D01*
X979579Y28995D01*
X979311Y29552D01*
X979107Y30135D01*
X978969Y30737D01*
X978900Y31351D01*
X978900Y31969D01*
X978969Y32583D01*
X979107Y33185D01*
X979311Y33768D01*
X979579Y34325D01*
X979907Y34848D01*
X980293Y35331D01*
X980729Y35768D01*
X981212Y36153D01*
X981735Y36481D01*
X982292Y36749D01*
X982875Y36953D01*
X983477Y37091D01*
X984091Y37160D01*
X984709Y37160D01*
X985323Y37091D01*
X985925Y36953D01*
X986508Y36749D01*
X987065Y36481D01*
X987588Y36153D01*
X988071Y35768D01*
X988508Y35331D01*
X988893Y34848D01*
X989221Y34325D01*
X989489Y33768D01*
X989693Y33185D01*
X989831Y32583D01*
X989900Y31969D01*
X989900Y31351D01*
X809410Y31351D02*
X809341Y30737D01*
X809203Y30135D01*
X808999Y29552D01*
X808731Y28995D01*
X808403Y28472D01*
X808018Y27989D01*
X807581Y27553D01*
X807098Y27167D01*
X806575Y26839D01*
X806018Y26571D01*
X805435Y26367D01*
X804833Y26229D01*
X804219Y26160D01*
X803601Y26160D01*
X802987Y26229D01*
X802385Y26367D01*
X801802Y26571D01*
X801245Y26839D01*
X800722Y27167D01*
X800239Y27553D01*
X799803Y27989D01*
X799417Y28472D01*
X799089Y28995D01*
X798821Y29552D01*
X798617Y30135D01*
X798479Y30737D01*
X798410Y31351D01*
X798410Y31969D01*
X798479Y32583D01*
X798617Y33185D01*
X798821Y33768D01*
X799089Y34325D01*
X799417Y34848D01*
X799803Y35331D01*
X800239Y35768D01*
X800722Y36153D01*
X801245Y36481D01*
X801802Y36749D01*
X802385Y36953D01*
X802987Y37091D01*
X803601Y37160D01*
X804219Y37160D01*
X804833Y37091D01*
X805435Y36953D01*
X806018Y36749D01*
X806575Y36481D01*
X807098Y36153D01*
X807581Y35768D01*
X808018Y35331D01*
X808403Y34848D01*
X808731Y34325D01*
X808999Y33768D01*
X809203Y33185D01*
X809341Y32583D01*
X809410Y31969D01*
X809410Y31351D01*
X879410Y31351D02*
X879341Y30737D01*
X879203Y30135D01*
X878999Y29552D01*
X878731Y28995D01*
X878403Y28472D01*
X878018Y27989D01*
X877581Y27553D01*
X877098Y27167D01*
X876575Y26839D01*
X876018Y26571D01*
X875435Y26367D01*
X874833Y26229D01*
X874219Y26160D01*
X873601Y26160D01*
X872987Y26229D01*
X872385Y26367D01*
X871802Y26571D01*
X871245Y26839D01*
X870722Y27167D01*
X870239Y27553D01*
X869803Y27989D01*
X869417Y28472D01*
X869089Y28995D01*
X868821Y29552D01*
X868617Y30135D01*
X868479Y30737D01*
X868410Y31351D01*
X868410Y31969D01*
X868479Y32583D01*
X868617Y33185D01*
X868821Y33768D01*
X869089Y34325D01*
X869417Y34848D01*
X869803Y35331D01*
X870239Y35768D01*
X870722Y36153D01*
X871245Y36481D01*
X871802Y36749D01*
X872385Y36953D01*
X872987Y37091D01*
X873601Y37160D01*
X874219Y37160D01*
X874833Y37091D01*
X875435Y36953D01*
X876018Y36749D01*
X876575Y36481D01*
X877098Y36153D01*
X877581Y35768D01*
X878018Y35331D01*
X878403Y34848D01*
X878731Y34325D01*
X878999Y33768D01*
X879203Y33185D01*
X879341Y32583D01*
X879410Y31969D01*
X879410Y31351D01*
X1234743Y209678D02*
X1235209Y209604D01*
X1235658Y209458D01*
X1236079Y209244D01*
X1236461Y208966D01*
X1236795Y208632D01*
X1237073Y208250D01*
X1237287Y207829D01*
X1237433Y207380D01*
X1237507Y206914D01*
X1237507Y206442D01*
X1237433Y205975D01*
X1237287Y205526D01*
X1237073Y205106D01*
X1236795Y204724D01*
X1236461Y204390D01*
X1236079Y204112D01*
X1235658Y203898D01*
X1235209Y203752D01*
X1234743Y203678D01*
X1234271Y203678D01*
X1233804Y203752D01*
X1233355Y203898D01*
X1232935Y204112D01*
X1232552Y204390D01*
X1232219Y204724D01*
X1231941Y205106D01*
X1231727Y205526D01*
X1231581Y205975D01*
X1231507Y206442D01*
X1231507Y206914D01*
X1231581Y207380D01*
X1231727Y207829D01*
X1231941Y208250D01*
X1232219Y208632D01*
X1232552Y208966D01*
X1232935Y209244D01*
X1233355Y209458D01*
X1233804Y209604D01*
X1234271Y209678D01*
X1234743Y209678D01*
X1234743Y267478D02*
X1235209Y267404D01*
X1235658Y267258D01*
X1236079Y267044D01*
X1236461Y266766D01*
X1236795Y266432D01*
X1237073Y266050D01*
X1237287Y265629D01*
X1237433Y265180D01*
X1237507Y264714D01*
X1237507Y264242D01*
X1237433Y263775D01*
X1237287Y263326D01*
X1237073Y262906D01*
X1236795Y262524D01*
X1236461Y262190D01*
X1236079Y261912D01*
X1235658Y261698D01*
X1235209Y261552D01*
X1234743Y261478D01*
X1234271Y261478D01*
X1233804Y261552D01*
X1233355Y261698D01*
X1232935Y261912D01*
X1232552Y262190D01*
X1232219Y262524D01*
X1231941Y262906D01*
X1231727Y263326D01*
X1231581Y263775D01*
X1231507Y264242D01*
X1231507Y264714D01*
X1231581Y265180D01*
X1231727Y265629D01*
X1231941Y266050D01*
X1232219Y266432D01*
X1232552Y266766D01*
X1232935Y267044D01*
X1233355Y267258D01*
X1233804Y267404D01*
X1234271Y267478D01*
X1234743Y267478D01*
M02*
