G04 EAGLE Gerber RS-274X export*
G75*
%MOMM*%
%FSLAX34Y34*%
%LPD*%
%INSilkscreen Bottom*%
%IPPOS*%
%AMOC8*
5,1,8,0,0,1.08239X$1,22.5*%
G01*
%ADD10C,0.203200*%
%ADD11C,0.279400*%
%ADD12C,0.152400*%
%ADD13C,0.127000*%
%ADD14C,0.300000*%
%ADD15C,0.076200*%
%ADD16C,0.025400*%


D10*
X1066731Y140693D02*
X1066731Y137982D01*
X1065375Y136626D01*
X1059952Y136626D01*
X1058596Y137982D01*
X1058596Y140693D01*
X1059952Y142049D01*
X1065375Y142049D01*
X1066731Y140693D01*
X1064019Y145981D02*
X1055884Y145981D01*
X1064019Y145981D02*
X1064019Y150049D01*
X1062663Y151404D01*
X1059952Y151404D01*
X1058596Y150049D01*
X1058596Y145981D01*
X1058596Y156692D02*
X1058596Y159404D01*
X1058596Y156692D02*
X1059952Y155336D01*
X1062663Y155336D01*
X1064019Y156692D01*
X1064019Y159404D01*
X1062663Y160760D01*
X1061308Y160760D01*
X1061308Y155336D01*
X1064019Y164692D02*
X1058596Y164692D01*
X1064019Y164692D02*
X1064019Y168759D01*
X1062663Y170115D01*
X1058596Y170115D01*
X1066731Y174047D02*
X1066731Y179470D01*
X1066731Y174047D02*
X1058596Y174047D01*
X1058596Y179470D01*
X1062663Y176758D02*
X1062663Y174047D01*
X1064019Y183402D02*
X1058596Y183402D01*
X1064019Y183402D02*
X1064019Y187469D01*
X1062663Y188825D01*
X1058596Y188825D01*
X1058596Y194113D02*
X1058596Y196825D01*
X1058596Y194113D02*
X1059952Y192757D01*
X1062663Y192757D01*
X1064019Y194113D01*
X1064019Y196825D01*
X1062663Y198180D01*
X1061308Y198180D01*
X1061308Y192757D01*
X1064019Y202112D02*
X1058596Y202112D01*
X1061308Y202112D02*
X1064019Y204824D01*
X1064019Y206180D01*
X1055884Y212620D02*
X1055884Y213976D01*
X1057240Y215332D01*
X1064019Y215332D01*
X1064019Y211264D01*
X1062663Y209908D01*
X1059952Y209908D01*
X1058596Y211264D01*
X1058596Y215332D01*
X1059952Y219263D02*
X1064019Y219263D01*
X1059952Y219263D02*
X1058596Y220619D01*
X1058596Y224687D01*
X1057240Y224687D02*
X1064019Y224687D01*
X1057240Y224687D02*
X1055884Y223331D01*
X1055884Y221975D01*
X1058596Y228619D02*
X1066731Y228619D01*
X1064019Y231330D01*
X1066731Y234042D01*
X1058596Y234042D01*
X1058596Y239330D02*
X1058596Y242041D01*
X1059952Y243397D01*
X1062663Y243397D01*
X1064019Y242041D01*
X1064019Y239330D01*
X1062663Y237974D01*
X1059952Y237974D01*
X1058596Y239330D01*
X1058596Y247329D02*
X1064019Y247329D01*
X1064019Y251397D01*
X1062663Y252752D01*
X1058596Y252752D01*
X1064019Y256684D02*
X1064019Y258040D01*
X1058596Y258040D01*
X1058596Y256684D02*
X1058596Y259396D01*
X1066731Y258040D02*
X1068087Y258040D01*
X1065375Y264277D02*
X1059952Y264277D01*
X1058596Y265633D01*
X1064019Y265633D02*
X1064019Y262921D01*
X1058596Y270514D02*
X1058596Y273225D01*
X1059952Y274581D01*
X1062663Y274581D01*
X1064019Y273225D01*
X1064019Y270514D01*
X1062663Y269158D01*
X1059952Y269158D01*
X1058596Y270514D01*
X1058596Y278513D02*
X1064019Y278513D01*
X1061308Y278513D02*
X1064019Y281225D01*
X1064019Y282580D01*
X1071096Y136626D02*
X1079231Y136626D01*
X1071096Y136626D02*
X1071096Y140693D01*
X1072452Y142049D01*
X1077875Y142049D01*
X1079231Y140693D01*
X1079231Y136626D01*
X1071096Y147337D02*
X1071096Y150049D01*
X1071096Y147337D02*
X1072452Y145981D01*
X1075163Y145981D01*
X1076519Y147337D01*
X1076519Y150049D01*
X1075163Y151404D01*
X1073808Y151404D01*
X1073808Y145981D01*
X1076519Y155336D02*
X1071096Y158048D01*
X1076519Y160760D01*
X1071096Y166047D02*
X1071096Y168759D01*
X1071096Y166047D02*
X1072452Y164692D01*
X1075163Y164692D01*
X1076519Y166047D01*
X1076519Y168759D01*
X1075163Y170115D01*
X1073808Y170115D01*
X1073808Y164692D01*
X1079231Y174047D02*
X1079231Y175403D01*
X1071096Y175403D01*
X1071096Y176758D02*
X1071096Y174047D01*
X1071096Y181639D02*
X1071096Y184351D01*
X1072452Y185707D01*
X1075163Y185707D01*
X1076519Y184351D01*
X1076519Y181639D01*
X1075163Y180284D01*
X1072452Y180284D01*
X1071096Y181639D01*
X1068384Y189639D02*
X1076519Y189639D01*
X1076519Y193706D01*
X1075163Y195062D01*
X1072452Y195062D01*
X1071096Y193706D01*
X1071096Y189639D01*
X1071096Y198994D02*
X1076519Y198994D01*
X1076519Y200350D01*
X1075163Y201706D01*
X1071096Y201706D01*
X1075163Y201706D02*
X1076519Y203061D01*
X1075163Y204417D01*
X1071096Y204417D01*
X1071096Y209705D02*
X1071096Y212417D01*
X1071096Y209705D02*
X1072452Y208349D01*
X1075163Y208349D01*
X1076519Y209705D01*
X1076519Y212417D01*
X1075163Y213772D01*
X1073808Y213772D01*
X1073808Y208349D01*
X1076519Y217704D02*
X1071096Y217704D01*
X1076519Y217704D02*
X1076519Y221772D01*
X1075163Y223128D01*
X1071096Y223128D01*
X1072452Y228415D02*
X1077875Y228415D01*
X1072452Y228415D02*
X1071096Y229771D01*
X1076519Y229771D02*
X1076519Y227059D01*
X1079231Y242651D02*
X1071096Y242651D01*
X1079231Y242651D02*
X1079231Y246719D01*
X1077875Y248075D01*
X1076519Y248075D01*
X1075163Y246719D01*
X1073808Y248075D01*
X1072452Y248075D01*
X1071096Y246719D01*
X1071096Y242651D01*
X1075163Y242651D02*
X1075163Y246719D01*
X1071096Y253362D02*
X1071096Y256074D01*
X1072452Y257430D01*
X1075163Y257430D01*
X1076519Y256074D01*
X1076519Y253362D01*
X1075163Y252007D01*
X1072452Y252007D01*
X1071096Y253362D01*
X1076519Y262718D02*
X1076519Y265429D01*
X1075163Y266785D01*
X1071096Y266785D01*
X1071096Y262718D01*
X1072452Y261362D01*
X1073808Y262718D01*
X1073808Y266785D01*
X1076519Y270717D02*
X1071096Y270717D01*
X1073808Y270717D02*
X1076519Y273429D01*
X1076519Y274784D01*
X1079231Y283936D02*
X1071096Y283936D01*
X1071096Y279869D01*
X1072452Y278513D01*
X1075163Y278513D01*
X1076519Y279869D01*
X1076519Y283936D01*
D11*
X1083977Y142727D02*
X1083977Y138914D01*
X1085884Y137007D01*
X1089697Y137007D01*
X1091604Y138914D01*
X1091604Y142727D01*
X1089697Y144634D01*
X1087790Y144634D01*
X1087790Y137007D01*
X1083977Y150104D02*
X1091604Y150104D01*
X1091604Y152011D01*
X1089697Y153918D01*
X1083977Y153918D01*
X1089697Y153918D02*
X1091604Y155824D01*
X1089697Y157731D01*
X1083977Y157731D01*
X1083977Y165108D02*
X1083977Y168921D01*
X1085884Y170828D01*
X1089697Y170828D01*
X1091604Y168921D01*
X1091604Y165108D01*
X1089697Y163202D01*
X1085884Y163202D01*
X1083977Y165108D01*
X1083977Y176299D02*
X1091604Y176299D01*
X1091604Y182019D01*
X1089697Y183925D01*
X1083977Y183925D01*
X1095417Y195116D02*
X1093510Y197023D01*
X1095417Y195116D02*
X1095417Y191303D01*
X1093510Y189396D01*
X1091604Y189396D01*
X1089697Y191303D01*
X1089697Y195116D01*
X1087790Y197023D01*
X1085884Y197023D01*
X1083977Y195116D01*
X1083977Y191303D01*
X1085884Y189396D01*
X1083977Y206307D02*
X1095417Y206307D01*
X1095417Y210120D02*
X1095417Y202493D01*
X1095417Y215591D02*
X1083977Y215591D01*
X1091604Y219404D02*
X1095417Y215591D01*
X1091604Y219404D02*
X1095417Y223217D01*
X1083977Y223217D01*
X1093510Y228688D02*
X1095417Y230594D01*
X1095417Y234408D01*
X1093510Y236314D01*
X1091604Y236314D01*
X1089697Y234408D01*
X1089697Y232501D01*
X1089697Y234408D02*
X1087790Y236314D01*
X1085884Y236314D01*
X1083977Y234408D01*
X1083977Y230594D01*
X1085884Y228688D01*
X1083977Y241785D02*
X1083977Y249412D01*
X1083977Y241785D02*
X1091604Y249412D01*
X1093510Y249412D01*
X1095417Y247505D01*
X1095417Y243692D01*
X1093510Y241785D01*
D10*
X1042192Y140158D02*
X1047615Y137446D01*
X1047615Y142869D02*
X1042192Y140158D01*
X1043548Y146801D02*
X1048971Y146801D01*
X1050327Y148157D01*
X1050327Y150869D01*
X1048971Y152224D01*
X1043548Y152224D01*
X1042192Y150869D01*
X1042192Y148157D01*
X1043548Y146801D01*
X1048971Y152224D01*
X1043548Y156156D02*
X1042192Y156156D01*
X1043548Y156156D02*
X1043548Y157512D01*
X1042192Y157512D01*
X1042192Y156156D01*
X1048971Y163546D02*
X1050327Y166257D01*
X1048971Y163546D02*
X1046260Y160834D01*
X1043548Y160834D01*
X1042192Y162190D01*
X1042192Y164901D01*
X1043548Y166257D01*
X1044904Y166257D01*
X1046260Y164901D01*
X1046260Y160834D01*
X948014Y148852D02*
X948014Y146140D01*
X946658Y144784D01*
X941235Y144784D01*
X939879Y146140D01*
X939879Y148852D01*
X941235Y150208D01*
X946658Y150208D01*
X948014Y148852D01*
X945302Y154140D02*
X937167Y154140D01*
X945302Y154140D02*
X945302Y158207D01*
X943946Y159563D01*
X941235Y159563D01*
X939879Y158207D01*
X939879Y154140D01*
X939879Y164851D02*
X939879Y167562D01*
X939879Y164851D02*
X941235Y163495D01*
X943946Y163495D01*
X945302Y164851D01*
X945302Y167562D01*
X943946Y168918D01*
X942591Y168918D01*
X942591Y163495D01*
X945302Y172850D02*
X939879Y172850D01*
X945302Y172850D02*
X945302Y176917D01*
X943946Y178273D01*
X939879Y178273D01*
X939879Y191560D02*
X948014Y191560D01*
X943946Y191560D02*
X943946Y196984D01*
X939879Y196984D02*
X948014Y196984D01*
X945302Y202271D02*
X945302Y204983D01*
X943946Y206339D01*
X939879Y206339D01*
X939879Y202271D01*
X941235Y200916D01*
X942591Y202271D01*
X942591Y206339D01*
X945302Y210271D02*
X939879Y210271D01*
X942591Y210271D02*
X945302Y212982D01*
X945302Y214338D01*
X948014Y223490D02*
X939879Y223490D01*
X939879Y219422D01*
X941235Y218067D01*
X943946Y218067D01*
X945302Y219422D01*
X945302Y223490D01*
X945302Y227422D02*
X941235Y227422D01*
X939879Y228778D01*
X941235Y230133D01*
X939879Y231489D01*
X941235Y232845D01*
X945302Y232845D01*
X945302Y238133D02*
X945302Y240845D01*
X943946Y242200D01*
X939879Y242200D01*
X939879Y238133D01*
X941235Y236777D01*
X942591Y238133D01*
X942591Y242200D01*
X945302Y246132D02*
X939879Y246132D01*
X942591Y246132D02*
X945302Y248844D01*
X945302Y250200D01*
X939879Y255284D02*
X939879Y257996D01*
X939879Y255284D02*
X941235Y253928D01*
X943946Y253928D01*
X945302Y255284D01*
X945302Y257996D01*
X943946Y259351D01*
X942591Y259351D01*
X942591Y253928D01*
D12*
X971988Y202951D02*
X960558Y197871D01*
X962082Y195331D01*
X957764Y189235D01*
X962590Y184663D01*
X968686Y188727D01*
X975544Y186187D02*
X976814Y178567D01*
X983418Y178567D01*
X984942Y186187D01*
X991292Y188981D02*
X997896Y184409D01*
X1002468Y189235D01*
X997896Y195839D01*
X1000436Y202189D02*
X1008564Y203459D01*
X1008564Y210317D01*
X1000436Y211587D01*
X997896Y217937D02*
X1002468Y224541D01*
X997896Y229367D01*
X991292Y224795D01*
X984942Y227589D02*
X983418Y235209D01*
X976814Y235209D01*
X975544Y227589D01*
X968686Y225049D02*
X962590Y229367D01*
X957764Y224541D01*
X962082Y218445D01*
X960558Y215905D01*
X971988Y211079D01*
X972242Y211079D02*
X972344Y211283D01*
X972451Y211484D01*
X972563Y211682D01*
X972679Y211878D01*
X972801Y212071D01*
X972926Y212261D01*
X973057Y212447D01*
X973192Y212631D01*
X973332Y212811D01*
X973476Y212987D01*
X973624Y213160D01*
X973776Y213330D01*
X973933Y213495D01*
X974093Y213657D01*
X974257Y213815D01*
X974426Y213968D01*
X974598Y214118D01*
X974773Y214263D01*
X974952Y214404D01*
X975134Y214541D01*
X975320Y214673D01*
X975509Y214800D01*
X975701Y214923D01*
X975896Y215041D01*
X976093Y215154D01*
X976294Y215262D01*
X976497Y215366D01*
X976702Y215464D01*
X976910Y215558D01*
X977120Y215646D01*
X977332Y215729D01*
X977546Y215807D01*
X977762Y215879D01*
X977980Y215947D01*
X978199Y216009D01*
X978419Y216065D01*
X978641Y216117D01*
X978865Y216162D01*
X979089Y216203D01*
X979314Y216237D01*
X979540Y216267D01*
X979766Y216290D01*
X979993Y216309D01*
X980221Y216321D01*
X980449Y216328D01*
X980676Y216330D01*
X980904Y216326D01*
X981132Y216316D01*
X981359Y216301D01*
X981586Y216280D01*
X981812Y216254D01*
X982038Y216222D01*
X982262Y216185D01*
X982486Y216142D01*
X982709Y216094D01*
X982930Y216040D01*
X983150Y215981D01*
X983369Y215916D01*
X983586Y215847D01*
X983801Y215772D01*
X984014Y215691D01*
X984225Y215606D01*
X984434Y215515D01*
X984641Y215419D01*
X984845Y215319D01*
X985047Y215213D01*
X985246Y215102D01*
X985442Y214987D01*
X985636Y214867D01*
X985826Y214742D01*
X986014Y214612D01*
X986198Y214478D01*
X986379Y214340D01*
X986556Y214197D01*
X986730Y214050D01*
X986900Y213898D01*
X987067Y213743D01*
X987229Y213583D01*
X987388Y213420D01*
X987542Y213252D01*
X987693Y213081D01*
X987839Y212907D01*
X987981Y212728D01*
X988119Y212547D01*
X988252Y212362D01*
X988380Y212174D01*
X988504Y211983D01*
X988623Y211788D01*
X988737Y211591D01*
X988847Y211392D01*
X988951Y211189D01*
X989051Y210984D01*
X989145Y210777D01*
X989235Y210568D01*
X989319Y210356D01*
X989398Y210142D01*
X989472Y209927D01*
X989541Y209710D01*
X989604Y209491D01*
X989662Y209270D01*
X989714Y209049D01*
X989761Y208826D01*
X989803Y208602D01*
X989839Y208377D01*
X989869Y208151D01*
X989894Y207925D01*
X989914Y207698D01*
X989928Y207470D01*
X989936Y207243D01*
X989939Y207015D01*
X989936Y206787D01*
X989928Y206560D01*
X989914Y206332D01*
X989894Y206105D01*
X989869Y205879D01*
X989839Y205653D01*
X989803Y205428D01*
X989761Y205204D01*
X989714Y204981D01*
X989662Y204760D01*
X989604Y204539D01*
X989541Y204320D01*
X989472Y204103D01*
X989398Y203888D01*
X989319Y203674D01*
X989235Y203462D01*
X989145Y203253D01*
X989051Y203046D01*
X988951Y202841D01*
X988847Y202638D01*
X988737Y202439D01*
X988623Y202242D01*
X988504Y202047D01*
X988380Y201856D01*
X988252Y201668D01*
X988119Y201483D01*
X987981Y201302D01*
X987839Y201123D01*
X987693Y200949D01*
X987542Y200778D01*
X987388Y200610D01*
X987229Y200447D01*
X987067Y200287D01*
X986900Y200132D01*
X986730Y199980D01*
X986556Y199833D01*
X986379Y199690D01*
X986198Y199552D01*
X986014Y199418D01*
X985826Y199288D01*
X985636Y199163D01*
X985442Y199043D01*
X985246Y198928D01*
X985047Y198817D01*
X984845Y198711D01*
X984641Y198611D01*
X984434Y198515D01*
X984225Y198424D01*
X984014Y198339D01*
X983801Y198258D01*
X983586Y198183D01*
X983369Y198114D01*
X983150Y198049D01*
X982930Y197990D01*
X982709Y197936D01*
X982486Y197888D01*
X982262Y197845D01*
X982038Y197808D01*
X981812Y197776D01*
X981586Y197750D01*
X981359Y197729D01*
X981132Y197714D01*
X980904Y197704D01*
X980676Y197700D01*
X980449Y197702D01*
X980221Y197709D01*
X979993Y197721D01*
X979766Y197740D01*
X979540Y197763D01*
X979314Y197793D01*
X979089Y197827D01*
X978865Y197868D01*
X978641Y197913D01*
X978419Y197965D01*
X978199Y198021D01*
X977980Y198083D01*
X977762Y198151D01*
X977546Y198223D01*
X977332Y198301D01*
X977120Y198384D01*
X976910Y198472D01*
X976702Y198566D01*
X976497Y198664D01*
X976294Y198768D01*
X976093Y198876D01*
X975896Y198989D01*
X975701Y199107D01*
X975509Y199230D01*
X975320Y199357D01*
X975134Y199489D01*
X974952Y199626D01*
X974773Y199767D01*
X974598Y199912D01*
X974426Y200062D01*
X974257Y200215D01*
X974093Y200373D01*
X973933Y200535D01*
X973776Y200700D01*
X973624Y200870D01*
X973476Y201043D01*
X973332Y201219D01*
X973192Y201399D01*
X973057Y201583D01*
X972926Y201769D01*
X972801Y201959D01*
X972679Y202152D01*
X972563Y202348D01*
X972451Y202546D01*
X972344Y202747D01*
X972242Y202951D01*
X968768Y188812D02*
X969216Y188550D01*
X969670Y188300D01*
X970130Y188060D01*
X970596Y187832D01*
X971067Y187616D01*
X971543Y187411D01*
X972024Y187218D01*
X972510Y187037D01*
X973000Y186867D01*
X973494Y186710D01*
X973992Y186565D01*
X974493Y186432D01*
X974997Y186312D01*
X975505Y186204D01*
X984944Y186346D02*
X985413Y186468D01*
X985879Y186601D01*
X986342Y186745D01*
X986801Y186899D01*
X987257Y187064D01*
X987709Y187239D01*
X988157Y187425D01*
X988600Y187620D01*
X989039Y187826D01*
X989473Y188042D01*
X989902Y188267D01*
X990326Y188503D01*
X990744Y188748D01*
X991157Y189002D01*
X997987Y195927D02*
X998243Y196364D01*
X998488Y196807D01*
X998723Y197256D01*
X998946Y197710D01*
X999159Y198169D01*
X999360Y198633D01*
X999551Y199102D01*
X999730Y199576D01*
X999898Y200053D01*
X1000054Y200535D01*
X1000199Y201020D01*
X1000332Y201508D01*
X1000453Y202000D01*
X1000500Y211722D02*
X1000385Y212197D01*
X1000260Y212669D01*
X1000124Y213138D01*
X999977Y213604D01*
X999820Y214066D01*
X999652Y214525D01*
X999474Y214980D01*
X999285Y215430D01*
X999085Y215876D01*
X998876Y216317D01*
X998657Y216754D01*
X998427Y217185D01*
X998188Y217611D01*
X997939Y218031D01*
X991251Y224766D02*
X990836Y225035D01*
X990413Y225294D01*
X989985Y225542D01*
X989551Y225780D01*
X989111Y226008D01*
X988666Y226225D01*
X988215Y226431D01*
X987760Y226627D01*
X987301Y226811D01*
X986837Y226984D01*
X986369Y227146D01*
X985897Y227297D01*
X985422Y227436D01*
X984943Y227564D01*
X975456Y227612D02*
X974979Y227518D01*
X974505Y227413D01*
X974033Y227296D01*
X973565Y227168D01*
X973099Y227029D01*
X972637Y226879D01*
X972178Y226718D01*
X971724Y226547D01*
X971273Y226364D01*
X970827Y226171D01*
X970386Y225968D01*
X969950Y225754D01*
X969519Y225530D01*
X969093Y225296D01*
X968673Y225051D01*
D13*
X238424Y258488D02*
X238424Y773488D01*
X278424Y773488D01*
X288424Y763488D01*
X288424Y258488D01*
X238424Y258488D01*
D14*
X329380Y275280D02*
X329382Y275343D01*
X329388Y275405D01*
X329398Y275467D01*
X329411Y275529D01*
X329429Y275589D01*
X329450Y275648D01*
X329475Y275706D01*
X329504Y275762D01*
X329536Y275816D01*
X329571Y275868D01*
X329609Y275917D01*
X329651Y275965D01*
X329695Y276009D01*
X329743Y276051D01*
X329792Y276089D01*
X329844Y276124D01*
X329898Y276156D01*
X329954Y276185D01*
X330012Y276210D01*
X330071Y276231D01*
X330131Y276249D01*
X330193Y276262D01*
X330255Y276272D01*
X330317Y276278D01*
X330380Y276280D01*
X330443Y276278D01*
X330505Y276272D01*
X330567Y276262D01*
X330629Y276249D01*
X330689Y276231D01*
X330748Y276210D01*
X330806Y276185D01*
X330862Y276156D01*
X330916Y276124D01*
X330968Y276089D01*
X331017Y276051D01*
X331065Y276009D01*
X331109Y275965D01*
X331151Y275917D01*
X331189Y275868D01*
X331224Y275816D01*
X331256Y275762D01*
X331285Y275706D01*
X331310Y275648D01*
X331331Y275589D01*
X331349Y275529D01*
X331362Y275467D01*
X331372Y275405D01*
X331378Y275343D01*
X331380Y275280D01*
X331378Y275217D01*
X331372Y275155D01*
X331362Y275093D01*
X331349Y275031D01*
X331331Y274971D01*
X331310Y274912D01*
X331285Y274854D01*
X331256Y274798D01*
X331224Y274744D01*
X331189Y274692D01*
X331151Y274643D01*
X331109Y274595D01*
X331065Y274551D01*
X331017Y274509D01*
X330968Y274471D01*
X330916Y274436D01*
X330862Y274404D01*
X330806Y274375D01*
X330748Y274350D01*
X330689Y274329D01*
X330629Y274311D01*
X330567Y274298D01*
X330505Y274288D01*
X330443Y274282D01*
X330380Y274280D01*
X330317Y274282D01*
X330255Y274288D01*
X330193Y274298D01*
X330131Y274311D01*
X330071Y274329D01*
X330012Y274350D01*
X329954Y274375D01*
X329898Y274404D01*
X329844Y274436D01*
X329792Y274471D01*
X329743Y274509D01*
X329695Y274551D01*
X329651Y274595D01*
X329609Y274643D01*
X329571Y274692D01*
X329536Y274744D01*
X329504Y274798D01*
X329475Y274854D01*
X329450Y274912D01*
X329429Y274971D01*
X329411Y275031D01*
X329398Y275093D01*
X329388Y275155D01*
X329382Y275217D01*
X329380Y275280D01*
D13*
X348150Y267660D02*
X348150Y200160D01*
X528150Y200160D01*
X528150Y267660D01*
X348150Y447660D02*
X348150Y455160D01*
X373150Y455160D01*
X503150Y455160D02*
X528150Y455160D01*
X528150Y447660D01*
X527750Y263160D02*
X348550Y263160D01*
D10*
X335128Y430051D02*
X319128Y430051D01*
X317128Y447051D02*
X317110Y447149D01*
X317096Y447249D01*
X317086Y447348D01*
X317080Y447448D01*
X317078Y447548D01*
X317080Y447648D01*
X317086Y447748D01*
X317095Y447848D01*
X317109Y447947D01*
X317126Y448046D01*
X317148Y448144D01*
X317173Y448241D01*
X317202Y448336D01*
X317235Y448431D01*
X317271Y448524D01*
X317311Y448616D01*
X317355Y448706D01*
X317402Y448795D01*
X317452Y448881D01*
X317506Y448965D01*
X317563Y449048D01*
X317624Y449128D01*
X317687Y449205D01*
X317754Y449280D01*
X317823Y449352D01*
X317895Y449422D01*
X317970Y449488D01*
X318047Y449552D01*
X318127Y449612D01*
X318209Y449670D01*
X318293Y449724D01*
X318380Y449775D01*
X318468Y449822D01*
X318558Y449866D01*
X318650Y449906D01*
X318743Y449942D01*
X318837Y449975D01*
X318933Y450005D01*
X319030Y450030D01*
X319128Y450051D01*
X335128Y450051D02*
X335226Y450030D01*
X335323Y450005D01*
X335419Y449975D01*
X335513Y449942D01*
X335606Y449906D01*
X335698Y449866D01*
X335788Y449822D01*
X335876Y449775D01*
X335963Y449724D01*
X336047Y449670D01*
X336129Y449612D01*
X336209Y449552D01*
X336286Y449488D01*
X336361Y449422D01*
X336433Y449352D01*
X336502Y449280D01*
X336569Y449205D01*
X336632Y449128D01*
X336693Y449048D01*
X336750Y448965D01*
X336804Y448881D01*
X336854Y448795D01*
X336901Y448706D01*
X336945Y448616D01*
X336985Y448524D01*
X337021Y448431D01*
X337054Y448336D01*
X337083Y448241D01*
X337108Y448144D01*
X337130Y448046D01*
X337147Y447947D01*
X337161Y447848D01*
X337170Y447748D01*
X337176Y447648D01*
X337178Y447548D01*
X337176Y447448D01*
X337170Y447348D01*
X337160Y447249D01*
X337146Y447149D01*
X337128Y447051D01*
X337128Y433051D02*
X337146Y432953D01*
X337160Y432853D01*
X337170Y432754D01*
X337176Y432654D01*
X337178Y432554D01*
X337176Y432454D01*
X337170Y432354D01*
X337161Y432254D01*
X337147Y432155D01*
X337130Y432056D01*
X337108Y431958D01*
X337083Y431861D01*
X337054Y431766D01*
X337021Y431671D01*
X336985Y431578D01*
X336945Y431486D01*
X336901Y431396D01*
X336854Y431307D01*
X336804Y431221D01*
X336750Y431137D01*
X336693Y431054D01*
X336632Y430974D01*
X336569Y430897D01*
X336502Y430822D01*
X336433Y430750D01*
X336361Y430680D01*
X336286Y430614D01*
X336209Y430550D01*
X336129Y430490D01*
X336047Y430432D01*
X335963Y430378D01*
X335876Y430327D01*
X335788Y430280D01*
X335698Y430236D01*
X335606Y430196D01*
X335513Y430160D01*
X335419Y430127D01*
X335323Y430097D01*
X335226Y430072D01*
X335128Y430051D01*
X319128Y430051D02*
X319030Y430072D01*
X318933Y430097D01*
X318837Y430127D01*
X318743Y430160D01*
X318650Y430196D01*
X318558Y430236D01*
X318468Y430280D01*
X318380Y430327D01*
X318293Y430378D01*
X318209Y430432D01*
X318127Y430490D01*
X318047Y430550D01*
X317970Y430614D01*
X317895Y430680D01*
X317823Y430750D01*
X317754Y430822D01*
X317687Y430897D01*
X317624Y430974D01*
X317563Y431054D01*
X317506Y431137D01*
X317452Y431221D01*
X317402Y431307D01*
X317355Y431396D01*
X317311Y431486D01*
X317271Y431578D01*
X317235Y431671D01*
X317202Y431766D01*
X317173Y431861D01*
X317148Y431958D01*
X317126Y432056D01*
X317109Y432155D01*
X317095Y432254D01*
X317086Y432354D01*
X317080Y432454D01*
X317078Y432554D01*
X317080Y432654D01*
X317086Y432754D01*
X317096Y432853D01*
X317110Y432953D01*
X317128Y433051D01*
X319128Y450051D02*
X335128Y450051D01*
D15*
X329556Y460970D02*
X331124Y462538D01*
X334259Y462538D01*
X335827Y460970D01*
X335827Y459403D01*
X334259Y457835D01*
X331124Y457835D01*
X329556Y456267D01*
X329556Y454700D01*
X331124Y453132D01*
X334259Y453132D01*
X335827Y454700D01*
X326472Y454700D02*
X324904Y453132D01*
X323336Y453132D01*
X321769Y454700D01*
X321769Y462538D01*
X323336Y462538D02*
X320201Y462538D01*
X312413Y462538D02*
X312413Y453132D01*
X317116Y457835D02*
X312413Y462538D01*
X310846Y457835D02*
X317116Y457835D01*
D10*
X311624Y417571D02*
X295624Y417571D01*
X293624Y434571D02*
X293606Y434669D01*
X293592Y434769D01*
X293582Y434868D01*
X293576Y434968D01*
X293574Y435068D01*
X293576Y435168D01*
X293582Y435268D01*
X293591Y435368D01*
X293605Y435467D01*
X293622Y435566D01*
X293644Y435664D01*
X293669Y435761D01*
X293698Y435856D01*
X293731Y435951D01*
X293767Y436044D01*
X293807Y436136D01*
X293851Y436226D01*
X293898Y436315D01*
X293948Y436401D01*
X294002Y436485D01*
X294059Y436568D01*
X294120Y436648D01*
X294183Y436725D01*
X294250Y436800D01*
X294319Y436872D01*
X294391Y436942D01*
X294466Y437008D01*
X294543Y437072D01*
X294623Y437132D01*
X294705Y437190D01*
X294789Y437244D01*
X294876Y437295D01*
X294964Y437342D01*
X295054Y437386D01*
X295146Y437426D01*
X295239Y437462D01*
X295333Y437495D01*
X295429Y437525D01*
X295526Y437550D01*
X295624Y437571D01*
X311624Y437571D02*
X311722Y437550D01*
X311819Y437525D01*
X311915Y437495D01*
X312009Y437462D01*
X312102Y437426D01*
X312194Y437386D01*
X312284Y437342D01*
X312372Y437295D01*
X312459Y437244D01*
X312543Y437190D01*
X312625Y437132D01*
X312705Y437072D01*
X312782Y437008D01*
X312857Y436942D01*
X312929Y436872D01*
X312998Y436800D01*
X313065Y436725D01*
X313128Y436648D01*
X313189Y436568D01*
X313246Y436485D01*
X313300Y436401D01*
X313350Y436315D01*
X313397Y436226D01*
X313441Y436136D01*
X313481Y436044D01*
X313517Y435951D01*
X313550Y435856D01*
X313579Y435761D01*
X313604Y435664D01*
X313626Y435566D01*
X313643Y435467D01*
X313657Y435368D01*
X313666Y435268D01*
X313672Y435168D01*
X313674Y435068D01*
X313672Y434968D01*
X313666Y434868D01*
X313656Y434769D01*
X313642Y434669D01*
X313624Y434571D01*
X313624Y420571D02*
X313642Y420473D01*
X313656Y420373D01*
X313666Y420274D01*
X313672Y420174D01*
X313674Y420074D01*
X313672Y419974D01*
X313666Y419874D01*
X313657Y419774D01*
X313643Y419675D01*
X313626Y419576D01*
X313604Y419478D01*
X313579Y419381D01*
X313550Y419286D01*
X313517Y419191D01*
X313481Y419098D01*
X313441Y419006D01*
X313397Y418916D01*
X313350Y418827D01*
X313300Y418741D01*
X313246Y418657D01*
X313189Y418574D01*
X313128Y418494D01*
X313065Y418417D01*
X312998Y418342D01*
X312929Y418270D01*
X312857Y418200D01*
X312782Y418134D01*
X312705Y418070D01*
X312625Y418010D01*
X312543Y417952D01*
X312459Y417898D01*
X312372Y417847D01*
X312284Y417800D01*
X312194Y417756D01*
X312102Y417716D01*
X312009Y417680D01*
X311915Y417647D01*
X311819Y417617D01*
X311722Y417592D01*
X311624Y417571D01*
X295624Y417571D02*
X295526Y417592D01*
X295429Y417617D01*
X295333Y417647D01*
X295239Y417680D01*
X295146Y417716D01*
X295054Y417756D01*
X294964Y417800D01*
X294876Y417847D01*
X294789Y417898D01*
X294705Y417952D01*
X294623Y418010D01*
X294543Y418070D01*
X294466Y418134D01*
X294391Y418200D01*
X294319Y418270D01*
X294250Y418342D01*
X294183Y418417D01*
X294120Y418494D01*
X294059Y418574D01*
X294002Y418657D01*
X293948Y418741D01*
X293898Y418827D01*
X293851Y418916D01*
X293807Y419006D01*
X293767Y419098D01*
X293731Y419191D01*
X293698Y419286D01*
X293669Y419381D01*
X293644Y419478D01*
X293622Y419576D01*
X293605Y419675D01*
X293591Y419774D01*
X293582Y419874D01*
X293576Y419974D01*
X293574Y420074D01*
X293576Y420174D01*
X293582Y420274D01*
X293592Y420373D01*
X293606Y420473D01*
X293624Y420571D01*
X295624Y437571D02*
X311624Y437571D01*
D15*
X306052Y448490D02*
X307620Y450058D01*
X310755Y450058D01*
X312323Y448490D01*
X312323Y446922D01*
X310755Y445355D01*
X307620Y445355D01*
X306052Y443787D01*
X306052Y442219D01*
X307620Y440652D01*
X310755Y440652D01*
X312323Y442219D01*
X302967Y442219D02*
X301400Y440652D01*
X299832Y440652D01*
X298264Y442219D01*
X298264Y450058D01*
X296697Y450058D02*
X299832Y450058D01*
X293612Y446922D02*
X290477Y450058D01*
X290477Y440652D01*
X293612Y440652D02*
X287342Y440652D01*
X284257Y442219D02*
X284257Y448490D01*
X282689Y450058D01*
X279554Y450058D01*
X277986Y448490D01*
X277986Y442219D01*
X279554Y440652D01*
X282689Y440652D01*
X284257Y442219D01*
X277986Y448490D01*
D10*
X472550Y469637D02*
X472550Y485637D01*
X489550Y487637D02*
X489648Y487655D01*
X489748Y487669D01*
X489847Y487679D01*
X489947Y487685D01*
X490047Y487687D01*
X490147Y487685D01*
X490247Y487679D01*
X490347Y487670D01*
X490446Y487656D01*
X490545Y487639D01*
X490643Y487617D01*
X490740Y487592D01*
X490835Y487563D01*
X490930Y487530D01*
X491023Y487494D01*
X491115Y487454D01*
X491205Y487410D01*
X491294Y487363D01*
X491380Y487313D01*
X491464Y487259D01*
X491547Y487202D01*
X491627Y487141D01*
X491704Y487078D01*
X491779Y487011D01*
X491851Y486942D01*
X491921Y486870D01*
X491987Y486795D01*
X492051Y486718D01*
X492111Y486638D01*
X492169Y486556D01*
X492223Y486472D01*
X492274Y486385D01*
X492321Y486297D01*
X492365Y486207D01*
X492405Y486115D01*
X492441Y486022D01*
X492474Y485928D01*
X492504Y485832D01*
X492529Y485735D01*
X492550Y485637D01*
X492550Y469637D02*
X492529Y469539D01*
X492504Y469442D01*
X492474Y469346D01*
X492441Y469252D01*
X492405Y469159D01*
X492365Y469067D01*
X492321Y468977D01*
X492274Y468889D01*
X492223Y468802D01*
X492169Y468718D01*
X492111Y468636D01*
X492051Y468556D01*
X491987Y468479D01*
X491921Y468404D01*
X491851Y468332D01*
X491779Y468263D01*
X491704Y468196D01*
X491627Y468133D01*
X491547Y468072D01*
X491464Y468015D01*
X491380Y467961D01*
X491294Y467911D01*
X491205Y467864D01*
X491115Y467820D01*
X491023Y467780D01*
X490930Y467744D01*
X490835Y467711D01*
X490740Y467682D01*
X490643Y467657D01*
X490545Y467635D01*
X490446Y467618D01*
X490347Y467604D01*
X490247Y467595D01*
X490147Y467589D01*
X490047Y467587D01*
X489947Y467589D01*
X489847Y467595D01*
X489748Y467605D01*
X489648Y467619D01*
X489550Y467637D01*
X475550Y467637D02*
X475452Y467619D01*
X475352Y467605D01*
X475253Y467595D01*
X475153Y467589D01*
X475053Y467587D01*
X474953Y467589D01*
X474853Y467595D01*
X474753Y467604D01*
X474654Y467618D01*
X474555Y467635D01*
X474457Y467657D01*
X474360Y467682D01*
X474265Y467711D01*
X474170Y467744D01*
X474077Y467780D01*
X473985Y467820D01*
X473895Y467864D01*
X473806Y467911D01*
X473720Y467961D01*
X473636Y468015D01*
X473553Y468072D01*
X473473Y468133D01*
X473396Y468196D01*
X473321Y468263D01*
X473249Y468332D01*
X473179Y468404D01*
X473113Y468479D01*
X473049Y468556D01*
X472989Y468636D01*
X472931Y468718D01*
X472877Y468802D01*
X472826Y468889D01*
X472779Y468977D01*
X472735Y469067D01*
X472695Y469159D01*
X472659Y469252D01*
X472626Y469346D01*
X472596Y469442D01*
X472571Y469539D01*
X472550Y469637D01*
X472550Y485637D02*
X472571Y485735D01*
X472596Y485832D01*
X472626Y485928D01*
X472659Y486022D01*
X472695Y486115D01*
X472735Y486207D01*
X472779Y486297D01*
X472826Y486385D01*
X472877Y486472D01*
X472931Y486556D01*
X472989Y486638D01*
X473049Y486718D01*
X473113Y486795D01*
X473179Y486870D01*
X473249Y486942D01*
X473321Y487011D01*
X473396Y487078D01*
X473473Y487141D01*
X473553Y487202D01*
X473636Y487259D01*
X473720Y487313D01*
X473806Y487363D01*
X473895Y487410D01*
X473985Y487454D01*
X474077Y487494D01*
X474170Y487530D01*
X474265Y487563D01*
X474360Y487592D01*
X474457Y487617D01*
X474555Y487639D01*
X474654Y487656D01*
X474753Y487670D01*
X474853Y487679D01*
X474953Y487685D01*
X475053Y487687D01*
X475153Y487685D01*
X475253Y487679D01*
X475352Y487669D01*
X475452Y487655D01*
X475550Y487637D01*
X492550Y485637D02*
X492550Y469637D01*
D15*
X503469Y475208D02*
X505037Y473641D01*
X505037Y470505D01*
X503469Y468938D01*
X501901Y468938D01*
X500334Y470505D01*
X500334Y473641D01*
X498766Y475208D01*
X497198Y475208D01*
X495631Y473641D01*
X495631Y470505D01*
X497198Y468938D01*
X497198Y478293D02*
X495631Y479860D01*
X495631Y481428D01*
X497198Y482996D01*
X505037Y482996D01*
X505037Y484563D02*
X505037Y481428D01*
X501901Y487648D02*
X505037Y490783D01*
X495631Y490783D01*
X495631Y487648D02*
X495631Y493919D01*
X503469Y497003D02*
X505037Y498571D01*
X505037Y501706D01*
X503469Y503274D01*
X501901Y503274D01*
X500334Y501706D01*
X500334Y500139D01*
X500334Y501706D02*
X498766Y503274D01*
X497198Y503274D01*
X495631Y501706D01*
X495631Y498571D01*
X497198Y497003D01*
D10*
X541371Y323350D02*
X557371Y323350D01*
X559371Y306350D02*
X559389Y306252D01*
X559403Y306152D01*
X559413Y306053D01*
X559419Y305953D01*
X559421Y305853D01*
X559419Y305753D01*
X559413Y305653D01*
X559404Y305553D01*
X559390Y305454D01*
X559373Y305355D01*
X559351Y305257D01*
X559326Y305160D01*
X559297Y305065D01*
X559264Y304970D01*
X559228Y304877D01*
X559188Y304785D01*
X559144Y304695D01*
X559097Y304606D01*
X559047Y304520D01*
X558993Y304436D01*
X558936Y304353D01*
X558875Y304273D01*
X558812Y304196D01*
X558745Y304121D01*
X558676Y304049D01*
X558604Y303979D01*
X558529Y303913D01*
X558452Y303849D01*
X558372Y303789D01*
X558290Y303731D01*
X558206Y303677D01*
X558119Y303626D01*
X558031Y303579D01*
X557941Y303535D01*
X557849Y303495D01*
X557756Y303459D01*
X557662Y303426D01*
X557566Y303396D01*
X557469Y303371D01*
X557371Y303350D01*
X541371Y303350D02*
X541273Y303371D01*
X541176Y303396D01*
X541080Y303426D01*
X540986Y303459D01*
X540893Y303495D01*
X540801Y303535D01*
X540711Y303579D01*
X540623Y303626D01*
X540536Y303677D01*
X540452Y303731D01*
X540370Y303789D01*
X540290Y303849D01*
X540213Y303913D01*
X540138Y303979D01*
X540066Y304049D01*
X539997Y304121D01*
X539930Y304196D01*
X539867Y304273D01*
X539806Y304353D01*
X539749Y304436D01*
X539695Y304520D01*
X539645Y304606D01*
X539598Y304695D01*
X539554Y304785D01*
X539514Y304877D01*
X539478Y304970D01*
X539445Y305065D01*
X539416Y305160D01*
X539391Y305257D01*
X539369Y305355D01*
X539352Y305454D01*
X539338Y305553D01*
X539329Y305653D01*
X539323Y305753D01*
X539321Y305853D01*
X539323Y305953D01*
X539329Y306053D01*
X539339Y306152D01*
X539353Y306252D01*
X539371Y306350D01*
X539371Y320350D02*
X539353Y320448D01*
X539339Y320548D01*
X539329Y320647D01*
X539323Y320747D01*
X539321Y320847D01*
X539323Y320947D01*
X539329Y321047D01*
X539338Y321147D01*
X539352Y321246D01*
X539369Y321345D01*
X539391Y321443D01*
X539416Y321540D01*
X539445Y321635D01*
X539478Y321730D01*
X539514Y321823D01*
X539554Y321915D01*
X539598Y322005D01*
X539645Y322094D01*
X539695Y322180D01*
X539749Y322264D01*
X539806Y322347D01*
X539867Y322427D01*
X539930Y322504D01*
X539997Y322579D01*
X540066Y322651D01*
X540138Y322721D01*
X540213Y322787D01*
X540290Y322851D01*
X540370Y322911D01*
X540452Y322969D01*
X540536Y323023D01*
X540623Y323074D01*
X540711Y323121D01*
X540801Y323165D01*
X540893Y323205D01*
X540986Y323241D01*
X541080Y323274D01*
X541176Y323304D01*
X541273Y323329D01*
X541371Y323350D01*
X557371Y323350D02*
X557469Y323329D01*
X557566Y323304D01*
X557662Y323274D01*
X557756Y323241D01*
X557849Y323205D01*
X557941Y323165D01*
X558031Y323121D01*
X558119Y323074D01*
X558206Y323023D01*
X558290Y322969D01*
X558372Y322911D01*
X558452Y322851D01*
X558529Y322787D01*
X558604Y322721D01*
X558676Y322651D01*
X558745Y322579D01*
X558812Y322504D01*
X558875Y322427D01*
X558936Y322347D01*
X558993Y322264D01*
X559047Y322180D01*
X559097Y322094D01*
X559144Y322005D01*
X559188Y321915D01*
X559228Y321823D01*
X559264Y321730D01*
X559297Y321635D01*
X559326Y321540D01*
X559351Y321443D01*
X559373Y321345D01*
X559390Y321246D01*
X559404Y321147D01*
X559413Y321047D01*
X559419Y320947D01*
X559421Y320847D01*
X559419Y320747D01*
X559413Y320647D01*
X559403Y320548D01*
X559389Y320448D01*
X559371Y320350D01*
X557371Y303350D02*
X541371Y303350D01*
D15*
X561705Y298709D02*
X563272Y300277D01*
X566408Y300277D01*
X567975Y298709D01*
X567975Y297142D01*
X566408Y295574D01*
X563272Y295574D01*
X561705Y294006D01*
X561705Y292439D01*
X563272Y290871D01*
X566408Y290871D01*
X567975Y292439D01*
X558620Y292439D02*
X557052Y290871D01*
X555485Y290871D01*
X553917Y292439D01*
X553917Y300277D01*
X555485Y300277D02*
X552349Y300277D01*
X549265Y298709D02*
X547697Y300277D01*
X544562Y300277D01*
X542994Y298709D01*
X542994Y297142D01*
X544562Y295574D01*
X546130Y295574D01*
X544562Y295574D02*
X542994Y294006D01*
X542994Y292439D01*
X544562Y290871D01*
X547697Y290871D01*
X549265Y292439D01*
D10*
X566374Y335915D02*
X582374Y335915D01*
X584374Y318915D02*
X584392Y318817D01*
X584406Y318717D01*
X584416Y318618D01*
X584422Y318518D01*
X584424Y318418D01*
X584422Y318318D01*
X584416Y318218D01*
X584407Y318118D01*
X584393Y318019D01*
X584376Y317920D01*
X584354Y317822D01*
X584329Y317725D01*
X584300Y317630D01*
X584267Y317535D01*
X584231Y317442D01*
X584191Y317350D01*
X584147Y317260D01*
X584100Y317171D01*
X584050Y317085D01*
X583996Y317001D01*
X583939Y316918D01*
X583878Y316838D01*
X583815Y316761D01*
X583748Y316686D01*
X583679Y316614D01*
X583607Y316544D01*
X583532Y316478D01*
X583455Y316414D01*
X583375Y316354D01*
X583293Y316296D01*
X583209Y316242D01*
X583122Y316191D01*
X583034Y316144D01*
X582944Y316100D01*
X582852Y316060D01*
X582759Y316024D01*
X582665Y315991D01*
X582569Y315961D01*
X582472Y315936D01*
X582374Y315915D01*
X566374Y315915D02*
X566276Y315936D01*
X566179Y315961D01*
X566083Y315991D01*
X565989Y316024D01*
X565896Y316060D01*
X565804Y316100D01*
X565714Y316144D01*
X565626Y316191D01*
X565539Y316242D01*
X565455Y316296D01*
X565373Y316354D01*
X565293Y316414D01*
X565216Y316478D01*
X565141Y316544D01*
X565069Y316614D01*
X565000Y316686D01*
X564933Y316761D01*
X564870Y316838D01*
X564809Y316918D01*
X564752Y317001D01*
X564698Y317085D01*
X564648Y317171D01*
X564601Y317260D01*
X564557Y317350D01*
X564517Y317442D01*
X564481Y317535D01*
X564448Y317630D01*
X564419Y317725D01*
X564394Y317822D01*
X564372Y317920D01*
X564355Y318019D01*
X564341Y318118D01*
X564332Y318218D01*
X564326Y318318D01*
X564324Y318418D01*
X564326Y318518D01*
X564332Y318618D01*
X564342Y318717D01*
X564356Y318817D01*
X564374Y318915D01*
X564374Y332915D02*
X564356Y333013D01*
X564342Y333113D01*
X564332Y333212D01*
X564326Y333312D01*
X564324Y333412D01*
X564326Y333512D01*
X564332Y333612D01*
X564341Y333712D01*
X564355Y333811D01*
X564372Y333910D01*
X564394Y334008D01*
X564419Y334105D01*
X564448Y334200D01*
X564481Y334295D01*
X564517Y334388D01*
X564557Y334480D01*
X564601Y334570D01*
X564648Y334659D01*
X564698Y334745D01*
X564752Y334829D01*
X564809Y334912D01*
X564870Y334992D01*
X564933Y335069D01*
X565000Y335144D01*
X565069Y335216D01*
X565141Y335286D01*
X565216Y335352D01*
X565293Y335416D01*
X565373Y335476D01*
X565455Y335534D01*
X565539Y335588D01*
X565626Y335639D01*
X565714Y335686D01*
X565804Y335730D01*
X565896Y335770D01*
X565989Y335806D01*
X566083Y335839D01*
X566179Y335869D01*
X566276Y335894D01*
X566374Y335915D01*
X582374Y335915D02*
X582472Y335894D01*
X582569Y335869D01*
X582665Y335839D01*
X582759Y335806D01*
X582852Y335770D01*
X582944Y335730D01*
X583034Y335686D01*
X583122Y335639D01*
X583209Y335588D01*
X583293Y335534D01*
X583375Y335476D01*
X583455Y335416D01*
X583532Y335352D01*
X583607Y335286D01*
X583679Y335216D01*
X583748Y335144D01*
X583815Y335069D01*
X583878Y334992D01*
X583939Y334912D01*
X583996Y334829D01*
X584050Y334745D01*
X584100Y334659D01*
X584147Y334570D01*
X584191Y334480D01*
X584231Y334388D01*
X584267Y334295D01*
X584300Y334200D01*
X584329Y334105D01*
X584354Y334008D01*
X584376Y333910D01*
X584393Y333811D01*
X584407Y333712D01*
X584416Y333612D01*
X584422Y333512D01*
X584424Y333412D01*
X584422Y333312D01*
X584416Y333212D01*
X584406Y333113D01*
X584392Y333013D01*
X584374Y332915D01*
X582374Y315915D02*
X566374Y315915D01*
D15*
X596063Y311274D02*
X597631Y312842D01*
X600766Y312842D01*
X602334Y311274D01*
X602334Y309706D01*
X600766Y308139D01*
X597631Y308139D01*
X596063Y306571D01*
X596063Y305003D01*
X597631Y303436D01*
X600766Y303436D01*
X602334Y305003D01*
X592978Y305003D02*
X591411Y303436D01*
X589843Y303436D01*
X588275Y305003D01*
X588275Y312842D01*
X586708Y312842D02*
X589843Y312842D01*
X583623Y309706D02*
X580488Y312842D01*
X580488Y303436D01*
X583623Y303436D02*
X577353Y303436D01*
X574268Y311274D02*
X572700Y312842D01*
X569565Y312842D01*
X567997Y311274D01*
X567997Y309706D01*
X569565Y308139D01*
X567997Y306571D01*
X567997Y305003D01*
X569565Y303436D01*
X572700Y303436D01*
X574268Y305003D01*
X574268Y306571D01*
X572700Y308139D01*
X574268Y309706D01*
X574268Y311274D01*
X572700Y308139D02*
X569565Y308139D01*
D10*
X556640Y424020D02*
X540640Y424020D01*
X558640Y407020D02*
X558658Y406922D01*
X558672Y406822D01*
X558682Y406723D01*
X558688Y406623D01*
X558690Y406523D01*
X558688Y406423D01*
X558682Y406323D01*
X558673Y406223D01*
X558659Y406124D01*
X558642Y406025D01*
X558620Y405927D01*
X558595Y405830D01*
X558566Y405735D01*
X558533Y405640D01*
X558497Y405547D01*
X558457Y405455D01*
X558413Y405365D01*
X558366Y405276D01*
X558316Y405190D01*
X558262Y405106D01*
X558205Y405023D01*
X558144Y404943D01*
X558081Y404866D01*
X558014Y404791D01*
X557945Y404719D01*
X557873Y404649D01*
X557798Y404583D01*
X557721Y404519D01*
X557641Y404459D01*
X557559Y404401D01*
X557475Y404347D01*
X557388Y404296D01*
X557300Y404249D01*
X557210Y404205D01*
X557118Y404165D01*
X557025Y404129D01*
X556931Y404096D01*
X556835Y404066D01*
X556738Y404041D01*
X556640Y404020D01*
X540640Y404020D02*
X540542Y404041D01*
X540445Y404066D01*
X540349Y404096D01*
X540255Y404129D01*
X540162Y404165D01*
X540070Y404205D01*
X539980Y404249D01*
X539892Y404296D01*
X539805Y404347D01*
X539721Y404401D01*
X539639Y404459D01*
X539559Y404519D01*
X539482Y404583D01*
X539407Y404649D01*
X539335Y404719D01*
X539266Y404791D01*
X539199Y404866D01*
X539136Y404943D01*
X539075Y405023D01*
X539018Y405106D01*
X538964Y405190D01*
X538914Y405276D01*
X538867Y405365D01*
X538823Y405455D01*
X538783Y405547D01*
X538747Y405640D01*
X538714Y405735D01*
X538685Y405830D01*
X538660Y405927D01*
X538638Y406025D01*
X538621Y406124D01*
X538607Y406223D01*
X538598Y406323D01*
X538592Y406423D01*
X538590Y406523D01*
X538592Y406623D01*
X538598Y406723D01*
X538608Y406822D01*
X538622Y406922D01*
X538640Y407020D01*
X538640Y421020D02*
X538622Y421118D01*
X538608Y421218D01*
X538598Y421317D01*
X538592Y421417D01*
X538590Y421517D01*
X538592Y421617D01*
X538598Y421717D01*
X538607Y421817D01*
X538621Y421916D01*
X538638Y422015D01*
X538660Y422113D01*
X538685Y422210D01*
X538714Y422305D01*
X538747Y422400D01*
X538783Y422493D01*
X538823Y422585D01*
X538867Y422675D01*
X538914Y422764D01*
X538964Y422850D01*
X539018Y422934D01*
X539075Y423017D01*
X539136Y423097D01*
X539199Y423174D01*
X539266Y423249D01*
X539335Y423321D01*
X539407Y423391D01*
X539482Y423457D01*
X539559Y423521D01*
X539639Y423581D01*
X539721Y423639D01*
X539805Y423693D01*
X539892Y423744D01*
X539980Y423791D01*
X540070Y423835D01*
X540162Y423875D01*
X540255Y423911D01*
X540349Y423944D01*
X540445Y423974D01*
X540542Y423999D01*
X540640Y424020D01*
X556640Y424020D02*
X556738Y423999D01*
X556835Y423974D01*
X556931Y423944D01*
X557025Y423911D01*
X557118Y423875D01*
X557210Y423835D01*
X557300Y423791D01*
X557388Y423744D01*
X557475Y423693D01*
X557559Y423639D01*
X557641Y423581D01*
X557721Y423521D01*
X557798Y423457D01*
X557873Y423391D01*
X557945Y423321D01*
X558014Y423249D01*
X558081Y423174D01*
X558144Y423097D01*
X558205Y423017D01*
X558262Y422934D01*
X558316Y422850D01*
X558366Y422764D01*
X558413Y422675D01*
X558457Y422585D01*
X558497Y422493D01*
X558533Y422400D01*
X558566Y422305D01*
X558595Y422210D01*
X558620Y422113D01*
X558642Y422015D01*
X558659Y421916D01*
X558673Y421817D01*
X558682Y421717D01*
X558688Y421617D01*
X558690Y421517D01*
X558688Y421417D01*
X558682Y421317D01*
X558672Y421218D01*
X558658Y421118D01*
X558640Y421020D01*
X556640Y404020D02*
X540640Y404020D01*
D16*
X551859Y400561D02*
X552495Y401196D01*
X553766Y401196D01*
X554401Y400561D01*
X554401Y399925D01*
X553766Y399290D01*
X552495Y399290D01*
X551859Y398654D01*
X551859Y398019D01*
X552495Y397383D01*
X553766Y397383D01*
X554401Y398019D01*
X550659Y398019D02*
X550024Y397383D01*
X549388Y397383D01*
X548753Y398019D01*
X548753Y401196D01*
X549388Y401196D02*
X548117Y401196D01*
X546917Y399925D02*
X545646Y401196D01*
X545646Y397383D01*
X546917Y397383D02*
X544375Y397383D01*
X543175Y398019D02*
X542540Y397383D01*
X541269Y397383D01*
X540633Y398019D01*
X540633Y400561D01*
X541269Y401196D01*
X542540Y401196D01*
X543175Y400561D01*
X543175Y399925D01*
X542540Y399290D01*
X540633Y399290D01*
M02*
