G04 EAGLE Gerber RS-274X export*
G75*
%MOMM*%
%FSLAX34Y34*%
%LPD*%
%INSoldermask Bottom*%
%IPPOS*%
%AMOC8*
5,1,8,0,0,1.08239X$1,22.5*%
G01*
%ADD10C,3.601600*%
%ADD11C,1.981200*%
%ADD12C,1.801600*%
%ADD13C,1.701600*%
%ADD14C,1.901600*%
%ADD15C,3.351600*%
%ADD16C,1.201600*%
%ADD17R,1.625600X4.165600*%
%ADD18C,2.851600*%
%ADD19C,1.301600*%
%ADD20P,1.429621X8X112.500000*%
%ADD21P,1.429621X8X22.500000*%
%ADD22R,5.101600X5.101600*%
%ADD23R,2.101600X1.001600*%
%ADD24R,1.001600X2.101600*%
%ADD25R,0.736600X1.371600*%
%ADD26R,1.371600X0.736600*%
%ADD27C,1.601600*%
%ADD28C,0.701600*%


D10*
X1239500Y1008500D03*
X49500Y1008500D03*
X49500Y49500D03*
X1239500Y49500D03*
X1260409Y848515D03*
X1134100Y29500D03*
D11*
X821155Y437411D03*
X846555Y437411D03*
D12*
X139700Y1015376D03*
X139700Y945376D03*
X266700Y1015376D03*
X266700Y945376D03*
X393700Y1015376D03*
X393700Y945376D03*
D13*
X1259355Y723204D03*
D14*
X1214355Y723204D03*
D12*
X774700Y1015376D03*
X774700Y945376D03*
X647700Y1015376D03*
X647700Y945376D03*
X520700Y1015376D03*
X520700Y945376D03*
X901700Y1015376D03*
X901700Y945376D03*
X1028700Y1015376D03*
X1028700Y945376D03*
X1155700Y1015376D03*
X1155700Y945376D03*
D13*
X1259355Y583504D03*
D14*
X1214355Y583504D03*
D13*
X1259355Y443804D03*
D14*
X1214355Y443804D03*
D15*
X98133Y49653D03*
X212433Y49653D03*
D16*
X30337Y742610D03*
X30337Y672610D03*
X30337Y628310D03*
X30337Y558310D03*
D17*
X1041831Y49274D03*
X1092631Y49274D03*
D18*
X753442Y225878D03*
D16*
X30337Y514570D03*
X30337Y444570D03*
X30337Y400270D03*
X30337Y330270D03*
X30337Y285970D03*
X30337Y215970D03*
X914400Y31660D03*
X984400Y31660D03*
D19*
X825150Y323850D02*
X813150Y323850D01*
X1208150Y323850D02*
X1220150Y323850D01*
X825150Y148850D02*
X813150Y148850D01*
X1208150Y148850D02*
X1220150Y148850D01*
X1220150Y298450D02*
X1208150Y298450D01*
X1208150Y174250D02*
X1220150Y174250D01*
X825150Y174250D02*
X813150Y174250D01*
X813150Y298450D02*
X825150Y298450D01*
D20*
X192600Y856692D03*
X192600Y932892D03*
X316230Y855153D03*
X316230Y931353D03*
X444500Y854710D03*
X444500Y930910D03*
X572770Y854710D03*
X572770Y930910D03*
X701040Y854710D03*
X701040Y930910D03*
X828040Y854710D03*
X828040Y930910D03*
D21*
X871220Y864870D03*
X947420Y864870D03*
X994410Y863600D03*
X1070610Y863600D03*
X1127760Y861060D03*
X1203960Y861060D03*
D22*
X428150Y350060D03*
D23*
X353150Y275060D03*
X353150Y287760D03*
X353150Y300460D03*
X353150Y313160D03*
X353150Y325860D03*
X353150Y338560D03*
X353150Y351260D03*
X353150Y363960D03*
X353150Y376660D03*
X353150Y389360D03*
X353150Y402060D03*
X353150Y414760D03*
X353150Y427460D03*
X353150Y440160D03*
D24*
X381000Y450160D03*
X393700Y450160D03*
X406400Y450160D03*
X419100Y450160D03*
X431800Y450160D03*
X444500Y450160D03*
X457200Y450160D03*
X469900Y450160D03*
X482600Y450160D03*
X495300Y450160D03*
D23*
X523150Y440160D03*
X523150Y427460D03*
X523150Y414760D03*
X523150Y402060D03*
X523150Y389360D03*
X523150Y376660D03*
X523150Y363960D03*
X523150Y351260D03*
X523150Y338560D03*
X523150Y325860D03*
X523150Y313160D03*
X523150Y300460D03*
X523150Y287760D03*
X523150Y275060D03*
D11*
X643106Y395974D03*
X617706Y395974D03*
D25*
X331628Y440051D03*
X322628Y440051D03*
X308124Y427571D03*
X299124Y427571D03*
D26*
X482550Y473137D03*
X482550Y482137D03*
D25*
X544871Y313350D03*
X553871Y313350D03*
X569874Y325915D03*
X578874Y325915D03*
X544140Y414020D03*
X553140Y414020D03*
D16*
X803910Y31660D03*
X873910Y31660D03*
D11*
X406400Y533400D03*
X406400Y558800D03*
D27*
X1222007Y192378D02*
X1237007Y192378D01*
D28*
X1234507Y206678D03*
X1234507Y264478D03*
D27*
X1237007Y278878D02*
X1222007Y278878D01*
X1263807Y192378D02*
X1278807Y192378D01*
X1278807Y278878D02*
X1263807Y278878D01*
M02*
