G04 EAGLE Gerber RS-274X export*
G75*
%MOMM*%
%FSLAX34Y34*%
%LPD*%
%INSolderpaste Bottom*%
%IPPOS*%
%AMOC8*
5,1,8,0,0,1.08239X$1,22.5*%
G01*
%ADD10R,1.524000X4.064000*%
%ADD11R,3.164769X3.166009*%
%ADD12R,2.000000X0.900000*%
%ADD13R,0.900000X2.000000*%


D10*
X1041831Y49274D03*
X1092631Y49274D03*
D11*
X428137Y350079D03*
D12*
X353150Y275060D03*
X353150Y287760D03*
X353150Y300460D03*
X353150Y313160D03*
X353150Y325860D03*
X353150Y338560D03*
X353150Y351260D03*
X353150Y363960D03*
X353150Y376660D03*
X353150Y389360D03*
X353150Y402060D03*
X353150Y414760D03*
X353150Y427460D03*
X353150Y440160D03*
D13*
X381000Y450160D03*
X393700Y450160D03*
X406400Y450160D03*
X419100Y450160D03*
X431800Y450160D03*
X444500Y450160D03*
X457200Y450160D03*
X469900Y450160D03*
X482600Y450160D03*
X495300Y450160D03*
D12*
X523150Y440160D03*
X523150Y427460D03*
X523150Y414760D03*
X523150Y402060D03*
X523150Y389360D03*
X523150Y376660D03*
X523150Y363960D03*
X523150Y351260D03*
X523150Y338560D03*
X523150Y325860D03*
X523150Y313160D03*
X523150Y300460D03*
X523150Y287760D03*
X523150Y275060D03*
M02*
