M48
;GenerationSoftware,Autodesk,EAGLE,9.4.2*%
;CreationDate,2019-06-11T17:19:15Z*%
FMAT,2
ICI,OFF
METRIC,TZ,000.000
T16C0.350
T15C0.600
T14C0.700
T13C0.800
T12C0.813
T11C0.914
T10C1.000
T9C1.016
T8C1.100
T7C1.499
T6C1.600
T5C1.700
T4C1.800
T3C2.750
T2C3.200
T1C3.500
%
G90
M71
T1
X125950Y102850
X2950Y102850
X2950Y2950
X125950Y2950
X125950Y94850
X115950Y2950
T2
X8614Y7165
X20044Y7165
T3
X75344Y22588
T4
X121436Y44380
X121436Y72320
X121436Y58350
T5
X13970Y101538
X13970Y94538
X26670Y101538
X26670Y94538
X39370Y101538
X39370Y94538
X77470Y101538
X77470Y94538
X64770Y101538
X64770Y94538
X52070Y101538
X52070Y94538
X90170Y101538
X90170Y94538
X102870Y101538
X102870Y94538
X115570Y101538
X115570Y94538
T6
X125936Y44380
X125936Y72320
X125936Y58350
T7
X124513Y8709
X124513Y15719
T8
X10734Y68015
X10734Y21335
X3734Y75015
X10734Y24835
X3734Y24835
X10734Y28335
X3734Y28335
X10734Y33019
X3734Y33019
X10734Y36519
X3734Y36519
X10734Y40019
X3734Y40019
X10734Y44703
X3734Y44703
X10734Y48203
X3734Y48203
X10734Y51703
X3734Y51703
X3734Y63331
X10734Y63331
X3734Y59831
X10734Y59831
X3734Y56331
X10734Y56331
X81997Y3739
X81997Y10739
X85497Y3739
X85497Y10739
X3734Y68015
X10734Y71515
X91242Y3739
X91242Y10739
X94742Y3739
X94742Y10739
X98242Y3739
X98242Y10739
X3734Y71515
X10734Y75015
X3734Y21335
T9
X27612Y52871
X25072Y55411
X27612Y55411
X25072Y57951
X27612Y57951
X25072Y60491
X27612Y60491
X25072Y63031
X27612Y63031
X25072Y65571
X27612Y65571
X25072Y68111
X27612Y68111
X25072Y70651
X27612Y70651
X25072Y73191
X27612Y73191
X25072Y75731
X27614Y75718
X25072Y52871
X27612Y50331
X25072Y50331
X27612Y47791
X25072Y47791
X27612Y45251
X25072Y45251
X27612Y42711
X25072Y42711
X27612Y40171
X25072Y40171
X90699Y62094
X90699Y59554
X82842Y46056
X82842Y43516
X82842Y40976
X127002Y9953
X127002Y14475
X68453Y22352
X65913Y22352
X63373Y22352
X60833Y22352
X58293Y22352
X55753Y22352
X27612Y37631
X25072Y37631
X27612Y35091
X25072Y35091
X27612Y32551
X25072Y32551
X27612Y30011
X25072Y30011
X27612Y27471
X25072Y27471
X60960Y27432
X63500Y27432
T10
X9884Y13515
X12424Y13515
X14964Y13515
X11154Y16055
X13694Y16055
X16234Y16055
X17504Y13515
X18774Y16055
T11
X96520Y50673
X96520Y53213
X99060Y50673
X99060Y53213
X96520Y37973
X99060Y37973
X96520Y40513
X99060Y40513
X96520Y43053
X99060Y43053
X96520Y45593
X96520Y55753
X99060Y55753
X96520Y58293
X99060Y58293
X96520Y60833
X99060Y45593
X96520Y48133
X99060Y48133
X99060Y60833
T12
X82855Y62444
X82855Y59904
X82855Y57364
X82855Y54824
X82855Y52284
X120650Y93218
X19304Y85471
X19304Y93091
X31623Y85515
X31623Y93135
X44450Y85471
X44450Y93091
X57277Y85471
X57277Y93091
X70104Y85471
X70104Y93091
X82804Y85471
X82804Y93091
X95504Y85471
X95504Y93091
X107950Y85598
X107950Y93218
X120650Y85598
T13
X81915Y32385
X121415Y32385
X81915Y14885
X121415Y14885
T14
X123893Y26939
X123893Y22489
T15
X126893Y28889
X126893Y20539
T16
X68375Y47000
X70500Y47000
X70500Y41250
X64125Y40625
X64125Y30750
X66500Y80375
X2375Y80375
X65875Y79750
X5000Y79750
X59375Y76625
X9375Y76875
X64375Y66750
X75387Y66679
X79000Y58125
X92125Y57125
X87500Y28750
X82125Y28750
X73875Y35125
X54264Y35132
X46750Y50250
X18250Y54000
X85750Y78500
X16000Y77750
X55875Y47500
X53375Y45375
X49500Y30500
X18875Y26375
X60625Y76625
X88125Y76625
X88125Y38000
X60000Y76000
X101500Y76000
X101500Y38000
X54750Y62750
X55000Y64250
X54875Y74750
X111104Y83256
X50750Y64625
X46125Y64625
X46000Y77250
X88750Y77250
X88750Y39125
X65250Y30375
X100125Y30375
X64125Y43375
X73500Y42625
X75750Y39750
X95500Y39750
X64750Y45250
X73750Y45250
X78000Y47750
X54685Y55726
X55750Y63750
X55500Y75375
X99000Y75375
X53845Y56131
X53125Y59500
X49000Y72375
X96500Y72875
X47750Y73625
X98125Y74125
X47125Y73000
X97500Y73500
X65375Y45875
X72500Y45875
X75750Y42250
X76750Y44625
X66250Y42875
X89375Y35625
X89375Y45500
X63000Y70125
X38375Y70250
X38375Y40750
X33000Y31625
X71750Y41250
X71750Y46375
X69000Y46375
X57000Y28750
X57000Y35750
X36250Y44250
X36250Y66750
X20625Y66750
X17625Y65250
X17625Y68125
X33000Y70875
X67750Y71375
X34375Y43875
X35000Y71500
X68375Y72000
X33625Y38750
X36875Y72000
X69000Y72625
X33000Y36750
X69625Y80875
X26250Y80875
X18875Y50375
X18875Y82250
X106125Y82250
X35625Y47875
X36750Y79125
X114125Y79125
X45803Y50240
X62250Y29375
X95875Y29375
X32625Y86375
X105500Y84875
X50125Y28625
X55500Y27500
X65875Y31750
X60250Y36625
X57000Y48625
X71125Y48500
X5625Y46625
X48500Y46625
X54448Y34268
X69000Y34250
X3750Y91125
X87000Y91053
X87000Y38500
X75875Y38500
X114125Y80750
X73375Y80750
X73375Y63125
X73571Y51708
X101000Y31375
X66875Y31625
X89375Y47250
X77375Y47125
X73750Y47125
X67125Y47250
X69125Y54000
X60750Y52000
X70500Y64625
X61250Y47250
X69750Y54625
X61750Y52750
X73750Y84625
X55250Y84250
X109125Y71375
X71750Y71375
X71750Y64000
X54750Y50250
X107375Y77875
X45375Y77875
X45625Y55250
X50750Y53625
X53125Y52750
X54500Y51125
X119625Y40375
X114875Y40375
X78375Y59875
X3750Y87625
X86375Y87625
X86375Y51375
X78000Y51375
X16250Y59250
X42750Y59375
X42750Y81875
X80500Y81875
X80500Y55500
X77375Y52625
X13750Y69375
X52000Y68750
X52750Y65500
X72798Y51274
X37750Y68750
X37750Y39750
X66000Y39750
X50750Y57500
X50250Y55875
X41625Y55375
X62750Y45250
X59250Y45250
X56250Y45250
X40875Y38250
X54625Y37750
X54875Y42125
X60000Y42125
X33000Y33625
X58250Y33625
X14875Y49250
X50750Y49250
X106750Y81375
X44625Y81375
X44625Y68125
X48500Y68125
X53125Y55250
X54625Y52125
X33708Y92204
X21500Y81500
X35625Y81500
X110875Y55750
X110750Y30750
X68125Y31000
X68125Y41500
X62125Y41500
X84500Y70125
X67125Y70125
X67125Y66375
X69875Y66375
X75375Y58125
X72875Y60000
X102125Y41500
X102125Y10125
X85125Y61000
X77375Y61000
X75375Y65750
X57000Y66000
X82750Y35125
X47250Y31750
X62250Y70750
X56250Y67500
X74375Y67500
X42625Y51625
X55500Y37500
X54125Y41625
X42500Y42750
X59375Y50500
X58000Y51125
X61000Y46375
X58250Y46750
X68875Y40125
X62125Y37875
X111750Y12125
X77375Y58625
X81250Y69375
X113500Y20500
X118125Y54625
X31054Y83548
X29943Y83573
X22209Y70669
X21612Y70199
X89163Y85367
X88225Y85473
X109725Y56803
X108488Y56867
X49263Y35886
X49530Y35091
X109544Y44915
X108187Y46220
X73724Y54082
X64387Y68452
X59136Y68637
X56588Y68563
X75432Y60236
X73077Y61573
X119519Y21668
X115879Y23797
X49187Y47936
X53424Y42896
X59270Y24821
X58322Y27650
X54048Y24725
X56833Y25792
X61242Y25635
X62836Y32383
X61512Y32386
X108231Y69837
X60498Y40997
X69250Y49875
X1460Y98398
X95500Y74750
M30