G04 EAGLE Gerber RS-274X export*
G75*
%MOMM*%
%FSLAX34Y34*%
%LPD*%
%INSoldermask Bottom*%
%IPPOS*%
%AMOC8*
5,1,8,0,0,1.08239X$1,22.5*%
G01*
%ADD10C,3.601600*%
%ADD11C,1.981200*%
%ADD12C,1.320800*%
%ADD13C,1.801600*%
%ADD14C,1.701600*%
%ADD15C,1.901600*%
%ADD16R,1.981200X1.981200*%
%ADD17C,3.301600*%
%ADD18P,1.759533X8X112.500000*%
%ADD19C,2.349500*%
%ADD20R,3.101600X1.301600*%
%ADD21C,2.001600*%
%ADD22C,1.051600*%
%ADD23C,1.201600*%
%ADD24C,1.473200*%
%ADD25P,1.594577X8X112.500000*%
%ADD26P,1.594577X8X292.500000*%
%ADD27R,1.625600X4.165600*%
%ADD28C,2.851600*%
%ADD29R,1.625600X1.625600*%
%ADD30C,1.625600*%
%ADD31R,1.101600X1.201600*%
%ADD32C,1.625600*%
%ADD33R,0.736600X1.371600*%
%ADD34C,1.301600*%
%ADD35P,1.429621X8X112.500000*%


D10*
X1259500Y1028500D03*
X29500Y1028500D03*
X29500Y29500D03*
X1259500Y29500D03*
X1259500Y948500D03*
X1159500Y29500D03*
D11*
X906986Y620942D03*
X906986Y595542D03*
D12*
X834648Y624440D02*
X822456Y624440D01*
X822456Y599040D02*
X834648Y599040D01*
X834648Y573640D02*
X822456Y573640D01*
X822456Y548240D02*
X834648Y548240D01*
X834648Y522840D02*
X822456Y522840D01*
D13*
X139700Y1015376D03*
X139700Y945376D03*
X266700Y1015376D03*
X266700Y945376D03*
X393700Y1015376D03*
X393700Y945376D03*
D11*
X828424Y460555D03*
X828424Y435155D03*
X828424Y409755D03*
D14*
X1259355Y723204D03*
D15*
X1214355Y723204D03*
D13*
X774700Y1015376D03*
X774700Y945376D03*
X647700Y1015376D03*
X647700Y945376D03*
X520700Y1015376D03*
X520700Y945376D03*
X901700Y1015376D03*
X901700Y945376D03*
X1028700Y1015376D03*
X1028700Y945376D03*
X1155700Y1015376D03*
X1155700Y945376D03*
D14*
X1259355Y583504D03*
D15*
X1214355Y583504D03*
D14*
X1259355Y443804D03*
D15*
X1214355Y443804D03*
D11*
X187745Y160550D03*
X175045Y135150D03*
X162345Y160550D03*
X136945Y160550D03*
X111545Y160550D03*
X149645Y135150D03*
X124245Y135150D03*
D16*
X98845Y135150D03*
D17*
X86145Y71650D03*
X200445Y71650D03*
D18*
X1270020Y99535D03*
X1270020Y144747D03*
D19*
X1245128Y87089D03*
X1245128Y157193D03*
D20*
X358333Y286716D03*
X358333Y306716D03*
X358333Y326716D03*
X358333Y346716D03*
X358333Y366716D03*
X358333Y386716D03*
X358333Y406716D03*
X358333Y426716D03*
X522333Y286716D03*
X522333Y306716D03*
X522333Y326716D03*
X522333Y346716D03*
X522333Y366716D03*
X522333Y386716D03*
X522333Y406716D03*
X522333Y426716D03*
D21*
X37337Y750150D03*
X107337Y750150D03*
X37337Y715150D03*
X107337Y715150D03*
X37337Y680150D03*
X107337Y680150D03*
X37337Y633310D03*
X107337Y633310D03*
X37337Y598310D03*
X107337Y598310D03*
X37337Y563310D03*
X107337Y563310D03*
X819971Y37390D03*
X819971Y107390D03*
X854971Y37390D03*
X854971Y107390D03*
D22*
X1264180Y288893D02*
X1273680Y288893D01*
X1273680Y205393D02*
X1264180Y205393D01*
D23*
X1244430Y224893D02*
X1233430Y224893D01*
X1233430Y269393D02*
X1244430Y269393D01*
D24*
X965200Y379730D03*
D25*
X990600Y379730D03*
X965200Y405130D03*
X990600Y405130D03*
X965200Y430530D03*
X990600Y430530D03*
X965200Y455930D03*
X990600Y455930D03*
X965200Y481330D03*
X990600Y481330D03*
D24*
X990600Y608330D03*
D26*
X965200Y608330D03*
X990600Y582930D03*
X965200Y582930D03*
X990600Y557530D03*
X965200Y557530D03*
X990600Y532130D03*
X965200Y532130D03*
X990600Y506730D03*
X965200Y506730D03*
D27*
X1041831Y29274D03*
X1092631Y29274D03*
D28*
X753442Y225878D03*
D29*
X276142Y757178D03*
D30*
X250724Y757312D03*
X276124Y731912D03*
X250724Y731912D03*
X276124Y706512D03*
X250724Y706512D03*
X276124Y681112D03*
X250724Y681112D03*
X276124Y655712D03*
X250724Y655712D03*
X276124Y630312D03*
X250724Y630312D03*
X276124Y604912D03*
X250724Y604912D03*
X276124Y579512D03*
X250724Y579512D03*
X276124Y554112D03*
X250724Y554112D03*
X276124Y528712D03*
X250724Y528712D03*
X276124Y503312D03*
X250724Y503312D03*
X276124Y477912D03*
X250724Y477912D03*
X276124Y452512D03*
X250724Y452512D03*
X276124Y427112D03*
X250724Y427112D03*
X276124Y401712D03*
X250724Y401712D03*
X276124Y376312D03*
X250724Y376312D03*
X276124Y350912D03*
X250724Y350912D03*
X276124Y325512D03*
X250724Y325512D03*
X276124Y300112D03*
X250724Y300112D03*
X276124Y274712D03*
X250724Y274712D03*
D21*
X37337Y517030D03*
X107337Y517030D03*
X37337Y482030D03*
X107337Y482030D03*
X37337Y447030D03*
X107337Y447030D03*
X37337Y400190D03*
X107337Y400190D03*
X37337Y365190D03*
X107337Y365190D03*
X37337Y330190D03*
X107337Y330190D03*
X37337Y283350D03*
X107337Y283350D03*
X37337Y248350D03*
X107337Y248350D03*
X37337Y213350D03*
X107337Y213350D03*
D31*
X556650Y386080D03*
X573650Y386080D03*
D11*
X609600Y274320D03*
X635000Y274320D03*
D32*
X557530Y231140D02*
X557530Y215900D01*
X582930Y215900D02*
X582930Y231140D01*
X608330Y231140D02*
X608330Y215900D01*
X633730Y215900D02*
X633730Y231140D01*
X659130Y231140D02*
X659130Y215900D01*
X684530Y215900D02*
X684530Y231140D01*
D31*
X556650Y406400D03*
X573650Y406400D03*
X684530Y279010D03*
X684530Y262010D03*
D21*
X912420Y37390D03*
X912420Y107390D03*
X947420Y37390D03*
X947420Y107390D03*
X982420Y37390D03*
X982420Y107390D03*
D33*
X558220Y287020D03*
X549220Y287020D03*
X549220Y307340D03*
X558220Y307340D03*
D34*
X813150Y323850D02*
X825150Y323850D01*
X1208150Y323850D02*
X1220150Y323850D01*
X825150Y148850D02*
X813150Y148850D01*
X1208150Y148850D02*
X1220150Y148850D01*
D35*
X193040Y854710D03*
X193040Y930910D03*
X316230Y855153D03*
X316230Y931353D03*
X444500Y854710D03*
X444500Y930910D03*
X572770Y854710D03*
X572770Y930910D03*
X701040Y854710D03*
X701040Y930910D03*
X828040Y854710D03*
X828040Y930910D03*
X955040Y854710D03*
X955040Y930910D03*
X1079500Y855980D03*
X1079500Y932180D03*
X1206500Y855980D03*
X1206500Y932180D03*
M02*
