G04 EAGLE Gerber RS-274X export*
G75*
%MOMM*%
%FSLAX34Y34*%
%LPD*%
%INSolderpaste Top*%
%IPPOS*%
%AMOC8*
5,1,8,0,0,1.08239X$1,22.5*%
G01*
%ADD10R,1.000000X2.100000*%
%ADD11R,3.700000X2.100000*%
%ADD12R,1.600000X2.700000*%
%ADD13R,2.700000X1.600000*%
%ADD14R,1.000000X1.100000*%
%ADD15R,1.100000X1.000000*%
%ADD16R,2.800000X2.200000*%
%ADD17R,2.800000X2.800000*%
%ADD18R,1.900000X1.400000*%
%ADD19R,1.200000X1.200000*%
%ADD20R,2.400000X2.000000*%
%ADD21R,1.500000X0.270000*%
%ADD22R,0.270000X1.500000*%
%ADD23R,1.300000X1.900000*%
%ADD24R,3.000000X1.500000*%
%ADD25R,1.350000X0.400000*%
%ADD26R,1.778000X1.270000*%
%ADD27R,1.270000X0.558800*%
%ADD28R,1.092200X2.006600*%

G36*
X804377Y255385D02*
X804377Y255385D01*
X804378Y255384D01*
X804660Y255406D01*
X804664Y255410D01*
X804668Y255407D01*
X804942Y255473D01*
X804945Y255477D01*
X804949Y255475D01*
X805210Y255583D01*
X805213Y255588D01*
X805217Y255587D01*
X805458Y255735D01*
X805460Y255740D01*
X805464Y255739D01*
X805679Y255922D01*
X805680Y255928D01*
X805685Y255928D01*
X805868Y256143D01*
X805868Y256149D01*
X805872Y256149D01*
X806020Y256390D01*
X806020Y256396D01*
X806024Y256397D01*
X806132Y256658D01*
X806130Y256664D01*
X806134Y256665D01*
X806200Y256939D01*
X806198Y256944D01*
X806200Y256946D01*
X806201Y256947D01*
X806223Y257229D01*
X806222Y257232D01*
X806223Y257233D01*
X806201Y261015D01*
X806196Y261022D01*
X806200Y261026D01*
X806134Y261300D01*
X806130Y261304D01*
X806132Y261308D01*
X806024Y261569D01*
X806019Y261572D01*
X806020Y261576D01*
X805872Y261817D01*
X805867Y261819D01*
X805868Y261823D01*
X805685Y262038D01*
X805679Y262039D01*
X805679Y262043D01*
X805464Y262226D01*
X805458Y262227D01*
X805458Y262231D01*
X805217Y262379D01*
X805211Y262378D01*
X805210Y262382D01*
X804949Y262490D01*
X804943Y262489D01*
X804942Y262493D01*
X804668Y262559D01*
X804662Y262556D01*
X804660Y262560D01*
X804378Y262582D01*
X804376Y262580D01*
X804374Y262582D01*
X798374Y262582D01*
X798372Y262580D01*
X798370Y262582D01*
X798088Y262560D01*
X798084Y262556D01*
X798081Y262559D01*
X797807Y262493D01*
X797803Y262488D01*
X797799Y262490D01*
X797538Y262382D01*
X797535Y262377D01*
X797531Y262379D01*
X797290Y262231D01*
X797288Y262225D01*
X797284Y262226D01*
X797069Y262043D01*
X797068Y262037D01*
X797064Y262038D01*
X796881Y261823D01*
X796880Y261817D01*
X796876Y261817D01*
X796728Y261576D01*
X796729Y261570D01*
X796725Y261569D01*
X796617Y261308D01*
X796617Y261307D01*
X796617Y261306D01*
X796618Y261302D01*
X796614Y261300D01*
X796548Y261026D01*
X796551Y261021D01*
X796547Y261019D01*
X796525Y260737D01*
X796527Y260734D01*
X796525Y260732D01*
X796547Y256950D01*
X796552Y256944D01*
X796548Y256939D01*
X796614Y256665D01*
X796619Y256662D01*
X796617Y256658D01*
X796725Y256397D01*
X796730Y256394D01*
X796728Y256390D01*
X796876Y256149D01*
X796882Y256147D01*
X796881Y256143D01*
X797064Y255928D01*
X797070Y255927D01*
X797069Y255922D01*
X797284Y255739D01*
X797290Y255739D01*
X797290Y255735D01*
X797531Y255587D01*
X797537Y255587D01*
X797538Y255583D01*
X797799Y255475D01*
X797805Y255477D01*
X797807Y255473D01*
X798081Y255407D01*
X798086Y255409D01*
X798088Y255406D01*
X798370Y255384D01*
X798373Y255385D01*
X798374Y255383D01*
X804374Y255383D01*
X804377Y255385D01*
G37*
G36*
X835623Y307148D02*
X835623Y307148D01*
X835624Y307146D01*
X835906Y307168D01*
X835911Y307172D01*
X835914Y307169D01*
X836188Y307235D01*
X836192Y307240D01*
X836195Y307238D01*
X836456Y307346D01*
X836459Y307351D01*
X836463Y307349D01*
X836704Y307497D01*
X836706Y307503D01*
X836710Y307502D01*
X836925Y307685D01*
X836927Y307691D01*
X836931Y307690D01*
X837114Y307905D01*
X837114Y307911D01*
X837118Y307912D01*
X837266Y308153D01*
X837266Y308158D01*
X837270Y308159D01*
X837378Y308420D01*
X837376Y308426D01*
X837380Y308428D01*
X837446Y308702D01*
X837444Y308707D01*
X837446Y308709D01*
X837447Y308709D01*
X837469Y308991D01*
X837468Y308994D01*
X837470Y308996D01*
X837448Y312778D01*
X837442Y312784D01*
X837446Y312789D01*
X837380Y313063D01*
X837376Y313067D01*
X837378Y313070D01*
X837270Y313331D01*
X837265Y313334D01*
X837266Y313338D01*
X837118Y313579D01*
X837113Y313581D01*
X837114Y313585D01*
X836931Y313800D01*
X836925Y313802D01*
X836925Y313806D01*
X836710Y313989D01*
X836705Y313989D01*
X836704Y313993D01*
X836463Y314141D01*
X836457Y314141D01*
X836456Y314145D01*
X836195Y314253D01*
X836190Y314251D01*
X836188Y314255D01*
X835914Y314321D01*
X835908Y314319D01*
X835906Y314322D01*
X835624Y314344D01*
X835622Y314343D01*
X835620Y314345D01*
X829620Y314345D01*
X829618Y314343D01*
X829617Y314344D01*
X829335Y314322D01*
X829330Y314318D01*
X829327Y314321D01*
X829053Y314255D01*
X829049Y314251D01*
X829046Y314253D01*
X828785Y314145D01*
X828782Y314140D01*
X828778Y314141D01*
X828537Y313993D01*
X828534Y313988D01*
X828530Y313989D01*
X828315Y313806D01*
X828314Y313800D01*
X828310Y313800D01*
X828127Y313585D01*
X828127Y313579D01*
X828122Y313579D01*
X827974Y313338D01*
X827975Y313332D01*
X827971Y313331D01*
X827863Y313070D01*
X827863Y313069D01*
X827864Y313065D01*
X827860Y313063D01*
X827794Y312789D01*
X827797Y312783D01*
X827793Y312781D01*
X827771Y312499D01*
X827773Y312496D01*
X827771Y312495D01*
X827793Y308713D01*
X827798Y308706D01*
X827794Y308702D01*
X827860Y308428D01*
X827865Y308424D01*
X827863Y308420D01*
X827971Y308159D01*
X827976Y308156D01*
X827974Y308153D01*
X828122Y307912D01*
X828128Y307909D01*
X828127Y307905D01*
X828310Y307690D01*
X828316Y307689D01*
X828315Y307685D01*
X828530Y307502D01*
X828536Y307501D01*
X828537Y307497D01*
X828778Y307349D01*
X828783Y307350D01*
X828785Y307346D01*
X829046Y307238D01*
X829051Y307239D01*
X829053Y307235D01*
X829327Y307169D01*
X829332Y307172D01*
X829335Y307168D01*
X829617Y307146D01*
X829619Y307148D01*
X829620Y307146D01*
X835620Y307146D01*
X835623Y307148D01*
G37*
G36*
X857123Y297648D02*
X857123Y297648D01*
X857124Y297646D01*
X857406Y297668D01*
X857411Y297672D01*
X857414Y297669D01*
X857688Y297735D01*
X857692Y297740D01*
X857695Y297738D01*
X857956Y297846D01*
X857959Y297851D01*
X857963Y297849D01*
X858204Y297997D01*
X858206Y298003D01*
X858210Y298002D01*
X858425Y298185D01*
X858427Y298191D01*
X858431Y298190D01*
X858614Y298405D01*
X858614Y298411D01*
X858618Y298412D01*
X858766Y298653D01*
X858766Y298658D01*
X858770Y298659D01*
X858878Y298920D01*
X858876Y298926D01*
X858880Y298928D01*
X858946Y299202D01*
X858944Y299207D01*
X858946Y299209D01*
X858947Y299209D01*
X858969Y299491D01*
X858968Y299494D01*
X858970Y299496D01*
X858948Y303278D01*
X858942Y303284D01*
X858946Y303289D01*
X858880Y303563D01*
X858876Y303567D01*
X858878Y303570D01*
X858770Y303831D01*
X858765Y303834D01*
X858766Y303838D01*
X858618Y304079D01*
X858613Y304081D01*
X858614Y304085D01*
X858431Y304300D01*
X858425Y304302D01*
X858425Y304306D01*
X858210Y304489D01*
X858205Y304489D01*
X858204Y304493D01*
X857963Y304641D01*
X857957Y304641D01*
X857956Y304645D01*
X857695Y304753D01*
X857690Y304751D01*
X857688Y304755D01*
X857414Y304821D01*
X857408Y304819D01*
X857406Y304822D01*
X857124Y304844D01*
X857122Y304843D01*
X857120Y304845D01*
X851120Y304845D01*
X851118Y304843D01*
X851117Y304844D01*
X850835Y304822D01*
X850830Y304818D01*
X850827Y304821D01*
X850553Y304755D01*
X850549Y304751D01*
X850546Y304753D01*
X850285Y304645D01*
X850282Y304640D01*
X850278Y304641D01*
X850037Y304493D01*
X850034Y304488D01*
X850030Y304489D01*
X849815Y304306D01*
X849814Y304300D01*
X849810Y304300D01*
X849627Y304085D01*
X849627Y304079D01*
X849622Y304079D01*
X849474Y303838D01*
X849475Y303832D01*
X849471Y303831D01*
X849363Y303570D01*
X849363Y303569D01*
X849364Y303565D01*
X849360Y303563D01*
X849294Y303289D01*
X849297Y303283D01*
X849293Y303281D01*
X849271Y302999D01*
X849273Y302996D01*
X849271Y302995D01*
X849293Y299213D01*
X849298Y299206D01*
X849294Y299202D01*
X849360Y298928D01*
X849365Y298924D01*
X849363Y298920D01*
X849471Y298659D01*
X849476Y298656D01*
X849474Y298653D01*
X849622Y298412D01*
X849628Y298409D01*
X849627Y298405D01*
X849810Y298190D01*
X849816Y298189D01*
X849815Y298185D01*
X850030Y298002D01*
X850036Y298001D01*
X850037Y297997D01*
X850278Y297849D01*
X850283Y297850D01*
X850285Y297846D01*
X850546Y297738D01*
X850551Y297739D01*
X850553Y297735D01*
X850827Y297669D01*
X850832Y297672D01*
X850835Y297668D01*
X851117Y297646D01*
X851119Y297648D01*
X851120Y297646D01*
X857120Y297646D01*
X857123Y297648D01*
G37*
G36*
X804377Y274385D02*
X804377Y274385D01*
X804378Y274384D01*
X804660Y274406D01*
X804664Y274410D01*
X804668Y274407D01*
X804942Y274473D01*
X804945Y274477D01*
X804949Y274475D01*
X805210Y274583D01*
X805213Y274588D01*
X805217Y274587D01*
X805458Y274735D01*
X805460Y274740D01*
X805464Y274739D01*
X805679Y274922D01*
X805680Y274928D01*
X805685Y274928D01*
X805868Y275143D01*
X805868Y275149D01*
X805872Y275149D01*
X806020Y275390D01*
X806020Y275396D01*
X806024Y275397D01*
X806132Y275658D01*
X806130Y275664D01*
X806134Y275665D01*
X806200Y275939D01*
X806198Y275944D01*
X806200Y275946D01*
X806201Y275947D01*
X806223Y276229D01*
X806222Y276232D01*
X806223Y276233D01*
X806201Y280015D01*
X806196Y280022D01*
X806200Y280026D01*
X806134Y280300D01*
X806130Y280304D01*
X806132Y280308D01*
X806024Y280569D01*
X806019Y280572D01*
X806020Y280576D01*
X805872Y280817D01*
X805867Y280819D01*
X805868Y280823D01*
X805685Y281038D01*
X805679Y281039D01*
X805679Y281043D01*
X805464Y281226D01*
X805458Y281227D01*
X805458Y281231D01*
X805217Y281379D01*
X805211Y281378D01*
X805210Y281382D01*
X804949Y281490D01*
X804943Y281489D01*
X804942Y281493D01*
X804668Y281559D01*
X804662Y281556D01*
X804660Y281560D01*
X804378Y281582D01*
X804376Y281580D01*
X804374Y281582D01*
X798374Y281582D01*
X798372Y281580D01*
X798370Y281582D01*
X798088Y281560D01*
X798084Y281556D01*
X798081Y281559D01*
X797807Y281493D01*
X797803Y281488D01*
X797799Y281490D01*
X797538Y281382D01*
X797535Y281377D01*
X797531Y281379D01*
X797290Y281231D01*
X797288Y281225D01*
X797284Y281226D01*
X797069Y281043D01*
X797068Y281037D01*
X797064Y281038D01*
X796881Y280823D01*
X796880Y280817D01*
X796876Y280817D01*
X796728Y280576D01*
X796729Y280570D01*
X796725Y280569D01*
X796617Y280308D01*
X796617Y280307D01*
X796617Y280306D01*
X796618Y280302D01*
X796614Y280300D01*
X796548Y280026D01*
X796551Y280021D01*
X796547Y280019D01*
X796525Y279737D01*
X796527Y279734D01*
X796525Y279732D01*
X796547Y275950D01*
X796552Y275944D01*
X796548Y275939D01*
X796614Y275665D01*
X796619Y275662D01*
X796617Y275658D01*
X796725Y275397D01*
X796730Y275394D01*
X796728Y275390D01*
X796876Y275149D01*
X796882Y275147D01*
X796881Y275143D01*
X797064Y274928D01*
X797070Y274927D01*
X797069Y274922D01*
X797284Y274739D01*
X797290Y274739D01*
X797290Y274735D01*
X797531Y274587D01*
X797537Y274587D01*
X797538Y274583D01*
X797799Y274475D01*
X797805Y274477D01*
X797807Y274473D01*
X798081Y274407D01*
X798086Y274409D01*
X798088Y274406D01*
X798370Y274384D01*
X798373Y274385D01*
X798374Y274383D01*
X804374Y274383D01*
X804377Y274385D01*
G37*
G36*
X825877Y264885D02*
X825877Y264885D01*
X825878Y264884D01*
X826160Y264906D01*
X826164Y264910D01*
X826168Y264907D01*
X826442Y264973D01*
X826445Y264977D01*
X826449Y264975D01*
X826710Y265083D01*
X826713Y265088D01*
X826717Y265087D01*
X826958Y265235D01*
X826960Y265240D01*
X826964Y265239D01*
X827179Y265422D01*
X827180Y265428D01*
X827185Y265428D01*
X827368Y265643D01*
X827368Y265649D01*
X827372Y265649D01*
X827520Y265890D01*
X827520Y265896D01*
X827524Y265897D01*
X827632Y266158D01*
X827630Y266164D01*
X827634Y266165D01*
X827700Y266439D01*
X827698Y266444D01*
X827700Y266446D01*
X827701Y266447D01*
X827723Y266729D01*
X827722Y266732D01*
X827723Y266733D01*
X827701Y270515D01*
X827696Y270522D01*
X827700Y270526D01*
X827634Y270800D01*
X827630Y270804D01*
X827632Y270808D01*
X827524Y271069D01*
X827519Y271072D01*
X827520Y271076D01*
X827372Y271317D01*
X827367Y271319D01*
X827368Y271323D01*
X827185Y271538D01*
X827179Y271539D01*
X827179Y271543D01*
X826964Y271726D01*
X826958Y271727D01*
X826958Y271731D01*
X826717Y271879D01*
X826711Y271878D01*
X826710Y271882D01*
X826449Y271990D01*
X826443Y271989D01*
X826442Y271993D01*
X826168Y272059D01*
X826162Y272056D01*
X826160Y272060D01*
X825878Y272082D01*
X825876Y272080D01*
X825874Y272082D01*
X819874Y272082D01*
X819872Y272080D01*
X819870Y272082D01*
X819588Y272060D01*
X819584Y272056D01*
X819581Y272059D01*
X819307Y271993D01*
X819303Y271988D01*
X819299Y271990D01*
X819038Y271882D01*
X819035Y271877D01*
X819031Y271879D01*
X818790Y271731D01*
X818788Y271725D01*
X818784Y271726D01*
X818569Y271543D01*
X818568Y271537D01*
X818564Y271538D01*
X818381Y271323D01*
X818380Y271317D01*
X818376Y271317D01*
X818228Y271076D01*
X818229Y271070D01*
X818225Y271069D01*
X818117Y270808D01*
X818117Y270807D01*
X818117Y270806D01*
X818118Y270802D01*
X818114Y270800D01*
X818048Y270526D01*
X818051Y270521D01*
X818047Y270519D01*
X818025Y270237D01*
X818027Y270234D01*
X818025Y270232D01*
X818047Y266450D01*
X818052Y266444D01*
X818048Y266439D01*
X818114Y266165D01*
X818119Y266162D01*
X818117Y266158D01*
X818225Y265897D01*
X818230Y265894D01*
X818228Y265890D01*
X818376Y265649D01*
X818382Y265647D01*
X818381Y265643D01*
X818564Y265428D01*
X818570Y265427D01*
X818569Y265422D01*
X818784Y265239D01*
X818790Y265239D01*
X818790Y265235D01*
X819031Y265087D01*
X819037Y265087D01*
X819038Y265083D01*
X819299Y264975D01*
X819305Y264977D01*
X819307Y264973D01*
X819581Y264907D01*
X819586Y264909D01*
X819588Y264906D01*
X819870Y264884D01*
X819873Y264885D01*
X819874Y264883D01*
X825874Y264883D01*
X825877Y264885D01*
G37*
G36*
X857123Y316648D02*
X857123Y316648D01*
X857124Y316646D01*
X857406Y316668D01*
X857411Y316672D01*
X857414Y316669D01*
X857688Y316735D01*
X857692Y316740D01*
X857695Y316738D01*
X857956Y316846D01*
X857959Y316851D01*
X857963Y316849D01*
X858204Y316997D01*
X858206Y317003D01*
X858210Y317002D01*
X858425Y317185D01*
X858427Y317191D01*
X858431Y317190D01*
X858614Y317405D01*
X858614Y317411D01*
X858618Y317412D01*
X858766Y317653D01*
X858766Y317658D01*
X858770Y317659D01*
X858878Y317920D01*
X858876Y317926D01*
X858880Y317928D01*
X858946Y318202D01*
X858944Y318207D01*
X858946Y318209D01*
X858947Y318209D01*
X858969Y318491D01*
X858968Y318494D01*
X858970Y318496D01*
X858948Y322278D01*
X858942Y322284D01*
X858946Y322289D01*
X858880Y322563D01*
X858876Y322567D01*
X858878Y322570D01*
X858770Y322831D01*
X858765Y322834D01*
X858766Y322838D01*
X858618Y323079D01*
X858613Y323081D01*
X858614Y323085D01*
X858431Y323300D01*
X858425Y323302D01*
X858425Y323306D01*
X858210Y323489D01*
X858205Y323489D01*
X858204Y323493D01*
X857963Y323641D01*
X857957Y323641D01*
X857956Y323645D01*
X857695Y323753D01*
X857690Y323751D01*
X857688Y323755D01*
X857414Y323821D01*
X857408Y323819D01*
X857406Y323822D01*
X857124Y323844D01*
X857122Y323843D01*
X857120Y323845D01*
X851120Y323845D01*
X851118Y323843D01*
X851117Y323844D01*
X850835Y323822D01*
X850830Y323818D01*
X850827Y323821D01*
X850553Y323755D01*
X850549Y323751D01*
X850546Y323753D01*
X850285Y323645D01*
X850282Y323640D01*
X850278Y323641D01*
X850037Y323493D01*
X850034Y323488D01*
X850030Y323489D01*
X849815Y323306D01*
X849814Y323300D01*
X849810Y323300D01*
X849627Y323085D01*
X849627Y323079D01*
X849622Y323079D01*
X849474Y322838D01*
X849475Y322832D01*
X849471Y322831D01*
X849363Y322570D01*
X849363Y322569D01*
X849364Y322565D01*
X849360Y322563D01*
X849294Y322289D01*
X849297Y322283D01*
X849293Y322281D01*
X849271Y321999D01*
X849273Y321996D01*
X849271Y321995D01*
X849293Y318213D01*
X849298Y318206D01*
X849294Y318202D01*
X849360Y317928D01*
X849365Y317924D01*
X849363Y317920D01*
X849471Y317659D01*
X849476Y317656D01*
X849474Y317653D01*
X849622Y317412D01*
X849628Y317409D01*
X849627Y317405D01*
X849810Y317190D01*
X849816Y317189D01*
X849815Y317185D01*
X850030Y317002D01*
X850036Y317001D01*
X850037Y316997D01*
X850278Y316849D01*
X850283Y316850D01*
X850285Y316846D01*
X850546Y316738D01*
X850551Y316739D01*
X850553Y316735D01*
X850827Y316669D01*
X850832Y316672D01*
X850835Y316668D01*
X851117Y316646D01*
X851119Y316648D01*
X851120Y316646D01*
X857120Y316646D01*
X857123Y316648D01*
G37*
G36*
X817411Y233578D02*
X817411Y233578D01*
X817413Y233576D01*
X817695Y233598D01*
X817699Y233602D01*
X817702Y233599D01*
X817976Y233665D01*
X817980Y233670D01*
X817984Y233668D01*
X818245Y233776D01*
X818248Y233781D01*
X818251Y233779D01*
X818492Y233927D01*
X818495Y233933D01*
X818499Y233932D01*
X818714Y234115D01*
X818715Y234121D01*
X818719Y234120D01*
X818902Y234335D01*
X818903Y234341D01*
X818907Y234341D01*
X819055Y234582D01*
X819054Y234588D01*
X819058Y234589D01*
X819166Y234850D01*
X819165Y234856D01*
X819169Y234858D01*
X819235Y235132D01*
X819232Y235137D01*
X819235Y235139D01*
X819236Y235139D01*
X819258Y235421D01*
X819256Y235424D01*
X819258Y235426D01*
X819236Y239208D01*
X819231Y239214D01*
X819235Y239219D01*
X819169Y239493D01*
X819164Y239496D01*
X819166Y239500D01*
X819058Y239761D01*
X819053Y239764D01*
X819055Y239768D01*
X818907Y240009D01*
X818901Y240011D01*
X818902Y240015D01*
X818719Y240230D01*
X818713Y240231D01*
X818714Y240236D01*
X818499Y240419D01*
X818493Y240419D01*
X818492Y240423D01*
X818251Y240571D01*
X818246Y240571D01*
X818245Y240575D01*
X817984Y240683D01*
X817978Y240681D01*
X817976Y240685D01*
X817702Y240751D01*
X817697Y240749D01*
X817695Y240752D01*
X817413Y240774D01*
X817410Y240773D01*
X817409Y240775D01*
X811409Y240775D01*
X811406Y240773D01*
X811405Y240774D01*
X811123Y240752D01*
X811118Y240748D01*
X811115Y240751D01*
X810841Y240685D01*
X810837Y240681D01*
X810834Y240683D01*
X810573Y240575D01*
X810570Y240570D01*
X810566Y240571D01*
X810325Y240423D01*
X810323Y240418D01*
X810319Y240419D01*
X810104Y240236D01*
X810102Y240230D01*
X810098Y240230D01*
X809915Y240015D01*
X809915Y240009D01*
X809911Y240009D01*
X809763Y239768D01*
X809763Y239762D01*
X809759Y239761D01*
X809651Y239500D01*
X809651Y239499D01*
X809653Y239494D01*
X809649Y239493D01*
X809583Y239219D01*
X809585Y239213D01*
X809582Y239211D01*
X809560Y238929D01*
X809561Y238926D01*
X809559Y238925D01*
X809581Y235143D01*
X809587Y235136D01*
X809583Y235132D01*
X809649Y234858D01*
X809653Y234854D01*
X809651Y234850D01*
X809759Y234589D01*
X809764Y234586D01*
X809763Y234582D01*
X809911Y234341D01*
X809916Y234339D01*
X809915Y234335D01*
X810098Y234120D01*
X810104Y234119D01*
X810104Y234115D01*
X810319Y233932D01*
X810325Y233931D01*
X810325Y233927D01*
X810566Y233779D01*
X810572Y233780D01*
X810573Y233776D01*
X810834Y233668D01*
X810839Y233669D01*
X810841Y233665D01*
X811115Y233599D01*
X811121Y233602D01*
X811123Y233598D01*
X811405Y233576D01*
X811407Y233578D01*
X811409Y233576D01*
X817409Y233576D01*
X817411Y233578D01*
G37*
G36*
X838911Y224078D02*
X838911Y224078D01*
X838913Y224076D01*
X839195Y224098D01*
X839199Y224102D01*
X839202Y224099D01*
X839476Y224165D01*
X839480Y224170D01*
X839484Y224168D01*
X839745Y224276D01*
X839748Y224281D01*
X839751Y224279D01*
X839992Y224427D01*
X839995Y224433D01*
X839999Y224432D01*
X840214Y224615D01*
X840215Y224621D01*
X840219Y224620D01*
X840402Y224835D01*
X840403Y224841D01*
X840407Y224841D01*
X840555Y225082D01*
X840554Y225088D01*
X840558Y225089D01*
X840666Y225350D01*
X840665Y225356D01*
X840669Y225358D01*
X840735Y225632D01*
X840732Y225637D01*
X840735Y225639D01*
X840736Y225639D01*
X840758Y225921D01*
X840756Y225924D01*
X840758Y225926D01*
X840736Y229708D01*
X840731Y229714D01*
X840735Y229719D01*
X840669Y229993D01*
X840664Y229996D01*
X840666Y230000D01*
X840558Y230261D01*
X840553Y230264D01*
X840555Y230268D01*
X840407Y230509D01*
X840401Y230511D01*
X840402Y230515D01*
X840219Y230730D01*
X840213Y230731D01*
X840214Y230736D01*
X839999Y230919D01*
X839993Y230919D01*
X839992Y230923D01*
X839751Y231071D01*
X839746Y231071D01*
X839745Y231075D01*
X839484Y231183D01*
X839478Y231181D01*
X839476Y231185D01*
X839202Y231251D01*
X839197Y231249D01*
X839195Y231252D01*
X838913Y231274D01*
X838910Y231273D01*
X838909Y231275D01*
X832909Y231275D01*
X832906Y231273D01*
X832905Y231274D01*
X832623Y231252D01*
X832618Y231248D01*
X832615Y231251D01*
X832341Y231185D01*
X832337Y231181D01*
X832334Y231183D01*
X832073Y231075D01*
X832070Y231070D01*
X832066Y231071D01*
X831825Y230923D01*
X831823Y230918D01*
X831819Y230919D01*
X831604Y230736D01*
X831602Y230730D01*
X831598Y230730D01*
X831415Y230515D01*
X831415Y230509D01*
X831411Y230509D01*
X831263Y230268D01*
X831263Y230262D01*
X831259Y230261D01*
X831151Y230000D01*
X831151Y229999D01*
X831153Y229994D01*
X831149Y229993D01*
X831083Y229719D01*
X831085Y229713D01*
X831082Y229711D01*
X831060Y229429D01*
X831061Y229426D01*
X831059Y229425D01*
X831081Y225643D01*
X831087Y225636D01*
X831083Y225632D01*
X831149Y225358D01*
X831153Y225354D01*
X831151Y225350D01*
X831259Y225089D01*
X831264Y225086D01*
X831263Y225082D01*
X831411Y224841D01*
X831416Y224839D01*
X831415Y224835D01*
X831598Y224620D01*
X831604Y224619D01*
X831604Y224615D01*
X831819Y224432D01*
X831825Y224431D01*
X831825Y224427D01*
X832066Y224279D01*
X832072Y224280D01*
X832073Y224276D01*
X832334Y224168D01*
X832339Y224169D01*
X832341Y224165D01*
X832615Y224099D01*
X832621Y224102D01*
X832623Y224098D01*
X832905Y224076D01*
X832907Y224078D01*
X832909Y224076D01*
X838909Y224076D01*
X838911Y224078D01*
G37*
G36*
X817411Y214578D02*
X817411Y214578D01*
X817413Y214576D01*
X817695Y214598D01*
X817699Y214602D01*
X817702Y214599D01*
X817976Y214665D01*
X817980Y214670D01*
X817984Y214668D01*
X818245Y214776D01*
X818248Y214781D01*
X818251Y214779D01*
X818492Y214927D01*
X818495Y214933D01*
X818499Y214932D01*
X818714Y215115D01*
X818715Y215121D01*
X818719Y215120D01*
X818902Y215335D01*
X818903Y215341D01*
X818907Y215341D01*
X819055Y215582D01*
X819054Y215588D01*
X819058Y215589D01*
X819166Y215850D01*
X819165Y215856D01*
X819169Y215858D01*
X819235Y216132D01*
X819232Y216137D01*
X819235Y216139D01*
X819236Y216139D01*
X819258Y216421D01*
X819256Y216424D01*
X819258Y216426D01*
X819236Y220208D01*
X819231Y220214D01*
X819235Y220219D01*
X819169Y220493D01*
X819164Y220496D01*
X819166Y220500D01*
X819058Y220761D01*
X819053Y220764D01*
X819055Y220768D01*
X818907Y221009D01*
X818901Y221011D01*
X818902Y221015D01*
X818719Y221230D01*
X818713Y221231D01*
X818714Y221236D01*
X818499Y221419D01*
X818493Y221419D01*
X818492Y221423D01*
X818251Y221571D01*
X818246Y221571D01*
X818245Y221575D01*
X817984Y221683D01*
X817978Y221681D01*
X817976Y221685D01*
X817702Y221751D01*
X817697Y221749D01*
X817695Y221752D01*
X817413Y221774D01*
X817410Y221773D01*
X817409Y221775D01*
X811409Y221775D01*
X811406Y221773D01*
X811405Y221774D01*
X811123Y221752D01*
X811118Y221748D01*
X811115Y221751D01*
X810841Y221685D01*
X810837Y221681D01*
X810834Y221683D01*
X810573Y221575D01*
X810570Y221570D01*
X810566Y221571D01*
X810325Y221423D01*
X810323Y221418D01*
X810319Y221419D01*
X810104Y221236D01*
X810102Y221230D01*
X810098Y221230D01*
X809915Y221015D01*
X809915Y221009D01*
X809911Y221009D01*
X809763Y220768D01*
X809763Y220762D01*
X809759Y220761D01*
X809651Y220500D01*
X809651Y220499D01*
X809653Y220494D01*
X809649Y220493D01*
X809583Y220219D01*
X809585Y220213D01*
X809582Y220211D01*
X809560Y219929D01*
X809561Y219926D01*
X809559Y219925D01*
X809581Y216143D01*
X809587Y216136D01*
X809583Y216132D01*
X809649Y215858D01*
X809653Y215854D01*
X809651Y215850D01*
X809759Y215589D01*
X809764Y215586D01*
X809763Y215582D01*
X809911Y215341D01*
X809916Y215339D01*
X809915Y215335D01*
X810098Y215120D01*
X810104Y215119D01*
X810104Y215115D01*
X810319Y214932D01*
X810325Y214931D01*
X810325Y214927D01*
X810566Y214779D01*
X810572Y214780D01*
X810573Y214776D01*
X810834Y214668D01*
X810839Y214669D01*
X810841Y214665D01*
X811115Y214599D01*
X811121Y214602D01*
X811123Y214598D01*
X811405Y214576D01*
X811407Y214578D01*
X811409Y214576D01*
X817409Y214576D01*
X817411Y214578D01*
G37*
D10*
X1146725Y252531D03*
X1169725Y252531D03*
X1192725Y252531D03*
D11*
X1169725Y314531D03*
D12*
X1176545Y211719D03*
X1148545Y211719D03*
D13*
X621261Y364506D03*
X621261Y392506D03*
D14*
X520874Y526420D03*
X520874Y509420D03*
D15*
X677392Y453382D03*
X694392Y453382D03*
D14*
X743930Y608951D03*
X743930Y625951D03*
D15*
X590482Y673761D03*
X573482Y673761D03*
D14*
X621239Y685104D03*
X638239Y685104D03*
X480802Y479300D03*
X480802Y496300D03*
D16*
X103700Y1026376D03*
X175700Y1006376D03*
D17*
X103700Y930376D03*
X146700Y893376D03*
D15*
X192718Y883669D03*
X192718Y900669D03*
X158124Y854526D03*
X158124Y837526D03*
D14*
X157854Y788894D03*
X157854Y805894D03*
D16*
X230700Y1026376D03*
X302700Y1006376D03*
D17*
X230700Y930376D03*
X273700Y893376D03*
D15*
X317070Y885196D03*
X317070Y902196D03*
X283632Y854698D03*
X283632Y837698D03*
X300187Y811586D03*
X283187Y811586D03*
D16*
X357700Y1026376D03*
X429700Y1006376D03*
D17*
X357700Y930376D03*
X400700Y893376D03*
D15*
X445214Y882675D03*
X445214Y899675D03*
X415880Y855059D03*
X415880Y838059D03*
D14*
X416313Y815105D03*
X416313Y798105D03*
X1117732Y667154D03*
X1100732Y667154D03*
X1081954Y683400D03*
X1081954Y666400D03*
D15*
X1123900Y703286D03*
X1123900Y720286D03*
D14*
X1149960Y666968D03*
X1132960Y666968D03*
X592078Y438512D03*
X609078Y438512D03*
D15*
X591610Y389076D03*
X591610Y406076D03*
D14*
X573581Y431348D03*
X573581Y448348D03*
D12*
X397526Y483364D03*
X425526Y483364D03*
D18*
X487373Y564863D03*
X443373Y564863D03*
X443373Y540863D03*
X487373Y540863D03*
D15*
X416138Y564726D03*
X399138Y564726D03*
X416141Y540440D03*
X399141Y540440D03*
D14*
X745809Y540887D03*
X745809Y523887D03*
X660309Y417919D03*
X643309Y417919D03*
D15*
X754097Y480774D03*
X754097Y497774D03*
D19*
X16170Y887730D03*
X37170Y887730D03*
D20*
X1259355Y668204D03*
X1197355Y668204D03*
X1197355Y778204D03*
X1259355Y778204D03*
D16*
X738700Y1026376D03*
X810700Y1006376D03*
D17*
X738700Y930376D03*
X781700Y893376D03*
D16*
X611700Y1026376D03*
X683700Y1006376D03*
D17*
X611700Y930376D03*
X654700Y893376D03*
D16*
X484700Y1026376D03*
X556700Y1006376D03*
D17*
X484700Y930376D03*
X527700Y893376D03*
D16*
X865700Y1026376D03*
X937700Y1006376D03*
D17*
X865700Y930376D03*
X908700Y893376D03*
D16*
X992700Y1026376D03*
X1064700Y1006376D03*
D17*
X992700Y930376D03*
X1035700Y893376D03*
D16*
X1119700Y1026376D03*
X1191700Y1006376D03*
D17*
X1119700Y930376D03*
X1162700Y893376D03*
D20*
X1259355Y528504D03*
X1197355Y528504D03*
X1197355Y638504D03*
X1259355Y638504D03*
X1259355Y388804D03*
X1197355Y388804D03*
X1197355Y498804D03*
X1259355Y498804D03*
D21*
X715035Y623396D03*
X715035Y618396D03*
X715035Y613396D03*
X715035Y608396D03*
X715035Y603396D03*
X715035Y598396D03*
X715035Y593396D03*
X715035Y588396D03*
X715035Y583396D03*
X715035Y578396D03*
X715035Y573396D03*
X715035Y568396D03*
X715035Y563396D03*
X715035Y558396D03*
X715035Y553396D03*
X715035Y548396D03*
X715035Y543396D03*
X715035Y538396D03*
X715035Y533396D03*
X715035Y528396D03*
X715035Y523396D03*
X715035Y518396D03*
X715035Y513396D03*
X715035Y508396D03*
X715035Y503396D03*
X560035Y623396D03*
X560035Y618396D03*
X560035Y613396D03*
X560035Y608396D03*
X560035Y603396D03*
X560035Y598396D03*
X560035Y593396D03*
X560035Y588396D03*
X560035Y583396D03*
X560035Y578396D03*
X560035Y573396D03*
X560035Y568396D03*
X560035Y563396D03*
X560035Y558396D03*
X560035Y553396D03*
X560035Y548396D03*
X560035Y543396D03*
X560035Y538396D03*
X560035Y533396D03*
X560035Y528396D03*
X560035Y523396D03*
X560035Y518396D03*
X560035Y513396D03*
X560035Y508396D03*
X560035Y503396D03*
D22*
X577535Y485896D03*
X582535Y485896D03*
X587535Y485896D03*
X592535Y485896D03*
X597535Y485896D03*
X602535Y485896D03*
X607535Y485896D03*
X612535Y485896D03*
X617535Y485896D03*
X622535Y485896D03*
X627535Y485896D03*
X632535Y485896D03*
X637535Y485896D03*
X642535Y485896D03*
X647535Y485896D03*
X652535Y485896D03*
X657535Y485896D03*
X662535Y485896D03*
X667535Y485896D03*
X672535Y485896D03*
X677535Y485896D03*
X682535Y485896D03*
X687535Y485896D03*
X692535Y485896D03*
X697535Y485896D03*
X697535Y640896D03*
X692535Y640896D03*
X687535Y640896D03*
X682535Y640896D03*
X677535Y640896D03*
X672535Y640896D03*
X667535Y640896D03*
X662535Y640896D03*
X657535Y640896D03*
X652535Y640896D03*
X647535Y640896D03*
X642535Y640896D03*
X637535Y640896D03*
X632535Y640896D03*
X627535Y640896D03*
X622535Y640896D03*
X617535Y640896D03*
X612535Y640896D03*
X607535Y640896D03*
X602535Y640896D03*
X597535Y640896D03*
X592535Y640896D03*
X587535Y640896D03*
X582535Y640896D03*
X577535Y640896D03*
D14*
X1133679Y528200D03*
X1150679Y528200D03*
X1131453Y431546D03*
X1148453Y431546D03*
X1117806Y528482D03*
X1100806Y528482D03*
X1116031Y431299D03*
X1099031Y431299D03*
X1081989Y545856D03*
X1081989Y528856D03*
X1081033Y448484D03*
X1081033Y431484D03*
D15*
X1125160Y561099D03*
X1125160Y578099D03*
X1123773Y465058D03*
X1123773Y482058D03*
X573285Y884601D03*
X573285Y901601D03*
X541960Y849410D03*
X541960Y832410D03*
X513376Y831922D03*
X496376Y831922D03*
X700689Y884449D03*
X700689Y901449D03*
X679191Y848624D03*
X679191Y831624D03*
X651016Y826363D03*
X634016Y826363D03*
X827850Y883710D03*
X827850Y900710D03*
X799999Y852609D03*
X799999Y835609D03*
X756920Y833742D03*
X739920Y833742D03*
X955644Y884488D03*
X955644Y901488D03*
X925003Y852826D03*
X925003Y835826D03*
X881451Y837264D03*
X898451Y837264D03*
X1080724Y884576D03*
X1080724Y901576D03*
X1043750Y850084D03*
X1043750Y833084D03*
X988933Y833740D03*
X1005933Y833740D03*
X1206740Y885061D03*
X1206740Y902061D03*
X1177696Y854088D03*
X1177696Y837088D03*
X1124458Y833310D03*
X1141458Y833310D03*
D23*
X494414Y621791D03*
X439414Y621791D03*
X439414Y589791D03*
X494414Y589791D03*
D24*
X938578Y289170D03*
X938578Y269170D03*
X938578Y249170D03*
X938578Y229170D03*
X938578Y209170D03*
X938578Y189170D03*
X938578Y169170D03*
X1098578Y169170D03*
X1098578Y189170D03*
X1098578Y209170D03*
X1098578Y229170D03*
X1098578Y249170D03*
X1098578Y269170D03*
X1098578Y289170D03*
D25*
X1240930Y260143D03*
X1240930Y253643D03*
X1240930Y247143D03*
X1240930Y240643D03*
X1240930Y234143D03*
D15*
X723596Y384907D03*
X723596Y401907D03*
D19*
X16170Y927100D03*
X37170Y927100D03*
D15*
X699466Y401907D03*
X699466Y384907D03*
D19*
X16170Y966470D03*
X37170Y966470D03*
D26*
X291899Y757173D03*
X236019Y757173D03*
X291899Y731773D03*
X236019Y731773D03*
X291899Y706373D03*
X236019Y706373D03*
X291899Y680973D03*
X236019Y680973D03*
X291899Y655573D03*
X236019Y655573D03*
X291899Y630173D03*
X236019Y630173D03*
X291899Y604773D03*
X236019Y604773D03*
X291899Y579373D03*
X236019Y579373D03*
X291899Y553973D03*
X236019Y553973D03*
X291899Y528573D03*
X236019Y528573D03*
X291899Y503173D03*
X236019Y503173D03*
X291899Y477773D03*
X236019Y477773D03*
X291899Y452373D03*
X236019Y452373D03*
X291899Y426973D03*
X236019Y426973D03*
X291899Y401573D03*
X236019Y401573D03*
X291899Y376173D03*
X236019Y376173D03*
X291899Y350773D03*
X236019Y350773D03*
X291899Y325373D03*
X236019Y325373D03*
X291899Y299973D03*
X236019Y299973D03*
X291899Y274573D03*
X236019Y274573D03*
D27*
X495046Y443738D03*
X495046Y434340D03*
X495046Y424942D03*
X520954Y424942D03*
X520954Y434340D03*
X520954Y443738D03*
D14*
X1139650Y178078D03*
X1139650Y161078D03*
D15*
X870324Y233073D03*
X870324Y216073D03*
D14*
X867110Y177740D03*
X850110Y177740D03*
X884179Y264649D03*
X867179Y264649D03*
D15*
X887528Y191217D03*
X887528Y174217D03*
D14*
X886588Y296607D03*
X903588Y296607D03*
X819387Y178061D03*
X836387Y178061D03*
X764531Y277207D03*
X747531Y277207D03*
X764458Y300559D03*
X747458Y300559D03*
D28*
X96905Y889835D03*
X96905Y799919D03*
X230367Y888319D03*
X230367Y798403D03*
X356870Y888238D03*
X356870Y798322D03*
M02*
